{
	"asset":{
		"generator":"Khronos glTF Blender I/O v4.1.63",
		"version":"2.0"
	},
	"extensionsUsed":[
		"KHR_materials_emissive_strength"
	],
	"scene":0,
	"scenes":[
		{
			"name":"Scene",
			"nodes":[
				0,
				1
			]
		}
	],
	"nodes":[
		{
			"mesh":0,
			"name":"Icosphere",
			"rotation":[
				0,
				1,
				0,
				7.549790126404332e-08
			]
		},
		{
			"mesh":1,
			"name":"Cylinder",
			"rotation":[
				-0.05580184608697891,
				0.009839371778070927,
				0.1733691692352295,
				0.9832255840301514
			],
			"translation":[
				-0.46826988458633423,
				0.7410647869110107,
				0
			]
		}
	],
	"materials":[
		{
			"name":"Black",
			"pbrMetallicRoughness":{
				"baseColorFactor":[
					0,
					0,
					0,
					1
				],
				"metallicFactor":0
			}
		},
		{
			"emissiveFactor":[
				1,
				1,
				1
			],
			"extensions":{
				"KHR_materials_emissive_strength":{
					"emissiveStrength":1.600001335144043
				}
			},
			"name":"White",
			"pbrMetallicRoughness":{
				"baseColorFactor":[
					0.800000011920929,
					0.800000011920929,
					0.800000011920929,
					1
				],
				"metallicFactor":0
			}
		}
	],
	"meshes":[
		{
			"name":"Icosphere",
			"primitives":[
				{
					"attributes":{
						"POSITION":0,
						"NORMAL":1,
						"TEXCOORD_0":2,
						"TANGENT":3
					},
					"indices":4,
					"material":0
				},
				{
					"attributes":{
						"POSITION":5,
						"NORMAL":6,
						"TEXCOORD_0":7,
						"TANGENT":8
					},
					"indices":9,
					"material":1
				}
			]
		},
		{
			"name":"Cylinder",
			"primitives":[
				{
					"attributes":{
						"POSITION":10,
						"NORMAL":11,
						"TEXCOORD_0":12
					},
					"indices":13,
					"material":0
				},
				{
					"attributes":{
						"POSITION":14,
						"NORMAL":15,
						"TEXCOORD_0":16
					},
					"indices":17,
					"material":1
				}
			]
		}
	],
	"accessors":[
		{
			"bufferView":0,
			"componentType":5126,
			"count":38,
			"max":[
				0.7168342471122742,
				0.5077092051506042,
				0.4381124675273895
			],
			"min":[
				-0.7286515831947327,
				-0.46835267543792725,
				-0.4489991068840027
			],
			"type":"VEC3"
		},
		{
			"bufferView":1,
			"componentType":5126,
			"count":38,
			"type":"VEC3"
		},
		{
			"bufferView":2,
			"componentType":5126,
			"count":38,
			"type":"VEC2"
		},
		{
			"bufferView":3,
			"componentType":5126,
			"count":38,
			"type":"VEC4"
		},
		{
			"bufferView":4,
			"componentType":5123,
			"count":120,
			"type":"SCALAR"
		},
		{
			"bufferView":5,
			"componentType":5126,
			"count":38,
			"max":[
				0.7917857766151428,
				0.5077092051506042,
				0.4381124675273895
			],
			"min":[
				-0.7982487082481384,
				-0.46835267543792725,
				-0.4489991068840027
			],
			"type":"VEC3"
		},
		{
			"bufferView":6,
			"componentType":5126,
			"count":38,
			"type":"VEC3"
		},
		{
			"bufferView":7,
			"componentType":5126,
			"count":38,
			"type":"VEC2"
		},
		{
			"bufferView":8,
			"componentType":5126,
			"count":38,
			"type":"VEC4"
		},
		{
			"bufferView":9,
			"componentType":5123,
			"count":120,
			"type":"SCALAR"
		},
		{
			"bufferView":10,
			"componentType":5126,
			"count":107,
			"max":[
				0.2523253858089447,
				0.2980673313140869,
				0.2519095540046692
			],
			"min":[
				-0.2510787546634674,
				-0.23111368715763092,
				-0.25149452686309814
			],
			"type":"VEC3"
		},
		{
			"bufferView":11,
			"componentType":5126,
			"count":107,
			"type":"VEC3"
		},
		{
			"bufferView":12,
			"componentType":5126,
			"count":107,
			"type":"VEC2"
		},
		{
			"bufferView":13,
			"componentType":5123,
			"count":378,
			"type":"SCALAR"
		},
		{
			"bufferView":14,
			"componentType":5126,
			"count":131,
			"max":[
				0.2779791057109833,
				0.3280673027038574,
				0.27756327390670776
			],
			"min":[
				-0.276732474565506,
				-0.25607743859291077,
				-0.2771482467651367
			],
			"type":"VEC3"
		},
		{
			"bufferView":15,
			"componentType":5126,
			"count":131,
			"type":"VEC3"
		},
		{
			"bufferView":16,
			"componentType":5126,
			"count":131,
			"type":"VEC2"
		},
		{
			"bufferView":17,
			"componentType":5123,
			"count":474,
			"type":"SCALAR"
		}
	],
	"bufferViews":[
		{
			"buffer":0,
			"byteLength":456,
			"byteOffset":0,
			"target":34962
		},
		{
			"buffer":0,
			"byteLength":456,
			"byteOffset":456,
			"target":34962
		},
		{
			"buffer":0,
			"byteLength":304,
			"byteOffset":912,
			"target":34962
		},
		{
			"buffer":0,
			"byteLength":608,
			"byteOffset":1216,
			"target":34962
		},
		{
			"buffer":0,
			"byteLength":240,
			"byteOffset":1824,
			"target":34963
		},
		{
			"buffer":0,
			"byteLength":456,
			"byteOffset":2064,
			"target":34962
		},
		{
			"buffer":0,
			"byteLength":456,
			"byteOffset":2520,
			"target":34962
		},
		{
			"buffer":0,
			"byteLength":304,
			"byteOffset":2976,
			"target":34962
		},
		{
			"buffer":0,
			"byteLength":608,
			"byteOffset":3280,
			"target":34962
		},
		{
			"buffer":0,
			"byteLength":240,
			"byteOffset":3888,
			"target":34963
		},
		{
			"buffer":0,
			"byteLength":1284,
			"byteOffset":4128,
			"target":34962
		},
		{
			"buffer":0,
			"byteLength":1284,
			"byteOffset":5412,
			"target":34962
		},
		{
			"buffer":0,
			"byteLength":856,
			"byteOffset":6696,
			"target":34962
		},
		{
			"buffer":0,
			"byteLength":756,
			"byteOffset":7552,
			"target":34963
		},
		{
			"buffer":0,
			"byteLength":1572,
			"byteOffset":8308,
			"target":34962
		},
		{
			"buffer":0,
			"byteLength":1572,
			"byteOffset":9880,
			"target":34962
		},
		{
			"buffer":0,
			"byteLength":1048,
			"byteOffset":11452,
			"target":34962
		},
		{
			"buffer":0,
			"byteLength":948,
			"byteOffset":12500,
			"target":34963
		}
	],
	"buffers":[
		{
			"byteLength":13448,
			"uri":"a-os-a267be520866c6aa086337d753adad62.bin"
		}
	]
}
