{
	"asset":{
		"generator":"Khronos glTF Blender I/O v4.1.63",
		"version":"2.0"
	},
	"extensionsUsed":[
		"KHR_materials_emissive_strength",
		"KHR_lights_punctual"
	],
	"extensionsRequired":[
		"KHR_lights_punctual"
	],
	"extensions":{
		"KHR_lights_punctual":{
			"lights":[
				{
					"color":[
						0,
						0,
						0
					],
					"intensity":0,
					"type":"point",
					"name":"Point"
				}
			]
		}
	},
	"scene":0,
	"scenes":[
		{
			"name":"Scene",
			"nodes":[
				0,
				3,
				4
			]
		}
	],
	"nodes":[
		{
			"mesh":0,
			"name":"Cube-noimp",
			"rotation":[
				0.5396868586540222,
				0.7046782374382019,
				0.05855421721935272,
				0.4568786323070526
			]
		},
		{
			"name":"Bone",
			"translation":[
				0,
				-0.25,
				0
			]
		},
		{
			"mesh":1,
			"name":"Icosphere",
			"skin":0
		},
		{
			"children":[
				2,
				1
			],
			"name":"A-OS"
		},
		{
			"extensions":{
				"KHR_lights_punctual":{
					"light":0
				}
			},
			"name":"Point -noimp",
			"rotation":[
				-0.7071068286895752,
				0,
				0,
				0.7071068286895752
			],
			"translation":[
				0,
				0,
				10
			]
		}
	],
	"animations":[
		{
			"channels":[
				{
					"sampler":0,
					"target":{
						"node":1,
						"path":"translation"
					}
				},
				{
					"sampler":1,
					"target":{
						"node":1,
						"path":"rotation"
					}
				},
				{
					"sampler":2,
					"target":{
						"node":1,
						"path":"scale"
					}
				}
			],
			"name":"idle-loop",
			"samplers":[
				{
					"input":25,
					"interpolation":"LINEAR",
					"output":26
				},
				{
					"input":25,
					"interpolation":"LINEAR",
					"output":27
				},
				{
					"input":28,
					"interpolation":"STEP",
					"output":29
				}
			]
		}
	],
	"materials":[
		{
			"name":"Black",
			"pbrMetallicRoughness":{
				"baseColorFactor":[
					0,
					0,
					0,
					1
				],
				"metallicFactor":0
			}
		},
		{
			"emissiveFactor":[
				1,
				1,
				1
			],
			"extensions":{
				"KHR_materials_emissive_strength":{
					"emissiveStrength":1.600001335144043
				}
			},
			"name":"White",
			"pbrMetallicRoughness":{
				"baseColorFactor":[
					0.800000011920929,
					0.800000011920929,
					0.800000011920929,
					1
				],
				"metallicFactor":0
			}
		}
	],
	"meshes":[
		{
			"name":"Cube",
			"primitives":[
				{
					"attributes":{
						"POSITION":0,
						"NORMAL":1,
						"TEXCOORD_0":2,
						"TANGENT":3
					},
					"indices":4,
					"material":0
				},
				{
					"attributes":{
						"POSITION":5,
						"NORMAL":6,
						"TEXCOORD_0":7,
						"TANGENT":8
					},
					"indices":9,
					"material":1
				}
			]
		},
		{
			"name":"Icosphere",
			"primitives":[
				{
					"attributes":{
						"POSITION":10,
						"NORMAL":11,
						"TEXCOORD_0":12,
						"TANGENT":13,
						"JOINTS_0":14,
						"WEIGHTS_0":15
					},
					"indices":16,
					"material":0
				},
				{
					"attributes":{
						"POSITION":17,
						"NORMAL":18,
						"TEXCOORD_0":19,
						"TANGENT":20,
						"JOINTS_0":21,
						"WEIGHTS_0":22
					},
					"indices":23,
					"material":1
				}
			]
		}
	],
	"skins":[
		{
			"inverseBindMatrices":24,
			"joints":[
				1
			],
			"name":"A-OS"
		}
	],
	"accessors":[
		{
			"bufferView":0,
			"componentType":5126,
			"count":14,
			"max":[
				0.5,
				0.5,
				0.5
			],
			"min":[
				-0.5,
				-0.5,
				-0.5
			],
			"type":"VEC3"
		},
		{
			"bufferView":1,
			"componentType":5126,
			"count":14,
			"type":"VEC3"
		},
		{
			"bufferView":2,
			"componentType":5126,
			"count":14,
			"type":"VEC2"
		},
		{
			"bufferView":3,
			"componentType":5126,
			"count":14,
			"type":"VEC4"
		},
		{
			"bufferView":4,
			"componentType":5123,
			"count":36,
			"type":"SCALAR"
		},
		{
			"bufferView":5,
			"componentType":5126,
			"count":14,
			"max":[
				0.550000011920929,
				0.550000011920929,
				0.550000011920929
			],
			"min":[
				-0.550000011920929,
				-0.550000011920929,
				-0.550000011920929
			],
			"type":"VEC3"
		},
		{
			"bufferView":6,
			"componentType":5126,
			"count":14,
			"type":"VEC3"
		},
		{
			"bufferView":7,
			"componentType":5126,
			"count":14,
			"type":"VEC2"
		},
		{
			"bufferView":8,
			"componentType":5126,
			"count":14,
			"type":"VEC4"
		},
		{
			"bufferView":9,
			"componentType":5123,
			"count":36,
			"type":"SCALAR"
		},
		{
			"bufferView":10,
			"componentType":5126,
			"count":22,
			"max":[
				0.8111299276351929,
				0.9068731069564819,
				0.7714225649833679
			],
			"min":[
				-0.8111299276351929,
				-0.9068731069564819,
				-0.7714225649833679
			],
			"type":"VEC3"
		},
		{
			"bufferView":11,
			"componentType":5126,
			"count":22,
			"type":"VEC3"
		},
		{
			"bufferView":12,
			"componentType":5126,
			"count":22,
			"type":"VEC2"
		},
		{
			"bufferView":13,
			"componentType":5126,
			"count":22,
			"type":"VEC4"
		},
		{
			"bufferView":14,
			"componentType":5121,
			"count":22,
			"type":"VEC4"
		},
		{
			"bufferView":15,
			"componentType":5126,
			"count":22,
			"type":"VEC4"
		},
		{
			"bufferView":16,
			"componentType":5123,
			"count":60,
			"type":"SCALAR"
		},
		{
			"bufferView":17,
			"componentType":5126,
			"count":22,
			"max":[
				0.8558513522148132,
				0.9568731188774109,
				0.8139552474021912
			],
			"min":[
				-0.8558513522148132,
				-0.9568731188774109,
				-0.8139552474021912
			],
			"type":"VEC3"
		},
		{
			"bufferView":18,
			"componentType":5126,
			"count":22,
			"type":"VEC3"
		},
		{
			"bufferView":19,
			"componentType":5126,
			"count":22,
			"type":"VEC2"
		},
		{
			"bufferView":20,
			"componentType":5126,
			"count":22,
			"type":"VEC4"
		},
		{
			"bufferView":21,
			"componentType":5121,
			"count":22,
			"type":"VEC4"
		},
		{
			"bufferView":22,
			"componentType":5126,
			"count":22,
			"type":"VEC4"
		},
		{
			"bufferView":23,
			"componentType":5123,
			"count":60,
			"type":"SCALAR"
		},
		{
			"bufferView":24,
			"componentType":5126,
			"count":1,
			"type":"MAT4"
		},
		{
			"bufferView":25,
			"componentType":5126,
			"count":250,
			"max":[
				10.416666666666666
			],
			"min":[
				0.041666666666666664
			],
			"type":"SCALAR"
		},
		{
			"bufferView":26,
			"componentType":5126,
			"count":250,
			"type":"VEC3"
		},
		{
			"bufferView":27,
			"componentType":5126,
			"count":250,
			"type":"VEC4"
		},
		{
			"bufferView":28,
			"componentType":5126,
			"count":2,
			"max":[
				10.416666666666666
			],
			"min":[
				0.041666666666666664
			],
			"type":"SCALAR"
		},
		{
			"bufferView":29,
			"componentType":5126,
			"count":2,
			"type":"VEC3"
		}
	],
	"bufferViews":[
		{
			"buffer":0,
			"byteLength":168,
			"byteOffset":0,
			"target":34962
		},
		{
			"buffer":0,
			"byteLength":168,
			"byteOffset":168,
			"target":34962
		},
		{
			"buffer":0,
			"byteLength":112,
			"byteOffset":336,
			"target":34962
		},
		{
			"buffer":0,
			"byteLength":224,
			"byteOffset":448,
			"target":34962
		},
		{
			"buffer":0,
			"byteLength":72,
			"byteOffset":672,
			"target":34963
		},
		{
			"buffer":0,
			"byteLength":168,
			"byteOffset":744,
			"target":34962
		},
		{
			"buffer":0,
			"byteLength":168,
			"byteOffset":912,
			"target":34962
		},
		{
			"buffer":0,
			"byteLength":112,
			"byteOffset":1080,
			"target":34962
		},
		{
			"buffer":0,
			"byteLength":224,
			"byteOffset":1192,
			"target":34962
		},
		{
			"buffer":0,
			"byteLength":72,
			"byteOffset":1416,
			"target":34963
		},
		{
			"buffer":0,
			"byteLength":264,
			"byteOffset":1488,
			"target":34962
		},
		{
			"buffer":0,
			"byteLength":264,
			"byteOffset":1752,
			"target":34962
		},
		{
			"buffer":0,
			"byteLength":176,
			"byteOffset":2016,
			"target":34962
		},
		{
			"buffer":0,
			"byteLength":352,
			"byteOffset":2192,
			"target":34962
		},
		{
			"buffer":0,
			"byteLength":88,
			"byteOffset":2544,
			"target":34962
		},
		{
			"buffer":0,
			"byteLength":352,
			"byteOffset":2632,
			"target":34962
		},
		{
			"buffer":0,
			"byteLength":120,
			"byteOffset":2984,
			"target":34963
		},
		{
			"buffer":0,
			"byteLength":264,
			"byteOffset":3104,
			"target":34962
		},
		{
			"buffer":0,
			"byteLength":264,
			"byteOffset":3368,
			"target":34962
		},
		{
			"buffer":0,
			"byteLength":176,
			"byteOffset":3632,
			"target":34962
		},
		{
			"buffer":0,
			"byteLength":352,
			"byteOffset":3808,
			"target":34962
		},
		{
			"buffer":0,
			"byteLength":88,
			"byteOffset":4160,
			"target":34962
		},
		{
			"buffer":0,
			"byteLength":352,
			"byteOffset":4248,
			"target":34962
		},
		{
			"buffer":0,
			"byteLength":120,
			"byteOffset":4600,
			"target":34963
		},
		{
			"buffer":0,
			"byteLength":64,
			"byteOffset":4720
		},
		{
			"buffer":0,
			"byteLength":1000,
			"byteOffset":4784
		},
		{
			"buffer":0,
			"byteLength":3000,
			"byteOffset":5784
		},
		{
			"buffer":0,
			"byteLength":4000,
			"byteOffset":8784
		},
		{
			"buffer":0,
			"byteLength":8,
			"byteOffset":12784
		},
		{
			"buffer":0,
			"byteLength":24,
			"byteOffset":12792
		}
	],
	"buffers":[
		{
			"byteLength":12816,
			"uri":"a-os-a267be520866c6aa086337d753adad62.bin"
		}
	]
}
