{
	"asset":{
		"generator":"Khronos glTF Blender I/O v4.1.63",
		"version":"2.0"
	},
	"scene":0,
	"scenes":[
		{
			"name":"Scene",
			"nodes":[
				0
			]
		}
	],
	"nodes":[
		{
			"mesh":0,
			"name":"Barrel",
			"translation":[
				0,
				1,
				0
			]
		}
	],
	"materials":[
		{
			"doubleSided":true,
			"name":"Metal",
			"pbrMetallicRoughness":{
				"baseColorFactor":[
					0.8002997636795044,
					0.002114522038027644,
					0,
					1
				],
				"metallicFactor":0.5,
				"roughnessFactor":0.30000001192092896
			}
		},
		{
			"doubleSided":true,
			"name":"Metal2",
			"pbrMetallicRoughness":{
				"baseColorFactor":[
					0,
					0,
					0,
					1
				],
				"metallicFactor":0.22047244012355804,
				"roughnessFactor":0.5
			}
		}
	],
	"meshes":[
		{
			"name":"Cylinder",
			"primitives":[
				{
					"attributes":{
						"POSITION":0,
						"NORMAL":1,
						"TEXCOORD_0":2
					},
					"indices":3,
					"material":0
				},
				{
					"attributes":{
						"POSITION":4,
						"NORMAL":5,
						"TEXCOORD_0":6
					},
					"indices":7,
					"material":1
				}
			]
		}
	],
	"accessors":[
		{
			"bufferView":0,
			"componentType":5126,
			"count":1464,
			"max":[
				1.0544638633728027,
				2,
				1.0544638633728027
			],
			"min":[
				-1.0544638633728027,
				-1,
				-1.0544638633728027
			],
			"type":"VEC3"
		},
		{
			"bufferView":1,
			"componentType":5126,
			"count":1464,
			"type":"VEC3"
		},
		{
			"bufferView":2,
			"componentType":5126,
			"count":1464,
			"type":"VEC2"
		},
		{
			"bufferView":3,
			"componentType":5123,
			"count":3120,
			"type":"SCALAR"
		},
		{
			"bufferView":4,
			"componentType":5126,
			"count":520,
			"max":[
				1.022517204284668,
				1.960706353187561,
				1.022517204284668
			],
			"min":[
				-1.022517204284668,
				-0.960706353187561,
				-1.022517204284668
			],
			"type":"VEC3"
		},
		{
			"bufferView":5,
			"componentType":5126,
			"count":520,
			"type":"VEC3"
		},
		{
			"bufferView":6,
			"componentType":5126,
			"count":520,
			"type":"VEC2"
		},
		{
			"bufferView":7,
			"componentType":5123,
			"count":828,
			"type":"SCALAR"
		}
	],
	"bufferViews":[
		{
			"buffer":0,
			"byteLength":17568,
			"byteOffset":0,
			"target":34962
		},
		{
			"buffer":0,
			"byteLength":17568,
			"byteOffset":17568,
			"target":34962
		},
		{
			"buffer":0,
			"byteLength":11712,
			"byteOffset":35136,
			"target":34962
		},
		{
			"buffer":0,
			"byteLength":6240,
			"byteOffset":46848,
			"target":34963
		},
		{
			"buffer":0,
			"byteLength":6240,
			"byteOffset":53088,
			"target":34962
		},
		{
			"buffer":0,
			"byteLength":6240,
			"byteOffset":59328,
			"target":34962
		},
		{
			"buffer":0,
			"byteLength":4160,
			"byteOffset":65568,
			"target":34962
		},
		{
			"buffer":0,
			"byteLength":1656,
			"byteOffset":69728,
			"target":34963
		}
	],
	"buffers":[
		{
			"byteLength":71384,
			"uri":"barrel-6108c37f969430a9deb16dcda86e8755.bin"
		}
	]
}
