{
	"asset":{
		"generator":"Khronos glTF Blender I/O v4.1.63",
		"version":"2.0"
	},
	"scene":0,
	"scenes":[
		{
			"name":"Scene",
			"nodes":[
				0,
				1,
				2,
				3
			]
		}
	],
	"nodes":[
		{
			"mesh":0,
			"name":"Cube",
			"translation":[
				0.8236711621284485,
				0.8579745292663574,
				0
			]
		},
		{
			"mesh":1,
			"name":"Cube.001",
			"rotation":[
				0,
				0,
				-0.5937731266021729,
				0.8046325445175171
			],
			"translation":[
				-0.8326117992401123,
				1.1276419162750244,
				0
			]
		},
		{
			"mesh":2,
			"name":"Cube.002",
			"translation":[
				0,
				0,
				0.9034193158149719
			]
		},
		{
			"mesh":2,
			"name":"Cube.003",
			"translation":[
				0,
				0,
				-2.5953104496002197
			]
		}
	],
	"meshes":[
		{
			"name":"Cube.003",
			"primitives":[
				{
					"attributes":{
						"POSITION":0,
						"NORMAL":1,
						"TEXCOORD_0":2,
						"TANGENT":3
					},
					"indices":4
				}
			]
		},
		{
			"name":"Cube.004",
			"primitives":[
				{
					"attributes":{
						"POSITION":5,
						"NORMAL":6,
						"TEXCOORD_0":7,
						"TANGENT":8
					},
					"indices":4
				}
			]
		},
		{
			"name":"Cube.005",
			"primitives":[
				{
					"attributes":{
						"POSITION":9,
						"NORMAL":10,
						"TEXCOORD_0":11,
						"TANGENT":12
					},
					"indices":13
				}
			]
		}
	],
	"accessors":[
		{
			"bufferView":0,
			"componentType":5126,
			"count":96,
			"max":[
				0.1763288378715515,
				0.06579709053039551,
				2
			],
			"min":[
				-1.4458966255187988,
				-0.06579697132110596,
				-2
			],
			"type":"VEC3"
		},
		{
			"bufferView":1,
			"componentType":5126,
			"count":96,
			"type":"VEC3"
		},
		{
			"bufferView":2,
			"componentType":5126,
			"count":96,
			"type":"VEC2"
		},
		{
			"bufferView":3,
			"componentType":5126,
			"count":96,
			"type":"VEC4"
		},
		{
			"bufferView":4,
			"componentType":5123,
			"count":144,
			"type":"SCALAR"
		},
		{
			"bufferView":5,
			"componentType":5126,
			"count":96,
			"max":[
				0.1763288378715515,
				0.06579709053039551,
				2
			],
			"min":[
				-1.4458966255187988,
				-0.06579697132110596,
				-2
			],
			"type":"VEC3"
		},
		{
			"bufferView":6,
			"componentType":5126,
			"count":96,
			"type":"VEC3"
		},
		{
			"bufferView":7,
			"componentType":5126,
			"count":96,
			"type":"VEC2"
		},
		{
			"bufferView":8,
			"componentType":5126,
			"count":96,
			"type":"VEC4"
		},
		{
			"bufferView":9,
			"componentType":5126,
			"count":102,
			"max":[
				1,
				2.390254497528076,
				1
			],
			"min":[
				-1.4003115892410278,
				-0.3862724304199219,
				0.6851199865341187
			],
			"type":"VEC3"
		},
		{
			"bufferView":10,
			"componentType":5126,
			"count":102,
			"type":"VEC3"
		},
		{
			"bufferView":11,
			"componentType":5126,
			"count":102,
			"type":"VEC2"
		},
		{
			"bufferView":12,
			"componentType":5126,
			"count":102,
			"type":"VEC4"
		},
		{
			"bufferView":13,
			"componentType":5123,
			"count":216,
			"type":"SCALAR"
		}
	],
	"bufferViews":[
		{
			"buffer":0,
			"byteLength":1152,
			"byteOffset":0,
			"target":34962
		},
		{
			"buffer":0,
			"byteLength":1152,
			"byteOffset":1152,
			"target":34962
		},
		{
			"buffer":0,
			"byteLength":768,
			"byteOffset":2304,
			"target":34962
		},
		{
			"buffer":0,
			"byteLength":1536,
			"byteOffset":3072,
			"target":34962
		},
		{
			"buffer":0,
			"byteLength":288,
			"byteOffset":4608,
			"target":34963
		},
		{
			"buffer":0,
			"byteLength":1152,
			"byteOffset":4896,
			"target":34962
		},
		{
			"buffer":0,
			"byteLength":1152,
			"byteOffset":6048,
			"target":34962
		},
		{
			"buffer":0,
			"byteLength":768,
			"byteOffset":7200,
			"target":34962
		},
		{
			"buffer":0,
			"byteLength":1536,
			"byteOffset":7968,
			"target":34962
		},
		{
			"buffer":0,
			"byteLength":1224,
			"byteOffset":9504,
			"target":34962
		},
		{
			"buffer":0,
			"byteLength":1224,
			"byteOffset":10728,
			"target":34962
		},
		{
			"buffer":0,
			"byteLength":816,
			"byteOffset":11952,
			"target":34962
		},
		{
			"buffer":0,
			"byteLength":1632,
			"byteOffset":12768,
			"target":34962
		},
		{
			"buffer":0,
			"byteLength":432,
			"byteOffset":14400,
			"target":34963
		}
	],
	"buffers":[
		{
			"byteLength":14832,
			"uri":"bench-153e0420ad98f8c0dee0c1283b70dafd.bin"
		}
	]
}
