{
	"asset":{
		"generator":"Khronos glTF Blender I/O v4.1.63",
		"version":"2.0"
	},
	"scene":0,
	"scenes":[
		{
			"name":"Scene",
			"nodes":[
				0
			]
		}
	],
	"nodes":[
		{
			"mesh":0,
			"name":"Bench -rigid"
		}
	],
	"materials":[
		{
			"doubleSided":true,
			"name":"Wood",
			"pbrMetallicRoughness":{
				"baseColorFactor":[
					0.8002511262893677,
					0.3764408826828003,
					0.09830507636070251,
					1
				],
				"metallicFactor":0,
				"roughnessFactor":0.5
			}
		},
		{
			"doubleSided":true,
			"name":"Metal",
			"pbrMetallicRoughness":{
				"baseColorFactor":[
					0.16516083478927612,
					0.16516083478927612,
					0.16516083478927612,
					1
				],
				"metallicFactor":0,
				"roughnessFactor":0.5
			}
		}
	],
	"meshes":[
		{
			"name":"Cube.003",
			"primitives":[
				{
					"attributes":{
						"POSITION":0,
						"NORMAL":1,
						"TEXCOORD_0":2,
						"TANGENT":3
					},
					"indices":4,
					"material":0
				},
				{
					"attributes":{
						"POSITION":5,
						"NORMAL":6,
						"TEXCOORD_0":7,
						"TANGENT":8
					},
					"indices":9,
					"material":1
				}
			]
		}
	],
	"accessors":[
		{
			"bufferView":0,
			"componentType":5126,
			"count":192,
			"max":[
				1.2542846202850342,
				1.6852731704711914,
				2.0017924308776855
			],
			"min":[
				-1.0675458908081055,
				-0.051202304661273956,
				-1.998207688331604
			],
			"type":"VEC3"
		},
		{
			"bufferView":1,
			"componentType":5126,
			"count":192,
			"type":"VEC3"
		},
		{
			"bufferView":2,
			"componentType":5126,
			"count":192,
			"type":"VEC2"
		},
		{
			"bufferView":3,
			"componentType":5126,
			"count":192,
			"type":"VEC4"
		},
		{
			"bufferView":4,
			"componentType":5123,
			"count":288,
			"type":"SCALAR"
		},
		{
			"bufferView":5,
			"componentType":5126,
			"count":188,
			"max":[
				1.2542846202850342,
				1.5468746423721313,
				1.9052115678787231
			],
			"min":[
				-1.1460270881652832,
				-1.2296522855758667,
				-1.908398151397705
			],
			"type":"VEC3"
		},
		{
			"bufferView":6,
			"componentType":5126,
			"count":188,
			"type":"VEC3"
		},
		{
			"bufferView":7,
			"componentType":5126,
			"count":188,
			"type":"VEC2"
		},
		{
			"bufferView":8,
			"componentType":5126,
			"count":188,
			"type":"VEC4"
		},
		{
			"bufferView":9,
			"componentType":5123,
			"count":432,
			"type":"SCALAR"
		}
	],
	"bufferViews":[
		{
			"buffer":0,
			"byteLength":2304,
			"byteOffset":0,
			"target":34962
		},
		{
			"buffer":0,
			"byteLength":2304,
			"byteOffset":2304,
			"target":34962
		},
		{
			"buffer":0,
			"byteLength":1536,
			"byteOffset":4608,
			"target":34962
		},
		{
			"buffer":0,
			"byteLength":3072,
			"byteOffset":6144,
			"target":34962
		},
		{
			"buffer":0,
			"byteLength":576,
			"byteOffset":9216,
			"target":34963
		},
		{
			"buffer":0,
			"byteLength":2256,
			"byteOffset":9792,
			"target":34962
		},
		{
			"buffer":0,
			"byteLength":2256,
			"byteOffset":12048,
			"target":34962
		},
		{
			"buffer":0,
			"byteLength":1504,
			"byteOffset":14304,
			"target":34962
		},
		{
			"buffer":0,
			"byteLength":3008,
			"byteOffset":15808,
			"target":34962
		},
		{
			"buffer":0,
			"byteLength":864,
			"byteOffset":18816,
			"target":34963
		}
	],
	"buffers":[
		{
			"byteLength":19680,
			"uri":"bench-d0a5f5435c6cf67525f6bde67e129d70.bin"
		}
	]
}
