{
	"asset":{
		"generator":"Khronos glTF Blender I/O v4.1.63",
		"version":"2.0"
	},
	"scene":0,
	"scenes":[
		{
			"name":"Scene",
			"nodes":[
				0
			]
		}
	],
	"nodes":[
		{
			"mesh":0,
			"name":"Bench -rigid",
			"translation":[
				0.8236711621284485,
				0.8579745292663574,
				0
			]
		}
	],
	"materials":[
		{
			"doubleSided":true,
			"name":"Wood",
			"pbrMetallicRoughness":{
				"baseColorFactor":[
					0.8002511262893677,
					0.3764408826828003,
					0.09830507636070251,
					1
				],
				"metallicFactor":0,
				"roughnessFactor":0.5
			}
		},
		{
			"doubleSided":true,
			"name":"Metal",
			"pbrMetallicRoughness":{
				"baseColorFactor":[
					0.16516083478927612,
					0.16516083478927612,
					0.16516083478927612,
					1
				],
				"metallicFactor":0,
				"roughnessFactor":0.5
			}
		}
	],
	"meshes":[
		{
			"name":"Cube.003",
			"primitives":[
				{
					"attributes":{
						"POSITION":0,
						"NORMAL":1,
						"TEXCOORD_0":2,
						"TANGENT":3
					},
					"indices":4,
					"material":0
				},
				{
					"attributes":{
						"POSITION":5,
						"NORMAL":6,
						"TEXCOORD_0":7,
						"TANGENT":8
					},
					"indices":9,
					"material":1
				}
			]
		}
	],
	"accessors":[
		{
			"bufferView":0,
			"componentType":5126,
			"count":192,
			"max":[
				0.1763288378715515,
				1.6706784963607788,
				2
			],
			"min":[
				-2.1455016136169434,
				-0.06579697132110596,
				-2
			],
			"type":"VEC3"
		},
		{
			"bufferView":1,
			"componentType":5126,
			"count":192,
			"type":"VEC3"
		},
		{
			"bufferView":2,
			"componentType":5126,
			"count":192,
			"type":"VEC2"
		},
		{
			"bufferView":3,
			"componentType":5126,
			"count":192,
			"type":"VEC4"
		},
		{
			"bufferView":4,
			"componentType":5123,
			"count":288,
			"type":"SCALAR"
		},
		{
			"bufferView":5,
			"componentType":5126,
			"count":204,
			"max":[
				0.1763288378715515,
				1.5322799682617188,
				1.9034192562103271
			],
			"min":[
				-2.223982810974121,
				-1.2442469596862793,
				-1.910190463066101
			],
			"type":"VEC3"
		},
		{
			"bufferView":6,
			"componentType":5126,
			"count":204,
			"type":"VEC3"
		},
		{
			"bufferView":7,
			"componentType":5126,
			"count":204,
			"type":"VEC2"
		},
		{
			"bufferView":8,
			"componentType":5126,
			"count":204,
			"type":"VEC4"
		},
		{
			"bufferView":9,
			"componentType":5123,
			"count":432,
			"type":"SCALAR"
		}
	],
	"bufferViews":[
		{
			"buffer":0,
			"byteLength":2304,
			"byteOffset":0,
			"target":34962
		},
		{
			"buffer":0,
			"byteLength":2304,
			"byteOffset":2304,
			"target":34962
		},
		{
			"buffer":0,
			"byteLength":1536,
			"byteOffset":4608,
			"target":34962
		},
		{
			"buffer":0,
			"byteLength":3072,
			"byteOffset":6144,
			"target":34962
		},
		{
			"buffer":0,
			"byteLength":576,
			"byteOffset":9216,
			"target":34963
		},
		{
			"buffer":0,
			"byteLength":2448,
			"byteOffset":9792,
			"target":34962
		},
		{
			"buffer":0,
			"byteLength":2448,
			"byteOffset":12240,
			"target":34962
		},
		{
			"buffer":0,
			"byteLength":1632,
			"byteOffset":14688,
			"target":34962
		},
		{
			"buffer":0,
			"byteLength":3264,
			"byteOffset":16320,
			"target":34962
		},
		{
			"buffer":0,
			"byteLength":864,
			"byteOffset":19584,
			"target":34963
		}
	],
	"buffers":[
		{
			"byteLength":20448,
			"uri":"bench-153e0420ad98f8c0dee0c1283b70dafd.bin"
		}
	]
}
