{
	"asset":{
		"generator":"Khronos glTF Blender I/O v4.1.63",
		"version":"2.0"
	},
	"scene":0,
	"scenes":[
		{
			"name":"Scene",
			"nodes":[
				0,
				1,
				8
			]
		}
	],
	"nodes":[
		{
			"mesh":0,
			"name":"Mesh-noimp"
		},
		{
			"mesh":1,
			"name":"Mesh-rigid"
		},
		{
			"name":"Head",
			"rotation":[
				0.15037643909454346,
				-7.463948747954419e-08,
				1.774695164158402e-07,
				0.9886288046836853
			],
			"scale":[
				1,
				0.9999999403953552,
				0.9999999403953552
			],
			"translation":[
				0,
				0.5236842632293701,
				0
			]
		},
		{
			"children":[
				2
			],
			"name":"Neck",
			"rotation":[
				-0.1332256942987442,
				3.1502878528044675e-08,
				-1.6305229166846402e-07,
				0.9910857081413269
			],
			"scale":[
				1,
				0.9999999403953552,
				0.9999999403953552
			],
			"translation":[
				3.552713678800501e-15,
				1.4616575241088867,
				-1.862645149230957e-09
			]
		},
		{
			"name":"Wing.L",
			"rotation":[
				-0.7070006132125854,
				0.7070006728172302,
				0.012250348925590515,
				0.012251191772520542
			],
			"translation":[
				-0.4999998211860657,
				0.6054561138153076,
				-0.14699490368366241
			]
		},
		{
			"name":"Wing.R",
			"rotation":[
				0.5085878968238831,
				0.5085872411727905,
				-0.4912620186805725,
				0.49126264452934265
			],
			"scale":[
				1,
				1,
				0.9999999403953552
			],
			"translation":[
				0.5000001192092896,
				0.6054561734199524,
				-0.1469936966896057
			]
		},
		{
			"children":[
				3,
				4,
				5
			],
			"name":"Torso",
			"rotation":[
				0.6947499513626099,
				4.2870746597145626e-07,
				4.1410342532799405e-07,
				0.7192513942718506
			],
			"scale":[
				1,
				0.9999999403953552,
				1.0000003576278687
			],
			"translation":[
				0,
				0.2181948721408844,
				-0.5607801079750061
			]
		},
		{
			"mesh":2,
			"name":"Model",
			"skin":0
		},
		{
			"children":[
				7,
				6
			],
			"name":"Armature",
			"translation":[
				0,
				-0.21219922602176666,
				0
			]
		}
	],
	"animations":[
		{
			"channels":[
				{
					"sampler":0,
					"target":{
						"node":6,
						"path":"translation"
					}
				},
				{
					"sampler":1,
					"target":{
						"node":6,
						"path":"rotation"
					}
				},
				{
					"sampler":2,
					"target":{
						"node":6,
						"path":"scale"
					}
				},
				{
					"sampler":3,
					"target":{
						"node":3,
						"path":"translation"
					}
				},
				{
					"sampler":4,
					"target":{
						"node":3,
						"path":"rotation"
					}
				},
				{
					"sampler":5,
					"target":{
						"node":3,
						"path":"scale"
					}
				},
				{
					"sampler":6,
					"target":{
						"node":2,
						"path":"translation"
					}
				},
				{
					"sampler":7,
					"target":{
						"node":2,
						"path":"rotation"
					}
				},
				{
					"sampler":8,
					"target":{
						"node":2,
						"path":"scale"
					}
				},
				{
					"sampler":9,
					"target":{
						"node":4,
						"path":"translation"
					}
				},
				{
					"sampler":10,
					"target":{
						"node":4,
						"path":"rotation"
					}
				},
				{
					"sampler":11,
					"target":{
						"node":4,
						"path":"scale"
					}
				},
				{
					"sampler":12,
					"target":{
						"node":5,
						"path":"translation"
					}
				},
				{
					"sampler":13,
					"target":{
						"node":5,
						"path":"rotation"
					}
				},
				{
					"sampler":14,
					"target":{
						"node":5,
						"path":"scale"
					}
				}
			],
			"name":"idle-loop",
			"samplers":[
				{
					"input":41,
					"interpolation":"LINEAR",
					"output":42
				},
				{
					"input":43,
					"interpolation":"STEP",
					"output":44
				},
				{
					"input":43,
					"interpolation":"STEP",
					"output":45
				},
				{
					"input":43,
					"interpolation":"LINEAR",
					"output":46
				},
				{
					"input":41,
					"interpolation":"LINEAR",
					"output":47
				},
				{
					"input":43,
					"interpolation":"STEP",
					"output":48
				},
				{
					"input":43,
					"interpolation":"LINEAR",
					"output":49
				},
				{
					"input":43,
					"interpolation":"LINEAR",
					"output":50
				},
				{
					"input":43,
					"interpolation":"STEP",
					"output":51
				},
				{
					"input":43,
					"interpolation":"LINEAR",
					"output":52
				},
				{
					"input":41,
					"interpolation":"LINEAR",
					"output":53
				},
				{
					"input":43,
					"interpolation":"STEP",
					"output":54
				},
				{
					"input":43,
					"interpolation":"LINEAR",
					"output":55
				},
				{
					"input":41,
					"interpolation":"LINEAR",
					"output":56
				},
				{
					"input":43,
					"interpolation":"STEP",
					"output":57
				}
			]
		}
	],
	"materials":[
		{
			"doubleSided":true,
			"name":"Flesh",
			"pbrMetallicRoughness":{
				"baseColorFactor":[
					0.8002997636795044,
					0.02316303551197052,
					0.0652582049369812,
					1
				],
				"metallicFactor":0,
				"roughnessFactor":0.5
			}
		},
		{
			"doubleSided":true,
			"name":"Black",
			"pbrMetallicRoughness":{
				"baseColorFactor":[
					0,
					0,
					0,
					1
				],
				"metallicFactor":0,
				"roughnessFactor":0.5
			}
		},
		{
			"doubleSided":true,
			"name":"Beak",
			"pbrMetallicRoughness":{
				"baseColorFactor":[
					0.800000011920929,
					0.800000011920929,
					0.800000011920929,
					1
				],
				"metallicFactor":0,
				"roughnessFactor":0.5
			}
		}
	],
	"meshes":[
		{
			"name":"Vert",
			"primitives":[
				{
					"attributes":{
						"POSITION":0,
						"NORMAL":1
					},
					"indices":2,
					"material":0
				},
				{
					"attributes":{
						"POSITION":3,
						"NORMAL":4
					},
					"indices":5,
					"material":1
				},
				{
					"attributes":{
						"POSITION":6,
						"NORMAL":7
					},
					"indices":8,
					"material":2
				}
			]
		},
		{
			"name":"Vert.001",
			"primitives":[
				{
					"attributes":{
						"POSITION":9,
						"NORMAL":10,
						"TEXCOORD_0":11,
						"TANGENT":12
					},
					"indices":2,
					"material":0
				},
				{
					"attributes":{
						"POSITION":13,
						"NORMAL":14,
						"TEXCOORD_0":15,
						"TANGENT":16
					},
					"indices":17,
					"material":1
				},
				{
					"attributes":{
						"POSITION":18,
						"NORMAL":19,
						"TEXCOORD_0":20,
						"TANGENT":21
					},
					"indices":8,
					"material":2
				}
			]
		},
		{
			"name":"Vert.002",
			"primitives":[
				{
					"attributes":{
						"POSITION":22,
						"NORMAL":23,
						"TEXCOORD_0":24,
						"TANGENT":25,
						"JOINTS_0":26,
						"WEIGHTS_0":27
					},
					"indices":2,
					"material":0
				},
				{
					"attributes":{
						"POSITION":28,
						"NORMAL":29,
						"TEXCOORD_0":30,
						"TANGENT":31,
						"JOINTS_0":32,
						"WEIGHTS_0":33
					},
					"indices":5,
					"material":1
				},
				{
					"attributes":{
						"POSITION":34,
						"NORMAL":35,
						"TEXCOORD_0":36,
						"TANGENT":37,
						"JOINTS_0":38,
						"WEIGHTS_0":39
					},
					"indices":8,
					"material":2
				}
			]
		}
	],
	"skins":[
		{
			"inverseBindMatrices":40,
			"joints":[
				6,
				3,
				2,
				4,
				5
			],
			"name":"Armature"
		}
	],
	"accessors":[
		{
			"bufferView":0,
			"componentType":5126,
			"count":177,
			"max":[
				5.67277717590332,
				0.43382662534713745,
				2.3746984004974365
			],
			"min":[
				4.3271942138671875,
				-0.44754159450531006,
				-0.7260239124298096
			],
			"type":"VEC3"
		},
		{
			"bufferView":1,
			"componentType":5126,
			"count":177,
			"type":"VEC3"
		},
		{
			"bufferView":2,
			"componentType":5123,
			"count":213,
			"type":"SCALAR"
		},
		{
			"bufferView":3,
			"componentType":5126,
			"count":233,
			"max":[
				6.572866439819336,
				0.25375083088874817,
				1.40736985206604
			],
			"min":[
				3.427133560180664,
				-0.5944939255714417,
				-0.9575494527816772
			],
			"type":"VEC3"
		},
		{
			"bufferView":4,
			"componentType":5126,
			"count":233,
			"type":"VEC3"
		},
		{
			"bufferView":5,
			"componentType":5123,
			"count":243,
			"type":"SCALAR"
		},
		{
			"bufferView":6,
			"componentType":5126,
			"count":12,
			"max":[
				5.136815547943115,
				0.21667344868183136,
				3.1273515224456787
			],
			"min":[
				4.909444808959961,
				-0.010538694448769093,
				2.2678823471069336
			],
			"type":"VEC3"
		},
		{
			"bufferView":7,
			"componentType":5126,
			"count":12,
			"type":"VEC3"
		},
		{
			"bufferView":8,
			"componentType":5123,
			"count":12,
			"type":"SCALAR"
		},
		{
			"bufferView":9,
			"componentType":5126,
			"count":177,
			"max":[
				0.6727772355079651,
				0.43382665514945984,
				2.3746984004974365
			],
			"min":[
				-0.6728060245513916,
				-0.44754159450531006,
				-0.7260238528251648
			],
			"type":"VEC3"
		},
		{
			"bufferView":10,
			"componentType":5126,
			"count":177,
			"type":"VEC3"
		},
		{
			"bufferView":11,
			"componentType":5126,
			"count":177,
			"type":"VEC2"
		},
		{
			"bufferView":12,
			"componentType":5126,
			"count":177,
			"type":"VEC4"
		},
		{
			"bufferView":13,
			"componentType":5126,
			"count":233,
			"max":[
				1.0314955711364746,
				0.26056721806526184,
				1.4073700904846191
			],
			"min":[
				-1.03020441532135,
				-0.6548744440078735,
				-0.9575494527816772
			],
			"type":"VEC3"
		},
		{
			"bufferView":14,
			"componentType":5126,
			"count":233,
			"type":"VEC3"
		},
		{
			"bufferView":15,
			"componentType":5126,
			"count":233,
			"type":"VEC2"
		},
		{
			"bufferView":16,
			"componentType":5126,
			"count":233,
			"type":"VEC4"
		},
		{
			"bufferView":17,
			"componentType":5123,
			"count":243,
			"type":"SCALAR"
		},
		{
			"bufferView":18,
			"componentType":5126,
			"count":12,
			"max":[
				0.13681526482105255,
				0.21667352318763733,
				3.1273515224456787
			],
			"min":[
				-0.09055548906326294,
				-0.010538698174059391,
				2.2678818702697754
			],
			"type":"VEC3"
		},
		{
			"bufferView":19,
			"componentType":5126,
			"count":12,
			"type":"VEC3"
		},
		{
			"bufferView":20,
			"componentType":5126,
			"count":12,
			"type":"VEC2"
		},
		{
			"bufferView":21,
			"componentType":5126,
			"count":12,
			"type":"VEC4"
		},
		{
			"bufferView":22,
			"componentType":5126,
			"count":177,
			"max":[
				0.6727771759033203,
				0.43382665514945984,
				2.3746986389160156
			],
			"min":[
				-0.6728063225746155,
				-0.44754159450531006,
				-0.72602379322052
			],
			"type":"VEC3"
		},
		{
			"bufferView":23,
			"componentType":5126,
			"count":177,
			"type":"VEC3"
		},
		{
			"bufferView":24,
			"componentType":5126,
			"count":177,
			"type":"VEC2"
		},
		{
			"bufferView":25,
			"componentType":5126,
			"count":177,
			"type":"VEC4"
		},
		{
			"bufferView":26,
			"componentType":5121,
			"count":177,
			"type":"VEC4"
		},
		{
			"bufferView":27,
			"componentType":5126,
			"count":177,
			"type":"VEC4"
		},
		{
			"bufferView":28,
			"componentType":5126,
			"count":233,
			"max":[
				1.5728665590286255,
				0.25375083088874817,
				1.4073699712753296
			],
			"min":[
				-1.5728665590286255,
				-0.5944939255714417,
				-0.9575496912002563
			],
			"type":"VEC3"
		},
		{
			"bufferView":29,
			"componentType":5126,
			"count":233,
			"type":"VEC3"
		},
		{
			"bufferView":30,
			"componentType":5126,
			"count":233,
			"type":"VEC2"
		},
		{
			"bufferView":31,
			"componentType":5126,
			"count":233,
			"type":"VEC4"
		},
		{
			"bufferView":32,
			"componentType":5121,
			"count":233,
			"type":"VEC4"
		},
		{
			"bufferView":33,
			"componentType":5126,
			"count":233,
			"type":"VEC4"
		},
		{
			"bufferView":34,
			"componentType":5126,
			"count":12,
			"max":[
				0.13681510090827942,
				0.21814917027950287,
				3.1277246475219727
			],
			"min":[
				-0.0905558317899704,
				-0.010538745671510696,
				2.2678816318511963
			],
			"type":"VEC3"
		},
		{
			"bufferView":35,
			"componentType":5126,
			"count":12,
			"type":"VEC3"
		},
		{
			"bufferView":36,
			"componentType":5126,
			"count":12,
			"type":"VEC2"
		},
		{
			"bufferView":37,
			"componentType":5126,
			"count":12,
			"type":"VEC4"
		},
		{
			"bufferView":38,
			"componentType":5121,
			"count":12,
			"type":"VEC4"
		},
		{
			"bufferView":39,
			"componentType":5126,
			"count":12,
			"type":"VEC4"
		},
		{
			"bufferView":40,
			"componentType":5126,
			"count":5,
			"type":"MAT4"
		},
		{
			"bufferView":41,
			"componentType":5126,
			"count":12,
			"max":[
				0.4
			],
			"min":[
				0.03333333333333333
			],
			"type":"SCALAR"
		},
		{
			"bufferView":42,
			"componentType":5126,
			"count":12,
			"type":"VEC3"
		},
		{
			"bufferView":43,
			"componentType":5126,
			"count":2,
			"max":[
				0.4
			],
			"min":[
				0.03333333333333333
			],
			"type":"SCALAR"
		},
		{
			"bufferView":44,
			"componentType":5126,
			"count":2,
			"type":"VEC4"
		},
		{
			"bufferView":45,
			"componentType":5126,
			"count":2,
			"type":"VEC3"
		},
		{
			"bufferView":46,
			"componentType":5126,
			"count":2,
			"type":"VEC3"
		},
		{
			"bufferView":47,
			"componentType":5126,
			"count":12,
			"type":"VEC4"
		},
		{
			"bufferView":48,
			"componentType":5126,
			"count":2,
			"type":"VEC3"
		},
		{
			"bufferView":49,
			"componentType":5126,
			"count":2,
			"type":"VEC3"
		},
		{
			"bufferView":50,
			"componentType":5126,
			"count":2,
			"type":"VEC4"
		},
		{
			"bufferView":51,
			"componentType":5126,
			"count":2,
			"type":"VEC3"
		},
		{
			"bufferView":52,
			"componentType":5126,
			"count":2,
			"type":"VEC3"
		},
		{
			"bufferView":53,
			"componentType":5126,
			"count":12,
			"type":"VEC4"
		},
		{
			"bufferView":54,
			"componentType":5126,
			"count":2,
			"type":"VEC3"
		},
		{
			"bufferView":55,
			"componentType":5126,
			"count":2,
			"type":"VEC3"
		},
		{
			"bufferView":56,
			"componentType":5126,
			"count":12,
			"type":"VEC4"
		},
		{
			"bufferView":57,
			"componentType":5126,
			"count":2,
			"type":"VEC3"
		}
	],
	"bufferViews":[
		{
			"buffer":0,
			"byteLength":2124,
			"byteOffset":0,
			"target":34962
		},
		{
			"buffer":0,
			"byteLength":2124,
			"byteOffset":2124,
			"target":34962
		},
		{
			"buffer":0,
			"byteLength":426,
			"byteOffset":4248,
			"target":34963
		},
		{
			"buffer":0,
			"byteLength":2796,
			"byteOffset":4676,
			"target":34962
		},
		{
			"buffer":0,
			"byteLength":2796,
			"byteOffset":7472,
			"target":34962
		},
		{
			"buffer":0,
			"byteLength":486,
			"byteOffset":10268,
			"target":34963
		},
		{
			"buffer":0,
			"byteLength":144,
			"byteOffset":10756,
			"target":34962
		},
		{
			"buffer":0,
			"byteLength":144,
			"byteOffset":10900,
			"target":34962
		},
		{
			"buffer":0,
			"byteLength":24,
			"byteOffset":11044,
			"target":34963
		},
		{
			"buffer":0,
			"byteLength":2124,
			"byteOffset":11068,
			"target":34962
		},
		{
			"buffer":0,
			"byteLength":2124,
			"byteOffset":13192,
			"target":34962
		},
		{
			"buffer":0,
			"byteLength":1416,
			"byteOffset":15316,
			"target":34962
		},
		{
			"buffer":0,
			"byteLength":2832,
			"byteOffset":16732,
			"target":34962
		},
		{
			"buffer":0,
			"byteLength":2796,
			"byteOffset":19564,
			"target":34962
		},
		{
			"buffer":0,
			"byteLength":2796,
			"byteOffset":22360,
			"target":34962
		},
		{
			"buffer":0,
			"byteLength":1864,
			"byteOffset":25156,
			"target":34962
		},
		{
			"buffer":0,
			"byteLength":3728,
			"byteOffset":27020,
			"target":34962
		},
		{
			"buffer":0,
			"byteLength":486,
			"byteOffset":30748,
			"target":34963
		},
		{
			"buffer":0,
			"byteLength":144,
			"byteOffset":31236,
			"target":34962
		},
		{
			"buffer":0,
			"byteLength":144,
			"byteOffset":31380,
			"target":34962
		},
		{
			"buffer":0,
			"byteLength":96,
			"byteOffset":31524,
			"target":34962
		},
		{
			"buffer":0,
			"byteLength":192,
			"byteOffset":31620,
			"target":34962
		},
		{
			"buffer":0,
			"byteLength":2124,
			"byteOffset":31812,
			"target":34962
		},
		{
			"buffer":0,
			"byteLength":2124,
			"byteOffset":33936,
			"target":34962
		},
		{
			"buffer":0,
			"byteLength":1416,
			"byteOffset":36060,
			"target":34962
		},
		{
			"buffer":0,
			"byteLength":2832,
			"byteOffset":37476,
			"target":34962
		},
		{
			"buffer":0,
			"byteLength":708,
			"byteOffset":40308,
			"target":34962
		},
		{
			"buffer":0,
			"byteLength":2832,
			"byteOffset":41016,
			"target":34962
		},
		{
			"buffer":0,
			"byteLength":2796,
			"byteOffset":43848,
			"target":34962
		},
		{
			"buffer":0,
			"byteLength":2796,
			"byteOffset":46644,
			"target":34962
		},
		{
			"buffer":0,
			"byteLength":1864,
			"byteOffset":49440,
			"target":34962
		},
		{
			"buffer":0,
			"byteLength":3728,
			"byteOffset":51304,
			"target":34962
		},
		{
			"buffer":0,
			"byteLength":932,
			"byteOffset":55032,
			"target":34962
		},
		{
			"buffer":0,
			"byteLength":3728,
			"byteOffset":55964,
			"target":34962
		},
		{
			"buffer":0,
			"byteLength":144,
			"byteOffset":59692,
			"target":34962
		},
		{
			"buffer":0,
			"byteLength":144,
			"byteOffset":59836,
			"target":34962
		},
		{
			"buffer":0,
			"byteLength":96,
			"byteOffset":59980,
			"target":34962
		},
		{
			"buffer":0,
			"byteLength":192,
			"byteOffset":60076,
			"target":34962
		},
		{
			"buffer":0,
			"byteLength":48,
			"byteOffset":60268,
			"target":34962
		},
		{
			"buffer":0,
			"byteLength":192,
			"byteOffset":60316,
			"target":34962
		},
		{
			"buffer":0,
			"byteLength":320,
			"byteOffset":60508
		},
		{
			"buffer":0,
			"byteLength":48,
			"byteOffset":60828
		},
		{
			"buffer":0,
			"byteLength":144,
			"byteOffset":60876
		},
		{
			"buffer":0,
			"byteLength":8,
			"byteOffset":61020
		},
		{
			"buffer":0,
			"byteLength":32,
			"byteOffset":61028
		},
		{
			"buffer":0,
			"byteLength":24,
			"byteOffset":61060
		},
		{
			"buffer":0,
			"byteLength":24,
			"byteOffset":61084
		},
		{
			"buffer":0,
			"byteLength":192,
			"byteOffset":61108
		},
		{
			"buffer":0,
			"byteLength":24,
			"byteOffset":61300
		},
		{
			"buffer":0,
			"byteLength":24,
			"byteOffset":61324
		},
		{
			"buffer":0,
			"byteLength":32,
			"byteOffset":61348
		},
		{
			"buffer":0,
			"byteLength":24,
			"byteOffset":61380
		},
		{
			"buffer":0,
			"byteLength":24,
			"byteOffset":61404
		},
		{
			"buffer":0,
			"byteLength":192,
			"byteOffset":61428
		},
		{
			"buffer":0,
			"byteLength":24,
			"byteOffset":61620
		},
		{
			"buffer":0,
			"byteLength":24,
			"byteOffset":61644
		},
		{
			"buffer":0,
			"byteLength":192,
			"byteOffset":61668
		},
		{
			"buffer":0,
			"byteLength":24,
			"byteOffset":61860
		}
	],
	"buffers":[
		{
			"byteLength":61884,
			"uri":"bird-28a562ed99e5316dc4478197c842ac6f.bin"
		}
	]
}
