{
	"asset":{
		"generator":"Khronos glTF Blender I/O v4.1.63",
		"version":"2.0"
	},
	"scene":0,
	"scenes":[
		{
			"name":"Scene",
			"nodes":[
				0
			]
		}
	],
	"nodes":[
		{
			"mesh":0,
			"name":"Mesh",
			"rotation":[
				0,
				-0.887010931968689,
				0,
				0.4617486298084259
			]
		}
	],
	"materials":[
		{
			"doubleSided":true,
			"name":"Body",
			"pbrMetallicRoughness":{
				"baseColorFactor":[
					0.8002663850784302,
					0.061919521540403366,
					0.08636753261089325,
					1
				],
				"metallicFactor":0,
				"roughnessFactor":0.5
			}
		},
		{
			"doubleSided":true,
			"name":"ClockBase",
			"pbrMetallicRoughness":{
				"baseColorFactor":[
					0.12362384051084518,
					0.8003705143928528,
					0.1462133824825287,
					1
				],
				"metallicFactor":0,
				"roughnessFactor":0.5
			}
		},
		{
			"doubleSided":true,
			"name":"ClockFace",
			"pbrMetallicRoughness":{
				"baseColorFactor":[
					0.800000011920929,
					0.800000011920929,
					0.800000011920929,
					1
				],
				"metallicFactor":0,
				"roughnessFactor":0.5
			}
		},
		{
			"doubleSided":true,
			"name":"ClockHands",
			"pbrMetallicRoughness":{
				"baseColorFactor":[
					0,
					0,
					0,
					1
				],
				"metallicFactor":0,
				"roughnessFactor":0.5
			}
		},
		{
			"doubleSided":true,
			"name":"ClockMetal",
			"pbrMetallicRoughness":{
				"baseColorFactor":[
					0.30157580971717834,
					0.30157580971717834,
					0.30157580971717834,
					1
				],
				"metallicFactor":0,
				"roughnessFactor":0.5
			}
		}
	],
	"meshes":[
		{
			"name":"Icosphere",
			"primitives":[
				{
					"attributes":{
						"POSITION":0,
						"NORMAL":1,
						"TEXCOORD_0":2
					},
					"indices":3,
					"material":0
				},
				{
					"attributes":{
						"POSITION":4,
						"NORMAL":5,
						"TEXCOORD_0":6
					},
					"indices":7,
					"material":1
				},
				{
					"attributes":{
						"POSITION":8,
						"NORMAL":9,
						"TEXCOORD_0":10
					},
					"indices":11,
					"material":2
				},
				{
					"attributes":{
						"POSITION":12,
						"NORMAL":13,
						"TEXCOORD_0":14
					},
					"indices":15,
					"material":3
				},
				{
					"attributes":{
						"POSITION":16,
						"NORMAL":17,
						"TEXCOORD_0":18
					},
					"indices":19,
					"material":4
				}
			]
		}
	],
	"accessors":[
		{
			"bufferView":0,
			"componentType":5126,
			"count":22,
			"max":[
				0.8944249749183655,
				1,
				0.8506399989128113
			],
			"min":[
				-0.8944249749183655,
				-1,
				-0.8506399989128113
			],
			"type":"VEC3"
		},
		{
			"bufferView":1,
			"componentType":5126,
			"count":22,
			"type":"VEC3"
		},
		{
			"bufferView":2,
			"componentType":5126,
			"count":22,
			"type":"VEC2"
		},
		{
			"bufferView":3,
			"componentType":5123,
			"count":60,
			"type":"SCALAR"
		},
		{
			"bufferView":4,
			"componentType":5126,
			"count":224,
			"max":[
				0.9082036018371582,
				0.9344851970672607,
				0.9454694390296936
			],
			"min":[
				-0.6498240232467651,
				-0.8494644165039062,
				-0.6567209959030151
			],
			"type":"VEC3"
		},
		{
			"bufferView":5,
			"componentType":5126,
			"count":224,
			"type":"VEC3"
		},
		{
			"bufferView":6,
			"componentType":5126,
			"count":224,
			"type":"VEC2"
		},
		{
			"bufferView":7,
			"componentType":5123,
			"count":732,
			"type":"SCALAR"
		},
		{
			"bufferView":8,
			"componentType":5126,
			"count":36,
			"max":[
				0.8630704879760742,
				0.8844034671783447,
				0.9046276807785034
			],
			"min":[
				-0.6011176109313965,
				-0.8034605979919434,
				-0.608860969543457
			],
			"type":"VEC3"
		},
		{
			"bufferView":9,
			"componentType":5126,
			"count":36,
			"type":"VEC3"
		},
		{
			"bufferView":10,
			"componentType":5126,
			"count":36,
			"type":"VEC2"
		},
		{
			"bufferView":11,
			"componentType":5123,
			"count":84,
			"type":"SCALAR"
		},
		{
			"bufferView":12,
			"componentType":5126,
			"count":92,
			"max":[
				0.8052166700363159,
				0.8641057014465332,
				0.869610071182251
			],
			"min":[
				-0.5052486658096313,
				-0.6984055638313293,
				-0.495436429977417
			],
			"type":"VEC3"
		},
		{
			"bufferView":13,
			"componentType":5126,
			"count":92,
			"type":"VEC3"
		},
		{
			"bufferView":14,
			"componentType":5126,
			"count":92,
			"type":"VEC2"
		},
		{
			"bufferView":15,
			"componentType":5123,
			"count":336,
			"type":"SCALAR"
		},
		{
			"bufferView":16,
			"componentType":5126,
			"count":288,
			"max":[
				0.7577462196350098,
				0.9509031772613525,
				0.8545225262641907
			],
			"min":[
				-0.4954580068588257,
				-0.6917126774787903,
				-0.6205569505691528
			],
			"type":"VEC3"
		},
		{
			"bufferView":17,
			"componentType":5126,
			"count":288,
			"type":"VEC3"
		},
		{
			"bufferView":18,
			"componentType":5126,
			"count":288,
			"type":"VEC2"
		},
		{
			"bufferView":19,
			"componentType":5123,
			"count":1008,
			"type":"SCALAR"
		}
	],
	"bufferViews":[
		{
			"buffer":0,
			"byteLength":264,
			"byteOffset":0,
			"target":34962
		},
		{
			"buffer":0,
			"byteLength":264,
			"byteOffset":264,
			"target":34962
		},
		{
			"buffer":0,
			"byteLength":176,
			"byteOffset":528,
			"target":34962
		},
		{
			"buffer":0,
			"byteLength":120,
			"byteOffset":704,
			"target":34963
		},
		{
			"buffer":0,
			"byteLength":2688,
			"byteOffset":824,
			"target":34962
		},
		{
			"buffer":0,
			"byteLength":2688,
			"byteOffset":3512,
			"target":34962
		},
		{
			"buffer":0,
			"byteLength":1792,
			"byteOffset":6200,
			"target":34962
		},
		{
			"buffer":0,
			"byteLength":1464,
			"byteOffset":7992,
			"target":34963
		},
		{
			"buffer":0,
			"byteLength":432,
			"byteOffset":9456,
			"target":34962
		},
		{
			"buffer":0,
			"byteLength":432,
			"byteOffset":9888,
			"target":34962
		},
		{
			"buffer":0,
			"byteLength":288,
			"byteOffset":10320,
			"target":34962
		},
		{
			"buffer":0,
			"byteLength":168,
			"byteOffset":10608,
			"target":34963
		},
		{
			"buffer":0,
			"byteLength":1104,
			"byteOffset":10776,
			"target":34962
		},
		{
			"buffer":0,
			"byteLength":1104,
			"byteOffset":11880,
			"target":34962
		},
		{
			"buffer":0,
			"byteLength":736,
			"byteOffset":12984,
			"target":34962
		},
		{
			"buffer":0,
			"byteLength":672,
			"byteOffset":13720,
			"target":34963
		},
		{
			"buffer":0,
			"byteLength":3456,
			"byteOffset":14392,
			"target":34962
		},
		{
			"buffer":0,
			"byteLength":3456,
			"byteOffset":17848,
			"target":34962
		},
		{
			"buffer":0,
			"byteLength":2304,
			"byteOffset":21304,
			"target":34962
		},
		{
			"buffer":0,
			"byteLength":2016,
			"byteOffset":23608,
			"target":34963
		}
	],
	"buffers":[
		{
			"byteLength":25624,
			"uri":"bomber-ade092afea3eefe48918323991f19906.bin"
		}
	]
}
