{
	"asset":{
		"generator":"Khronos glTF Blender I/O v4.1.63",
		"version":"2.0"
	},
	"scene":0,
	"scenes":[
		{
			"name":"Scene",
			"nodes":[
				0,
				1,
				2,
				3
			]
		}
	],
	"nodes":[
		{
			"mesh":0,
			"name":"Cube",
			"translation":[
				0,
				1,
				0
			]
		},
		{
			"mesh":1,
			"name":"Cube.001",
			"translation":[
				-0.44264471530914307,
				2.499032974243164,
				0
			]
		},
		{
			"mesh":2,
			"name":"Cylinder",
			"translation":[
				-0.5161119699478149,
				1.0024563074111938,
				0
			]
		},
		{
			"mesh":3,
			"name":"Cube.003",
			"translation":[
				0.051537275314331055,
				1.5390331745147705,
				0.2280735969543457
			]
		}
	],
	"materials":[
		{
			"doubleSided":true,
			"name":"Material",
			"pbrMetallicRoughness":{
				"baseColorFactor":[
					0.19360101222991943,
					0.19360101222991943,
					0.19360101222991943,
					1
				],
				"metallicFactor":0.16535434126853943,
				"roughnessFactor":0.5
			}
		},
		{
			"doubleSided":true,
			"name":"Speakers",
			"pbrMetallicRoughness":{
				"baseColorFactor":[
					0.021757256239652634,
					0.021757256239652634,
					0.021757256239652634,
					1
				],
				"metallicFactor":0,
				"roughnessFactor":0.5
			}
		},
		{
			"doubleSided":true,
			"name":"Material.001",
			"pbrMetallicRoughness":{
				"baseColorFactor":[
					0.800000011920929,
					0.800000011920929,
					0.800000011920929,
					1
				],
				"metallicFactor":0,
				"roughnessFactor":0.5
			}
		}
	],
	"meshes":[
		{
			"name":"Cube.001",
			"primitives":[
				{
					"attributes":{
						"POSITION":0,
						"NORMAL":1,
						"TEXCOORD_0":2
					},
					"indices":3,
					"material":0
				}
			]
		},
		{
			"name":"Cube.002",
			"primitives":[
				{
					"attributes":{
						"POSITION":4,
						"NORMAL":5,
						"TEXCOORD_0":6,
						"TANGENT":7
					},
					"indices":8,
					"material":1
				}
			]
		},
		{
			"name":"Cylinder",
			"primitives":[
				{
					"attributes":{
						"POSITION":9,
						"NORMAL":10,
						"TEXCOORD_0":11
					},
					"indices":12,
					"material":1
				}
			]
		},
		{
			"name":"Cube.004",
			"primitives":[
				{
					"attributes":{
						"POSITION":13,
						"NORMAL":14,
						"TEXCOORD_0":15,
						"TANGENT":16
					},
					"indices":17,
					"material":2
				}
			]
		}
	],
	"accessors":[
		{
			"bufferView":0,
			"componentType":5126,
			"count":124,
			"max":[
				1,
				0.49903321266174316,
				0.3025788366794586
			],
			"min":[
				-1,
				-0.4907029867172241,
				-0.3025788366794586
			],
			"type":"VEC3"
		},
		{
			"bufferView":1,
			"componentType":5126,
			"count":124,
			"type":"VEC3"
		},
		{
			"bufferView":2,
			"componentType":5126,
			"count":124,
			"type":"VEC2"
		},
		{
			"bufferView":3,
			"componentType":5123,
			"count":468,
			"type":"SCALAR"
		},
		{
			"bufferView":4,
			"componentType":5126,
			"count":78,
			"max":[
				0.8598011136054993,
				-0.6837332248687744,
				0.06470698118209839
			],
			"min":[
				0.02548840641975403,
				-1.0175362825393677,
				-0.06470698118209839
			],
			"type":"VEC3"
		},
		{
			"bufferView":5,
			"componentType":5126,
			"count":78,
			"type":"VEC3"
		},
		{
			"bufferView":6,
			"componentType":5126,
			"count":78,
			"type":"VEC2"
		},
		{
			"bufferView":7,
			"componentType":5126,
			"count":78,
			"type":"VEC4"
		},
		{
			"bufferView":8,
			"componentType":5123,
			"count":132,
			"type":"SCALAR"
		},
		{
			"bufferView":9,
			"componentType":5126,
			"count":200,
			"max":[
				1.3823614120483398,
				0.3681563138961792,
				0.37939631938934326
			],
			"min":[
				-0.3501374125480652,
				-0.36815619468688965,
				0.3025788366794586
			],
			"type":"VEC3"
		},
		{
			"bufferView":10,
			"componentType":5126,
			"count":200,
			"type":"VEC3"
		},
		{
			"bufferView":11,
			"componentType":5126,
			"count":200,
			"type":"VEC2"
		},
		{
			"bufferView":12,
			"componentType":5123,
			"count":336,
			"type":"SCALAR"
		},
		{
			"bufferView":13,
			"componentType":5126,
			"count":48,
			"max":[
				0.03999999165534973,
				-0.013240538537502289,
				0.041089653968811035
			],
			"min":[
				-0.1572410762310028,
				-0.03999999165534973,
				-0.03999999165534973
			],
			"type":"VEC3"
		},
		{
			"bufferView":14,
			"componentType":5126,
			"count":48,
			"type":"VEC3"
		},
		{
			"bufferView":15,
			"componentType":5126,
			"count":48,
			"type":"VEC2"
		},
		{
			"bufferView":16,
			"componentType":5126,
			"count":48,
			"type":"VEC4"
		},
		{
			"bufferView":17,
			"componentType":5123,
			"count":72,
			"type":"SCALAR"
		}
	],
	"bufferViews":[
		{
			"buffer":0,
			"byteLength":1488,
			"byteOffset":0,
			"target":34962
		},
		{
			"buffer":0,
			"byteLength":1488,
			"byteOffset":1488,
			"target":34962
		},
		{
			"buffer":0,
			"byteLength":992,
			"byteOffset":2976,
			"target":34962
		},
		{
			"buffer":0,
			"byteLength":936,
			"byteOffset":3968,
			"target":34963
		},
		{
			"buffer":0,
			"byteLength":936,
			"byteOffset":4904,
			"target":34962
		},
		{
			"buffer":0,
			"byteLength":936,
			"byteOffset":5840,
			"target":34962
		},
		{
			"buffer":0,
			"byteLength":624,
			"byteOffset":6776,
			"target":34962
		},
		{
			"buffer":0,
			"byteLength":1248,
			"byteOffset":7400,
			"target":34962
		},
		{
			"buffer":0,
			"byteLength":264,
			"byteOffset":8648,
			"target":34963
		},
		{
			"buffer":0,
			"byteLength":2400,
			"byteOffset":8912,
			"target":34962
		},
		{
			"buffer":0,
			"byteLength":2400,
			"byteOffset":11312,
			"target":34962
		},
		{
			"buffer":0,
			"byteLength":1600,
			"byteOffset":13712,
			"target":34962
		},
		{
			"buffer":0,
			"byteLength":672,
			"byteOffset":15312,
			"target":34963
		},
		{
			"buffer":0,
			"byteLength":576,
			"byteOffset":15984,
			"target":34962
		},
		{
			"buffer":0,
			"byteLength":576,
			"byteOffset":16560,
			"target":34962
		},
		{
			"buffer":0,
			"byteLength":384,
			"byteOffset":17136,
			"target":34962
		},
		{
			"buffer":0,
			"byteLength":768,
			"byteOffset":17520,
			"target":34962
		},
		{
			"buffer":0,
			"byteLength":144,
			"byteOffset":18288,
			"target":34963
		}
	],
	"buffers":[
		{
			"byteLength":18432,
			"uri":"boombox-18cc71a9a02ec3e7a35540a9af163236.bin"
		}
	]
}
