{
	"asset":{
		"generator":"Khronos glTF Blender I/O v4.1.63",
		"version":"2.0"
	},
	"scene":0,
	"scenes":[
		{
			"name":"Scene",
			"nodes":[
				0
			]
		}
	],
	"nodes":[
		{
			"mesh":0,
			"name":"Boombox -rigid"
		}
	],
	"materials":[
		{
			"doubleSided":true,
			"name":"Speakers",
			"pbrMetallicRoughness":{
				"baseColorFactor":[
					0.021757256239652634,
					0.021757256239652634,
					0.021757256239652634,
					1
				],
				"metallicFactor":0,
				"roughnessFactor":0.5
			}
		},
		{
			"doubleSided":true,
			"name":"Material",
			"pbrMetallicRoughness":{
				"baseColorFactor":[
					0.19360101222991943,
					0.19360101222991943,
					0.19360101222991943,
					1
				],
				"metallicFactor":0.16535434126853943,
				"roughnessFactor":0.5
			}
		},
		{
			"doubleSided":true,
			"name":"Material.001",
			"pbrMetallicRoughness":{
				"baseColorFactor":[
					0.800000011920929,
					0.800000011920929,
					0.800000011920929,
					1
				],
				"metallicFactor":0,
				"roughnessFactor":0.5
			}
		}
	],
	"meshes":[
		{
			"name":"Cylinder",
			"primitives":[
				{
					"attributes":{
						"POSITION":0,
						"NORMAL":1,
						"TEXCOORD_0":2
					},
					"indices":3,
					"material":0
				},
				{
					"attributes":{
						"POSITION":4,
						"NORMAL":5,
						"TEXCOORD_0":6
					},
					"indices":7,
					"material":1
				},
				{
					"attributes":{
						"POSITION":8,
						"NORMAL":9,
						"TEXCOORD_0":10
					},
					"indices":11,
					"material":2
				}
			]
		}
	],
	"accessors":[
		{
			"bufferView":0,
			"componentType":5126,
			"count":276,
			"max":[
				0.8668790459632874,
				0.5126551389694214,
				0.24343357980251312
			],
			"min":[
				-0.8656197786331177,
				-0.6683444976806641,
				-0.20066972076892853
			],
			"type":"VEC3"
		},
		{
			"bufferView":1,
			"componentType":5126,
			"count":276,
			"type":"VEC3"
		},
		{
			"bufferView":2,
			"componentType":5126,
			"count":276,
			"type":"VEC2"
		},
		{
			"bufferView":3,
			"componentType":5123,
			"count":468,
			"type":"SCALAR"
		},
		{
			"bufferView":4,
			"componentType":5126,
			"count":124,
			"max":[
				1.0006296634674072,
				0.1963886320590973,
				0.16661609709262848
			],
			"min":[
				-0.9993703961372375,
				-0.7933475971221924,
				-0.43854159116744995
			],
			"type":"VEC3"
		},
		{
			"bufferView":5,
			"componentType":5126,
			"count":124,
			"type":"VEC3"
		},
		{
			"bufferView":6,
			"componentType":5126,
			"count":124,
			"type":"VEC2"
		},
		{
			"bufferView":7,
			"componentType":5123,
			"count":468,
			"type":"SCALAR"
		},
		{
			"bufferView":8,
			"componentType":5126,
			"count":48,
			"max":[
				0.09216684103012085,
				0.22314807772636414,
				0.1332005113363266
			],
			"min":[
				-0.1050741970539093,
				0.1963886022567749,
				0.05211086571216583
			],
			"type":"VEC3"
		},
		{
			"bufferView":9,
			"componentType":5126,
			"count":48,
			"type":"VEC3"
		},
		{
			"bufferView":10,
			"componentType":5126,
			"count":48,
			"type":"VEC2"
		},
		{
			"bufferView":11,
			"componentType":5123,
			"count":72,
			"type":"SCALAR"
		}
	],
	"bufferViews":[
		{
			"buffer":0,
			"byteLength":3312,
			"byteOffset":0,
			"target":34962
		},
		{
			"buffer":0,
			"byteLength":3312,
			"byteOffset":3312,
			"target":34962
		},
		{
			"buffer":0,
			"byteLength":2208,
			"byteOffset":6624,
			"target":34962
		},
		{
			"buffer":0,
			"byteLength":936,
			"byteOffset":8832,
			"target":34963
		},
		{
			"buffer":0,
			"byteLength":1488,
			"byteOffset":9768,
			"target":34962
		},
		{
			"buffer":0,
			"byteLength":1488,
			"byteOffset":11256,
			"target":34962
		},
		{
			"buffer":0,
			"byteLength":992,
			"byteOffset":12744,
			"target":34962
		},
		{
			"buffer":0,
			"byteLength":936,
			"byteOffset":13736,
			"target":34963
		},
		{
			"buffer":0,
			"byteLength":576,
			"byteOffset":14672,
			"target":34962
		},
		{
			"buffer":0,
			"byteLength":576,
			"byteOffset":15248,
			"target":34962
		},
		{
			"buffer":0,
			"byteLength":384,
			"byteOffset":15824,
			"target":34962
		},
		{
			"buffer":0,
			"byteLength":144,
			"byteOffset":16208,
			"target":34963
		}
	],
	"buffers":[
		{
			"byteLength":16352,
			"uri":"boombox-8e88cfb5880601e4ae65b0d2884be373.bin"
		}
	]
}
