{
	"asset":{
		"generator":"Khronos glTF Blender I/O v4.1.63",
		"version":"2.0"
	},
	"scene":0,
	"scenes":[
		{
			"name":"Scene",
			"nodes":[
				0,
				1,
				2
			]
		}
	],
	"nodes":[
		{
			"mesh":0,
			"name":"Blockout-colonly"
		},
		{
			"mesh":1,
			"name":"Ground",
			"translation":[
				-36,
				0,
				2
			]
		},
		{
			"mesh":2,
			"name":"Collisions-colonly"
		}
	],
	"meshes":[
		{
			"name":"Cube.003",
			"primitives":[
				{
					"attributes":{
						"POSITION":0,
						"NORMAL":1,
						"TEXCOORD_0":2,
						"TANGENT":3
					},
					"indices":4
				}
			]
		},
		{
			"name":"Plane",
			"primitives":[
				{
					"attributes":{
						"POSITION":5,
						"NORMAL":6,
						"TEXCOORD_0":7,
						"TANGENT":8
					},
					"indices":9
				}
			]
		},
		{
			"name":"Cube.006",
			"primitives":[
				{
					"attributes":{
						"POSITION":10,
						"NORMAL":11,
						"TEXCOORD_0":12,
						"TANGENT":13
					},
					"indices":14
				}
			]
		}
	],
	"accessors":[
		{
			"bufferView":0,
			"componentType":5126,
			"count":533,
			"max":[
				40,
				10,
				40
			],
			"min":[
				-35,
				0,
				-40
			],
			"type":"VEC3"
		},
		{
			"bufferView":1,
			"componentType":5126,
			"count":533,
			"type":"VEC3"
		},
		{
			"bufferView":2,
			"componentType":5126,
			"count":533,
			"type":"VEC2"
		},
		{
			"bufferView":3,
			"componentType":5126,
			"count":533,
			"type":"VEC4"
		},
		{
			"bufferView":4,
			"componentType":5123,
			"count":1194,
			"type":"SCALAR"
		},
		{
			"bufferView":5,
			"componentType":5126,
			"count":144,
			"max":[
				1,
				0,
				98
			],
			"min":[
				-201,
				0,
				-102
			],
			"type":"VEC3"
		},
		{
			"bufferView":6,
			"componentType":5126,
			"count":144,
			"type":"VEC3"
		},
		{
			"bufferView":7,
			"componentType":5126,
			"count":144,
			"type":"VEC2"
		},
		{
			"bufferView":8,
			"componentType":5126,
			"count":144,
			"type":"VEC4"
		},
		{
			"bufferView":9,
			"componentType":5123,
			"count":726,
			"type":"SCALAR"
		},
		{
			"bufferView":10,
			"componentType":5126,
			"count":1336,
			"max":[
				41.5,
				13,
				41
			],
			"min":[
				-36.20000076293945,
				-3,
				-41
			],
			"type":"VEC3"
		},
		{
			"bufferView":11,
			"componentType":5126,
			"count":1336,
			"type":"VEC3"
		},
		{
			"bufferView":12,
			"componentType":5126,
			"count":1336,
			"type":"VEC2"
		},
		{
			"bufferView":13,
			"componentType":5126,
			"count":1336,
			"type":"VEC4"
		},
		{
			"bufferView":14,
			"componentType":5123,
			"count":2412,
			"type":"SCALAR"
		}
	],
	"bufferViews":[
		{
			"buffer":0,
			"byteLength":6396,
			"byteOffset":0,
			"target":34962
		},
		{
			"buffer":0,
			"byteLength":6396,
			"byteOffset":6396,
			"target":34962
		},
		{
			"buffer":0,
			"byteLength":4264,
			"byteOffset":12792,
			"target":34962
		},
		{
			"buffer":0,
			"byteLength":8528,
			"byteOffset":17056,
			"target":34962
		},
		{
			"buffer":0,
			"byteLength":2388,
			"byteOffset":25584,
			"target":34963
		},
		{
			"buffer":0,
			"byteLength":1728,
			"byteOffset":27972,
			"target":34962
		},
		{
			"buffer":0,
			"byteLength":1728,
			"byteOffset":29700,
			"target":34962
		},
		{
			"buffer":0,
			"byteLength":1152,
			"byteOffset":31428,
			"target":34962
		},
		{
			"buffer":0,
			"byteLength":2304,
			"byteOffset":32580,
			"target":34962
		},
		{
			"buffer":0,
			"byteLength":1452,
			"byteOffset":34884,
			"target":34963
		},
		{
			"buffer":0,
			"byteLength":16032,
			"byteOffset":36336,
			"target":34962
		},
		{
			"buffer":0,
			"byteLength":16032,
			"byteOffset":52368,
			"target":34962
		},
		{
			"buffer":0,
			"byteLength":10688,
			"byteOffset":68400,
			"target":34962
		},
		{
			"buffer":0,
			"byteLength":21376,
			"byteOffset":79088,
			"target":34962
		},
		{
			"buffer":0,
			"byteLength":4824,
			"byteOffset":100464,
			"target":34963
		}
	],
	"buffers":[
		{
			"byteLength":105288,
			"uri":"c1_m10-586803f20e3fe768d74a60950052e6e4.bin"
		}
	]
}
