{
	"asset":{
		"generator":"Khronos glTF Blender I/O v4.1.63",
		"version":"2.0"
	},
	"scene":0,
	"scenes":[
		{
			"name":"Scene",
			"nodes":[
				0,
				1,
				2,
				3
			]
		}
	],
	"nodes":[
		{
			"mesh":0,
			"name":"PlayerCollisions -colonly"
		},
		{
			"mesh":1,
			"name":"Level (noflip) -noimp"
		},
		{
			"mesh":2,
			"name":"Mesh",
			"translation":[
				-19,
				-1,
				-8
			]
		},
		{
			"mesh":3,
			"name":"Terrain"
		}
	],
	"materials":[
		{
			"alphaMode":"BLEND",
			"doubleSided":true,
			"name":"Wall",
			"pbrMetallicRoughness":{
				"baseColorFactor":[
					0.800000011920929,
					0.800000011920929,
					0.800000011920929,
					1
				],
				"metallicFactor":0,
				"roughnessFactor":0.5
			}
		},
		{
			"doubleSided":true,
			"name":"Floor",
			"pbrMetallicRoughness":{
				"baseColorFactor":[
					0.8000626564025879,
					0.30367550253868103,
					0.30367550253868103,
					1
				],
				"metallicFactor":0,
				"roughnessFactor":0.5
			}
		},
		{
			"doubleSided":true,
			"name":"Hole",
			"pbrMetallicRoughness":{
				"baseColorFactor":[
					0,
					0,
					0,
					1
				],
				"metallicFactor":0
			}
		}
	],
	"meshes":[
		{
			"name":"Cube",
			"primitives":[
				{
					"attributes":{
						"POSITION":0,
						"NORMAL":1,
						"TEXCOORD_0":2
					},
					"indices":3
				}
			]
		},
		{
			"name":"Cube.003",
			"primitives":[
				{
					"attributes":{
						"POSITION":4,
						"NORMAL":5,
						"TEXCOORD_0":6
					},
					"indices":7
				}
			]
		},
		{
			"name":"Cube.001",
			"primitives":[
				{
					"attributes":{
						"POSITION":8,
						"NORMAL":9,
						"TEXCOORD_0":10
					},
					"indices":11,
					"material":0
				},
				{
					"attributes":{
						"POSITION":12,
						"NORMAL":13,
						"TEXCOORD_0":14
					},
					"indices":15,
					"material":1
				},
				{
					"attributes":{
						"POSITION":16,
						"NORMAL":17,
						"TEXCOORD_0":18
					},
					"indices":19,
					"material":2
				}
			]
		},
		{
			"name":"Cube.002",
			"primitives":[
				{
					"attributes":{
						"POSITION":20,
						"NORMAL":21,
						"TEXCOORD_0":22
					},
					"indices":23
				}
			]
		}
	],
	"accessors":[
		{
			"bufferView":0,
			"componentType":5126,
			"count":1446,
			"max":[
				73,
				27,
				-5.5
			],
			"min":[
				-21.5,
				-31,
				-97.5
			],
			"type":"VEC3"
		},
		{
			"bufferView":1,
			"componentType":5126,
			"count":1446,
			"type":"VEC3"
		},
		{
			"bufferView":2,
			"componentType":5126,
			"count":1446,
			"type":"VEC2"
		},
		{
			"bufferView":3,
			"componentType":5123,
			"count":3120,
			"type":"SCALAR"
		},
		{
			"bufferView":4,
			"componentType":5126,
			"count":514,
			"max":[
				70,
				24,
				-7
			],
			"min":[
				-20,
				-30,
				-96
			],
			"type":"VEC3"
		},
		{
			"bufferView":5,
			"componentType":5126,
			"count":514,
			"type":"VEC3"
		},
		{
			"bufferView":6,
			"componentType":5126,
			"count":514,
			"type":"VEC2"
		},
		{
			"bufferView":7,
			"componentType":5123,
			"count":1560,
			"type":"SCALAR"
		},
		{
			"bufferView":8,
			"componentType":5126,
			"count":1282,
			"max":[
				91.5,
				15,
				2.4142136573791504
			],
			"min":[
				-2.4142136573791504,
				-31,
				-90
			],
			"type":"VEC3"
		},
		{
			"bufferView":9,
			"componentType":5126,
			"count":1282,
			"type":"VEC3"
		},
		{
			"bufferView":10,
			"componentType":5126,
			"count":1282,
			"type":"VEC2"
		},
		{
			"bufferView":11,
			"componentType":5123,
			"count":3135,
			"type":"SCALAR"
		},
		{
			"bufferView":12,
			"componentType":5126,
			"count":104,
			"max":[
				91,
				1,
				1
			],
			"min":[
				-1,
				-3,
				-88
			],
			"type":"VEC3"
		},
		{
			"bufferView":13,
			"componentType":5126,
			"count":104,
			"type":"VEC3"
		},
		{
			"bufferView":14,
			"componentType":5126,
			"count":104,
			"type":"VEC2"
		},
		{
			"bufferView":15,
			"componentType":5123,
			"count":273,
			"type":"SCALAR"
		},
		{
			"bufferView":16,
			"componentType":5126,
			"count":20,
			"max":[
				7.07981014251709,
				1,
				-1.487891435623169
			],
			"min":[
				0.9201900959014893,
				-29,
				-7.51210880279541
			],
			"type":"VEC3"
		},
		{
			"bufferView":17,
			"componentType":5126,
			"count":20,
			"type":"VEC3"
		},
		{
			"bufferView":18,
			"componentType":5126,
			"count":20,
			"type":"VEC2"
		},
		{
			"bufferView":19,
			"componentType":5123,
			"count":30,
			"type":"SCALAR"
		},
		{
			"bufferView":20,
			"componentType":5126,
			"count":25462,
			"max":[
				108.85499572753906,
				16.472959518432617,
				108.8550033569336
			],
			"min":[
				-108.85499572753906,
				-16.472959518432617,
				-108.8550033569336
			],
			"type":"VEC3"
		},
		{
			"bufferView":21,
			"componentType":5126,
			"count":25462,
			"type":"VEC3"
		},
		{
			"bufferView":22,
			"componentType":5126,
			"count":25462,
			"type":"VEC2"
		},
		{
			"bufferView":23,
			"componentType":5123,
			"count":82917,
			"type":"SCALAR"
		}
	],
	"bufferViews":[
		{
			"buffer":0,
			"byteLength":17352,
			"byteOffset":0,
			"target":34962
		},
		{
			"buffer":0,
			"byteLength":17352,
			"byteOffset":17352,
			"target":34962
		},
		{
			"buffer":0,
			"byteLength":11568,
			"byteOffset":34704,
			"target":34962
		},
		{
			"buffer":0,
			"byteLength":6240,
			"byteOffset":46272,
			"target":34963
		},
		{
			"buffer":0,
			"byteLength":6168,
			"byteOffset":52512,
			"target":34962
		},
		{
			"buffer":0,
			"byteLength":6168,
			"byteOffset":58680,
			"target":34962
		},
		{
			"buffer":0,
			"byteLength":4112,
			"byteOffset":64848,
			"target":34962
		},
		{
			"buffer":0,
			"byteLength":3120,
			"byteOffset":68960,
			"target":34963
		},
		{
			"buffer":0,
			"byteLength":15384,
			"byteOffset":72080,
			"target":34962
		},
		{
			"buffer":0,
			"byteLength":15384,
			"byteOffset":87464,
			"target":34962
		},
		{
			"buffer":0,
			"byteLength":10256,
			"byteOffset":102848,
			"target":34962
		},
		{
			"buffer":0,
			"byteLength":6270,
			"byteOffset":113104,
			"target":34963
		},
		{
			"buffer":0,
			"byteLength":1248,
			"byteOffset":119376,
			"target":34962
		},
		{
			"buffer":0,
			"byteLength":1248,
			"byteOffset":120624,
			"target":34962
		},
		{
			"buffer":0,
			"byteLength":832,
			"byteOffset":121872,
			"target":34962
		},
		{
			"buffer":0,
			"byteLength":546,
			"byteOffset":122704,
			"target":34963
		},
		{
			"buffer":0,
			"byteLength":240,
			"byteOffset":123252,
			"target":34962
		},
		{
			"buffer":0,
			"byteLength":240,
			"byteOffset":123492,
			"target":34962
		},
		{
			"buffer":0,
			"byteLength":160,
			"byteOffset":123732,
			"target":34962
		},
		{
			"buffer":0,
			"byteLength":60,
			"byteOffset":123892,
			"target":34963
		},
		{
			"buffer":0,
			"byteLength":305544,
			"byteOffset":123952,
			"target":34962
		},
		{
			"buffer":0,
			"byteLength":305544,
			"byteOffset":429496,
			"target":34962
		},
		{
			"buffer":0,
			"byteLength":203696,
			"byteOffset":735040,
			"target":34962
		},
		{
			"buffer":0,
			"byteLength":165834,
			"byteOffset":938736,
			"target":34963
		}
	],
	"buffers":[
		{
			"byteLength":1104572,
			"uri":"c1_m3-a21a4544f5a5b147676c660aac26aa10.bin"
		}
	]
}
