{
	"asset":{
		"generator":"Khronos glTF Blender I/O v4.1.63",
		"version":"2.0"
	},
	"scene":0,
	"scenes":[
		{
			"name":"Scene",
			"nodes":[
				0,
				1,
				2
			]
		}
	],
	"nodes":[
		{
			"mesh":0,
			"name":"PlayerCollisions -colonly"
		},
		{
			"mesh":1,
			"name":"Level (noflip) -noimp"
		},
		{
			"mesh":2,
			"name":"Cube",
			"translation":[
				-19,
				-1,
				-8
			]
		}
	],
	"meshes":[
		{
			"name":"Cube",
			"primitives":[
				{
					"attributes":{
						"POSITION":0,
						"NORMAL":1,
						"TEXCOORD_0":2
					},
					"indices":3
				}
			]
		},
		{
			"name":"Cube.003",
			"primitives":[
				{
					"attributes":{
						"POSITION":4,
						"NORMAL":5,
						"TEXCOORD_0":6
					},
					"indices":7
				}
			]
		},
		{
			"name":"Cube.001",
			"primitives":[
				{
					"attributes":{
						"POSITION":8,
						"NORMAL":9,
						"TEXCOORD_0":10
					},
					"indices":11
				}
			]
		}
	],
	"accessors":[
		{
			"bufferView":0,
			"componentType":5126,
			"count":1212,
			"max":[
				195,
				26,
				-6
			],
			"min":[
				-21,
				-178.6666717529297,
				-97
			],
			"type":"VEC3"
		},
		{
			"bufferView":1,
			"componentType":5126,
			"count":1212,
			"type":"VEC3"
		},
		{
			"bufferView":2,
			"componentType":5126,
			"count":1212,
			"type":"VEC2"
		},
		{
			"bufferView":3,
			"componentType":5123,
			"count":1980,
			"type":"SCALAR"
		},
		{
			"bufferView":4,
			"componentType":5126,
			"count":708,
			"max":[
				194,
				24,
				-7
			],
			"min":[
				-20,
				-178,
				-96
			],
			"type":"VEC3"
		},
		{
			"bufferView":5,
			"componentType":5126,
			"count":708,
			"type":"VEC3"
		},
		{
			"bufferView":6,
			"componentType":5126,
			"count":708,
			"type":"VEC2"
		},
		{
			"bufferView":7,
			"componentType":5123,
			"count":1980,
			"type":"SCALAR"
		},
		{
			"bufferView":8,
			"componentType":5126,
			"count":4302,
			"max":[
				215,
				17.247547149658203,
				2.4142136573791504
			],
			"min":[
				-2.4142136573791504,
				-179,
				-90
			],
			"type":"VEC3"
		},
		{
			"bufferView":9,
			"componentType":5126,
			"count":4302,
			"type":"VEC3"
		},
		{
			"bufferView":10,
			"componentType":5126,
			"count":4302,
			"type":"VEC2"
		},
		{
			"bufferView":11,
			"componentType":5123,
			"count":12204,
			"type":"SCALAR"
		}
	],
	"bufferViews":[
		{
			"buffer":0,
			"byteLength":14544,
			"byteOffset":0,
			"target":34962
		},
		{
			"buffer":0,
			"byteLength":14544,
			"byteOffset":14544,
			"target":34962
		},
		{
			"buffer":0,
			"byteLength":9696,
			"byteOffset":29088,
			"target":34962
		},
		{
			"buffer":0,
			"byteLength":3960,
			"byteOffset":38784,
			"target":34963
		},
		{
			"buffer":0,
			"byteLength":8496,
			"byteOffset":42744,
			"target":34962
		},
		{
			"buffer":0,
			"byteLength":8496,
			"byteOffset":51240,
			"target":34962
		},
		{
			"buffer":0,
			"byteLength":5664,
			"byteOffset":59736,
			"target":34962
		},
		{
			"buffer":0,
			"byteLength":3960,
			"byteOffset":65400,
			"target":34963
		},
		{
			"buffer":0,
			"byteLength":51624,
			"byteOffset":69360,
			"target":34962
		},
		{
			"buffer":0,
			"byteLength":51624,
			"byteOffset":120984,
			"target":34962
		},
		{
			"buffer":0,
			"byteLength":34416,
			"byteOffset":172608,
			"target":34962
		},
		{
			"buffer":0,
			"byteLength":24408,
			"byteOffset":207024,
			"target":34963
		}
	],
	"buffers":[
		{
			"byteLength":231432,
			"uri":"c1_m3-a21a4544f5a5b147676c660aac26aa10.bin"
		}
	]
}
