{
	"asset":{
		"generator":"Khronos glTF Blender I/O v4.1.63",
		"version":"2.0"
	},
	"scene":0,
	"scenes":[
		{
			"name":"Scene",
			"nodes":[
				0,
				1
			]
		}
	],
	"nodes":[
		{
			"mesh":0,
			"name":"Collision -colonly"
		},
		{
			"mesh":1,
			"name":"Level"
		}
	],
	"materials":[
		{
			"alphaMode":"BLEND",
			"doubleSided":true,
			"name":"Transparent",
			"pbrMetallicRoughness":{
				"baseColorFactor":[
					0.800000011920929,
					0.800000011920929,
					0.800000011920929,
					0
				],
				"metallicFactor":0,
				"roughnessFactor":0.5
			}
		}
	],
	"meshes":[
		{
			"name":"Cube",
			"primitives":[
				{
					"attributes":{
						"POSITION":0,
						"NORMAL":1,
						"TEXCOORD_0":2
					},
					"indices":3,
					"material":0
				}
			]
		},
		{
			"name":"Cube.112",
			"primitives":[
				{
					"attributes":{
						"POSITION":4,
						"NORMAL":5,
						"TEXCOORD_0":6
					},
					"indices":7
				}
			]
		}
	],
	"accessors":[
		{
			"bufferView":0,
			"componentType":5126,
			"count":993,
			"max":[
				85.75104522705078,
				16.49941635131836,
				10.499998092651367
			],
			"min":[
				-10.501017570495605,
				-0.8999817371368408,
				-51.49737548828125
			],
			"type":"VEC3"
		},
		{
			"bufferView":1,
			"componentType":5126,
			"count":993,
			"type":"VEC3"
		},
		{
			"bufferView":2,
			"componentType":5126,
			"count":993,
			"type":"VEC2"
		},
		{
			"bufferView":3,
			"componentType":5123,
			"count":1704,
			"type":"SCALAR"
		},
		{
			"bufferView":4,
			"componentType":5126,
			"count":181,
			"max":[
				85,
				15,
				10
			],
			"min":[
				-10,
				0,
				-50
			],
			"type":"VEC3"
		},
		{
			"bufferView":5,
			"componentType":5126,
			"count":181,
			"type":"VEC3"
		},
		{
			"bufferView":6,
			"componentType":5126,
			"count":181,
			"type":"VEC2"
		},
		{
			"bufferView":7,
			"componentType":5123,
			"count":426,
			"type":"SCALAR"
		}
	],
	"bufferViews":[
		{
			"buffer":0,
			"byteLength":11916,
			"byteOffset":0,
			"target":34962
		},
		{
			"buffer":0,
			"byteLength":11916,
			"byteOffset":11916,
			"target":34962
		},
		{
			"buffer":0,
			"byteLength":7944,
			"byteOffset":23832,
			"target":34962
		},
		{
			"buffer":0,
			"byteLength":3408,
			"byteOffset":31776,
			"target":34963
		},
		{
			"buffer":0,
			"byteLength":2172,
			"byteOffset":35184,
			"target":34962
		},
		{
			"buffer":0,
			"byteLength":2172,
			"byteOffset":37356,
			"target":34962
		},
		{
			"buffer":0,
			"byteLength":1448,
			"byteOffset":39528,
			"target":34962
		},
		{
			"buffer":0,
			"byteLength":852,
			"byteOffset":40976,
			"target":34963
		}
	],
	"buffers":[
		{
			"byteLength":41828,
			"uri":"c1_m2-22bb3bd39ec144fe66b6fc27f7c3ed25.bin"
		}
	]
}
