{
	"asset":{
		"generator":"Khronos glTF Blender I/O v4.1.63",
		"version":"2.0"
	},
	"scene":0,
	"scenes":[
		{
			"name":"Scene",
			"nodes":[
				0,
				1
			]
		}
	],
	"nodes":[
		{
			"mesh":0,
			"name":"Collisions-colonly"
		},
		{
			"mesh":1,
			"name":"Level-col"
		}
	],
	"materials":[
		{
			"doubleSided":true,
			"name":"Main",
			"pbrMetallicRoughness":{
				"baseColorFactor":[
					0.800000011920929,
					0.800000011920929,
					0.800000011920929,
					1
				],
				"metallicFactor":0,
				"roughnessFactor":0.5
			}
		},
		{
			"doubleSided":true,
			"name":"Black",
			"pbrMetallicRoughness":{
				"baseColorFactor":[
					0,
					0,
					0,
					1
				],
				"metallicFactor":0
			}
		}
	],
	"meshes":[
		{
			"name":"Cube",
			"primitives":[
				{
					"attributes":{
						"POSITION":0,
						"NORMAL":1,
						"TEXCOORD_0":2
					},
					"indices":3,
					"material":0
				},
				{
					"attributes":{
						"POSITION":4,
						"NORMAL":5,
						"TEXCOORD_0":6
					},
					"indices":7,
					"material":1
				}
			]
		},
		{
			"name":"Cube.003",
			"primitives":[
				{
					"attributes":{
						"POSITION":8,
						"NORMAL":9,
						"TEXCOORD_0":10
					},
					"indices":11,
					"material":0
				},
				{
					"attributes":{
						"POSITION":12,
						"NORMAL":13,
						"TEXCOORD_0":14
					},
					"indices":15,
					"material":1
				}
			]
		}
	],
	"accessors":[
		{
			"bufferView":0,
			"componentType":5126,
			"count":872,
			"max":[
				46,
				14,
				3
			],
			"min":[
				-1.5,
				-12.5,
				-62.5
			],
			"type":"VEC3"
		},
		{
			"bufferView":1,
			"componentType":5126,
			"count":872,
			"type":"VEC3"
		},
		{
			"bufferView":2,
			"componentType":5126,
			"count":872,
			"type":"VEC2"
		},
		{
			"bufferView":3,
			"componentType":5123,
			"count":1704,
			"type":"SCALAR"
		},
		{
			"bufferView":4,
			"componentType":5126,
			"count":80,
			"max":[
				18,
				32,
				1.8000000715255737
			],
			"min":[
				-1.5,
				-42,
				-23
			],
			"type":"VEC3"
		},
		{
			"bufferView":5,
			"componentType":5126,
			"count":80,
			"type":"VEC3"
		},
		{
			"bufferView":6,
			"componentType":5126,
			"count":80,
			"type":"VEC2"
		},
		{
			"bufferView":7,
			"componentType":5123,
			"count":120,
			"type":"SCALAR"
		},
		{
			"bufferView":8,
			"componentType":5126,
			"count":306,
			"max":[
				43,
				11,
				0
			],
			"min":[
				0,
				-11,
				-61
			],
			"type":"VEC3"
		},
		{
			"bufferView":9,
			"componentType":5126,
			"count":306,
			"type":"VEC3"
		},
		{
			"bufferView":10,
			"componentType":5126,
			"count":306,
			"type":"VEC2"
		},
		{
			"bufferView":11,
			"componentType":5123,
			"count":846,
			"type":"SCALAR"
		},
		{
			"bufferView":12,
			"componentType":5126,
			"count":40,
			"max":[
				17,
				31,
				0
			],
			"min":[
				0,
				-41,
				-22
			],
			"type":"VEC3"
		},
		{
			"bufferView":13,
			"componentType":5126,
			"count":40,
			"type":"VEC3"
		},
		{
			"bufferView":14,
			"componentType":5126,
			"count":40,
			"type":"VEC2"
		},
		{
			"bufferView":15,
			"componentType":5123,
			"count":60,
			"type":"SCALAR"
		}
	],
	"bufferViews":[
		{
			"buffer":0,
			"byteLength":10464,
			"byteOffset":0,
			"target":34962
		},
		{
			"buffer":0,
			"byteLength":10464,
			"byteOffset":10464,
			"target":34962
		},
		{
			"buffer":0,
			"byteLength":6976,
			"byteOffset":20928,
			"target":34962
		},
		{
			"buffer":0,
			"byteLength":3408,
			"byteOffset":27904,
			"target":34963
		},
		{
			"buffer":0,
			"byteLength":960,
			"byteOffset":31312,
			"target":34962
		},
		{
			"buffer":0,
			"byteLength":960,
			"byteOffset":32272,
			"target":34962
		},
		{
			"buffer":0,
			"byteLength":640,
			"byteOffset":33232,
			"target":34962
		},
		{
			"buffer":0,
			"byteLength":240,
			"byteOffset":33872,
			"target":34963
		},
		{
			"buffer":0,
			"byteLength":3672,
			"byteOffset":34112,
			"target":34962
		},
		{
			"buffer":0,
			"byteLength":3672,
			"byteOffset":37784,
			"target":34962
		},
		{
			"buffer":0,
			"byteLength":2448,
			"byteOffset":41456,
			"target":34962
		},
		{
			"buffer":0,
			"byteLength":1692,
			"byteOffset":43904,
			"target":34963
		},
		{
			"buffer":0,
			"byteLength":480,
			"byteOffset":45596,
			"target":34962
		},
		{
			"buffer":0,
			"byteLength":480,
			"byteOffset":46076,
			"target":34962
		},
		{
			"buffer":0,
			"byteLength":320,
			"byteOffset":46556,
			"target":34962
		},
		{
			"buffer":0,
			"byteLength":120,
			"byteOffset":46876,
			"target":34963
		}
	],
	"buffers":[
		{
			"byteLength":46996,
			"uri":"c1_m6-6d8a711fff75fdac978c450d0ecdf2f5.bin"
		}
	]
}
