{
	"asset":{
		"generator":"Khronos glTF Blender I/O v4.1.63",
		"version":"2.0"
	},
	"scene":0,
	"scenes":[
		{
			"name":"Scene",
			"nodes":[
				0,
				1,
				2,
				3
			]
		}
	],
	"nodes":[
		{
			"mesh":0,
			"name":"Blockout-noimp"
		},
		{
			"mesh":1,
			"name":"Collisions-colonly"
		},
		{
			"mesh":2,
			"name":"Floor",
			"translation":[
				0,
				-1,
				0
			]
		},
		{
			"mesh":3,
			"name":"Cube",
			"translation":[
				-6,
				0,
				0
			]
		}
	],
	"meshes":[
		{
			"name":"Cube.001",
			"primitives":[
				{
					"attributes":{
						"POSITION":0,
						"NORMAL":1,
						"TEXCOORD_0":2,
						"TANGENT":3
					},
					"indices":4
				}
			]
		},
		{
			"name":"Cube.003",
			"primitives":[
				{
					"attributes":{
						"POSITION":5,
						"NORMAL":6,
						"TEXCOORD_0":7,
						"TANGENT":8
					},
					"indices":9
				}
			]
		},
		{
			"name":"Cube.004",
			"primitives":[
				{
					"attributes":{
						"POSITION":10,
						"NORMAL":11,
						"TEXCOORD_0":12,
						"TANGENT":13
					},
					"indices":14
				}
			]
		},
		{
			"name":"Cube.005",
			"primitives":[
				{
					"attributes":{
						"POSITION":15,
						"NORMAL":16,
						"TEXCOORD_0":17,
						"TANGENT":18
					},
					"indices":19
				}
			]
		}
	],
	"accessors":[
		{
			"bufferView":0,
			"componentType":5126,
			"count":718,
			"max":[
				115,
				22,
				75
			],
			"min":[
				-5,
				-3,
				-20
			],
			"type":"VEC3"
		},
		{
			"bufferView":1,
			"componentType":5126,
			"count":718,
			"type":"VEC3"
		},
		{
			"bufferView":2,
			"componentType":5126,
			"count":718,
			"type":"VEC2"
		},
		{
			"bufferView":3,
			"componentType":5126,
			"count":718,
			"type":"VEC4"
		},
		{
			"bufferView":4,
			"componentType":5123,
			"count":1632,
			"type":"SCALAR"
		},
		{
			"bufferView":5,
			"componentType":5126,
			"count":1792,
			"max":[
				116.5,
				23.799999237060547,
				76.5
			],
			"min":[
				-6,
				-4.714495658874512,
				-21.5
			],
			"type":"VEC3"
		},
		{
			"bufferView":6,
			"componentType":5126,
			"count":1792,
			"type":"VEC3"
		},
		{
			"bufferView":7,
			"componentType":5126,
			"count":1792,
			"type":"VEC2"
		},
		{
			"bufferView":8,
			"componentType":5126,
			"count":1792,
			"type":"VEC4"
		},
		{
			"bufferView":9,
			"componentType":5123,
			"count":3264,
			"type":"SCALAR"
		},
		{
			"bufferView":10,
			"componentType":5126,
			"count":710,
			"max":[
				115,
				1,
				75
			],
			"min":[
				-5,
				-4,
				-20
			],
			"type":"VEC3"
		},
		{
			"bufferView":11,
			"componentType":5126,
			"count":710,
			"type":"VEC3"
		},
		{
			"bufferView":12,
			"componentType":5126,
			"count":710,
			"type":"VEC2"
		},
		{
			"bufferView":13,
			"componentType":5126,
			"count":710,
			"type":"VEC4"
		},
		{
			"bufferView":14,
			"componentType":5123,
			"count":1536,
			"type":"SCALAR"
		},
		{
			"bufferView":15,
			"componentType":5126,
			"count":3140,
			"max":[
				123,
				16,
				77
			],
			"min":[
				-1,
				-4,
				-22
			],
			"type":"VEC3"
		},
		{
			"bufferView":16,
			"componentType":5126,
			"count":3140,
			"type":"VEC3"
		},
		{
			"bufferView":17,
			"componentType":5126,
			"count":3140,
			"type":"VEC2"
		},
		{
			"bufferView":18,
			"componentType":5126,
			"count":3140,
			"type":"VEC4"
		},
		{
			"bufferView":19,
			"componentType":5123,
			"count":9768,
			"type":"SCALAR"
		}
	],
	"bufferViews":[
		{
			"buffer":0,
			"byteLength":8616,
			"byteOffset":0,
			"target":34962
		},
		{
			"buffer":0,
			"byteLength":8616,
			"byteOffset":8616,
			"target":34962
		},
		{
			"buffer":0,
			"byteLength":5744,
			"byteOffset":17232,
			"target":34962
		},
		{
			"buffer":0,
			"byteLength":11488,
			"byteOffset":22976,
			"target":34962
		},
		{
			"buffer":0,
			"byteLength":3264,
			"byteOffset":34464,
			"target":34963
		},
		{
			"buffer":0,
			"byteLength":21504,
			"byteOffset":37728,
			"target":34962
		},
		{
			"buffer":0,
			"byteLength":21504,
			"byteOffset":59232,
			"target":34962
		},
		{
			"buffer":0,
			"byteLength":14336,
			"byteOffset":80736,
			"target":34962
		},
		{
			"buffer":0,
			"byteLength":28672,
			"byteOffset":95072,
			"target":34962
		},
		{
			"buffer":0,
			"byteLength":6528,
			"byteOffset":123744,
			"target":34963
		},
		{
			"buffer":0,
			"byteLength":8520,
			"byteOffset":130272,
			"target":34962
		},
		{
			"buffer":0,
			"byteLength":8520,
			"byteOffset":138792,
			"target":34962
		},
		{
			"buffer":0,
			"byteLength":5680,
			"byteOffset":147312,
			"target":34962
		},
		{
			"buffer":0,
			"byteLength":11360,
			"byteOffset":152992,
			"target":34962
		},
		{
			"buffer":0,
			"byteLength":3072,
			"byteOffset":164352,
			"target":34963
		},
		{
			"buffer":0,
			"byteLength":37680,
			"byteOffset":167424,
			"target":34962
		},
		{
			"buffer":0,
			"byteLength":37680,
			"byteOffset":205104,
			"target":34962
		},
		{
			"buffer":0,
			"byteLength":25120,
			"byteOffset":242784,
			"target":34962
		},
		{
			"buffer":0,
			"byteLength":50240,
			"byteOffset":267904,
			"target":34962
		},
		{
			"buffer":0,
			"byteLength":19536,
			"byteOffset":318144,
			"target":34963
		}
	],
	"buffers":[
		{
			"byteLength":337680,
			"uri":"c1_m9-5fdbeadc208b13cf0510de512ee0f77d.bin"
		}
	]
}
