{
	"asset":{
		"generator":"Khronos glTF Blender I/O v4.1.63",
		"version":"2.0"
	},
	"scene":0,
	"scenes":[
		{
			"name":"Scene",
			"nodes":[
				0,
				1,
				2
			]
		}
	],
	"nodes":[
		{
			"mesh":0,
			"name":"Level -noimp"
		},
		{
			"mesh":1,
			"name":"Collisions-colonly"
		},
		{
			"mesh":2,
			"name":"Level (fixed)"
		}
	],
	"meshes":[
		{
			"name":"Cube.001",
			"primitives":[
				{
					"attributes":{
						"POSITION":0,
						"NORMAL":1,
						"TEXCOORD_0":2
					},
					"indices":3
				}
			]
		},
		{
			"name":"Cube",
			"primitives":[
				{
					"attributes":{
						"POSITION":4,
						"NORMAL":5,
						"TEXCOORD_0":6
					},
					"indices":7
				}
			]
		},
		{
			"name":"Cube.002",
			"primitives":[
				{
					"attributes":{
						"POSITION":8,
						"NORMAL":9,
						"TEXCOORD_0":10
					},
					"indices":11
				}
			]
		}
	],
	"accessors":[
		{
			"bufferView":0,
			"componentType":5126,
			"count":425,
			"max":[
				43,
				11,
				0
			],
			"min":[
				0,
				-11,
				-60
			],
			"type":"VEC3"
		},
		{
			"bufferView":1,
			"componentType":5126,
			"count":425,
			"type":"VEC3"
		},
		{
			"bufferView":2,
			"componentType":5126,
			"count":425,
			"type":"VEC2"
		},
		{
			"bufferView":3,
			"componentType":5123,
			"count":1080,
			"type":"SCALAR"
		},
		{
			"bufferView":4,
			"componentType":5126,
			"count":1130,
			"max":[
				46,
				14,
				3
			],
			"min":[
				-1.5,
				-12.5,
				-61
			],
			"type":"VEC3"
		},
		{
			"bufferView":5,
			"componentType":5126,
			"count":1130,
			"type":"VEC3"
		},
		{
			"bufferView":6,
			"componentType":5126,
			"count":1130,
			"type":"VEC2"
		},
		{
			"bufferView":7,
			"componentType":5123,
			"count":2160,
			"type":"SCALAR"
		},
		{
			"bufferView":8,
			"componentType":5126,
			"count":422,
			"max":[
				43,
				11,
				0
			],
			"min":[
				0,
				-11,
				-60
			],
			"type":"VEC3"
		},
		{
			"bufferView":9,
			"componentType":5126,
			"count":422,
			"type":"VEC3"
		},
		{
			"bufferView":10,
			"componentType":5126,
			"count":422,
			"type":"VEC2"
		},
		{
			"bufferView":11,
			"componentType":5123,
			"count":1080,
			"type":"SCALAR"
		}
	],
	"bufferViews":[
		{
			"buffer":0,
			"byteLength":5100,
			"byteOffset":0,
			"target":34962
		},
		{
			"buffer":0,
			"byteLength":5100,
			"byteOffset":5100,
			"target":34962
		},
		{
			"buffer":0,
			"byteLength":3400,
			"byteOffset":10200,
			"target":34962
		},
		{
			"buffer":0,
			"byteLength":2160,
			"byteOffset":13600,
			"target":34963
		},
		{
			"buffer":0,
			"byteLength":13560,
			"byteOffset":15760,
			"target":34962
		},
		{
			"buffer":0,
			"byteLength":13560,
			"byteOffset":29320,
			"target":34962
		},
		{
			"buffer":0,
			"byteLength":9040,
			"byteOffset":42880,
			"target":34962
		},
		{
			"buffer":0,
			"byteLength":4320,
			"byteOffset":51920,
			"target":34963
		},
		{
			"buffer":0,
			"byteLength":5064,
			"byteOffset":56240,
			"target":34962
		},
		{
			"buffer":0,
			"byteLength":5064,
			"byteOffset":61304,
			"target":34962
		},
		{
			"buffer":0,
			"byteLength":3376,
			"byteOffset":66368,
			"target":34962
		},
		{
			"buffer":0,
			"byteLength":2160,
			"byteOffset":69744,
			"target":34963
		}
	],
	"buffers":[
		{
			"byteLength":71904,
			"uri":"c1_m6-ee806b5c1706214a041d441bfa35ef6b.bin"
		}
	]
}
