{
	"asset":{
		"generator":"Khronos glTF Blender I/O v4.1.63",
		"version":"2.0"
	},
	"scene":0,
	"scenes":[
		{
			"name":"Scene",
			"nodes":[
				0,
				1,
				2,
				3
			]
		}
	],
	"nodes":[
		{
			"mesh":0,
			"name":"LevelVisuals"
		},
		{
			"mesh":1,
			"name":"Level (noflip) -noimp"
		},
		{
			"mesh":2,
			"name":"CursorCollisions -noimp"
		},
		{
			"mesh":3,
			"name":"PlayerCollisions -colonly"
		}
	],
	"meshes":[
		{
			"name":"Cube.002",
			"primitives":[
				{
					"attributes":{
						"POSITION":0,
						"NORMAL":1,
						"TEXCOORD_0":2
					},
					"indices":3
				}
			]
		},
		{
			"name":"Cube.003",
			"primitives":[
				{
					"attributes":{
						"POSITION":4,
						"NORMAL":5,
						"TEXCOORD_0":6
					},
					"indices":7
				}
			]
		},
		{
			"name":"Cube.004",
			"primitives":[
				{
					"attributes":{
						"POSITION":8,
						"NORMAL":9,
						"TEXCOORD_0":10
					},
					"indices":11
				}
			]
		},
		{
			"name":"Cube",
			"primitives":[
				{
					"attributes":{
						"POSITION":12,
						"NORMAL":13,
						"TEXCOORD_0":14
					},
					"indices":15
				}
			]
		}
	],
	"accessors":[
		{
			"bufferView":0,
			"componentType":5126,
			"count":588,
			"max":[
				194,
				26.123638153076172,
				-6.75
			],
			"min":[
				-20,
				-146,
				-96
			],
			"type":"VEC3"
		},
		{
			"bufferView":1,
			"componentType":5126,
			"count":588,
			"type":"VEC3"
		},
		{
			"bufferView":2,
			"componentType":5126,
			"count":588,
			"type":"VEC2"
		},
		{
			"bufferView":3,
			"componentType":5123,
			"count":1500,
			"type":"SCALAR"
		},
		{
			"bufferView":4,
			"componentType":5126,
			"count":559,
			"max":[
				194,
				26.123638153076172,
				-6.75
			],
			"min":[
				-20,
				-146,
				-96
			],
			"type":"VEC3"
		},
		{
			"bufferView":5,
			"componentType":5126,
			"count":559,
			"type":"VEC3"
		},
		{
			"bufferView":6,
			"componentType":5126,
			"count":559,
			"type":"VEC2"
		},
		{
			"bufferView":7,
			"componentType":5123,
			"count":1500,
			"type":"SCALAR"
		},
		{
			"bufferView":8,
			"componentType":5126,
			"count":1494,
			"max":[
				195,
				26.802778244018555,
				-6.083333492279053
			],
			"min":[
				-20.66666603088379,
				-146.6666717529297,
				-96.66666412353516
			],
			"type":"VEC3"
		},
		{
			"bufferView":9,
			"componentType":5126,
			"count":1494,
			"type":"VEC3"
		},
		{
			"bufferView":10,
			"componentType":5126,
			"count":1494,
			"type":"VEC2"
		},
		{
			"bufferView":11,
			"componentType":5123,
			"count":3000,
			"type":"SCALAR"
		},
		{
			"bufferView":12,
			"componentType":5126,
			"count":1463,
			"max":[
				195,
				26.802778244018555,
				-6.083333492279053
			],
			"min":[
				-20.66666603088379,
				-146.6666717529297,
				-96.66666412353516
			],
			"type":"VEC3"
		},
		{
			"bufferView":13,
			"componentType":5126,
			"count":1463,
			"type":"VEC3"
		},
		{
			"bufferView":14,
			"componentType":5126,
			"count":1463,
			"type":"VEC2"
		},
		{
			"bufferView":15,
			"componentType":5123,
			"count":3000,
			"type":"SCALAR"
		}
	],
	"bufferViews":[
		{
			"buffer":0,
			"byteLength":7056,
			"byteOffset":0,
			"target":34962
		},
		{
			"buffer":0,
			"byteLength":7056,
			"byteOffset":7056,
			"target":34962
		},
		{
			"buffer":0,
			"byteLength":4704,
			"byteOffset":14112,
			"target":34962
		},
		{
			"buffer":0,
			"byteLength":3000,
			"byteOffset":18816,
			"target":34963
		},
		{
			"buffer":0,
			"byteLength":6708,
			"byteOffset":21816,
			"target":34962
		},
		{
			"buffer":0,
			"byteLength":6708,
			"byteOffset":28524,
			"target":34962
		},
		{
			"buffer":0,
			"byteLength":4472,
			"byteOffset":35232,
			"target":34962
		},
		{
			"buffer":0,
			"byteLength":3000,
			"byteOffset":39704,
			"target":34963
		},
		{
			"buffer":0,
			"byteLength":17928,
			"byteOffset":42704,
			"target":34962
		},
		{
			"buffer":0,
			"byteLength":17928,
			"byteOffset":60632,
			"target":34962
		},
		{
			"buffer":0,
			"byteLength":11952,
			"byteOffset":78560,
			"target":34962
		},
		{
			"buffer":0,
			"byteLength":6000,
			"byteOffset":90512,
			"target":34963
		},
		{
			"buffer":0,
			"byteLength":17556,
			"byteOffset":96512,
			"target":34962
		},
		{
			"buffer":0,
			"byteLength":17556,
			"byteOffset":114068,
			"target":34962
		},
		{
			"buffer":0,
			"byteLength":11704,
			"byteOffset":131624,
			"target":34962
		},
		{
			"buffer":0,
			"byteLength":6000,
			"byteOffset":143328,
			"target":34963
		}
	],
	"buffers":[
		{
			"byteLength":149328,
			"uri":"c1_m3-a21a4544f5a5b147676c660aac26aa10.bin"
		}
	]
}
