{
	"asset":{
		"generator":"Khronos glTF Blender I/O v4.1.63",
		"version":"2.0"
	},
	"scene":0,
	"scenes":[
		{
			"name":"Scene",
			"nodes":[
				0,
				1,
				2,
				3
			]
		}
	],
	"nodes":[
		{
			"mesh":0,
			"name":"Level"
		},
		{
			"mesh":1,
			"name":"Collisions -colonly"
		},
		{
			"mesh":2,
			"name":"Pain-col",
			"translation":[
				21,
				-1.5,
				0
			]
		},
		{
			"mesh":3,
			"name":"Pain spare-noimp",
			"translation":[
				21,
				-1.5,
				0
			]
		}
	],
	"materials":[
		{
			"doubleSided":true,
			"name":"Material",
			"pbrMetallicRoughness":{
				"baseColorFactor":[
					0.800000011920929,
					0.800000011920929,
					0.800000011920929,
					1
				],
				"metallicFactor":0,
				"roughnessFactor":0.5
			}
		}
	],
	"meshes":[
		{
			"name":"Cube.001",
			"primitives":[
				{
					"attributes":{
						"POSITION":0,
						"NORMAL":1,
						"TEXCOORD_0":2
					},
					"indices":3
				}
			]
		},
		{
			"name":"Cube.002",
			"primitives":[
				{
					"attributes":{
						"POSITION":4,
						"NORMAL":5,
						"TEXCOORD_0":6
					},
					"indices":7
				}
			]
		},
		{
			"name":"Cube",
			"primitives":[
				{
					"attributes":{
						"POSITION":8,
						"NORMAL":9,
						"TEXCOORD_0":10
					},
					"indices":11,
					"material":0
				}
			]
		},
		{
			"name":"Cube.003",
			"primitives":[
				{
					"attributes":{
						"POSITION":12,
						"NORMAL":13,
						"TEXCOORD_0":14
					},
					"indices":15,
					"material":0
				},
				{
					"attributes":{
						"POSITION":16,
						"NORMAL":17,
						"TEXCOORD_0":18
					},
					"indices":19,
					"material":0
				}
			]
		}
	],
	"accessors":[
		{
			"bufferView":0,
			"componentType":5126,
			"count":434,
			"max":[
				145,
				10,
				10
			],
			"min":[
				-5,
				-40,
				-50
			],
			"type":"VEC3"
		},
		{
			"bufferView":1,
			"componentType":5126,
			"count":434,
			"type":"VEC3"
		},
		{
			"bufferView":2,
			"componentType":5126,
			"count":434,
			"type":"VEC2"
		},
		{
			"bufferView":3,
			"componentType":5123,
			"count":996,
			"type":"SCALAR"
		},
		{
			"bufferView":4,
			"componentType":5126,
			"count":1084,
			"max":[
				146,
				12,
				12
			],
			"min":[
				-5.666666507720947,
				-40.66666793823242,
				-51
			],
			"type":"VEC3"
		},
		{
			"bufferView":5,
			"componentType":5126,
			"count":1084,
			"type":"VEC3"
		},
		{
			"bufferView":6,
			"componentType":5126,
			"count":1084,
			"type":"VEC2"
		},
		{
			"bufferView":7,
			"componentType":5123,
			"count":1992,
			"type":"SCALAR"
		},
		{
			"bufferView":8,
			"componentType":5126,
			"count":284,
			"max":[
				124,
				1,
				10
			],
			"min":[
				-1,
				-0.5,
				-50
			],
			"type":"VEC3"
		},
		{
			"bufferView":9,
			"componentType":5126,
			"count":284,
			"type":"VEC3"
		},
		{
			"bufferView":10,
			"componentType":5126,
			"count":284,
			"type":"VEC2"
		},
		{
			"bufferView":11,
			"componentType":5123,
			"count":636,
			"type":"SCALAR"
		},
		{
			"bufferView":12,
			"componentType":5126,
			"count":86,
			"max":[
				124,
				1,
				10
			],
			"min":[
				-1,
				-0.5,
				-50
			],
			"type":"VEC3"
		},
		{
			"bufferView":13,
			"componentType":5126,
			"count":86,
			"type":"VEC3"
		},
		{
			"bufferView":14,
			"componentType":5126,
			"count":86,
			"type":"VEC2"
		},
		{
			"bufferView":15,
			"componentType":5123,
			"count":231,
			"type":"SCALAR"
		},
		{
			"bufferView":16,
			"componentType":5126,
			"count":205,
			"max":[
				124,
				1,
				10
			],
			"min":[
				-1,
				-0.5,
				-50
			],
			"type":"VEC3"
		},
		{
			"bufferView":17,
			"componentType":5126,
			"count":205,
			"type":"VEC3"
		},
		{
			"bufferView":18,
			"componentType":5126,
			"count":205,
			"type":"VEC2"
		},
		{
			"bufferView":19,
			"componentType":5123,
			"count":405,
			"type":"SCALAR"
		}
	],
	"bufferViews":[
		{
			"buffer":0,
			"byteLength":5208,
			"byteOffset":0,
			"target":34962
		},
		{
			"buffer":0,
			"byteLength":5208,
			"byteOffset":5208,
			"target":34962
		},
		{
			"buffer":0,
			"byteLength":3472,
			"byteOffset":10416,
			"target":34962
		},
		{
			"buffer":0,
			"byteLength":1992,
			"byteOffset":13888,
			"target":34963
		},
		{
			"buffer":0,
			"byteLength":13008,
			"byteOffset":15880,
			"target":34962
		},
		{
			"buffer":0,
			"byteLength":13008,
			"byteOffset":28888,
			"target":34962
		},
		{
			"buffer":0,
			"byteLength":8672,
			"byteOffset":41896,
			"target":34962
		},
		{
			"buffer":0,
			"byteLength":3984,
			"byteOffset":50568,
			"target":34963
		},
		{
			"buffer":0,
			"byteLength":3408,
			"byteOffset":54552,
			"target":34962
		},
		{
			"buffer":0,
			"byteLength":3408,
			"byteOffset":57960,
			"target":34962
		},
		{
			"buffer":0,
			"byteLength":2272,
			"byteOffset":61368,
			"target":34962
		},
		{
			"buffer":0,
			"byteLength":1272,
			"byteOffset":63640,
			"target":34963
		},
		{
			"buffer":0,
			"byteLength":1032,
			"byteOffset":64912,
			"target":34962
		},
		{
			"buffer":0,
			"byteLength":1032,
			"byteOffset":65944,
			"target":34962
		},
		{
			"buffer":0,
			"byteLength":688,
			"byteOffset":66976,
			"target":34962
		},
		{
			"buffer":0,
			"byteLength":462,
			"byteOffset":67664,
			"target":34963
		},
		{
			"buffer":0,
			"byteLength":2460,
			"byteOffset":68128,
			"target":34962
		},
		{
			"buffer":0,
			"byteLength":2460,
			"byteOffset":70588,
			"target":34962
		},
		{
			"buffer":0,
			"byteLength":1640,
			"byteOffset":73048,
			"target":34962
		},
		{
			"buffer":0,
			"byteLength":810,
			"byteOffset":74688,
			"target":34963
		}
	],
	"buffers":[
		{
			"byteLength":75500,
			"uri":"c1_m7-2f20b93fd2af95c7500542a3a8f57136.bin"
		}
	]
}
