{
	"asset":{
		"generator":"Khronos glTF Blender I/O v4.1.63",
		"version":"2.0"
	},
	"scene":0,
	"scenes":[
		{
			"name":"Scene",
			"nodes":[
				0,
				1,
				2,
				3,
				4
			]
		}
	],
	"nodes":[
		{
			"mesh":0,
			"name":"Blockout-noimp"
		},
		{
			"mesh":1,
			"name":"Collisions-colonly"
		},
		{
			"mesh":2,
			"name":"Terrain "
		},
		{
			"mesh":3,
			"name":"Walls-col",
			"translation":[
				1.8722822666168213,
				-4.507599353790283,
				-1.7671301364898682
			]
		},
		{
			"mesh":4,
			"name":"Floor-col",
			"translation":[
				-40.848995208740234,
				-11.080446243286133,
				0.6949853897094727
			]
		}
	],
	"meshes":[
		{
			"name":"Cube.001",
			"primitives":[
				{
					"attributes":{
						"POSITION":0,
						"NORMAL":1
					},
					"indices":2
				}
			]
		},
		{
			"name":"Cube",
			"primitives":[
				{
					"attributes":{
						"POSITION":3,
						"NORMAL":4
					},
					"indices":5
				}
			]
		},
		{
			"name":"Cube.005",
			"primitives":[
				{
					"attributes":{
						"POSITION":6,
						"NORMAL":7
					},
					"indices":8
				}
			]
		},
		{
			"name":"Cube.003",
			"primitives":[
				{
					"attributes":{
						"POSITION":9,
						"NORMAL":10,
						"TEXCOORD_0":11,
						"TANGENT":12
					},
					"indices":13
				}
			]
		},
		{
			"name":"Plane",
			"primitives":[
				{
					"attributes":{
						"POSITION":14,
						"NORMAL":15,
						"TEXCOORD_0":16
					},
					"indices":17
				}
			]
		}
	],
	"accessors":[
		{
			"bufferView":0,
			"componentType":5126,
			"count":226,
			"max":[
				38.70656967163086,
				28.363996505737305,
				27.472763061523438
			],
			"min":[
				-41.848995208740234,
				-62.10120391845703,
				-30.860572814941406
			],
			"type":"VEC3"
		},
		{
			"bufferView":1,
			"componentType":5126,
			"count":226,
			"type":"VEC3"
		},
		{
			"bufferView":2,
			"componentType":5123,
			"count":462,
			"type":"SCALAR"
		},
		{
			"bufferView":3,
			"componentType":5126,
			"count":666,
			"max":[
				39.90657043457031,
				31.363996505737305,
				30.472763061523438
			],
			"min":[
				-43.348995208740234,
				-63.60120391845703,
				-31.860572814941406
			],
			"type":"VEC3"
		},
		{
			"bufferView":4,
			"componentType":5126,
			"count":666,
			"type":"VEC3"
		},
		{
			"bufferView":5,
			"componentType":5123,
			"count":924,
			"type":"SCALAR"
		},
		{
			"bufferView":6,
			"componentType":5126,
			"count":24188,
			"max":[
				108.85499572753906,
				16.472959518432617,
				108.8550033569336
			],
			"min":[
				-108.85499572753906,
				-16.472959518432617,
				-108.8550033569336
			],
			"type":"VEC3"
		},
		{
			"bufferView":7,
			"componentType":5126,
			"count":24188,
			"type":"VEC3"
		},
		{
			"bufferView":8,
			"componentType":5123,
			"count":79944,
			"type":"SCALAR"
		},
		{
			"bufferView":9,
			"componentType":5126,
			"count":3105,
			"max":[
				38.83466339111328,
				13.995023727416992,
				31.239959716796875
			],
			"min":[
				-45.72090148925781,
				-7.004975318908691,
				-31.09337615966797
			],
			"type":"VEC3"
		},
		{
			"bufferView":10,
			"componentType":5126,
			"count":3105,
			"type":"VEC3"
		},
		{
			"bufferView":11,
			"componentType":5126,
			"count":3105,
			"type":"VEC2"
		},
		{
			"bufferView":12,
			"componentType":5126,
			"count":3105,
			"type":"VEC4"
		},
		{
			"bufferView":13,
			"componentType":5123,
			"count":10032,
			"type":"SCALAR"
		},
		{
			"bufferView":14,
			"componentType":5126,
			"count":346,
			"max":[
				79.55593872070312,
				7.555553436279297,
				26.777843475341797
			],
			"min":[
				-1,
				-62.470001220703125,
				-31.555492401123047
			],
			"type":"VEC3"
		},
		{
			"bufferView":15,
			"componentType":5126,
			"count":346,
			"type":"VEC3"
		},
		{
			"bufferView":16,
			"componentType":5126,
			"count":346,
			"type":"VEC2"
		},
		{
			"bufferView":17,
			"componentType":5123,
			"count":732,
			"type":"SCALAR"
		}
	],
	"bufferViews":[
		{
			"buffer":0,
			"byteLength":2712,
			"byteOffset":0,
			"target":34962
		},
		{
			"buffer":0,
			"byteLength":2712,
			"byteOffset":2712,
			"target":34962
		},
		{
			"buffer":0,
			"byteLength":924,
			"byteOffset":5424,
			"target":34963
		},
		{
			"buffer":0,
			"byteLength":7992,
			"byteOffset":6348,
			"target":34962
		},
		{
			"buffer":0,
			"byteLength":7992,
			"byteOffset":14340,
			"target":34962
		},
		{
			"buffer":0,
			"byteLength":1848,
			"byteOffset":22332,
			"target":34963
		},
		{
			"buffer":0,
			"byteLength":290256,
			"byteOffset":24180,
			"target":34962
		},
		{
			"buffer":0,
			"byteLength":290256,
			"byteOffset":314436,
			"target":34962
		},
		{
			"buffer":0,
			"byteLength":159888,
			"byteOffset":604692,
			"target":34963
		},
		{
			"buffer":0,
			"byteLength":37260,
			"byteOffset":764580,
			"target":34962
		},
		{
			"buffer":0,
			"byteLength":37260,
			"byteOffset":801840,
			"target":34962
		},
		{
			"buffer":0,
			"byteLength":24840,
			"byteOffset":839100,
			"target":34962
		},
		{
			"buffer":0,
			"byteLength":49680,
			"byteOffset":863940,
			"target":34962
		},
		{
			"buffer":0,
			"byteLength":20064,
			"byteOffset":913620,
			"target":34963
		},
		{
			"buffer":0,
			"byteLength":4152,
			"byteOffset":933684,
			"target":34962
		},
		{
			"buffer":0,
			"byteLength":4152,
			"byteOffset":937836,
			"target":34962
		},
		{
			"buffer":0,
			"byteLength":2768,
			"byteOffset":941988,
			"target":34962
		},
		{
			"buffer":0,
			"byteLength":1464,
			"byteOffset":944756,
			"target":34963
		}
	],
	"buffers":[
		{
			"byteLength":946220,
			"uri":"c1_m5-e175c6aeff2d11d61eab7dbb41368912.bin"
		}
	]
}
