{
	"asset":{
		"generator":"Khronos glTF Blender I/O v4.1.63",
		"version":"2.0"
	},
	"scene":0,
	"scenes":[
		{
			"name":"Scene",
			"nodes":[
				0,
				1,
				2,
				3
			]
		}
	],
	"nodes":[
		{
			"mesh":0,
			"name":"Level"
		},
		{
			"mesh":1,
			"name":"Collisions -colonly"
		},
		{
			"mesh":2,
			"name":"Pain-col",
			"translation":[
				21,
				-1.5,
				0
			]
		},
		{
			"mesh":3,
			"name":"Pain spare-noimp",
			"translation":[
				21,
				-1.5,
				0
			]
		}
	],
	"materials":[
		{
			"doubleSided":true,
			"name":"Material",
			"pbrMetallicRoughness":{
				"metallicFactor":0,
				"roughnessFactor":0.5
			}
		},
		{
			"doubleSided":true,
			"name":"Black",
			"pbrMetallicRoughness":{
				"baseColorFactor":[
					0,
					0,
					0,
					1
				],
				"metallicFactor":0
			}
		}
	],
	"meshes":[
		{
			"name":"Cube.001",
			"primitives":[
				{
					"attributes":{
						"POSITION":0,
						"NORMAL":1,
						"TEXCOORD_0":2
					},
					"indices":3,
					"material":0
				},
				{
					"attributes":{
						"POSITION":4,
						"NORMAL":5,
						"TEXCOORD_0":6
					},
					"indices":7,
					"material":1
				}
			]
		},
		{
			"name":"Cube.002",
			"primitives":[
				{
					"attributes":{
						"POSITION":8,
						"NORMAL":9,
						"TEXCOORD_0":10
					},
					"indices":11,
					"material":0
				},
				{
					"attributes":{
						"POSITION":12,
						"NORMAL":13,
						"TEXCOORD_0":14
					},
					"indices":15,
					"material":1
				}
			]
		},
		{
			"name":"Cube",
			"primitives":[
				{
					"attributes":{
						"POSITION":16,
						"NORMAL":17,
						"TEXCOORD_0":18
					},
					"indices":19,
					"material":0
				}
			]
		},
		{
			"name":"Cube.003",
			"primitives":[
				{
					"attributes":{
						"POSITION":20,
						"NORMAL":21,
						"TEXCOORD_0":22
					},
					"indices":23,
					"material":0
				}
			]
		}
	],
	"accessors":[
		{
			"bufferView":0,
			"componentType":5126,
			"count":414,
			"max":[
				145,
				10,
				10
			],
			"min":[
				-5,
				-2,
				-50
			],
			"type":"VEC3"
		},
		{
			"bufferView":1,
			"componentType":5126,
			"count":414,
			"type":"VEC3"
		},
		{
			"bufferView":2,
			"componentType":5126,
			"count":414,
			"type":"VEC2"
		},
		{
			"bufferView":3,
			"componentType":5123,
			"count":966,
			"type":"SCALAR"
		},
		{
			"bufferView":4,
			"componentType":5126,
			"count":20,
			"max":[
				2.9771785736083984,
				0,
				2.9771785736083984
			],
			"min":[
				-2.9771785736083984,
				-40,
				-2.9771785736083984
			],
			"type":"VEC3"
		},
		{
			"bufferView":5,
			"componentType":5126,
			"count":20,
			"type":"VEC3"
		},
		{
			"bufferView":6,
			"componentType":5126,
			"count":20,
			"type":"VEC2"
		},
		{
			"bufferView":7,
			"componentType":5123,
			"count":30,
			"type":"SCALAR"
		},
		{
			"bufferView":8,
			"componentType":5126,
			"count":1044,
			"max":[
				146,
				12,
				12
			],
			"min":[
				-5.666666507720947,
				-3.5,
				-51
			],
			"type":"VEC3"
		},
		{
			"bufferView":9,
			"componentType":5126,
			"count":1044,
			"type":"VEC3"
		},
		{
			"bufferView":10,
			"componentType":5126,
			"count":1044,
			"type":"VEC2"
		},
		{
			"bufferView":11,
			"componentType":5123,
			"count":1932,
			"type":"SCALAR"
		},
		{
			"bufferView":12,
			"componentType":5126,
			"count":40,
			"max":[
				3.643845319747925,
				0,
				3.643845319747925
			],
			"min":[
				-3.643845319747925,
				-40.66666793823242,
				-3.643845319747925
			],
			"type":"VEC3"
		},
		{
			"bufferView":13,
			"componentType":5126,
			"count":40,
			"type":"VEC3"
		},
		{
			"bufferView":14,
			"componentType":5126,
			"count":40,
			"type":"VEC2"
		},
		{
			"bufferView":15,
			"componentType":5123,
			"count":60,
			"type":"SCALAR"
		},
		{
			"bufferView":16,
			"componentType":5126,
			"count":284,
			"max":[
				124,
				1,
				10
			],
			"min":[
				-1,
				-0.5,
				-50
			],
			"type":"VEC3"
		},
		{
			"bufferView":17,
			"componentType":5126,
			"count":284,
			"type":"VEC3"
		},
		{
			"bufferView":18,
			"componentType":5126,
			"count":284,
			"type":"VEC2"
		},
		{
			"bufferView":19,
			"componentType":5123,
			"count":636,
			"type":"SCALAR"
		},
		{
			"bufferView":20,
			"componentType":5126,
			"count":291,
			"max":[
				124,
				1,
				10
			],
			"min":[
				-1,
				-0.5,
				-50
			],
			"type":"VEC3"
		},
		{
			"bufferView":21,
			"componentType":5126,
			"count":291,
			"type":"VEC3"
		},
		{
			"bufferView":22,
			"componentType":5126,
			"count":291,
			"type":"VEC2"
		},
		{
			"bufferView":23,
			"componentType":5123,
			"count":636,
			"type":"SCALAR"
		}
	],
	"bufferViews":[
		{
			"buffer":0,
			"byteLength":4968,
			"byteOffset":0,
			"target":34962
		},
		{
			"buffer":0,
			"byteLength":4968,
			"byteOffset":4968,
			"target":34962
		},
		{
			"buffer":0,
			"byteLength":3312,
			"byteOffset":9936,
			"target":34962
		},
		{
			"buffer":0,
			"byteLength":1932,
			"byteOffset":13248,
			"target":34963
		},
		{
			"buffer":0,
			"byteLength":240,
			"byteOffset":15180,
			"target":34962
		},
		{
			"buffer":0,
			"byteLength":240,
			"byteOffset":15420,
			"target":34962
		},
		{
			"buffer":0,
			"byteLength":160,
			"byteOffset":15660,
			"target":34962
		},
		{
			"buffer":0,
			"byteLength":60,
			"byteOffset":15820,
			"target":34963
		},
		{
			"buffer":0,
			"byteLength":12528,
			"byteOffset":15880,
			"target":34962
		},
		{
			"buffer":0,
			"byteLength":12528,
			"byteOffset":28408,
			"target":34962
		},
		{
			"buffer":0,
			"byteLength":8352,
			"byteOffset":40936,
			"target":34962
		},
		{
			"buffer":0,
			"byteLength":3864,
			"byteOffset":49288,
			"target":34963
		},
		{
			"buffer":0,
			"byteLength":480,
			"byteOffset":53152,
			"target":34962
		},
		{
			"buffer":0,
			"byteLength":480,
			"byteOffset":53632,
			"target":34962
		},
		{
			"buffer":0,
			"byteLength":320,
			"byteOffset":54112,
			"target":34962
		},
		{
			"buffer":0,
			"byteLength":120,
			"byteOffset":54432,
			"target":34963
		},
		{
			"buffer":0,
			"byteLength":3408,
			"byteOffset":54552,
			"target":34962
		},
		{
			"buffer":0,
			"byteLength":3408,
			"byteOffset":57960,
			"target":34962
		},
		{
			"buffer":0,
			"byteLength":2272,
			"byteOffset":61368,
			"target":34962
		},
		{
			"buffer":0,
			"byteLength":1272,
			"byteOffset":63640,
			"target":34963
		},
		{
			"buffer":0,
			"byteLength":3492,
			"byteOffset":64912,
			"target":34962
		},
		{
			"buffer":0,
			"byteLength":3492,
			"byteOffset":68404,
			"target":34962
		},
		{
			"buffer":0,
			"byteLength":2328,
			"byteOffset":71896,
			"target":34962
		},
		{
			"buffer":0,
			"byteLength":1272,
			"byteOffset":74224,
			"target":34963
		}
	],
	"buffers":[
		{
			"byteLength":75496,
			"uri":"c1_m7-2f20b93fd2af95c7500542a3a8f57136.bin"
		}
	]
}
