{
	"asset":{
		"generator":"Khronos glTF Blender I/O v4.1.63",
		"version":"2.0"
	},
	"scene":0,
	"scenes":[
		{
			"name":"Scene",
			"nodes":[
				0,
				1,
				2,
				3,
				4
			]
		}
	],
	"nodes":[
		{
			"mesh":0,
			"name":"Layout-noimp"
		},
		{
			"mesh":1,
			"name":"Collisions-colonly"
		},
		{
			"mesh":2,
			"name":"Floor-col"
		},
		{
			"mesh":3,
			"name":"Walls-col"
		},
		{
			"mesh":4,
			"name":"Terrain"
		}
	],
	"materials":[
		{
			"doubleSided":true,
			"name":"Material",
			"pbrMetallicRoughness":{
				"baseColorFactor":[
					0.800000011920929,
					0.800000011920929,
					0.800000011920929,
					1
				],
				"metallicFactor":0,
				"roughnessFactor":0.5
			}
		},
		{
			"doubleSided":true,
			"name":"Black",
			"pbrMetallicRoughness":{
				"baseColorFactor":[
					0,
					0,
					0,
					1
				],
				"metallicFactor":0
			}
		}
	],
	"meshes":[
		{
			"name":"Cube.001",
			"primitives":[
				{
					"attributes":{
						"POSITION":0,
						"NORMAL":1,
						"TEXCOORD_0":2,
						"TANGENT":3
					},
					"indices":4
				}
			]
		},
		{
			"name":"Cube.002",
			"primitives":[
				{
					"attributes":{
						"POSITION":5,
						"NORMAL":6,
						"TEXCOORD_0":7,
						"TANGENT":8
					},
					"indices":9
				}
			]
		},
		{
			"name":"Cube.003",
			"primitives":[
				{
					"attributes":{
						"POSITION":10,
						"NORMAL":11,
						"TEXCOORD_0":12
					},
					"indices":13,
					"material":0
				},
				{
					"attributes":{
						"POSITION":14,
						"NORMAL":15,
						"TEXCOORD_0":16
					},
					"indices":17,
					"material":1
				}
			]
		},
		{
			"name":"Cube.004",
			"primitives":[
				{
					"attributes":{
						"POSITION":18,
						"NORMAL":19,
						"TEXCOORD_0":20,
						"TANGENT":21
					},
					"indices":22
				}
			]
		},
		{
			"name":"Cube.005",
			"primitives":[
				{
					"attributes":{
						"POSITION":23,
						"NORMAL":24,
						"TEXCOORD_0":25
					},
					"indices":26
				}
			]
		}
	],
	"accessors":[
		{
			"bufferView":0,
			"componentType":5126,
			"count":694,
			"max":[
				125,
				20,
				20
			],
			"min":[
				-5,
				-40,
				-40
			],
			"type":"VEC3"
		},
		{
			"bufferView":1,
			"componentType":5126,
			"count":694,
			"type":"VEC3"
		},
		{
			"bufferView":2,
			"componentType":5126,
			"count":694,
			"type":"VEC2"
		},
		{
			"bufferView":3,
			"componentType":5126,
			"count":694,
			"type":"VEC4"
		},
		{
			"bufferView":4,
			"componentType":5123,
			"count":1848,
			"type":"SCALAR"
		},
		{
			"bufferView":5,
			"componentType":5126,
			"count":1910,
			"max":[
				126.5,
				23,
				23
			],
			"min":[
				-6.5,
				-41,
				-43
			],
			"type":"VEC3"
		},
		{
			"bufferView":6,
			"componentType":5126,
			"count":1910,
			"type":"VEC3"
		},
		{
			"bufferView":7,
			"componentType":5126,
			"count":1910,
			"type":"VEC2"
		},
		{
			"bufferView":8,
			"componentType":5126,
			"count":1910,
			"type":"VEC4"
		},
		{
			"bufferView":9,
			"componentType":5123,
			"count":3696,
			"type":"SCALAR"
		},
		{
			"bufferView":10,
			"componentType":5126,
			"count":496,
			"max":[
				125,
				3,
				20
			],
			"min":[
				-5,
				-5,
				-40
			],
			"type":"VEC3"
		},
		{
			"bufferView":11,
			"componentType":5126,
			"count":496,
			"type":"VEC3"
		},
		{
			"bufferView":12,
			"componentType":5126,
			"count":496,
			"type":"VEC2"
		},
		{
			"bufferView":13,
			"componentType":5123,
			"count":1122,
			"type":"SCALAR"
		},
		{
			"bufferView":14,
			"componentType":5126,
			"count":88,
			"max":[
				5,
				0,
				5
			],
			"min":[
				-5,
				-44,
				-5
			],
			"type":"VEC3"
		},
		{
			"bufferView":15,
			"componentType":5126,
			"count":88,
			"type":"VEC3"
		},
		{
			"bufferView":16,
			"componentType":5126,
			"count":88,
			"type":"VEC2"
		},
		{
			"bufferView":17,
			"componentType":5123,
			"count":234,
			"type":"SCALAR"
		},
		{
			"bufferView":18,
			"componentType":5126,
			"count":2867,
			"max":[
				127,
				17,
				22
			],
			"min":[
				-7,
				-7,
				-42
			],
			"type":"VEC3"
		},
		{
			"bufferView":19,
			"componentType":5126,
			"count":2867,
			"type":"VEC3"
		},
		{
			"bufferView":20,
			"componentType":5126,
			"count":2867,
			"type":"VEC2"
		},
		{
			"bufferView":21,
			"componentType":5126,
			"count":2867,
			"type":"VEC4"
		},
		{
			"bufferView":22,
			"componentType":5123,
			"count":7656,
			"type":"SCALAR"
		},
		{
			"bufferView":23,
			"componentType":5126,
			"count":88771,
			"max":[
				158.85499572753906,
				15.524513244628906,
				158.85501098632812
			],
			"min":[
				-158.85499572753906,
				-40.66666793823242,
				-158.85501098632812
			],
			"type":"VEC3"
		},
		{
			"bufferView":24,
			"componentType":5126,
			"count":88771,
			"type":"VEC3"
		},
		{
			"bufferView":25,
			"componentType":5126,
			"count":88771,
			"type":"VEC2"
		},
		{
			"bufferView":26,
			"componentType":5125,
			"count":333108,
			"type":"SCALAR"
		}
	],
	"bufferViews":[
		{
			"buffer":0,
			"byteLength":8328,
			"byteOffset":0,
			"target":34962
		},
		{
			"buffer":0,
			"byteLength":8328,
			"byteOffset":8328,
			"target":34962
		},
		{
			"buffer":0,
			"byteLength":5552,
			"byteOffset":16656,
			"target":34962
		},
		{
			"buffer":0,
			"byteLength":11104,
			"byteOffset":22208,
			"target":34962
		},
		{
			"buffer":0,
			"byteLength":3696,
			"byteOffset":33312,
			"target":34963
		},
		{
			"buffer":0,
			"byteLength":22920,
			"byteOffset":37008,
			"target":34962
		},
		{
			"buffer":0,
			"byteLength":22920,
			"byteOffset":59928,
			"target":34962
		},
		{
			"buffer":0,
			"byteLength":15280,
			"byteOffset":82848,
			"target":34962
		},
		{
			"buffer":0,
			"byteLength":30560,
			"byteOffset":98128,
			"target":34962
		},
		{
			"buffer":0,
			"byteLength":7392,
			"byteOffset":128688,
			"target":34963
		},
		{
			"buffer":0,
			"byteLength":5952,
			"byteOffset":136080,
			"target":34962
		},
		{
			"buffer":0,
			"byteLength":5952,
			"byteOffset":142032,
			"target":34962
		},
		{
			"buffer":0,
			"byteLength":3968,
			"byteOffset":147984,
			"target":34962
		},
		{
			"buffer":0,
			"byteLength":2244,
			"byteOffset":151952,
			"target":34963
		},
		{
			"buffer":0,
			"byteLength":1056,
			"byteOffset":154196,
			"target":34962
		},
		{
			"buffer":0,
			"byteLength":1056,
			"byteOffset":155252,
			"target":34962
		},
		{
			"buffer":0,
			"byteLength":704,
			"byteOffset":156308,
			"target":34962
		},
		{
			"buffer":0,
			"byteLength":468,
			"byteOffset":157012,
			"target":34963
		},
		{
			"buffer":0,
			"byteLength":34404,
			"byteOffset":157480,
			"target":34962
		},
		{
			"buffer":0,
			"byteLength":34404,
			"byteOffset":191884,
			"target":34962
		},
		{
			"buffer":0,
			"byteLength":22936,
			"byteOffset":226288,
			"target":34962
		},
		{
			"buffer":0,
			"byteLength":45872,
			"byteOffset":249224,
			"target":34962
		},
		{
			"buffer":0,
			"byteLength":15312,
			"byteOffset":295096,
			"target":34963
		},
		{
			"buffer":0,
			"byteLength":1065252,
			"byteOffset":310408,
			"target":34962
		},
		{
			"buffer":0,
			"byteLength":1065252,
			"byteOffset":1375660,
			"target":34962
		},
		{
			"buffer":0,
			"byteLength":710168,
			"byteOffset":2440912,
			"target":34962
		},
		{
			"buffer":0,
			"byteLength":1332432,
			"byteOffset":3151080,
			"target":34963
		}
	],
	"buffers":[
		{
			"byteLength":4483512,
			"uri":"c1_m8-4a80c5123e9ffd60133d019c78330de1.bin"
		}
	]
}
