{
	"asset":{
		"generator":"Khronos glTF Blender I/O v4.1.63",
		"version":"2.0"
	},
	"scene":0,
	"scenes":[
		{
			"name":"Scene",
			"nodes":[
				0,
				1,
				2,
				3
			]
		}
	],
	"nodes":[
		{
			"mesh":0,
			"name":"PlayerCollisions -colonly"
		},
		{
			"mesh":1,
			"name":"Level (noflip) -noimp"
		},
		{
			"mesh":2,
			"name":"Mesh",
			"translation":[
				-19,
				-1,
				-8
			]
		},
		{
			"mesh":3,
			"name":"Terrain"
		}
	],
	"materials":[
		{
			"alphaMode":"BLEND",
			"doubleSided":true,
			"name":"Wall",
			"pbrMetallicRoughness":{
				"baseColorFactor":[
					0.800000011920929,
					0.800000011920929,
					0.800000011920929,
					1
				],
				"metallicFactor":0,
				"roughnessFactor":0.5
			}
		},
		{
			"doubleSided":true,
			"name":"Floor",
			"pbrMetallicRoughness":{
				"baseColorFactor":[
					0.8000626564025879,
					0.30367550253868103,
					0.30367550253868103,
					1
				],
				"metallicFactor":0,
				"roughnessFactor":0.5
			}
		}
	],
	"meshes":[
		{
			"name":"Cube",
			"primitives":[
				{
					"attributes":{
						"POSITION":0,
						"NORMAL":1,
						"TEXCOORD_0":2
					},
					"indices":3
				}
			]
		},
		{
			"name":"Cube.003",
			"primitives":[
				{
					"attributes":{
						"POSITION":4,
						"NORMAL":5,
						"TEXCOORD_0":6
					},
					"indices":7
				}
			]
		},
		{
			"name":"Cube.001",
			"primitives":[
				{
					"attributes":{
						"POSITION":8,
						"NORMAL":9,
						"TEXCOORD_0":10
					},
					"indices":11,
					"material":0
				},
				{
					"attributes":{
						"POSITION":12,
						"NORMAL":13,
						"TEXCOORD_0":14
					},
					"indices":15,
					"material":1
				}
			]
		},
		{
			"name":"Cube.002",
			"primitives":[
				{
					"attributes":{
						"POSITION":16,
						"NORMAL":17,
						"TEXCOORD_0":18
					},
					"indices":19
				}
			]
		}
	],
	"accessors":[
		{
			"bufferView":0,
			"componentType":5126,
			"count":1972,
			"max":[
				195.5,
				27,
				-5.5
			],
			"min":[
				-21.5,
				-179,
				-97.5
			],
			"type":"VEC3"
		},
		{
			"bufferView":1,
			"componentType":5126,
			"count":1972,
			"type":"VEC3"
		},
		{
			"bufferView":2,
			"componentType":5126,
			"count":1972,
			"type":"VEC2"
		},
		{
			"bufferView":3,
			"componentType":5123,
			"count":4056,
			"type":"SCALAR"
		},
		{
			"bufferView":4,
			"componentType":5126,
			"count":732,
			"max":[
				194,
				24,
				-7
			],
			"min":[
				-20,
				-178,
				-96
			],
			"type":"VEC3"
		},
		{
			"bufferView":5,
			"componentType":5126,
			"count":732,
			"type":"VEC3"
		},
		{
			"bufferView":6,
			"componentType":5126,
			"count":732,
			"type":"VEC2"
		},
		{
			"bufferView":7,
			"componentType":5123,
			"count":2028,
			"type":"SCALAR"
		},
		{
			"bufferView":8,
			"componentType":5126,
			"count":3493,
			"max":[
				116,
				17.247547149658203,
				2.4142136573791504
			],
			"min":[
				-2.4142136573791504,
				-33,
				-90
			],
			"type":"VEC3"
		},
		{
			"bufferView":9,
			"componentType":5126,
			"count":3493,
			"type":"VEC3"
		},
		{
			"bufferView":10,
			"componentType":5126,
			"count":3493,
			"type":"VEC2"
		},
		{
			"bufferView":11,
			"componentType":5123,
			"count":9807,
			"type":"SCALAR"
		},
		{
			"bufferView":12,
			"componentType":5126,
			"count":981,
			"max":[
				215,
				11,
				1
			],
			"min":[
				-1,
				-179,
				-88
			],
			"type":"VEC3"
		},
		{
			"bufferView":13,
			"componentType":5126,
			"count":981,
			"type":"VEC3"
		},
		{
			"bufferView":14,
			"componentType":5126,
			"count":981,
			"type":"VEC2"
		},
		{
			"bufferView":15,
			"componentType":5123,
			"count":2469,
			"type":"SCALAR"
		},
		{
			"bufferView":16,
			"componentType":5126,
			"count":25636,
			"max":[
				108.85499572753906,
				16.472959518432617,
				108.8550033569336
			],
			"min":[
				-108.85499572753906,
				-16.472959518432617,
				-108.8550033569336
			],
			"type":"VEC3"
		},
		{
			"bufferView":17,
			"componentType":5126,
			"count":25636,
			"type":"VEC3"
		},
		{
			"bufferView":18,
			"componentType":5126,
			"count":25636,
			"type":"VEC2"
		},
		{
			"bufferView":19,
			"componentType":5123,
			"count":82947,
			"type":"SCALAR"
		}
	],
	"bufferViews":[
		{
			"buffer":0,
			"byteLength":23664,
			"byteOffset":0,
			"target":34962
		},
		{
			"buffer":0,
			"byteLength":23664,
			"byteOffset":23664,
			"target":34962
		},
		{
			"buffer":0,
			"byteLength":15776,
			"byteOffset":47328,
			"target":34962
		},
		{
			"buffer":0,
			"byteLength":8112,
			"byteOffset":63104,
			"target":34963
		},
		{
			"buffer":0,
			"byteLength":8784,
			"byteOffset":71216,
			"target":34962
		},
		{
			"buffer":0,
			"byteLength":8784,
			"byteOffset":80000,
			"target":34962
		},
		{
			"buffer":0,
			"byteLength":5856,
			"byteOffset":88784,
			"target":34962
		},
		{
			"buffer":0,
			"byteLength":4056,
			"byteOffset":94640,
			"target":34963
		},
		{
			"buffer":0,
			"byteLength":41916,
			"byteOffset":98696,
			"target":34962
		},
		{
			"buffer":0,
			"byteLength":41916,
			"byteOffset":140612,
			"target":34962
		},
		{
			"buffer":0,
			"byteLength":27944,
			"byteOffset":182528,
			"target":34962
		},
		{
			"buffer":0,
			"byteLength":19614,
			"byteOffset":210472,
			"target":34963
		},
		{
			"buffer":0,
			"byteLength":11772,
			"byteOffset":230088,
			"target":34962
		},
		{
			"buffer":0,
			"byteLength":11772,
			"byteOffset":241860,
			"target":34962
		},
		{
			"buffer":0,
			"byteLength":7848,
			"byteOffset":253632,
			"target":34962
		},
		{
			"buffer":0,
			"byteLength":4938,
			"byteOffset":261480,
			"target":34963
		},
		{
			"buffer":0,
			"byteLength":307632,
			"byteOffset":266420,
			"target":34962
		},
		{
			"buffer":0,
			"byteLength":307632,
			"byteOffset":574052,
			"target":34962
		},
		{
			"buffer":0,
			"byteLength":205088,
			"byteOffset":881684,
			"target":34962
		},
		{
			"buffer":0,
			"byteLength":165894,
			"byteOffset":1086772,
			"target":34963
		}
	],
	"buffers":[
		{
			"byteLength":1252668,
			"uri":"c1_m3-a21a4544f5a5b147676c660aac26aa10.bin"
		}
	]
}
