{
	"asset":{
		"generator":"Khronos glTF Blender I/O v4.1.63",
		"version":"2.0"
	},
	"scene":0,
	"scenes":[
		{
			"name":"Scene",
			"nodes":[
				0,
				1
			]
		}
	],
	"nodes":[
		{
			"mesh":0,
			"name":"Level"
		},
		{
			"mesh":1,
			"name":"Collisions -colonly"
		}
	],
	"meshes":[
		{
			"name":"Cube",
			"primitives":[
				{
					"attributes":{
						"POSITION":0,
						"NORMAL":1,
						"TEXCOORD_0":2,
						"TANGENT":3
					},
					"indices":4
				}
			]
		},
		{
			"name":"Cube.001",
			"primitives":[
				{
					"attributes":{
						"POSITION":5,
						"NORMAL":6,
						"TEXCOORD_0":7,
						"TANGENT":8
					},
					"indices":9
				}
			]
		}
	],
	"accessors":[
		{
			"bufferView":0,
			"componentType":5126,
			"count":72,
			"max":[
				50,
				20,
				5
			],
			"min":[
				-5,
				0,
				-50
			],
			"type":"VEC3"
		},
		{
			"bufferView":1,
			"componentType":5126,
			"count":72,
			"type":"VEC3"
		},
		{
			"bufferView":2,
			"componentType":5126,
			"count":72,
			"type":"VEC2"
		},
		{
			"bufferView":3,
			"componentType":5126,
			"count":72,
			"type":"VEC4"
		},
		{
			"bufferView":4,
			"componentType":5123,
			"count":156,
			"type":"SCALAR"
		},
		{
			"bufferView":5,
			"componentType":5126,
			"count":176,
			"max":[
				51.33333206176758,
				22.399999618530273,
				7
			],
			"min":[
				-6.333333492279053,
				-2.4000000953674316,
				-52
			],
			"type":"VEC3"
		},
		{
			"bufferView":6,
			"componentType":5126,
			"count":176,
			"type":"VEC3"
		},
		{
			"bufferView":7,
			"componentType":5126,
			"count":176,
			"type":"VEC2"
		},
		{
			"bufferView":8,
			"componentType":5126,
			"count":176,
			"type":"VEC4"
		},
		{
			"bufferView":9,
			"componentType":5123,
			"count":312,
			"type":"SCALAR"
		}
	],
	"bufferViews":[
		{
			"buffer":0,
			"byteLength":864,
			"byteOffset":0,
			"target":34962
		},
		{
			"buffer":0,
			"byteLength":864,
			"byteOffset":864,
			"target":34962
		},
		{
			"buffer":0,
			"byteLength":576,
			"byteOffset":1728,
			"target":34962
		},
		{
			"buffer":0,
			"byteLength":1152,
			"byteOffset":2304,
			"target":34962
		},
		{
			"buffer":0,
			"byteLength":312,
			"byteOffset":3456,
			"target":34963
		},
		{
			"buffer":0,
			"byteLength":2112,
			"byteOffset":3768,
			"target":34962
		},
		{
			"buffer":0,
			"byteLength":2112,
			"byteOffset":5880,
			"target":34962
		},
		{
			"buffer":0,
			"byteLength":1408,
			"byteOffset":7992,
			"target":34962
		},
		{
			"buffer":0,
			"byteLength":2816,
			"byteOffset":9400,
			"target":34962
		},
		{
			"buffer":0,
			"byteLength":624,
			"byteOffset":12216,
			"target":34963
		}
	],
	"buffers":[
		{
			"byteLength":12840,
			"uri":"c1_m1-3136aa586971d82fe4b58133083fb07c.bin"
		}
	]
}
