{
	"asset":{
		"generator":"Khronos glTF Blender I/O v4.1.63",
		"version":"2.0"
	},
	"scene":0,
	"scenes":[
		{
			"name":"Scene",
			"nodes":[
				0,
				1
			]
		}
	],
	"nodes":[
		{
			"mesh":0,
			"name":"Collisions-colonly"
		},
		{
			"mesh":1,
			"name":"Level-col"
		}
	],
	"materials":[
		{
			"doubleSided":true,
			"name":"Main",
			"pbrMetallicRoughness":{
				"baseColorFactor":[
					0.800000011920929,
					0.800000011920929,
					0.800000011920929,
					1
				],
				"metallicFactor":0,
				"roughnessFactor":0.5
			}
		},
		{
			"doubleSided":true,
			"name":"Black",
			"pbrMetallicRoughness":{
				"baseColorFactor":[
					0,
					0,
					0,
					1
				],
				"metallicFactor":0,
				"roughnessFactor":0.5
			}
		}
	],
	"meshes":[
		{
			"name":"Cube",
			"primitives":[
				{
					"attributes":{
						"POSITION":0,
						"NORMAL":1,
						"TEXCOORD_0":2,
						"TANGENT":3
					},
					"indices":4,
					"material":0
				},
				{
					"attributes":{
						"POSITION":5,
						"NORMAL":6,
						"TEXCOORD_0":7,
						"TANGENT":8
					},
					"indices":9,
					"material":1
				}
			]
		},
		{
			"name":"Cube.003",
			"primitives":[
				{
					"attributes":{
						"POSITION":10,
						"NORMAL":11,
						"TEXCOORD_0":12,
						"TANGENT":13
					},
					"indices":14,
					"material":0
				},
				{
					"attributes":{
						"POSITION":15,
						"NORMAL":16,
						"TEXCOORD_0":17,
						"TANGENT":18
					},
					"indices":19,
					"material":1
				}
			]
		}
	],
	"accessors":[
		{
			"bufferView":0,
			"componentType":5126,
			"count":908,
			"max":[
				46,
				14,
				3
			],
			"min":[
				-1.5,
				-12.5,
				-62.5
			],
			"type":"VEC3"
		},
		{
			"bufferView":1,
			"componentType":5126,
			"count":908,
			"type":"VEC3"
		},
		{
			"bufferView":2,
			"componentType":5126,
			"count":908,
			"type":"VEC2"
		},
		{
			"bufferView":3,
			"componentType":5126,
			"count":908,
			"type":"VEC4"
		},
		{
			"bufferView":4,
			"componentType":5123,
			"count":1752,
			"type":"SCALAR"
		},
		{
			"bufferView":5,
			"componentType":5126,
			"count":80,
			"max":[
				18,
				32,
				1.8000000715255737
			],
			"min":[
				-1.5,
				-42,
				-23
			],
			"type":"VEC3"
		},
		{
			"bufferView":6,
			"componentType":5126,
			"count":80,
			"type":"VEC3"
		},
		{
			"bufferView":7,
			"componentType":5126,
			"count":80,
			"type":"VEC2"
		},
		{
			"bufferView":8,
			"componentType":5126,
			"count":80,
			"type":"VEC4"
		},
		{
			"bufferView":9,
			"componentType":5123,
			"count":120,
			"type":"SCALAR"
		},
		{
			"bufferView":10,
			"componentType":5126,
			"count":328,
			"max":[
				43,
				11,
				0
			],
			"min":[
				0,
				-11,
				-61
			],
			"type":"VEC3"
		},
		{
			"bufferView":11,
			"componentType":5126,
			"count":328,
			"type":"VEC3"
		},
		{
			"bufferView":12,
			"componentType":5126,
			"count":328,
			"type":"VEC2"
		},
		{
			"bufferView":13,
			"componentType":5126,
			"count":328,
			"type":"VEC4"
		},
		{
			"bufferView":14,
			"componentType":5123,
			"count":876,
			"type":"SCALAR"
		},
		{
			"bufferView":15,
			"componentType":5126,
			"count":40,
			"max":[
				17,
				31,
				0
			],
			"min":[
				0,
				-41,
				-22
			],
			"type":"VEC3"
		},
		{
			"bufferView":16,
			"componentType":5126,
			"count":40,
			"type":"VEC3"
		},
		{
			"bufferView":17,
			"componentType":5126,
			"count":40,
			"type":"VEC2"
		},
		{
			"bufferView":18,
			"componentType":5126,
			"count":40,
			"type":"VEC4"
		},
		{
			"bufferView":19,
			"componentType":5123,
			"count":60,
			"type":"SCALAR"
		}
	],
	"bufferViews":[
		{
			"buffer":0,
			"byteLength":10896,
			"byteOffset":0,
			"target":34962
		},
		{
			"buffer":0,
			"byteLength":10896,
			"byteOffset":10896,
			"target":34962
		},
		{
			"buffer":0,
			"byteLength":7264,
			"byteOffset":21792,
			"target":34962
		},
		{
			"buffer":0,
			"byteLength":14528,
			"byteOffset":29056,
			"target":34962
		},
		{
			"buffer":0,
			"byteLength":3504,
			"byteOffset":43584,
			"target":34963
		},
		{
			"buffer":0,
			"byteLength":960,
			"byteOffset":47088,
			"target":34962
		},
		{
			"buffer":0,
			"byteLength":960,
			"byteOffset":48048,
			"target":34962
		},
		{
			"buffer":0,
			"byteLength":640,
			"byteOffset":49008,
			"target":34962
		},
		{
			"buffer":0,
			"byteLength":1280,
			"byteOffset":49648,
			"target":34962
		},
		{
			"buffer":0,
			"byteLength":240,
			"byteOffset":50928,
			"target":34963
		},
		{
			"buffer":0,
			"byteLength":3936,
			"byteOffset":51168,
			"target":34962
		},
		{
			"buffer":0,
			"byteLength":3936,
			"byteOffset":55104,
			"target":34962
		},
		{
			"buffer":0,
			"byteLength":2624,
			"byteOffset":59040,
			"target":34962
		},
		{
			"buffer":0,
			"byteLength":5248,
			"byteOffset":61664,
			"target":34962
		},
		{
			"buffer":0,
			"byteLength":1752,
			"byteOffset":66912,
			"target":34963
		},
		{
			"buffer":0,
			"byteLength":480,
			"byteOffset":68664,
			"target":34962
		},
		{
			"buffer":0,
			"byteLength":480,
			"byteOffset":69144,
			"target":34962
		},
		{
			"buffer":0,
			"byteLength":320,
			"byteOffset":69624,
			"target":34962
		},
		{
			"buffer":0,
			"byteLength":640,
			"byteOffset":69944,
			"target":34962
		},
		{
			"buffer":0,
			"byteLength":120,
			"byteOffset":70584,
			"target":34963
		}
	],
	"buffers":[
		{
			"byteLength":70704,
			"uri":"c1_m6-6d8a711fff75fdac978c450d0ecdf2f5.bin"
		}
	]
}
