{
	"asset":{
		"generator":"Khronos glTF Blender I/O v4.1.63",
		"version":"2.0"
	},
	"scene":0,
	"scenes":[
		{
			"name":"Scene",
			"nodes":[
				0,
				1,
				2,
				3
			]
		}
	],
	"nodes":[
		{
			"mesh":0,
			"name":"PlayerCollisions -colonly"
		},
		{
			"mesh":1,
			"name":"Level (noflip) -noimp"
		},
		{
			"mesh":2,
			"name":"Mesh",
			"translation":[
				-19,
				-1,
				-8
			]
		},
		{
			"mesh":3,
			"name":"Terrain"
		}
	],
	"materials":[
		{
			"alphaMode":"BLEND",
			"doubleSided":true,
			"name":"Wall",
			"pbrMetallicRoughness":{
				"baseColorFactor":[
					0.800000011920929,
					0.800000011920929,
					0.800000011920929,
					1
				],
				"metallicFactor":0,
				"roughnessFactor":0.5
			}
		},
		{
			"doubleSided":true,
			"name":"Floor",
			"pbrMetallicRoughness":{
				"baseColorFactor":[
					0.8000626564025879,
					0.30367550253868103,
					0.30367550253868103,
					1
				],
				"metallicFactor":0,
				"roughnessFactor":0.5
			}
		}
	],
	"meshes":[
		{
			"name":"Cube",
			"primitives":[
				{
					"attributes":{
						"POSITION":0,
						"NORMAL":1,
						"TEXCOORD_0":2
					},
					"indices":3
				}
			]
		},
		{
			"name":"Cube.003",
			"primitives":[
				{
					"attributes":{
						"POSITION":4,
						"NORMAL":5,
						"TEXCOORD_0":6
					},
					"indices":7
				}
			]
		},
		{
			"name":"Cube.001",
			"primitives":[
				{
					"attributes":{
						"POSITION":8,
						"NORMAL":9,
						"TEXCOORD_0":10
					},
					"indices":11,
					"material":0
				},
				{
					"attributes":{
						"POSITION":12,
						"NORMAL":13,
						"TEXCOORD_0":14
					},
					"indices":15,
					"material":1
				}
			]
		},
		{
			"name":"Cube.002",
			"primitives":[
				{
					"attributes":{
						"POSITION":16,
						"NORMAL":17,
						"TEXCOORD_0":18
					},
					"indices":19
				}
			]
		}
	],
	"accessors":[
		{
			"bufferView":0,
			"componentType":5126,
			"count":1212,
			"max":[
				195,
				26,
				-6
			],
			"min":[
				-21,
				-178.6666717529297,
				-97
			],
			"type":"VEC3"
		},
		{
			"bufferView":1,
			"componentType":5126,
			"count":1212,
			"type":"VEC3"
		},
		{
			"bufferView":2,
			"componentType":5126,
			"count":1212,
			"type":"VEC2"
		},
		{
			"bufferView":3,
			"componentType":5123,
			"count":1980,
			"type":"SCALAR"
		},
		{
			"bufferView":4,
			"componentType":5126,
			"count":708,
			"max":[
				194,
				24,
				-7
			],
			"min":[
				-20,
				-178,
				-96
			],
			"type":"VEC3"
		},
		{
			"bufferView":5,
			"componentType":5126,
			"count":708,
			"type":"VEC3"
		},
		{
			"bufferView":6,
			"componentType":5126,
			"count":708,
			"type":"VEC2"
		},
		{
			"bufferView":7,
			"componentType":5123,
			"count":1980,
			"type":"SCALAR"
		},
		{
			"bufferView":8,
			"componentType":5126,
			"count":3383,
			"max":[
				116,
				17.247547149658203,
				2.4142136573791504
			],
			"min":[
				-2.4142136573791504,
				-33,
				-90
			],
			"type":"VEC3"
		},
		{
			"bufferView":9,
			"componentType":5126,
			"count":3383,
			"type":"VEC3"
		},
		{
			"bufferView":10,
			"componentType":5126,
			"count":3383,
			"type":"VEC2"
		},
		{
			"bufferView":11,
			"componentType":5123,
			"count":9783,
			"type":"SCALAR"
		},
		{
			"bufferView":12,
			"componentType":5126,
			"count":949,
			"max":[
				215,
				11,
				1
			],
			"min":[
				-1,
				-179,
				-88
			],
			"type":"VEC3"
		},
		{
			"bufferView":13,
			"componentType":5126,
			"count":949,
			"type":"VEC3"
		},
		{
			"bufferView":14,
			"componentType":5126,
			"count":949,
			"type":"VEC2"
		},
		{
			"bufferView":15,
			"componentType":5123,
			"count":2421,
			"type":"SCALAR"
		},
		{
			"bufferView":16,
			"componentType":5126,
			"count":25610,
			"max":[
				108.85499572753906,
				16.472959518432617,
				108.8550033569336
			],
			"min":[
				-108.85499572753906,
				-16.472959518432617,
				-108.8550033569336
			],
			"type":"VEC3"
		},
		{
			"bufferView":17,
			"componentType":5126,
			"count":25610,
			"type":"VEC3"
		},
		{
			"bufferView":18,
			"componentType":5126,
			"count":25610,
			"type":"VEC2"
		},
		{
			"bufferView":19,
			"componentType":5123,
			"count":82917,
			"type":"SCALAR"
		}
	],
	"bufferViews":[
		{
			"buffer":0,
			"byteLength":14544,
			"byteOffset":0,
			"target":34962
		},
		{
			"buffer":0,
			"byteLength":14544,
			"byteOffset":14544,
			"target":34962
		},
		{
			"buffer":0,
			"byteLength":9696,
			"byteOffset":29088,
			"target":34962
		},
		{
			"buffer":0,
			"byteLength":3960,
			"byteOffset":38784,
			"target":34963
		},
		{
			"buffer":0,
			"byteLength":8496,
			"byteOffset":42744,
			"target":34962
		},
		{
			"buffer":0,
			"byteLength":8496,
			"byteOffset":51240,
			"target":34962
		},
		{
			"buffer":0,
			"byteLength":5664,
			"byteOffset":59736,
			"target":34962
		},
		{
			"buffer":0,
			"byteLength":3960,
			"byteOffset":65400,
			"target":34963
		},
		{
			"buffer":0,
			"byteLength":40596,
			"byteOffset":69360,
			"target":34962
		},
		{
			"buffer":0,
			"byteLength":40596,
			"byteOffset":109956,
			"target":34962
		},
		{
			"buffer":0,
			"byteLength":27064,
			"byteOffset":150552,
			"target":34962
		},
		{
			"buffer":0,
			"byteLength":19566,
			"byteOffset":177616,
			"target":34963
		},
		{
			"buffer":0,
			"byteLength":11388,
			"byteOffset":197184,
			"target":34962
		},
		{
			"buffer":0,
			"byteLength":11388,
			"byteOffset":208572,
			"target":34962
		},
		{
			"buffer":0,
			"byteLength":7592,
			"byteOffset":219960,
			"target":34962
		},
		{
			"buffer":0,
			"byteLength":4842,
			"byteOffset":227552,
			"target":34963
		},
		{
			"buffer":0,
			"byteLength":307320,
			"byteOffset":232396,
			"target":34962
		},
		{
			"buffer":0,
			"byteLength":307320,
			"byteOffset":539716,
			"target":34962
		},
		{
			"buffer":0,
			"byteLength":204880,
			"byteOffset":847036,
			"target":34962
		},
		{
			"buffer":0,
			"byteLength":165834,
			"byteOffset":1051916,
			"target":34963
		}
	],
	"buffers":[
		{
			"byteLength":1217752,
			"uri":"c1_m3-a21a4544f5a5b147676c660aac26aa10.bin"
		}
	]
}
