{
	"asset":{
		"generator":"Khronos glTF Blender I/O v4.1.63",
		"version":"2.0"
	},
	"scene":0,
	"scenes":[
		{
			"name":"Scene",
			"nodes":[
				0,
				1
			]
		}
	],
	"nodes":[
		{
			"mesh":0,
			"name":"Collision -colonly"
		},
		{
			"mesh":1,
			"name":"Level"
		}
	],
	"meshes":[
		{
			"name":"Cube",
			"primitives":[
				{
					"attributes":{
						"POSITION":0,
						"NORMAL":1,
						"TEXCOORD_0":2
					},
					"indices":3
				}
			]
		},
		{
			"name":"Cube.112",
			"primitives":[
				{
					"attributes":{
						"POSITION":4,
						"NORMAL":5,
						"TEXCOORD_0":6
					},
					"indices":7
				}
			]
		}
	],
	"accessors":[
		{
			"bufferView":0,
			"componentType":5126,
			"count":451,
			"max":[
				86,
				17,
				10.666666984558105
			],
			"min":[
				-10.666666984558105,
				-1.2000000476837158,
				-52
			],
			"type":"VEC3"
		},
		{
			"bufferView":1,
			"componentType":5126,
			"count":451,
			"type":"VEC3"
		},
		{
			"bufferView":2,
			"componentType":5126,
			"count":451,
			"type":"VEC2"
		},
		{
			"bufferView":3,
			"componentType":5123,
			"count":852,
			"type":"SCALAR"
		},
		{
			"bufferView":4,
			"componentType":5126,
			"count":181,
			"max":[
				85,
				15,
				10
			],
			"min":[
				-10,
				0,
				-50
			],
			"type":"VEC3"
		},
		{
			"bufferView":5,
			"componentType":5126,
			"count":181,
			"type":"VEC3"
		},
		{
			"bufferView":6,
			"componentType":5126,
			"count":181,
			"type":"VEC2"
		},
		{
			"bufferView":7,
			"componentType":5123,
			"count":426,
			"type":"SCALAR"
		}
	],
	"bufferViews":[
		{
			"buffer":0,
			"byteLength":5412,
			"byteOffset":0,
			"target":34962
		},
		{
			"buffer":0,
			"byteLength":5412,
			"byteOffset":5412,
			"target":34962
		},
		{
			"buffer":0,
			"byteLength":3608,
			"byteOffset":10824,
			"target":34962
		},
		{
			"buffer":0,
			"byteLength":1704,
			"byteOffset":14432,
			"target":34963
		},
		{
			"buffer":0,
			"byteLength":2172,
			"byteOffset":16136,
			"target":34962
		},
		{
			"buffer":0,
			"byteLength":2172,
			"byteOffset":18308,
			"target":34962
		},
		{
			"buffer":0,
			"byteLength":1448,
			"byteOffset":20480,
			"target":34962
		},
		{
			"buffer":0,
			"byteLength":852,
			"byteOffset":21928,
			"target":34963
		}
	],
	"buffers":[
		{
			"byteLength":22780,
			"uri":"c1_m2-22bb3bd39ec144fe66b6fc27f7c3ed25.bin"
		}
	]
}
