{
	"asset":{
		"generator":"Khronos glTF Blender I/O v4.1.63",
		"version":"2.0"
	},
	"scene":0,
	"scenes":[
		{
			"name":"Scene",
			"nodes":[
				0,
				1,
				2
			]
		}
	],
	"nodes":[
		{
			"mesh":0,
			"name":"Level -noimp"
		},
		{
			"mesh":1,
			"name":"Collisions-colonly"
		},
		{
			"mesh":2,
			"name":"Level (fixed)"
		}
	],
	"meshes":[
		{
			"name":"Cube",
			"primitives":[
				{
					"attributes":{
						"POSITION":0,
						"NORMAL":1,
						"TEXCOORD_0":2,
						"TANGENT":3
					},
					"indices":4
				}
			]
		},
		{
			"name":"Cube.001",
			"primitives":[
				{
					"attributes":{
						"POSITION":5,
						"NORMAL":6,
						"TEXCOORD_0":7,
						"TANGENT":8
					},
					"indices":9
				}
			]
		},
		{
			"name":"Cube.002",
			"primitives":[
				{
					"attributes":{
						"POSITION":10,
						"NORMAL":11,
						"TEXCOORD_0":12,
						"TANGENT":13
					},
					"indices":14
				}
			]
		}
	],
	"accessors":[
		{
			"bufferView":0,
			"componentType":5126,
			"count":402,
			"max":[
				150,
				10,
				40
			],
			"min":[
				-20,
				0,
				-30
			],
			"type":"VEC3"
		},
		{
			"bufferView":1,
			"componentType":5126,
			"count":402,
			"type":"VEC3"
		},
		{
			"bufferView":2,
			"componentType":5126,
			"count":402,
			"type":"VEC2"
		},
		{
			"bufferView":3,
			"componentType":5126,
			"count":402,
			"type":"VEC4"
		},
		{
			"bufferView":4,
			"componentType":5123,
			"count":1032,
			"type":"SCALAR"
		},
		{
			"bufferView":5,
			"componentType":5126,
			"count":1070,
			"max":[
				152,
				12,
				42
			],
			"min":[
				-21,
				-2,
				-32
			],
			"type":"VEC3"
		},
		{
			"bufferView":6,
			"componentType":5126,
			"count":1070,
			"type":"VEC3"
		},
		{
			"bufferView":7,
			"componentType":5126,
			"count":1070,
			"type":"VEC2"
		},
		{
			"bufferView":8,
			"componentType":5126,
			"count":1070,
			"type":"VEC4"
		},
		{
			"bufferView":9,
			"componentType":5123,
			"count":2064,
			"type":"SCALAR"
		},
		{
			"bufferView":10,
			"componentType":5126,
			"count":386,
			"max":[
				150,
				10,
				40
			],
			"min":[
				-20,
				0,
				-30
			],
			"type":"VEC3"
		},
		{
			"bufferView":11,
			"componentType":5126,
			"count":386,
			"type":"VEC3"
		},
		{
			"bufferView":12,
			"componentType":5126,
			"count":386,
			"type":"VEC2"
		},
		{
			"bufferView":13,
			"componentType":5126,
			"count":386,
			"type":"VEC4"
		},
		{
			"bufferView":14,
			"componentType":5123,
			"count":1032,
			"type":"SCALAR"
		}
	],
	"bufferViews":[
		{
			"buffer":0,
			"byteLength":4824,
			"byteOffset":0,
			"target":34962
		},
		{
			"buffer":0,
			"byteLength":4824,
			"byteOffset":4824,
			"target":34962
		},
		{
			"buffer":0,
			"byteLength":3216,
			"byteOffset":9648,
			"target":34962
		},
		{
			"buffer":0,
			"byteLength":6432,
			"byteOffset":12864,
			"target":34962
		},
		{
			"buffer":0,
			"byteLength":2064,
			"byteOffset":19296,
			"target":34963
		},
		{
			"buffer":0,
			"byteLength":12840,
			"byteOffset":21360,
			"target":34962
		},
		{
			"buffer":0,
			"byteLength":12840,
			"byteOffset":34200,
			"target":34962
		},
		{
			"buffer":0,
			"byteLength":8560,
			"byteOffset":47040,
			"target":34962
		},
		{
			"buffer":0,
			"byteLength":17120,
			"byteOffset":55600,
			"target":34962
		},
		{
			"buffer":0,
			"byteLength":4128,
			"byteOffset":72720,
			"target":34963
		},
		{
			"buffer":0,
			"byteLength":4632,
			"byteOffset":76848,
			"target":34962
		},
		{
			"buffer":0,
			"byteLength":4632,
			"byteOffset":81480,
			"target":34962
		},
		{
			"buffer":0,
			"byteLength":3088,
			"byteOffset":86112,
			"target":34962
		},
		{
			"buffer":0,
			"byteLength":6176,
			"byteOffset":89200,
			"target":34962
		},
		{
			"buffer":0,
			"byteLength":2064,
			"byteOffset":95376,
			"target":34963
		}
	],
	"buffers":[
		{
			"byteLength":97440,
			"uri":"c2_m4-fc40bb134012ff99e5cb349619ea5b65.bin"
		}
	]
}
