{
	"asset":{
		"generator":"Khronos glTF Blender I/O v4.1.63",
		"version":"2.0"
	},
	"scene":0,
	"scenes":[
		{
			"name":"Scene",
			"nodes":[
				0,
				1
			]
		}
	],
	"nodes":[
		{
			"mesh":0,
			"name":"Level"
		},
		{
			"mesh":1,
			"name":"Collisions-colonly"
		}
	],
	"meshes":[
		{
			"name":"Cube",
			"primitives":[
				{
					"attributes":{
						"POSITION":0,
						"NORMAL":1,
						"TEXCOORD_0":2,
						"TANGENT":3
					},
					"indices":4
				}
			]
		},
		{
			"name":"Cube.001",
			"primitives":[
				{
					"attributes":{
						"POSITION":5,
						"NORMAL":6,
						"TEXCOORD_0":7,
						"TANGENT":8
					},
					"indices":9
				}
			]
		}
	],
	"accessors":[
		{
			"bufferView":0,
			"componentType":5126,
			"count":402,
			"max":[
				150,
				10,
				40
			],
			"min":[
				-20,
				0,
				-30
			],
			"type":"VEC3"
		},
		{
			"bufferView":1,
			"componentType":5126,
			"count":402,
			"type":"VEC3"
		},
		{
			"bufferView":2,
			"componentType":5126,
			"count":402,
			"type":"VEC2"
		},
		{
			"bufferView":3,
			"componentType":5126,
			"count":402,
			"type":"VEC4"
		},
		{
			"bufferView":4,
			"componentType":5123,
			"count":1032,
			"type":"SCALAR"
		},
		{
			"bufferView":5,
			"componentType":5126,
			"count":1086,
			"max":[
				152,
				12,
				42
			],
			"min":[
				-21,
				-2,
				-32
			],
			"type":"VEC3"
		},
		{
			"bufferView":6,
			"componentType":5126,
			"count":1086,
			"type":"VEC3"
		},
		{
			"bufferView":7,
			"componentType":5126,
			"count":1086,
			"type":"VEC2"
		},
		{
			"bufferView":8,
			"componentType":5126,
			"count":1086,
			"type":"VEC4"
		},
		{
			"bufferView":9,
			"componentType":5123,
			"count":2064,
			"type":"SCALAR"
		}
	],
	"bufferViews":[
		{
			"buffer":0,
			"byteLength":4824,
			"byteOffset":0,
			"target":34962
		},
		{
			"buffer":0,
			"byteLength":4824,
			"byteOffset":4824,
			"target":34962
		},
		{
			"buffer":0,
			"byteLength":3216,
			"byteOffset":9648,
			"target":34962
		},
		{
			"buffer":0,
			"byteLength":6432,
			"byteOffset":12864,
			"target":34962
		},
		{
			"buffer":0,
			"byteLength":2064,
			"byteOffset":19296,
			"target":34963
		},
		{
			"buffer":0,
			"byteLength":13032,
			"byteOffset":21360,
			"target":34962
		},
		{
			"buffer":0,
			"byteLength":13032,
			"byteOffset":34392,
			"target":34962
		},
		{
			"buffer":0,
			"byteLength":8688,
			"byteOffset":47424,
			"target":34962
		},
		{
			"buffer":0,
			"byteLength":17376,
			"byteOffset":56112,
			"target":34962
		},
		{
			"buffer":0,
			"byteLength":4128,
			"byteOffset":73488,
			"target":34963
		}
	],
	"buffers":[
		{
			"byteLength":77616,
			"uri":"c2_m4-fc40bb134012ff99e5cb349619ea5b65.bin"
		}
	]
}
