{
	"asset":{
		"generator":"Khronos glTF Blender I/O v4.1.63",
		"version":"2.0"
	},
	"scene":0,
	"scenes":[
		{
			"name":"Scene",
			"nodes":[
				0,
				1
			]
		}
	],
	"nodes":[
		{
			"mesh":0,
			"name":"Level"
		},
		{
			"mesh":1,
			"name":"Collisions-colonly"
		}
	],
	"meshes":[
		{
			"name":"Cube.001",
			"primitives":[
				{
					"attributes":{
						"POSITION":0,
						"NORMAL":1,
						"TEXCOORD_0":2,
						"TANGENT":3
					},
					"indices":4
				}
			]
		},
		{
			"name":"Cube.002",
			"primitives":[
				{
					"attributes":{
						"POSITION":5,
						"NORMAL":6,
						"TEXCOORD_0":7,
						"TANGENT":8
					},
					"indices":9
				}
			]
		}
	],
	"accessors":[
		{
			"bufferView":0,
			"componentType":5126,
			"count":188,
			"max":[
				150,
				17,
				5
			],
			"min":[
				-5,
				0,
				-75
			],
			"type":"VEC3"
		},
		{
			"bufferView":1,
			"componentType":5126,
			"count":188,
			"type":"VEC3"
		},
		{
			"bufferView":2,
			"componentType":5126,
			"count":188,
			"type":"VEC2"
		},
		{
			"bufferView":3,
			"componentType":5126,
			"count":188,
			"type":"VEC4"
		},
		{
			"bufferView":4,
			"componentType":5123,
			"count":420,
			"type":"SCALAR"
		},
		{
			"bufferView":5,
			"componentType":5126,
			"count":462,
			"max":[
				151,
				18.200000762939453,
				6
			],
			"min":[
				-5.666666507720947,
				-1.2000000476837158,
				-75.66666412353516
			],
			"type":"VEC3"
		},
		{
			"bufferView":6,
			"componentType":5126,
			"count":462,
			"type":"VEC3"
		},
		{
			"bufferView":7,
			"componentType":5126,
			"count":462,
			"type":"VEC2"
		},
		{
			"bufferView":8,
			"componentType":5126,
			"count":462,
			"type":"VEC4"
		},
		{
			"bufferView":9,
			"componentType":5123,
			"count":840,
			"type":"SCALAR"
		}
	],
	"bufferViews":[
		{
			"buffer":0,
			"byteLength":2256,
			"byteOffset":0,
			"target":34962
		},
		{
			"buffer":0,
			"byteLength":2256,
			"byteOffset":2256,
			"target":34962
		},
		{
			"buffer":0,
			"byteLength":1504,
			"byteOffset":4512,
			"target":34962
		},
		{
			"buffer":0,
			"byteLength":3008,
			"byteOffset":6016,
			"target":34962
		},
		{
			"buffer":0,
			"byteLength":840,
			"byteOffset":9024,
			"target":34963
		},
		{
			"buffer":0,
			"byteLength":5544,
			"byteOffset":9864,
			"target":34962
		},
		{
			"buffer":0,
			"byteLength":5544,
			"byteOffset":15408,
			"target":34962
		},
		{
			"buffer":0,
			"byteLength":3696,
			"byteOffset":20952,
			"target":34962
		},
		{
			"buffer":0,
			"byteLength":7392,
			"byteOffset":24648,
			"target":34962
		},
		{
			"buffer":0,
			"byteLength":1680,
			"byteOffset":32040,
			"target":34963
		}
	],
	"buffers":[
		{
			"byteLength":33720,
			"uri":"c2_m4-370e3ec565d0e87089cb9a9548a5423a.bin"
		}
	]
}
