{
	"asset":{
		"generator":"Khronos glTF Blender I/O v4.1.63",
		"version":"2.0"
	},
	"scene":0,
	"scenes":[
		{
			"name":"Scene",
			"nodes":[
				0,
				1
			]
		}
	],
	"nodes":[
		{
			"mesh":0,
			"name":"Level"
		},
		{
			"mesh":1,
			"name":"Collisions-colonly"
		}
	],
	"meshes":[
		{
			"name":"Cube.001",
			"primitives":[
				{
					"attributes":{
						"POSITION":0,
						"NORMAL":1,
						"TEXCOORD_0":2
					},
					"indices":3
				}
			]
		},
		{
			"name":"Cube",
			"primitives":[
				{
					"attributes":{
						"POSITION":4,
						"NORMAL":5,
						"TEXCOORD_0":6
					},
					"indices":7
				}
			]
		}
	],
	"accessors":[
		{
			"bufferView":0,
			"componentType":5126,
			"count":425,
			"max":[
				43,
				11,
				0
			],
			"min":[
				0,
				-11,
				-60
			],
			"type":"VEC3"
		},
		{
			"bufferView":1,
			"componentType":5126,
			"count":425,
			"type":"VEC3"
		},
		{
			"bufferView":2,
			"componentType":5126,
			"count":425,
			"type":"VEC2"
		},
		{
			"bufferView":3,
			"componentType":5123,
			"count":1080,
			"type":"SCALAR"
		},
		{
			"bufferView":4,
			"componentType":5126,
			"count":1133,
			"max":[
				46,
				14,
				3
			],
			"min":[
				-1.5,
				-12.5,
				-61
			],
			"type":"VEC3"
		},
		{
			"bufferView":5,
			"componentType":5126,
			"count":1133,
			"type":"VEC3"
		},
		{
			"bufferView":6,
			"componentType":5126,
			"count":1133,
			"type":"VEC2"
		},
		{
			"bufferView":7,
			"componentType":5123,
			"count":2160,
			"type":"SCALAR"
		}
	],
	"bufferViews":[
		{
			"buffer":0,
			"byteLength":5100,
			"byteOffset":0,
			"target":34962
		},
		{
			"buffer":0,
			"byteLength":5100,
			"byteOffset":5100,
			"target":34962
		},
		{
			"buffer":0,
			"byteLength":3400,
			"byteOffset":10200,
			"target":34962
		},
		{
			"buffer":0,
			"byteLength":2160,
			"byteOffset":13600,
			"target":34963
		},
		{
			"buffer":0,
			"byteLength":13596,
			"byteOffset":15760,
			"target":34962
		},
		{
			"buffer":0,
			"byteLength":13596,
			"byteOffset":29356,
			"target":34962
		},
		{
			"buffer":0,
			"byteLength":9064,
			"byteOffset":42952,
			"target":34962
		},
		{
			"buffer":0,
			"byteLength":4320,
			"byteOffset":52016,
			"target":34963
		}
	],
	"buffers":[
		{
			"byteLength":56336,
			"uri":"c2_m1-4cf69344504c7bdd45542b87b73fdfc2.bin"
		}
	]
}
