{
	"asset":{
		"generator":"Khronos glTF Blender I/O v4.1.63",
		"version":"2.0"
	},
	"scene":0,
	"scenes":[
		{
			"name":"Scene",
			"nodes":[
				0,
				1,
				2,
				3
			]
		}
	],
	"nodes":[
		{
			"mesh":0,
			"name":"Level"
		},
		{
			"mesh":1,
			"name":"Collisions -colonly"
		},
		{
			"mesh":2,
			"name":"Cube -rigid",
			"translation":[
				6,
				1,
				-4
			]
		},
		{
			"mesh":3,
			"name":"Cube -rigid.002",
			"rotation":[
				0,
				0.4953423738479614,
				0,
				0.8686978220939636
			],
			"translation":[
				5.772783279418945,
				1,
				-6.701403617858887
			]
		}
	],
	"materials":[
		{
			"alphaMode":"BLEND",
			"doubleSided":true,
			"name":"Transparent",
			"pbrMetallicRoughness":{
				"baseColorFactor":[
					0.800000011920929,
					0.800000011920929,
					0.800000011920929,
					0
				],
				"metallicFactor":0,
				"roughnessFactor":0.5
			}
		}
	],
	"meshes":[
		{
			"name":"Cube.001",
			"primitives":[
				{
					"attributes":{
						"POSITION":0,
						"NORMAL":1,
						"TEXCOORD_0":2
					},
					"indices":3
				}
			]
		},
		{
			"name":"Cube.002",
			"primitives":[
				{
					"attributes":{
						"POSITION":4,
						"NORMAL":5,
						"TEXCOORD_0":6
					},
					"indices":7,
					"material":0
				}
			]
		},
		{
			"name":"Cube",
			"primitives":[
				{
					"attributes":{
						"POSITION":8,
						"NORMAL":9,
						"TEXCOORD_0":10,
						"TANGENT":11
					},
					"indices":12
				}
			]
		},
		{
			"name":"Cube.004",
			"primitives":[
				{
					"attributes":{
						"POSITION":13,
						"NORMAL":14,
						"TEXCOORD_0":15,
						"TANGENT":16
					},
					"indices":12
				}
			]
		}
	],
	"accessors":[
		{
			"bufferView":0,
			"componentType":5126,
			"count":317,
			"max":[
				57.40470886230469,
				48.61323547363281,
				58.5
			],
			"min":[
				-56.192047119140625,
				-16,
				-136
			],
			"type":"VEC3"
		},
		{
			"bufferView":1,
			"componentType":5126,
			"count":317,
			"type":"VEC3"
		},
		{
			"bufferView":2,
			"componentType":5126,
			"count":317,
			"type":"VEC2"
		},
		{
			"bufferView":3,
			"componentType":5123,
			"count":576,
			"type":"SCALAR"
		},
		{
			"bufferView":4,
			"componentType":5126,
			"count":1349,
			"max":[
				58.396820068359375,
				49.61390686035156,
				59.49995422363281
			],
			"min":[
				-57.188453674316406,
				-16.07378387451172,
				-136.99993896484375
			],
			"type":"VEC3"
		},
		{
			"bufferView":5,
			"componentType":5126,
			"count":1349,
			"type":"VEC3"
		},
		{
			"bufferView":6,
			"componentType":5126,
			"count":1349,
			"type":"VEC2"
		},
		{
			"bufferView":7,
			"componentType":5123,
			"count":2304,
			"type":"SCALAR"
		},
		{
			"bufferView":8,
			"componentType":5126,
			"count":24,
			"max":[
				1,
				1,
				1
			],
			"min":[
				-1,
				-1,
				-1
			],
			"type":"VEC3"
		},
		{
			"bufferView":9,
			"componentType":5126,
			"count":24,
			"type":"VEC3"
		},
		{
			"bufferView":10,
			"componentType":5126,
			"count":24,
			"type":"VEC2"
		},
		{
			"bufferView":11,
			"componentType":5126,
			"count":24,
			"type":"VEC4"
		},
		{
			"bufferView":12,
			"componentType":5123,
			"count":36,
			"type":"SCALAR"
		},
		{
			"bufferView":13,
			"componentType":5126,
			"count":24,
			"max":[
				1,
				1,
				1
			],
			"min":[
				-1,
				-1,
				-1
			],
			"type":"VEC3"
		},
		{
			"bufferView":14,
			"componentType":5126,
			"count":24,
			"type":"VEC3"
		},
		{
			"bufferView":15,
			"componentType":5126,
			"count":24,
			"type":"VEC2"
		},
		{
			"bufferView":16,
			"componentType":5126,
			"count":24,
			"type":"VEC4"
		}
	],
	"bufferViews":[
		{
			"buffer":0,
			"byteLength":3804,
			"byteOffset":0,
			"target":34962
		},
		{
			"buffer":0,
			"byteLength":3804,
			"byteOffset":3804,
			"target":34962
		},
		{
			"buffer":0,
			"byteLength":2536,
			"byteOffset":7608,
			"target":34962
		},
		{
			"buffer":0,
			"byteLength":1152,
			"byteOffset":10144,
			"target":34963
		},
		{
			"buffer":0,
			"byteLength":16188,
			"byteOffset":11296,
			"target":34962
		},
		{
			"buffer":0,
			"byteLength":16188,
			"byteOffset":27484,
			"target":34962
		},
		{
			"buffer":0,
			"byteLength":10792,
			"byteOffset":43672,
			"target":34962
		},
		{
			"buffer":0,
			"byteLength":4608,
			"byteOffset":54464,
			"target":34963
		},
		{
			"buffer":0,
			"byteLength":288,
			"byteOffset":59072,
			"target":34962
		},
		{
			"buffer":0,
			"byteLength":288,
			"byteOffset":59360,
			"target":34962
		},
		{
			"buffer":0,
			"byteLength":192,
			"byteOffset":59648,
			"target":34962
		},
		{
			"buffer":0,
			"byteLength":384,
			"byteOffset":59840,
			"target":34962
		},
		{
			"buffer":0,
			"byteLength":72,
			"byteOffset":60224,
			"target":34963
		},
		{
			"buffer":0,
			"byteLength":288,
			"byteOffset":60296,
			"target":34962
		},
		{
			"buffer":0,
			"byteLength":288,
			"byteOffset":60584,
			"target":34962
		},
		{
			"buffer":0,
			"byteLength":192,
			"byteOffset":60872,
			"target":34962
		},
		{
			"buffer":0,
			"byteLength":384,
			"byteOffset":61064,
			"target":34962
		}
	],
	"buffers":[
		{
			"byteLength":61448,
			"uri":"c2_m1-16d8e7ac8c02a7930017264047fa2c3f.bin"
		}
	]
}
