{
	"asset":{
		"generator":"Khronos glTF Blender I/O v4.1.63",
		"version":"2.0"
	},
	"scene":0,
	"scenes":[
		{
			"name":"Scene",
			"nodes":[
				0,
				1
			]
		}
	],
	"nodes":[
		{
			"mesh":0,
			"name":"Level"
		},
		{
			"mesh":1,
			"name":"Collisions -colonly"
		}
	],
	"meshes":[
		{
			"name":"Cube.001",
			"primitives":[
				{
					"attributes":{
						"POSITION":0,
						"NORMAL":1,
						"TEXCOORD_0":2
					},
					"indices":3
				}
			]
		},
		{
			"name":"Cube.002",
			"primitives":[
				{
					"attributes":{
						"POSITION":4,
						"NORMAL":5,
						"TEXCOORD_0":6
					},
					"indices":7
				}
			]
		}
	],
	"accessors":[
		{
			"bufferView":0,
			"componentType":5126,
			"count":190,
			"max":[
				130,
				10,
				10
			],
			"min":[
				-5,
				-1.5,
				-50
			],
			"type":"VEC3"
		},
		{
			"bufferView":1,
			"componentType":5126,
			"count":190,
			"type":"VEC3"
		},
		{
			"bufferView":2,
			"componentType":5126,
			"count":190,
			"type":"VEC2"
		},
		{
			"bufferView":3,
			"componentType":5123,
			"count":420,
			"type":"SCALAR"
		},
		{
			"bufferView":4,
			"componentType":5126,
			"count":466,
			"max":[
				130.6666717529297,
				12,
				11
			],
			"min":[
				-5.666666507720947,
				-3.5,
				-51
			],
			"type":"VEC3"
		},
		{
			"bufferView":5,
			"componentType":5126,
			"count":466,
			"type":"VEC3"
		},
		{
			"bufferView":6,
			"componentType":5126,
			"count":466,
			"type":"VEC2"
		},
		{
			"bufferView":7,
			"componentType":5123,
			"count":840,
			"type":"SCALAR"
		}
	],
	"bufferViews":[
		{
			"buffer":0,
			"byteLength":2280,
			"byteOffset":0,
			"target":34962
		},
		{
			"buffer":0,
			"byteLength":2280,
			"byteOffset":2280,
			"target":34962
		},
		{
			"buffer":0,
			"byteLength":1520,
			"byteOffset":4560,
			"target":34962
		},
		{
			"buffer":0,
			"byteLength":840,
			"byteOffset":6080,
			"target":34963
		},
		{
			"buffer":0,
			"byteLength":5592,
			"byteOffset":6920,
			"target":34962
		},
		{
			"buffer":0,
			"byteLength":5592,
			"byteOffset":12512,
			"target":34962
		},
		{
			"buffer":0,
			"byteLength":3728,
			"byteOffset":18104,
			"target":34962
		},
		{
			"buffer":0,
			"byteLength":1680,
			"byteOffset":21832,
			"target":34963
		}
	],
	"buffers":[
		{
			"byteLength":23512,
			"uri":"c2_mx-61e9dd02c4ee7115fd4afb94996eccc4.bin"
		}
	]
}
