{
	"asset":{
		"generator":"Khronos glTF Blender I/O v4.1.63",
		"version":"2.0"
	},
	"scene":0,
	"scenes":[
		{
			"name":"Scene",
			"nodes":[
				0,
				1,
				2
			]
		}
	],
	"nodes":[
		{
			"mesh":0,
			"name":"Level"
		},
		{
			"mesh":1,
			"name":"Collisions -colonly"
		},
		{
			"mesh":2,
			"name":"Pain-noimp",
			"translation":[
				21,
				-1.5,
				0
			]
		}
	],
	"meshes":[
		{
			"name":"Cube.001",
			"primitives":[
				{
					"attributes":{
						"POSITION":0,
						"NORMAL":1,
						"TEXCOORD_0":2
					},
					"indices":3
				}
			]
		},
		{
			"name":"Cube.002",
			"primitives":[
				{
					"attributes":{
						"POSITION":4,
						"NORMAL":5,
						"TEXCOORD_0":6
					},
					"indices":7
				}
			]
		},
		{
			"name":"Cube",
			"primitives":[
				{
					"attributes":{
						"POSITION":8,
						"NORMAL":9,
						"TEXCOORD_0":10
					},
					"indices":11
				}
			]
		}
	],
	"accessors":[
		{
			"bufferView":0,
			"componentType":5126,
			"count":405,
			"max":[
				145,
				10,
				10
			],
			"min":[
				-5,
				-2,
				-50
			],
			"type":"VEC3"
		},
		{
			"bufferView":1,
			"componentType":5126,
			"count":405,
			"type":"VEC3"
		},
		{
			"bufferView":2,
			"componentType":5126,
			"count":405,
			"type":"VEC2"
		},
		{
			"bufferView":3,
			"componentType":5123,
			"count":948,
			"type":"SCALAR"
		},
		{
			"bufferView":4,
			"componentType":5126,
			"count":1023,
			"max":[
				146,
				12,
				12
			],
			"min":[
				-5.666666507720947,
				-3.5,
				-51
			],
			"type":"VEC3"
		},
		{
			"bufferView":5,
			"componentType":5126,
			"count":1023,
			"type":"VEC3"
		},
		{
			"bufferView":6,
			"componentType":5126,
			"count":1023,
			"type":"VEC2"
		},
		{
			"bufferView":7,
			"componentType":5123,
			"count":1896,
			"type":"SCALAR"
		},
		{
			"bufferView":8,
			"componentType":5126,
			"count":208,
			"max":[
				109,
				1,
				10
			],
			"min":[
				-1,
				-0.5,
				-50
			],
			"type":"VEC3"
		},
		{
			"bufferView":9,
			"componentType":5126,
			"count":208,
			"type":"VEC3"
		},
		{
			"bufferView":10,
			"componentType":5126,
			"count":208,
			"type":"VEC2"
		},
		{
			"bufferView":11,
			"componentType":5123,
			"count":432,
			"type":"SCALAR"
		}
	],
	"bufferViews":[
		{
			"buffer":0,
			"byteLength":4860,
			"byteOffset":0,
			"target":34962
		},
		{
			"buffer":0,
			"byteLength":4860,
			"byteOffset":4860,
			"target":34962
		},
		{
			"buffer":0,
			"byteLength":3240,
			"byteOffset":9720,
			"target":34962
		},
		{
			"buffer":0,
			"byteLength":1896,
			"byteOffset":12960,
			"target":34963
		},
		{
			"buffer":0,
			"byteLength":12276,
			"byteOffset":14856,
			"target":34962
		},
		{
			"buffer":0,
			"byteLength":12276,
			"byteOffset":27132,
			"target":34962
		},
		{
			"buffer":0,
			"byteLength":8184,
			"byteOffset":39408,
			"target":34962
		},
		{
			"buffer":0,
			"byteLength":3792,
			"byteOffset":47592,
			"target":34963
		},
		{
			"buffer":0,
			"byteLength":2496,
			"byteOffset":51384,
			"target":34962
		},
		{
			"buffer":0,
			"byteLength":2496,
			"byteOffset":53880,
			"target":34962
		},
		{
			"buffer":0,
			"byteLength":1664,
			"byteOffset":56376,
			"target":34962
		},
		{
			"buffer":0,
			"byteLength":864,
			"byteOffset":58040,
			"target":34963
		}
	],
	"buffers":[
		{
			"byteLength":58904,
			"uri":"c2_m2-a3bd814e90fc5e53a3be2823c310f9ef.bin"
		}
	]
}
