{
	"asset":{
		"generator":"Khronos glTF Blender I/O v4.1.63",
		"version":"2.0"
	},
	"scene":0,
	"scenes":[
		{
			"name":"Scene",
			"nodes":[
				0
			]
		}
	],
	"nodes":[
		{
			"mesh":0,
			"name":"Cube-col",
			"translation":[
				0,
				1,
				0
			]
		}
	],
	"meshes":[
		{
			"name":"Cube.002",
			"primitives":[
				{
					"attributes":{
						"POSITION":0,
						"NORMAL":1,
						"TEXCOORD_0":2
					},
					"indices":3
				}
			]
		}
	],
	"accessors":[
		{
			"bufferView":0,
			"componentType":5126,
			"count":478,
			"max":[
				194,
				25.123638153076172,
				-6.75
			],
			"min":[
				-20,
				-147,
				-96
			],
			"type":"VEC3"
		},
		{
			"bufferView":1,
			"componentType":5126,
			"count":478,
			"type":"VEC3"
		},
		{
			"bufferView":2,
			"componentType":5126,
			"count":478,
			"type":"VEC2"
		},
		{
			"bufferView":3,
			"componentType":5123,
			"count":1200,
			"type":"SCALAR"
		}
	],
	"bufferViews":[
		{
			"buffer":0,
			"byteLength":5736,
			"byteOffset":0,
			"target":34962
		},
		{
			"buffer":0,
			"byteLength":5736,
			"byteOffset":5736,
			"target":34962
		},
		{
			"buffer":0,
			"byteLength":3824,
			"byteOffset":11472,
			"target":34962
		},
		{
			"buffer":0,
			"byteLength":2400,
			"byteOffset":15296,
			"target":34963
		}
	],
	"buffers":[
		{
			"byteLength":17696,
			"uri":"c2_m3-f91eb1428fe5e898c61854d2f66f823f.bin"
		}
	]
}
