{
	"asset":{
		"generator":"Khronos glTF Blender I/O v4.1.63",
		"version":"2.0"
	},
	"scene":0,
	"scenes":[
		{
			"name":"Scene",
			"nodes":[
				0,
				1
			]
		}
	],
	"nodes":[
		{
			"mesh":0,
			"name":"Level"
		},
		{
			"mesh":1,
			"name":"Collision -colonly"
		}
	],
	"materials":[
		{
			"alphaMode":"BLEND",
			"doubleSided":true,
			"name":"Transparent",
			"pbrMetallicRoughness":{
				"baseColorFactor":[
					0.800000011920929,
					0.800000011920929,
					0.800000011920929,
					0
				],
				"metallicFactor":0,
				"roughnessFactor":0.5
			}
		}
	],
	"meshes":[
		{
			"name":"Cube.001",
			"primitives":[
				{
					"attributes":{
						"POSITION":0,
						"NORMAL":1,
						"TEXCOORD_0":2,
						"TANGENT":3
					},
					"indices":4
				}
			]
		},
		{
			"name":"Plane",
			"primitives":[
				{
					"attributes":{
						"POSITION":5,
						"NORMAL":6,
						"TEXCOORD_0":7,
						"TANGENT":8
					},
					"indices":9,
					"material":0
				}
			]
		}
	],
	"accessors":[
		{
			"bufferView":0,
			"componentType":5126,
			"count":206,
			"max":[
				55,
				75,
				5
			],
			"min":[
				-5,
				0,
				-60
			],
			"type":"VEC3"
		},
		{
			"bufferView":1,
			"componentType":5126,
			"count":206,
			"type":"VEC3"
		},
		{
			"bufferView":2,
			"componentType":5126,
			"count":206,
			"type":"VEC2"
		},
		{
			"bufferView":3,
			"componentType":5126,
			"count":206,
			"type":"VEC4"
		},
		{
			"bufferView":4,
			"componentType":5123,
			"count":588,
			"type":"SCALAR"
		},
		{
			"bufferView":5,
			"componentType":5126,
			"count":1362,
			"max":[
				55.752159118652344,
				76.4994888305664,
				5.7532639503479
			],
			"min":[
				-5.508111953735352,
				-1.499537706375122,
				-61.49964904785156
			],
			"type":"VEC3"
		},
		{
			"bufferView":6,
			"componentType":5126,
			"count":1362,
			"type":"VEC3"
		},
		{
			"bufferView":7,
			"componentType":5126,
			"count":1362,
			"type":"VEC2"
		},
		{
			"bufferView":8,
			"componentType":5126,
			"count":1362,
			"type":"VEC4"
		},
		{
			"bufferView":9,
			"componentType":5123,
			"count":2352,
			"type":"SCALAR"
		}
	],
	"bufferViews":[
		{
			"buffer":0,
			"byteLength":2472,
			"byteOffset":0,
			"target":34962
		},
		{
			"buffer":0,
			"byteLength":2472,
			"byteOffset":2472,
			"target":34962
		},
		{
			"buffer":0,
			"byteLength":1648,
			"byteOffset":4944,
			"target":34962
		},
		{
			"buffer":0,
			"byteLength":3296,
			"byteOffset":6592,
			"target":34962
		},
		{
			"buffer":0,
			"byteLength":1176,
			"byteOffset":9888,
			"target":34963
		},
		{
			"buffer":0,
			"byteLength":16344,
			"byteOffset":11064,
			"target":34962
		},
		{
			"buffer":0,
			"byteLength":16344,
			"byteOffset":27408,
			"target":34962
		},
		{
			"buffer":0,
			"byteLength":10896,
			"byteOffset":43752,
			"target":34962
		},
		{
			"buffer":0,
			"byteLength":21792,
			"byteOffset":54648,
			"target":34962
		},
		{
			"buffer":0,
			"byteLength":4704,
			"byteOffset":76440,
			"target":34963
		}
	],
	"buffers":[
		{
			"byteLength":81144,
			"uri":"c2_m5-7f86428a793a16d0433bc9239f44cc78.bin"
		}
	]
}
