{
	"asset":{
		"generator":"Khronos glTF Blender I/O v4.1.63",
		"version":"2.0"
	},
	"scene":0,
	"scenes":[
		{
			"name":"Scene",
			"nodes":[
				0,
				1
			]
		}
	],
	"nodes":[
		{
			"mesh":0,
			"name":"Level",
			"translation":[
				0,
				1,
				0
			]
		},
		{
			"mesh":1,
			"name":"Collisions -colonly"
		}
	],
	"meshes":[
		{
			"name":"Cube.002",
			"primitives":[
				{
					"attributes":{
						"POSITION":0,
						"NORMAL":1,
						"TEXCOORD_0":2
					},
					"indices":3
				}
			]
		},
		{
			"name":"Cube",
			"primitives":[
				{
					"attributes":{
						"POSITION":4,
						"NORMAL":5,
						"TEXCOORD_0":6
					},
					"indices":7
				}
			]
		}
	],
	"accessors":[
		{
			"bufferView":0,
			"componentType":5126,
			"count":588,
			"max":[
				194,
				25.123638153076172,
				-6.75
			],
			"min":[
				-20,
				-147,
				-96
			],
			"type":"VEC3"
		},
		{
			"bufferView":1,
			"componentType":5126,
			"count":588,
			"type":"VEC3"
		},
		{
			"bufferView":2,
			"componentType":5126,
			"count":588,
			"type":"VEC2"
		},
		{
			"bufferView":3,
			"componentType":5123,
			"count":1500,
			"type":"SCALAR"
		},
		{
			"bufferView":4,
			"componentType":5126,
			"count":1494,
			"max":[
				195,
				25.802778244018555,
				-6.083333492279053
			],
			"min":[
				-20.66666603088379,
				-147.6666717529297,
				-96.66666412353516
			],
			"type":"VEC3"
		},
		{
			"bufferView":5,
			"componentType":5126,
			"count":1494,
			"type":"VEC3"
		},
		{
			"bufferView":6,
			"componentType":5126,
			"count":1494,
			"type":"VEC2"
		},
		{
			"bufferView":7,
			"componentType":5123,
			"count":3000,
			"type":"SCALAR"
		}
	],
	"bufferViews":[
		{
			"buffer":0,
			"byteLength":7056,
			"byteOffset":0,
			"target":34962
		},
		{
			"buffer":0,
			"byteLength":7056,
			"byteOffset":7056,
			"target":34962
		},
		{
			"buffer":0,
			"byteLength":4704,
			"byteOffset":14112,
			"target":34962
		},
		{
			"buffer":0,
			"byteLength":3000,
			"byteOffset":18816,
			"target":34963
		},
		{
			"buffer":0,
			"byteLength":17928,
			"byteOffset":21816,
			"target":34962
		},
		{
			"buffer":0,
			"byteLength":17928,
			"byteOffset":39744,
			"target":34962
		},
		{
			"buffer":0,
			"byteLength":11952,
			"byteOffset":57672,
			"target":34962
		},
		{
			"buffer":0,
			"byteLength":6000,
			"byteOffset":69624,
			"target":34963
		}
	],
	"buffers":[
		{
			"byteLength":75624,
			"uri":"c2_m3-b0c79deb55cdf2bac254bcfa042b6abe.bin"
		}
	]
}
