{
	"asset":{
		"generator":"Khronos glTF Blender I/O v4.1.63",
		"version":"2.0"
	},
	"scene":0,
	"scenes":[
		{
			"name":"Scene",
			"nodes":[
				0
			]
		}
	],
	"nodes":[
		{
			"mesh":0,
			"name":"Cube-col",
			"translation":[
				0,
				1,
				0
			]
		}
	],
	"meshes":[
		{
			"name":"Cube.002",
			"primitives":[
				{
					"attributes":{
						"POSITION":0,
						"NORMAL":1,
						"TEXCOORD_0":2
					},
					"indices":3
				}
			]
		}
	],
	"accessors":[
		{
			"bufferView":0,
			"componentType":5126,
			"count":588,
			"max":[
				194,
				25.123638153076172,
				-6.75
			],
			"min":[
				-20,
				-147,
				-96
			],
			"type":"VEC3"
		},
		{
			"bufferView":1,
			"componentType":5126,
			"count":588,
			"type":"VEC3"
		},
		{
			"bufferView":2,
			"componentType":5126,
			"count":588,
			"type":"VEC2"
		},
		{
			"bufferView":3,
			"componentType":5123,
			"count":1500,
			"type":"SCALAR"
		}
	],
	"bufferViews":[
		{
			"buffer":0,
			"byteLength":7056,
			"byteOffset":0,
			"target":34962
		},
		{
			"buffer":0,
			"byteLength":7056,
			"byteOffset":7056,
			"target":34962
		},
		{
			"buffer":0,
			"byteLength":4704,
			"byteOffset":14112,
			"target":34962
		},
		{
			"buffer":0,
			"byteLength":3000,
			"byteOffset":18816,
			"target":34963
		}
	],
	"buffers":[
		{
			"byteLength":21816,
			"uri":"c2_m3-b0c79deb55cdf2bac254bcfa042b6abe.bin"
		}
	]
}
