{
	"asset":{
		"generator":"Khronos glTF Blender I/O v4.1.63",
		"version":"2.0"
	},
	"scene":0,
	"scenes":[
		{
			"name":"Scene",
			"nodes":[
				0,
				1,
				2
			]
		}
	],
	"nodes":[
		{
			"mesh":0,
			"name":"Level-col",
			"translation":[
				0,
				1,
				0
			]
		},
		{
			"mesh":1,
			"name":"Plane-col",
			"rotation":[
				0,
				0,
				-0.7071068286895752,
				0.7071068286895752
			],
			"translation":[
				30,
				1,
				-16
			]
		},
		{
			"mesh":2,
			"name":"Cube-rigid",
			"translation":[
				30,
				1,
				-22
			]
		}
	],
	"meshes":[
		{
			"name":"Cube.001",
			"primitives":[
				{
					"attributes":{
						"POSITION":0,
						"NORMAL":1,
						"TEXCOORD_0":2,
						"TANGENT":3
					},
					"indices":4
				}
			]
		},
		{
			"name":"Plane",
			"primitives":[
				{
					"attributes":{
						"POSITION":5,
						"NORMAL":6,
						"TEXCOORD_0":7,
						"TANGENT":8
					},
					"indices":9
				}
			]
		},
		{
			"name":"Cube.002",
			"primitives":[
				{
					"attributes":{
						"POSITION":10,
						"NORMAL":11,
						"TEXCOORD_0":12,
						"TANGENT":13
					},
					"indices":14
				}
			]
		}
	],
	"accessors":[
		{
			"bufferView":0,
			"componentType":5126,
			"count":251,
			"max":[
				49,
				10,
				0
			],
			"min":[
				0,
				-1,
				-55
			],
			"type":"VEC3"
		},
		{
			"bufferView":1,
			"componentType":5126,
			"count":251,
			"type":"VEC3"
		},
		{
			"bufferView":2,
			"componentType":5126,
			"count":251,
			"type":"VEC2"
		},
		{
			"bufferView":3,
			"componentType":5126,
			"count":251,
			"type":"VEC4"
		},
		{
			"bufferView":4,
			"componentType":5123,
			"count":648,
			"type":"SCALAR"
		},
		{
			"bufferView":5,
			"componentType":5126,
			"count":84,
			"max":[
				1,
				1.000000238418579,
				1
			],
			"min":[
				-4,
				0,
				-9
			],
			"type":"VEC3"
		},
		{
			"bufferView":6,
			"componentType":5126,
			"count":84,
			"type":"VEC3"
		},
		{
			"bufferView":7,
			"componentType":5126,
			"count":84,
			"type":"VEC2"
		},
		{
			"bufferView":8,
			"componentType":5126,
			"count":84,
			"type":"VEC4"
		},
		{
			"bufferView":9,
			"componentType":5123,
			"count":204,
			"type":"SCALAR"
		},
		{
			"bufferView":10,
			"componentType":5126,
			"count":24,
			"max":[
				0,
				3,
				1
			],
			"min":[
				-0.3999999761581421,
				-1,
				-1
			],
			"type":"VEC3"
		},
		{
			"bufferView":11,
			"componentType":5126,
			"count":24,
			"type":"VEC3"
		},
		{
			"bufferView":12,
			"componentType":5126,
			"count":24,
			"type":"VEC2"
		},
		{
			"bufferView":13,
			"componentType":5126,
			"count":24,
			"type":"VEC4"
		},
		{
			"bufferView":14,
			"componentType":5123,
			"count":36,
			"type":"SCALAR"
		}
	],
	"bufferViews":[
		{
			"buffer":0,
			"byteLength":3012,
			"byteOffset":0,
			"target":34962
		},
		{
			"buffer":0,
			"byteLength":3012,
			"byteOffset":3012,
			"target":34962
		},
		{
			"buffer":0,
			"byteLength":2008,
			"byteOffset":6024,
			"target":34962
		},
		{
			"buffer":0,
			"byteLength":4016,
			"byteOffset":8032,
			"target":34962
		},
		{
			"buffer":0,
			"byteLength":1296,
			"byteOffset":12048,
			"target":34963
		},
		{
			"buffer":0,
			"byteLength":1008,
			"byteOffset":13344,
			"target":34962
		},
		{
			"buffer":0,
			"byteLength":1008,
			"byteOffset":14352,
			"target":34962
		},
		{
			"buffer":0,
			"byteLength":672,
			"byteOffset":15360,
			"target":34962
		},
		{
			"buffer":0,
			"byteLength":1344,
			"byteOffset":16032,
			"target":34962
		},
		{
			"buffer":0,
			"byteLength":408,
			"byteOffset":17376,
			"target":34963
		},
		{
			"buffer":0,
			"byteLength":288,
			"byteOffset":17784,
			"target":34962
		},
		{
			"buffer":0,
			"byteLength":288,
			"byteOffset":18072,
			"target":34962
		},
		{
			"buffer":0,
			"byteLength":192,
			"byteOffset":18360,
			"target":34962
		},
		{
			"buffer":0,
			"byteLength":384,
			"byteOffset":18552,
			"target":34962
		},
		{
			"buffer":0,
			"byteLength":72,
			"byteOffset":18936,
			"target":34963
		}
	],
	"buffers":[
		{
			"byteLength":19008,
			"uri":"c2_m1-new-aff7a82b2b0f26ac1193e8f3e82383a0.bin"
		}
	]
}
