{
	"asset":{
		"generator":"Khronos glTF Blender I/O v4.1.63",
		"version":"2.0"
	},
	"scene":0,
	"scenes":[
		{
			"name":"Scene",
			"nodes":[
				0,
				1,
				2
			]
		}
	],
	"nodes":[
		{
			"mesh":0,
			"name":"Level"
		},
		{
			"mesh":1,
			"name":"Collisions -colonly"
		},
		{
			"mesh":2,
			"name":"Pain-noimp",
			"translation":[
				21,
				-1.5,
				0
			]
		}
	],
	"meshes":[
		{
			"name":"Cube.001",
			"primitives":[
				{
					"attributes":{
						"POSITION":0,
						"NORMAL":1,
						"TEXCOORD_0":2
					},
					"indices":3
				}
			]
		},
		{
			"name":"Cube.002",
			"primitives":[
				{
					"attributes":{
						"POSITION":4,
						"NORMAL":5,
						"TEXCOORD_0":6
					},
					"indices":7
				}
			]
		},
		{
			"name":"Cube",
			"primitives":[
				{
					"attributes":{
						"POSITION":8,
						"NORMAL":9,
						"TEXCOORD_0":10
					},
					"indices":11
				}
			]
		}
	],
	"accessors":[
		{
			"bufferView":0,
			"componentType":5126,
			"count":221,
			"max":[
				130,
				10,
				10
			],
			"min":[
				-5,
				-1.5,
				-50
			],
			"type":"VEC3"
		},
		{
			"bufferView":1,
			"componentType":5126,
			"count":221,
			"type":"VEC3"
		},
		{
			"bufferView":2,
			"componentType":5126,
			"count":221,
			"type":"VEC2"
		},
		{
			"bufferView":3,
			"componentType":5123,
			"count":468,
			"type":"SCALAR"
		},
		{
			"bufferView":4,
			"componentType":5126,
			"count":524,
			"max":[
				130.6666717529297,
				12,
				11
			],
			"min":[
				-5.666666507720947,
				-3.5,
				-51
			],
			"type":"VEC3"
		},
		{
			"bufferView":5,
			"componentType":5126,
			"count":524,
			"type":"VEC3"
		},
		{
			"bufferView":6,
			"componentType":5126,
			"count":524,
			"type":"VEC2"
		},
		{
			"bufferView":7,
			"componentType":5123,
			"count":936,
			"type":"SCALAR"
		},
		{
			"bufferView":8,
			"componentType":5126,
			"count":131,
			"max":[
				99,
				1,
				10
			],
			"min":[
				-1,
				0,
				-50
			],
			"type":"VEC3"
		},
		{
			"bufferView":9,
			"componentType":5126,
			"count":131,
			"type":"VEC3"
		},
		{
			"bufferView":10,
			"componentType":5126,
			"count":131,
			"type":"VEC2"
		},
		{
			"bufferView":11,
			"componentType":5123,
			"count":276,
			"type":"SCALAR"
		}
	],
	"bufferViews":[
		{
			"buffer":0,
			"byteLength":2652,
			"byteOffset":0,
			"target":34962
		},
		{
			"buffer":0,
			"byteLength":2652,
			"byteOffset":2652,
			"target":34962
		},
		{
			"buffer":0,
			"byteLength":1768,
			"byteOffset":5304,
			"target":34962
		},
		{
			"buffer":0,
			"byteLength":936,
			"byteOffset":7072,
			"target":34963
		},
		{
			"buffer":0,
			"byteLength":6288,
			"byteOffset":8008,
			"target":34962
		},
		{
			"buffer":0,
			"byteLength":6288,
			"byteOffset":14296,
			"target":34962
		},
		{
			"buffer":0,
			"byteLength":4192,
			"byteOffset":20584,
			"target":34962
		},
		{
			"buffer":0,
			"byteLength":1872,
			"byteOffset":24776,
			"target":34963
		},
		{
			"buffer":0,
			"byteLength":1572,
			"byteOffset":26648,
			"target":34962
		},
		{
			"buffer":0,
			"byteLength":1572,
			"byteOffset":28220,
			"target":34962
		},
		{
			"buffer":0,
			"byteLength":1048,
			"byteOffset":29792,
			"target":34962
		},
		{
			"buffer":0,
			"byteLength":552,
			"byteOffset":30840,
			"target":34963
		}
	],
	"buffers":[
		{
			"byteLength":31392,
			"uri":"c2_m2-a3bd814e90fc5e53a3be2823c310f9ef.bin"
		}
	]
}
