{
	"asset":{
		"generator":"Khronos glTF Blender I/O v4.1.63",
		"version":"2.0"
	},
	"scene":0,
	"scenes":[
		{
			"name":"Scene",
			"nodes":[
				0,
				1
			]
		}
	],
	"nodes":[
		{
			"mesh":0,
			"name":"Level"
		},
		{
			"mesh":1,
			"name":"Collisions-colonly"
		}
	],
	"materials":[
		{
			"alphaMode":"BLEND",
			"doubleSided":true,
			"name":"Transparent",
			"pbrMetallicRoughness":{
				"baseColorFactor":[
					0.800000011920929,
					0.800000011920929,
					0.800000011920929,
					0
				],
				"metallicFactor":0,
				"roughnessFactor":0.5
			}
		}
	],
	"meshes":[
		{
			"name":"Cube.001",
			"primitives":[
				{
					"attributes":{
						"POSITION":0,
						"NORMAL":1,
						"TEXCOORD_0":2,
						"TANGENT":3
					},
					"indices":4
				}
			]
		},
		{
			"name":"Cube.002",
			"primitives":[
				{
					"attributes":{
						"POSITION":5,
						"NORMAL":6,
						"TEXCOORD_0":7,
						"TANGENT":8
					},
					"indices":9,
					"material":0
				}
			]
		}
	],
	"accessors":[
		{
			"bufferView":0,
			"componentType":5126,
			"count":188,
			"max":[
				150,
				17,
				5
			],
			"min":[
				-5,
				0,
				-75
			],
			"type":"VEC3"
		},
		{
			"bufferView":1,
			"componentType":5126,
			"count":188,
			"type":"VEC3"
		},
		{
			"bufferView":2,
			"componentType":5126,
			"count":188,
			"type":"VEC2"
		},
		{
			"bufferView":3,
			"componentType":5126,
			"count":188,
			"type":"VEC4"
		},
		{
			"bufferView":4,
			"componentType":5123,
			"count":420,
			"type":"SCALAR"
		},
		{
			"bufferView":5,
			"componentType":5126,
			"count":1010,
			"max":[
				150.75160217285156,
				17.899995803833008,
				5.753252029418945
			],
			"min":[
				-5.508111953735352,
				-0.8999966382980347,
				-75.5183334350586
			],
			"type":"VEC3"
		},
		{
			"bufferView":6,
			"componentType":5126,
			"count":1010,
			"type":"VEC3"
		},
		{
			"bufferView":7,
			"componentType":5126,
			"count":1010,
			"type":"VEC2"
		},
		{
			"bufferView":8,
			"componentType":5126,
			"count":1010,
			"type":"VEC4"
		},
		{
			"bufferView":9,
			"componentType":5123,
			"count":1680,
			"type":"SCALAR"
		}
	],
	"bufferViews":[
		{
			"buffer":0,
			"byteLength":2256,
			"byteOffset":0,
			"target":34962
		},
		{
			"buffer":0,
			"byteLength":2256,
			"byteOffset":2256,
			"target":34962
		},
		{
			"buffer":0,
			"byteLength":1504,
			"byteOffset":4512,
			"target":34962
		},
		{
			"buffer":0,
			"byteLength":3008,
			"byteOffset":6016,
			"target":34962
		},
		{
			"buffer":0,
			"byteLength":840,
			"byteOffset":9024,
			"target":34963
		},
		{
			"buffer":0,
			"byteLength":12120,
			"byteOffset":9864,
			"target":34962
		},
		{
			"buffer":0,
			"byteLength":12120,
			"byteOffset":21984,
			"target":34962
		},
		{
			"buffer":0,
			"byteLength":8080,
			"byteOffset":34104,
			"target":34962
		},
		{
			"buffer":0,
			"byteLength":16160,
			"byteOffset":42184,
			"target":34962
		},
		{
			"buffer":0,
			"byteLength":3360,
			"byteOffset":58344,
			"target":34963
		}
	],
	"buffers":[
		{
			"byteLength":61704,
			"uri":"c2_m4-1988fdb46aa8f44ef9d9d8fe365152d1.bin"
		}
	]
}
