{
	"asset":{
		"generator":"Khronos glTF Blender I/O v4.1.63",
		"version":"2.0"
	},
	"scene":0,
	"scenes":[
		{
			"name":"Scene",
			"nodes":[
				0,
				1,
				2
			]
		}
	],
	"nodes":[
		{
			"mesh":0,
			"name":"Mesh",
			"translation":[
				0,
				0.7555433511734009,
				0.13381552696228027
			]
		},
		{
			"mesh":1,
			"name":"Collisions-colonly"
		},
		{
			"mesh":2,
			"name":"CollisionsFull -colonly",
			"translation":[
				0,
				-1,
				0
			]
		}
	],
	"materials":[
		{
			"doubleSided":true,
			"name":"Material",
			"pbrMetallicRoughness":{
				"baseColorFactor":[
					0.800000011920929,
					0.800000011920929,
					0.800000011920929,
					1
				],
				"metallicFactor":0,
				"roughnessFactor":0.5
			}
		}
	],
	"meshes":[
		{
			"name":"Cube",
			"primitives":[
				{
					"attributes":{
						"POSITION":0,
						"NORMAL":1,
						"TEXCOORD_0":2
					},
					"indices":3,
					"material":0
				}
			]
		},
		{
			"name":"Cube.003",
			"primitives":[
				{
					"attributes":{
						"POSITION":4,
						"NORMAL":5,
						"TEXCOORD_0":6,
						"TANGENT":7
					},
					"indices":8
				}
			]
		},
		{
			"name":"Cube.001",
			"primitives":[
				{
					"attributes":{
						"POSITION":9,
						"NORMAL":10,
						"TEXCOORD_0":11,
						"TANGENT":12
					},
					"indices":13
				}
			]
		}
	],
	"accessors":[
		{
			"bufferView":0,
			"componentType":5126,
			"count":774,
			"max":[
				2,
				1.0439352989196777,
				1.8661844730377197
			],
			"min":[
				-2,
				-1.4292805194854736,
				-2.6408910751342773
			],
			"type":"VEC3"
		},
		{
			"bufferView":1,
			"componentType":5126,
			"count":774,
			"type":"VEC3"
		},
		{
			"bufferView":2,
			"componentType":5126,
			"count":774,
			"type":"VEC2"
		},
		{
			"bufferView":3,
			"componentType":5123,
			"count":1776,
			"type":"SCALAR"
		},
		{
			"bufferView":4,
			"componentType":5126,
			"count":116,
			"max":[
				2,
				1.7603161334991455,
				2
			],
			"min":[
				-2,
				-0.6000000238418579,
				-2
			],
			"type":"VEC3"
		},
		{
			"bufferView":5,
			"componentType":5126,
			"count":116,
			"type":"VEC3"
		},
		{
			"bufferView":6,
			"componentType":5126,
			"count":116,
			"type":"VEC2"
		},
		{
			"bufferView":7,
			"componentType":5126,
			"count":116,
			"type":"VEC4"
		},
		{
			"bufferView":8,
			"componentType":5123,
			"count":276,
			"type":"SCALAR"
		},
		{
			"bufferView":9,
			"componentType":5126,
			"count":64,
			"max":[
				2,
				11,
				2
			],
			"min":[
				-2,
				0.3999999761581421,
				-2
			],
			"type":"VEC3"
		},
		{
			"bufferView":10,
			"componentType":5126,
			"count":64,
			"type":"VEC3"
		},
		{
			"bufferView":11,
			"componentType":5126,
			"count":64,
			"type":"VEC2"
		},
		{
			"bufferView":12,
			"componentType":5126,
			"count":64,
			"type":"VEC4"
		},
		{
			"bufferView":13,
			"componentType":5123,
			"count":108,
			"type":"SCALAR"
		}
	],
	"bufferViews":[
		{
			"buffer":0,
			"byteLength":9288,
			"byteOffset":0,
			"target":34962
		},
		{
			"buffer":0,
			"byteLength":9288,
			"byteOffset":9288,
			"target":34962
		},
		{
			"buffer":0,
			"byteLength":6192,
			"byteOffset":18576,
			"target":34962
		},
		{
			"buffer":0,
			"byteLength":3552,
			"byteOffset":24768,
			"target":34963
		},
		{
			"buffer":0,
			"byteLength":1392,
			"byteOffset":28320,
			"target":34962
		},
		{
			"buffer":0,
			"byteLength":1392,
			"byteOffset":29712,
			"target":34962
		},
		{
			"buffer":0,
			"byteLength":928,
			"byteOffset":31104,
			"target":34962
		},
		{
			"buffer":0,
			"byteLength":1856,
			"byteOffset":32032,
			"target":34962
		},
		{
			"buffer":0,
			"byteLength":552,
			"byteOffset":33888,
			"target":34963
		},
		{
			"buffer":0,
			"byteLength":768,
			"byteOffset":34440,
			"target":34962
		},
		{
			"buffer":0,
			"byteLength":768,
			"byteOffset":35208,
			"target":34962
		},
		{
			"buffer":0,
			"byteLength":512,
			"byteOffset":35976,
			"target":34962
		},
		{
			"buffer":0,
			"byteLength":1024,
			"byteOffset":36488,
			"target":34962
		},
		{
			"buffer":0,
			"byteLength":216,
			"byteOffset":37512,
			"target":34963
		}
	],
	"buffers":[
		{
			"byteLength":37728,
			"uri":"carraige-ee3b63796c0f48f89aff07ffe75cb65e.bin"
		}
	]
}
