{
	"asset":{
		"generator":"Khronos glTF Blender I/O v4.1.63",
		"version":"2.0"
	},
	"scene":0,
	"scenes":[
		{
			"name":"Scene",
			"nodes":[
				0,
				1,
				2
			]
		}
	],
	"nodes":[
		{
			"mesh":0,
			"name":"Cube",
			"translation":[
				0,
				1,
				0
			]
		},
		{
			"mesh":1,
			"name":"Cube.001",
			"translation":[
				0,
				0.2970331013202667,
				0
			]
		},
		{
			"mesh":2,
			"name":"Cube.002",
			"rotation":[
				-0.10766568034887314,
				0,
				0,
				0.9941871762275696
			],
			"translation":[
				0,
				1.901262640953064,
				-0.8487049341201782
			]
		}
	],
	"materials":[
		{
			"doubleSided":true,
			"name":"Material",
			"pbrMetallicRoughness":{
				"baseColorFactor":[
					0.04024863615632057,
					0.07391926646232605,
					0.1353198140859604,
					1
				],
				"metallicFactor":0,
				"roughnessFactor":0.5
			}
		},
		{
			"doubleSided":true,
			"name":"Material.001",
			"pbrMetallicRoughness":{
				"baseColorFactor":[
					0.03706023097038269,
					0.12281107902526855,
					0.2036655992269516,
					1
				],
				"metallicFactor":0,
				"roughnessFactor":0.5
			}
		}
	],
	"meshes":[
		{
			"name":"Cube.001",
			"primitives":[
				{
					"attributes":{
						"POSITION":0,
						"NORMAL":1,
						"TEXCOORD_0":2
					},
					"indices":3,
					"material":0
				}
			]
		},
		{
			"name":"Cube.002",
			"primitives":[
				{
					"attributes":{
						"POSITION":4,
						"NORMAL":5,
						"TEXCOORD_0":6,
						"TANGENT":7
					},
					"indices":8,
					"material":1
				}
			]
		},
		{
			"name":"Cube.003",
			"primitives":[
				{
					"attributes":{
						"POSITION":9,
						"NORMAL":10,
						"TEXCOORD_0":11
					},
					"indices":12,
					"material":1
				}
			]
		}
	],
	"accessors":[
		{
			"bufferView":0,
			"componentType":5126,
			"count":167,
			"max":[
				1.324737310409546,
				0.9106252789497375,
				1
			],
			"min":[
				-1.3064533472061157,
				-1,
				-1.3747458457946777
			],
			"type":"VEC3"
		},
		{
			"bufferView":1,
			"componentType":5126,
			"count":167,
			"type":"VEC3"
		},
		{
			"bufferView":2,
			"componentType":5126,
			"count":167,
			"type":"VEC2"
		},
		{
			"bufferView":3,
			"componentType":5123,
			"count":420,
			"type":"SCALAR"
		},
		{
			"bufferView":4,
			"componentType":5126,
			"count":56,
			"max":[
				1,
				0.9077544212341309,
				1.0776560306549072
			],
			"min":[
				-1,
				0.5137608051300049,
				-1
			],
			"type":"VEC3"
		},
		{
			"bufferView":5,
			"componentType":5126,
			"count":56,
			"type":"VEC3"
		},
		{
			"bufferView":6,
			"componentType":5126,
			"count":56,
			"type":"VEC2"
		},
		{
			"bufferView":7,
			"componentType":5126,
			"count":56,
			"type":"VEC4"
		},
		{
			"bufferView":8,
			"componentType":5123,
			"count":84,
			"type":"SCALAR"
		},
		{
			"bufferView":9,
			"componentType":5126,
			"count":93,
			"max":[
				1,
				0.6316537261009216,
				0.33605989813804626
			],
			"min":[
				-1,
				-1,
				-0.31648898124694824
			],
			"type":"VEC3"
		},
		{
			"bufferView":10,
			"componentType":5126,
			"count":93,
			"type":"VEC3"
		},
		{
			"bufferView":11,
			"componentType":5126,
			"count":93,
			"type":"VEC2"
		},
		{
			"bufferView":12,
			"componentType":5123,
			"count":216,
			"type":"SCALAR"
		}
	],
	"bufferViews":[
		{
			"buffer":0,
			"byteLength":2004,
			"byteOffset":0,
			"target":34962
		},
		{
			"buffer":0,
			"byteLength":2004,
			"byteOffset":2004,
			"target":34962
		},
		{
			"buffer":0,
			"byteLength":1336,
			"byteOffset":4008,
			"target":34962
		},
		{
			"buffer":0,
			"byteLength":840,
			"byteOffset":5344,
			"target":34963
		},
		{
			"buffer":0,
			"byteLength":672,
			"byteOffset":6184,
			"target":34962
		},
		{
			"buffer":0,
			"byteLength":672,
			"byteOffset":6856,
			"target":34962
		},
		{
			"buffer":0,
			"byteLength":448,
			"byteOffset":7528,
			"target":34962
		},
		{
			"buffer":0,
			"byteLength":896,
			"byteOffset":7976,
			"target":34962
		},
		{
			"buffer":0,
			"byteLength":168,
			"byteOffset":8872,
			"target":34963
		},
		{
			"buffer":0,
			"byteLength":1116,
			"byteOffset":9040,
			"target":34962
		},
		{
			"buffer":0,
			"byteLength":1116,
			"byteOffset":10156,
			"target":34962
		},
		{
			"buffer":0,
			"byteLength":744,
			"byteOffset":11272,
			"target":34962
		},
		{
			"buffer":0,
			"byteLength":432,
			"byteOffset":12016,
			"target":34963
		}
	],
	"buffers":[
		{
			"byteLength":12448,
			"uri":"couch_small-361d342c1a0a9b0a2dd4d2dacfdde063.bin"
		}
	]
}
