{
	"asset":{
		"generator":"Khronos glTF Blender I/O v4.1.63",
		"version":"2.0"
	},
	"scene":0,
	"scenes":[
		{
			"name":"Scene",
			"nodes":[
				0
			]
		}
	],
	"nodes":[
		{
			"mesh":0,
			"name":"CouchSmall -rigid",
			"rotation":[
				-0.10766568034887314,
				0,
				0,
				0.9941871762275696
			],
			"translation":[
				0,
				1.901262640953064,
				-0.8487049341201782
			]
		}
	],
	"materials":[
		{
			"doubleSided":true,
			"name":"Material.001",
			"pbrMetallicRoughness":{
				"baseColorFactor":[
					0.03706023097038269,
					0.12281107902526855,
					0.2036655992269516,
					1
				],
				"metallicFactor":0,
				"roughnessFactor":0.5
			}
		},
		{
			"doubleSided":true,
			"name":"Material",
			"pbrMetallicRoughness":{
				"baseColorFactor":[
					0.04024863615632057,
					0.07391926646232605,
					0.1353198140859604,
					1
				],
				"metallicFactor":0,
				"roughnessFactor":0.5
			}
		}
	],
	"meshes":[
		{
			"name":"Cube.003",
			"primitives":[
				{
					"attributes":{
						"POSITION":0,
						"NORMAL":1,
						"TEXCOORD_0":2
					},
					"indices":3,
					"material":0
				},
				{
					"attributes":{
						"POSITION":4,
						"NORMAL":5,
						"TEXCOORD_0":6
					},
					"indices":7,
					"material":1
				}
			]
		}
	],
	"accessors":[
		{
			"bufferView":0,
			"componentType":5126,
			"count":149,
			"max":[
				1,
				0.6316537261009216,
				1.7135982513427734
			],
			"min":[
				-1,
				-1.4585810899734497,
				-0.38123467564582825
			],
			"type":"VEC3"
		},
		{
			"bufferView":1,
			"componentType":5126,
			"count":149,
			"type":"VEC3"
		},
		{
			"bufferView":2,
			"componentType":5126,
			"count":149,
			"type":"VEC2"
		},
		{
			"bufferView":3,
			"componentType":5123,
			"count":300,
			"type":"SCALAR"
		},
		{
			"bufferView":4,
			"componentType":5126,
			"count":167,
			"max":[
				1.324737310409546,
				0.1075981855392456,
				1.592641830444336
			],
			"min":[
				-1.3064533472061157,
				-2.242008686065674,
				-0.9102696180343628
			],
			"type":"VEC3"
		},
		{
			"bufferView":5,
			"componentType":5126,
			"count":167,
			"type":"VEC3"
		},
		{
			"bufferView":6,
			"componentType":5126,
			"count":167,
			"type":"VEC2"
		},
		{
			"bufferView":7,
			"componentType":5123,
			"count":420,
			"type":"SCALAR"
		}
	],
	"bufferViews":[
		{
			"buffer":0,
			"byteLength":1788,
			"byteOffset":0,
			"target":34962
		},
		{
			"buffer":0,
			"byteLength":1788,
			"byteOffset":1788,
			"target":34962
		},
		{
			"buffer":0,
			"byteLength":1192,
			"byteOffset":3576,
			"target":34962
		},
		{
			"buffer":0,
			"byteLength":600,
			"byteOffset":4768,
			"target":34963
		},
		{
			"buffer":0,
			"byteLength":2004,
			"byteOffset":5368,
			"target":34962
		},
		{
			"buffer":0,
			"byteLength":2004,
			"byteOffset":7372,
			"target":34962
		},
		{
			"buffer":0,
			"byteLength":1336,
			"byteOffset":9376,
			"target":34962
		},
		{
			"buffer":0,
			"byteLength":840,
			"byteOffset":10712,
			"target":34963
		}
	],
	"buffers":[
		{
			"byteLength":11552,
			"uri":"couch_small-7868f1d360abe882a61c622e25703006.bin"
		}
	]
}
