{
	"asset":{
		"generator":"Khronos glTF Blender I/O v4.1.62",
		"version":"2.0"
	},
	"scene":0,
	"scenes":[
		{
			"name":"Scene",
			"nodes":[
				0,
				1,
				2
			]
		}
	],
	"nodes":[
		{
			"name":"Blockout"
		},
		{
			"mesh":0,
			"name":"Terrain",
			"translation":[
				-25,
				0,
				25
			]
		},
		{
			"mesh":1,
			"name":"Collision -colonly",
			"translation":[
				-25,
				0,
				25
			]
		}
	],
	"materials":[
		{
			"name":"Material",
			"pbrMetallicRoughness":{
				"baseColorFactor":[
					0.8001892566680908,
					0.09457526355981827,
					0.09457526355981827,
					1
				],
				"metallicFactor":0
			}
		},
		{
			"alphaMode":"BLEND",
			"doubleSided":true,
			"name":"Transparent",
			"pbrMetallicRoughness":{
				"baseColorFactor":[
					0.800000011920929,
					0.800000011920929,
					0.800000011920929,
					0
				],
				"metallicFactor":0,
				"roughnessFactor":0.5
			}
		}
	],
	"meshes":[
		{
			"name":"Plane",
			"primitives":[
				{
					"attributes":{
						"POSITION":0,
						"NORMAL":1,
						"TEXCOORD_0":2,
						"TANGENT":3
					},
					"indices":4,
					"material":0
				}
			]
		},
		{
			"name":"Cube",
			"primitives":[
				{
					"attributes":{
						"POSITION":5,
						"NORMAL":6,
						"TEXCOORD_0":7,
						"TANGENT":8
					},
					"indices":9,
					"material":1
				}
			]
		}
	],
	"accessors":[
		{
			"bufferView":0,
			"componentType":5126,
			"count":920,
			"max":[
				51,
				4,
				1
			],
			"min":[
				-1,
				0,
				-48
			],
			"type":"VEC3"
		},
		{
			"bufferView":1,
			"componentType":5126,
			"count":920,
			"type":"VEC3"
		},
		{
			"bufferView":2,
			"componentType":5126,
			"count":920,
			"type":"VEC2"
		},
		{
			"bufferView":3,
			"componentType":5126,
			"count":920,
			"type":"VEC4"
		},
		{
			"bufferView":4,
			"componentType":5123,
			"count":2124,
			"type":"SCALAR"
		},
		{
			"bufferView":5,
			"componentType":5126,
			"count":5050,
			"max":[
				51.763118743896484,
				4.899944305419922,
				1.7671115398406982
			],
			"min":[
				-1.767113447189331,
				-0.8999439477920532,
				-48.76312255859375
			],
			"type":"VEC3"
		},
		{
			"bufferView":6,
			"componentType":5126,
			"count":5050,
			"type":"VEC3"
		},
		{
			"bufferView":7,
			"componentType":5126,
			"count":5050,
			"type":"VEC2"
		},
		{
			"bufferView":8,
			"componentType":5126,
			"count":5050,
			"type":"VEC4"
		},
		{
			"bufferView":9,
			"componentType":5123,
			"count":8496,
			"type":"SCALAR"
		}
	],
	"bufferViews":[
		{
			"buffer":0,
			"byteLength":11040,
			"byteOffset":0,
			"target":34962
		},
		{
			"buffer":0,
			"byteLength":11040,
			"byteOffset":11040,
			"target":34962
		},
		{
			"buffer":0,
			"byteLength":7360,
			"byteOffset":22080,
			"target":34962
		},
		{
			"buffer":0,
			"byteLength":14720,
			"byteOffset":29440,
			"target":34962
		},
		{
			"buffer":0,
			"byteLength":4248,
			"byteOffset":44160,
			"target":34963
		},
		{
			"buffer":0,
			"byteLength":60600,
			"byteOffset":48408,
			"target":34962
		},
		{
			"buffer":0,
			"byteLength":60600,
			"byteOffset":109008,
			"target":34962
		},
		{
			"buffer":0,
			"byteLength":40400,
			"byteOffset":169608,
			"target":34962
		},
		{
			"buffer":0,
			"byteLength":80800,
			"byteOffset":210008,
			"target":34962
		},
		{
			"buffer":0,
			"byteLength":16992,
			"byteOffset":290808,
			"target":34963
		}
	],
	"buffers":[
		{
			"byteLength":307800,
			"uri":"creation_testing-df605432453a79a535101d5ea39f2ed3.bin"
		}
	]
}
