{
	"asset":{
		"generator":"Khronos glTF Blender I/O v4.1.63",
		"version":"2.0"
	},
	"scene":0,
	"scenes":[
		{
			"name":"Scene",
			"nodes":[
				0,
				1,
				2,
				3,
				4,
				5,
				6,
				7,
				8,
				9
			]
		}
	],
	"nodes":[
		{
			"mesh":0,
			"name":"Floor-noimp"
		},
		{
			"mesh":1,
			"name":"Base-noimp",
			"translation":[
				0,
				1,
				0
			]
		},
		{
			"mesh":2,
			"name":"Gate-col",
			"rotation":[
				0,
				-1,
				0,
				1.6292068494294654e-07
			],
			"translation":[
				-0.01232290267944336,
				6.191244602203369,
				9.96040153503418
			]
		},
		{
			"mesh":3,
			"name":"FenceL-col",
			"translation":[
				8,
				1,
				10
			]
		},
		{
			"name":"FenceCurveL"
		},
		{
			"name":"FenceCurveR"
		},
		{
			"mesh":4,
			"name":"FenceR-col",
			"translation":[
				8,
				1,
				10
			]
		},
		{
			"mesh":5,
			"name":"Tree-col",
			"translation":[
				0,
				1,
				33
			]
		},
		{
			"mesh":6,
			"name":"StonePath",
			"translation":[
				0,
				0,
				13
			]
		},
		{
			"mesh":7,
			"name":"Collisions-colonly",
			"translation":[
				0,
				1,
				-20
			]
		}
	],
	"materials":[
		{
			"doubleSided":true,
			"name":"Material",
			"pbrMetallicRoughness":{
				"baseColorFactor":[
					0,
					0,
					0,
					1
				],
				"metallicFactor":0,
				"roughnessFactor":0.5
			}
		},
		{
			"doubleSided":true,
			"emissiveFactor":[
				1,
				0.003051632782444358,
				0
			],
			"name":"Tree-Red",
			"pbrMetallicRoughness":{
				"baseColorFactor":[
					0.8002663850784302,
					0.005834000185132027,
					0,
					1
				],
				"metallicFactor":0,
				"roughnessFactor":0.5
			}
		},
		{
			"doubleSided":true,
			"emissiveFactor":[
				1,
				1,
				1
			],
			"name":"Stones",
			"pbrMetallicRoughness":{
				"metallicFactor":0,
				"roughnessFactor":0.5
			}
		}
	],
	"meshes":[
		{
			"name":"Plane",
			"primitives":[
				{
					"attributes":{
						"POSITION":0,
						"NORMAL":1,
						"TEXCOORD_0":2,
						"TANGENT":3
					},
					"indices":4
				}
			]
		},
		{
			"name":"Sphere",
			"primitives":[
				{
					"attributes":{
						"POSITION":5,
						"NORMAL":6,
						"TEXCOORD_0":7,
						"TANGENT":8
					},
					"indices":9
				}
			]
		},
		{
			"name":"Cube.001",
			"primitives":[
				{
					"attributes":{
						"POSITION":10,
						"NORMAL":11,
						"TEXCOORD_0":12,
						"TANGENT":13
					},
					"indices":14,
					"material":0
				},
				{
					"attributes":{
						"POSITION":15,
						"NORMAL":16,
						"TEXCOORD_0":17,
						"TANGENT":18
					},
					"indices":19,
					"material":1
				}
			]
		},
		{
			"name":"Cube.002",
			"primitives":[
				{
					"attributes":{
						"POSITION":20,
						"NORMAL":21,
						"TEXCOORD_0":22,
						"TANGENT":23
					},
					"indices":24,
					"material":0
				}
			]
		},
		{
			"name":"Cube.002",
			"primitives":[
				{
					"attributes":{
						"POSITION":25,
						"NORMAL":26,
						"TEXCOORD_0":27,
						"TANGENT":28
					},
					"indices":29,
					"material":0
				}
			]
		},
		{
			"name":"Cylinder",
			"primitives":[
				{
					"attributes":{
						"POSITION":30,
						"NORMAL":31,
						"TEXCOORD_0":32,
						"TANGENT":33
					},
					"indices":34,
					"material":0
				},
				{
					"attributes":{
						"POSITION":35,
						"NORMAL":36,
						"TEXCOORD_0":37,
						"TANGENT":38
					},
					"indices":39,
					"material":1
				}
			]
		},
		{
			"name":"Plane.001",
			"primitives":[
				{
					"attributes":{
						"POSITION":40,
						"NORMAL":41,
						"TEXCOORD_0":42,
						"TANGENT":43
					},
					"indices":44,
					"material":2
				}
			]
		},
		{
			"name":"Cube",
			"primitives":[
				{
					"attributes":{
						"POSITION":45,
						"NORMAL":46,
						"TEXCOORD_0":47,
						"TANGENT":48
					},
					"indices":49
				}
			]
		}
	],
	"accessors":[
		{
			"bufferView":0,
			"componentType":5126,
			"count":4,
			"max":[
				200,
				0,
				200
			],
			"min":[
				-200,
				0,
				-200
			],
			"type":"VEC3"
		},
		{
			"bufferView":1,
			"componentType":5126,
			"count":4,
			"type":"VEC3"
		},
		{
			"bufferView":2,
			"componentType":5126,
			"count":4,
			"type":"VEC2"
		},
		{
			"bufferView":3,
			"componentType":5126,
			"count":4,
			"type":"VEC4"
		},
		{
			"bufferView":4,
			"componentType":5123,
			"count":6,
			"type":"SCALAR"
		},
		{
			"bufferView":5,
			"componentType":5126,
			"count":1984,
			"max":[
				0.9999997019767761,
				1,
				0.9999993443489075
			],
			"min":[
				-0.9999990463256836,
				-1,
				-1
			],
			"type":"VEC3"
		},
		{
			"bufferView":6,
			"componentType":5126,
			"count":1984,
			"type":"VEC3"
		},
		{
			"bufferView":7,
			"componentType":5126,
			"count":1984,
			"type":"VEC2"
		},
		{
			"bufferView":8,
			"componentType":5126,
			"count":1984,
			"type":"VEC4"
		},
		{
			"bufferView":9,
			"componentType":5123,
			"count":2880,
			"type":"SCALAR"
		},
		{
			"bufferView":10,
			"componentType":5126,
			"count":199,
			"max":[
				6.104421138763428,
				3.3423056602478027,
				1.3962712287902832
			],
			"min":[
				-6.0127272605896,
				-6.191244602203369,
				-0.9865951538085938
			],
			"type":"VEC3"
		},
		{
			"bufferView":11,
			"componentType":5126,
			"count":199,
			"type":"VEC3"
		},
		{
			"bufferView":12,
			"componentType":5126,
			"count":199,
			"type":"VEC2"
		},
		{
			"bufferView":13,
			"componentType":5126,
			"count":199,
			"type":"VEC4"
		},
		{
			"bufferView":14,
			"componentType":5123,
			"count":954,
			"type":"SCALAR"
		},
		{
			"bufferView":15,
			"componentType":5126,
			"count":8,
			"max":[
				0.910062849521637,
				2.49259090423584,
				0.9029311537742615
			],
			"min":[
				-1.4755735397338867,
				1.9419946670532227,
				0.7281574606895447
			],
			"type":"VEC3"
		},
		{
			"bufferView":16,
			"componentType":5126,
			"count":8,
			"type":"VEC3"
		},
		{
			"bufferView":17,
			"componentType":5126,
			"count":8,
			"type":"VEC2"
		},
		{
			"bufferView":18,
			"componentType":5126,
			"count":8,
			"type":"VEC4"
		},
		{
			"bufferView":19,
			"componentType":5123,
			"count":12,
			"type":"SCALAR"
		},
		{
			"bufferView":20,
			"componentType":5126,
			"count":16646,
			"max":[
				93.1081314086914,
				6.835349082946777,
				1.530975341796875
			],
			"min":[
				-3.0110816955566406,
				-2.704599380493164,
				-15.956757545471191
			],
			"type":"VEC3"
		},
		{
			"bufferView":21,
			"componentType":5126,
			"count":16646,
			"type":"VEC3"
		},
		{
			"bufferView":22,
			"componentType":5126,
			"count":16646,
			"type":"VEC2"
		},
		{
			"bufferView":23,
			"componentType":5126,
			"count":16646,
			"type":"VEC4"
		},
		{
			"bufferView":24,
			"componentType":5123,
			"count":71886,
			"type":"SCALAR"
		},
		{
			"bufferView":25,
			"componentType":5126,
			"count":16646,
			"max":[
				-13.473645210266113,
				6.947997093200684,
				1.4974346160888672
			],
			"min":[
				-104.65170288085938,
				-2.8457419872283936,
				-33.365135192871094
			],
			"type":"VEC3"
		},
		{
			"bufferView":26,
			"componentType":5126,
			"count":16646,
			"type":"VEC3"
		},
		{
			"bufferView":27,
			"componentType":5126,
			"count":16646,
			"type":"VEC2"
		},
		{
			"bufferView":28,
			"componentType":5126,
			"count":16646,
			"type":"VEC4"
		},
		{
			"bufferView":29,
			"componentType":5123,
			"count":71886,
			"type":"SCALAR"
		},
		{
			"bufferView":30,
			"componentType":5126,
			"count":43,
			"max":[
				5.174527168273926,
				10.875519752502441,
				2.16256046295166
			],
			"min":[
				-4.998261451721191,
				-0.9894179701805115,
				-2.479067087173462
			],
			"type":"VEC3"
		},
		{
			"bufferView":31,
			"componentType":5126,
			"count":43,
			"type":"VEC3"
		},
		{
			"bufferView":32,
			"componentType":5126,
			"count":43,
			"type":"VEC2"
		},
		{
			"bufferView":33,
			"componentType":5126,
			"count":43,
			"type":"VEC4"
		},
		{
			"bufferView":34,
			"componentType":5123,
			"count":192,
			"type":"SCALAR"
		},
		{
			"bufferView":35,
			"componentType":5126,
			"count":137,
			"max":[
				7.833866596221924,
				17.170154571533203,
				7.342408180236816
			],
			"min":[
				-8.706568717956543,
				7.533007621765137,
				-6.233844757080078
			],
			"type":"VEC3"
		},
		{
			"bufferView":36,
			"componentType":5126,
			"count":137,
			"type":"VEC3"
		},
		{
			"bufferView":37,
			"componentType":5126,
			"count":137,
			"type":"VEC2"
		},
		{
			"bufferView":38,
			"componentType":5126,
			"count":137,
			"type":"VEC4"
		},
		{
			"bufferView":39,
			"componentType":5123,
			"count":330,
			"type":"SCALAR"
		},
		{
			"bufferView":40,
			"componentType":5126,
			"count":2304,
			"max":[
				117.53431701660156,
				0.2119782567024231,
				131.0996856689453
			],
			"min":[
				-12.37660026550293,
				0,
				-0.9529236555099487
			],
			"type":"VEC3"
		},
		{
			"bufferView":41,
			"componentType":5126,
			"count":2304,
			"type":"VEC3"
		},
		{
			"bufferView":42,
			"componentType":5126,
			"count":2304,
			"type":"VEC2"
		},
		{
			"bufferView":43,
			"componentType":5126,
			"count":2304,
			"type":"VEC4"
		},
		{
			"bufferView":44,
			"componentType":5123,
			"count":3456,
			"type":"SCALAR"
		},
		{
			"bufferView":45,
			"componentType":5126,
			"count":144,
			"max":[
				132,
				27,
				182
			],
			"min":[
				-22,
				-1,
				-1
			],
			"type":"VEC3"
		},
		{
			"bufferView":46,
			"componentType":5126,
			"count":144,
			"type":"VEC3"
		},
		{
			"bufferView":47,
			"componentType":5126,
			"count":144,
			"type":"VEC2"
		},
		{
			"bufferView":48,
			"componentType":5126,
			"count":144,
			"type":"VEC4"
		},
		{
			"bufferView":49,
			"componentType":5123,
			"count":336,
			"type":"SCALAR"
		}
	],
	"bufferViews":[
		{
			"buffer":0,
			"byteLength":48,
			"byteOffset":0,
			"target":34962
		},
		{
			"buffer":0,
			"byteLength":48,
			"byteOffset":48,
			"target":34962
		},
		{
			"buffer":0,
			"byteLength":32,
			"byteOffset":96,
			"target":34962
		},
		{
			"buffer":0,
			"byteLength":64,
			"byteOffset":128,
			"target":34962
		},
		{
			"buffer":0,
			"byteLength":12,
			"byteOffset":192,
			"target":34963
		},
		{
			"buffer":0,
			"byteLength":23808,
			"byteOffset":204,
			"target":34962
		},
		{
			"buffer":0,
			"byteLength":23808,
			"byteOffset":24012,
			"target":34962
		},
		{
			"buffer":0,
			"byteLength":15872,
			"byteOffset":47820,
			"target":34962
		},
		{
			"buffer":0,
			"byteLength":31744,
			"byteOffset":63692,
			"target":34962
		},
		{
			"buffer":0,
			"byteLength":5760,
			"byteOffset":95436,
			"target":34963
		},
		{
			"buffer":0,
			"byteLength":2388,
			"byteOffset":101196,
			"target":34962
		},
		{
			"buffer":0,
			"byteLength":2388,
			"byteOffset":103584,
			"target":34962
		},
		{
			"buffer":0,
			"byteLength":1592,
			"byteOffset":105972,
			"target":34962
		},
		{
			"buffer":0,
			"byteLength":3184,
			"byteOffset":107564,
			"target":34962
		},
		{
			"buffer":0,
			"byteLength":1908,
			"byteOffset":110748,
			"target":34963
		},
		{
			"buffer":0,
			"byteLength":96,
			"byteOffset":112656,
			"target":34962
		},
		{
			"buffer":0,
			"byteLength":96,
			"byteOffset":112752,
			"target":34962
		},
		{
			"buffer":0,
			"byteLength":64,
			"byteOffset":112848,
			"target":34962
		},
		{
			"buffer":0,
			"byteLength":128,
			"byteOffset":112912,
			"target":34962
		},
		{
			"buffer":0,
			"byteLength":24,
			"byteOffset":113040,
			"target":34963
		},
		{
			"buffer":0,
			"byteLength":199752,
			"byteOffset":113064,
			"target":34962
		},
		{
			"buffer":0,
			"byteLength":199752,
			"byteOffset":312816,
			"target":34962
		},
		{
			"buffer":0,
			"byteLength":133168,
			"byteOffset":512568,
			"target":34962
		},
		{
			"buffer":0,
			"byteLength":266336,
			"byteOffset":645736,
			"target":34962
		},
		{
			"buffer":0,
			"byteLength":143772,
			"byteOffset":912072,
			"target":34963
		},
		{
			"buffer":0,
			"byteLength":199752,
			"byteOffset":1055844,
			"target":34962
		},
		{
			"buffer":0,
			"byteLength":199752,
			"byteOffset":1255596,
			"target":34962
		},
		{
			"buffer":0,
			"byteLength":133168,
			"byteOffset":1455348,
			"target":34962
		},
		{
			"buffer":0,
			"byteLength":266336,
			"byteOffset":1588516,
			"target":34962
		},
		{
			"buffer":0,
			"byteLength":143772,
			"byteOffset":1854852,
			"target":34963
		},
		{
			"buffer":0,
			"byteLength":516,
			"byteOffset":1998624,
			"target":34962
		},
		{
			"buffer":0,
			"byteLength":516,
			"byteOffset":1999140,
			"target":34962
		},
		{
			"buffer":0,
			"byteLength":344,
			"byteOffset":1999656,
			"target":34962
		},
		{
			"buffer":0,
			"byteLength":688,
			"byteOffset":2000000,
			"target":34962
		},
		{
			"buffer":0,
			"byteLength":384,
			"byteOffset":2000688,
			"target":34963
		},
		{
			"buffer":0,
			"byteLength":1644,
			"byteOffset":2001072,
			"target":34962
		},
		{
			"buffer":0,
			"byteLength":1644,
			"byteOffset":2002716,
			"target":34962
		},
		{
			"buffer":0,
			"byteLength":1096,
			"byteOffset":2004360,
			"target":34962
		},
		{
			"buffer":0,
			"byteLength":2192,
			"byteOffset":2005456,
			"target":34962
		},
		{
			"buffer":0,
			"byteLength":660,
			"byteOffset":2007648,
			"target":34963
		},
		{
			"buffer":0,
			"byteLength":27648,
			"byteOffset":2008308,
			"target":34962
		},
		{
			"buffer":0,
			"byteLength":27648,
			"byteOffset":2035956,
			"target":34962
		},
		{
			"buffer":0,
			"byteLength":18432,
			"byteOffset":2063604,
			"target":34962
		},
		{
			"buffer":0,
			"byteLength":36864,
			"byteOffset":2082036,
			"target":34962
		},
		{
			"buffer":0,
			"byteLength":6912,
			"byteOffset":2118900,
			"target":34963
		},
		{
			"buffer":0,
			"byteLength":1728,
			"byteOffset":2125812,
			"target":34962
		},
		{
			"buffer":0,
			"byteLength":1728,
			"byteOffset":2127540,
			"target":34962
		},
		{
			"buffer":0,
			"byteLength":1152,
			"byteOffset":2129268,
			"target":34962
		},
		{
			"buffer":0,
			"byteLength":2304,
			"byteOffset":2130420,
			"target":34962
		},
		{
			"buffer":0,
			"byteLength":672,
			"byteOffset":2132724,
			"target":34963
		}
	],
	"buffers":[
		{
			"byteLength":2133396,
			"uri":"ending-6b22f307567d90afb861e099cd288a23.bin"
		}
	]
}
