{
	"asset":{
		"generator":"Khronos glTF Blender I/O v4.1.63",
		"version":"2.0"
	},
	"extensionsUsed":[
		"KHR_materials_emissive_strength"
	],
	"scene":0,
	"scenes":[
		{
			"name":"Scene",
			"nodes":[
				0
			]
		}
	],
	"nodes":[
		{
			"mesh":0,
			"name":"LampTall -rigid"
		}
	],
	"materials":[
		{
			"doubleSided":true,
			"name":"Base",
			"pbrMetallicRoughness":{
				"baseColorFactor":[
					0.06827443093061447,
					0.06827443093061447,
					0.06827443093061447,
					1
				],
				"metallicFactor":0,
				"roughnessFactor":0.5
			}
		},
		{
			"doubleSided":true,
			"emissiveFactor":[
				1,
				1,
				1
			],
			"extensions":{
				"KHR_materials_emissive_strength":{
					"emissiveStrength":20.099998474121094
				}
			},
			"name":"Light",
			"pbrMetallicRoughness":{
				"baseColorFactor":[
					0.800000011920929,
					0.800000011920929,
					0.800000011920929,
					1
				],
				"metallicFactor":0,
				"roughnessFactor":0.5
			}
		},
		{
			"doubleSided":true,
			"name":"Shade",
			"pbrMetallicRoughness":{
				"baseColorFactor":[
					0.6652714014053345,
					0.3092169165611267,
					0.10342246294021606,
					1
				],
				"metallicFactor":0,
				"roughnessFactor":0.5
			}
		}
	],
	"meshes":[
		{
			"name":"Cylinder",
			"primitives":[
				{
					"attributes":{
						"POSITION":0,
						"NORMAL":1,
						"TEXCOORD_0":2
					},
					"indices":3,
					"material":0
				},
				{
					"attributes":{
						"POSITION":4,
						"NORMAL":5,
						"TEXCOORD_0":6
					},
					"indices":7,
					"material":1
				},
				{
					"attributes":{
						"POSITION":8,
						"NORMAL":9,
						"TEXCOORD_0":10
					},
					"indices":11,
					"material":2
				}
			]
		}
	],
	"accessors":[
		{
			"bufferView":0,
			"componentType":5126,
			"count":132,
			"max":[
				0.5999999642372131,
				0.6607509851455688,
				0.6000000238418579
			],
			"min":[
				-0.6000000834465027,
				-1.632151484489441,
				-0.6000000238418579
			],
			"type":"VEC3"
		},
		{
			"bufferView":1,
			"componentType":5126,
			"count":132,
			"type":"VEC3"
		},
		{
			"bufferView":2,
			"componentType":5126,
			"count":132,
			"type":"VEC2"
		},
		{
			"bufferView":3,
			"componentType":5123,
			"count":246,
			"type":"SCALAR"
		},
		{
			"bufferView":4,
			"componentType":5126,
			"count":60,
			"max":[
				0.08242141455411911,
				0.906598687171936,
				0.0824212059378624
			],
			"min":[
				-0.08242110908031464,
				0.6607509851455688,
				-0.08242122083902359
			],
			"type":"VEC3"
		},
		{
			"bufferView":5,
			"componentType":5126,
			"count":60,
			"type":"VEC3"
		},
		{
			"bufferView":6,
			"componentType":5126,
			"count":60,
			"type":"VEC2"
		},
		{
			"bufferView":7,
			"componentType":5123,
			"count":102,
			"type":"SCALAR"
		},
		{
			"bufferView":8,
			"componentType":5126,
			"count":144,
			"max":[
				0.5126171708106995,
				1.1344643831253052,
				0.5126172304153442
			],
			"min":[
				-0.512617290019989,
				0.3678485155105591,
				-0.5126172304153442
			],
			"type":"VEC3"
		},
		{
			"bufferView":9,
			"componentType":5126,
			"count":144,
			"type":"VEC3"
		},
		{
			"bufferView":10,
			"componentType":5126,
			"count":144,
			"type":"VEC2"
		},
		{
			"bufferView":11,
			"componentType":5123,
			"count":288,
			"type":"SCALAR"
		}
	],
	"bufferViews":[
		{
			"buffer":0,
			"byteLength":1584,
			"byteOffset":0,
			"target":34962
		},
		{
			"buffer":0,
			"byteLength":1584,
			"byteOffset":1584,
			"target":34962
		},
		{
			"buffer":0,
			"byteLength":1056,
			"byteOffset":3168,
			"target":34962
		},
		{
			"buffer":0,
			"byteLength":492,
			"byteOffset":4224,
			"target":34963
		},
		{
			"buffer":0,
			"byteLength":720,
			"byteOffset":4716,
			"target":34962
		},
		{
			"buffer":0,
			"byteLength":720,
			"byteOffset":5436,
			"target":34962
		},
		{
			"buffer":0,
			"byteLength":480,
			"byteOffset":6156,
			"target":34962
		},
		{
			"buffer":0,
			"byteLength":204,
			"byteOffset":6636,
			"target":34963
		},
		{
			"buffer":0,
			"byteLength":1728,
			"byteOffset":6840,
			"target":34962
		},
		{
			"buffer":0,
			"byteLength":1728,
			"byteOffset":8568,
			"target":34962
		},
		{
			"buffer":0,
			"byteLength":1152,
			"byteOffset":10296,
			"target":34962
		},
		{
			"buffer":0,
			"byteLength":576,
			"byteOffset":11448,
			"target":34963
		}
	],
	"buffers":[
		{
			"byteLength":12024,
			"uri":"lamp_tall-20f17f01217ce3502deacaad1bfb6b4b.bin"
		}
	]
}
