{
	"asset":{
		"generator":"Khronos glTF Blender I/O v4.1.63",
		"version":"2.0"
	},
	"extensionsUsed":[
		"KHR_materials_emissive_strength"
	],
	"scene":0,
	"scenes":[
		{
			"name":"Scene",
			"nodes":[
				0,
				1,
				2
			]
		}
	],
	"nodes":[
		{
			"mesh":0,
			"name":"Base",
			"translation":[
				0,
				1,
				0
			]
		},
		{
			"mesh":1,
			"name":"Shade",
			"translation":[
				0,
				2,
				0
			]
		},
		{
			"mesh":2,
			"name":"Bulb",
			"scale":[
				0.24905018508434296,
				0.24905018508434296,
				0.24905018508434296
			],
			"translation":[
				0,
				1.8064606189727783,
				0
			]
		}
	],
	"materials":[
		{
			"doubleSided":true,
			"name":"LampBase",
			"pbrMetallicRoughness":{
				"baseColorFactor":[
					0.10183504223823547,
					0.06828423589468002,
					0.05439041927456856,
					1
				],
				"metallicFactor":0,
				"roughnessFactor":0.5
			}
		},
		{
			"doubleSided":true,
			"name":"LampShade",
			"pbrMetallicRoughness":{
				"baseColorFactor":[
					0.8002276420593262,
					0.7294108867645264,
					0.5394527316093445,
					1
				],
				"metallicFactor":0,
				"roughnessFactor":0.5
			}
		},
		{
			"doubleSided":true,
			"emissiveFactor":[
				1,
				1,
				1
			],
			"extensions":{
				"KHR_materials_emissive_strength":{
					"emissiveStrength":5
				}
			},
			"name":"Bulb",
			"pbrMetallicRoughness":{
				"baseColorFactor":[
					0.800000011920929,
					0.800000011920929,
					0.800000011920929,
					1
				],
				"metallicFactor":0,
				"roughnessFactor":0.5
			}
		}
	],
	"meshes":[
		{
			"name":"Cylinder.001",
			"primitives":[
				{
					"attributes":{
						"POSITION":0,
						"NORMAL":1,
						"TEXCOORD_0":2
					},
					"indices":3,
					"material":0
				}
			]
		},
		{
			"name":"Cylinder.002",
			"primitives":[
				{
					"attributes":{
						"POSITION":4,
						"NORMAL":5,
						"TEXCOORD_0":6,
						"TANGENT":7
					},
					"indices":8,
					"material":1
				}
			]
		},
		{
			"name":"Icosphere",
			"primitives":[
				{
					"attributes":{
						"POSITION":9,
						"NORMAL":10,
						"TEXCOORD_0":11,
						"TANGENT":12
					},
					"indices":13,
					"material":2
				}
			]
		}
	],
	"accessors":[
		{
			"bufferView":0,
			"componentType":5126,
			"count":118,
			"max":[
				0.6520735025405884,
				0.6425495147705078,
				0.6520735025405884
			],
			"min":[
				-0.6520735025405884,
				-1,
				-0.6520735025405884
			],
			"type":"VEC3"
		},
		{
			"bufferView":1,
			"componentType":5126,
			"count":118,
			"type":"VEC3"
		},
		{
			"bufferView":2,
			"componentType":5126,
			"count":118,
			"type":"VEC2"
		},
		{
			"bufferView":3,
			"componentType":5123,
			"count":420,
			"type":"SCALAR"
		},
		{
			"bufferView":4,
			"componentType":5126,
			"count":102,
			"max":[
				1,
				0.4475421905517578,
				1
			],
			"min":[
				-1,
				-1,
				-1
			],
			"type":"VEC3"
		},
		{
			"bufferView":5,
			"componentType":5126,
			"count":102,
			"type":"VEC3"
		},
		{
			"bufferView":6,
			"componentType":5126,
			"count":102,
			"type":"VEC2"
		},
		{
			"bufferView":7,
			"componentType":5126,
			"count":102,
			"type":"VEC4"
		},
		{
			"bufferView":8,
			"componentType":5123,
			"count":288,
			"type":"SCALAR"
		},
		{
			"bufferView":9,
			"componentType":5126,
			"count":60,
			"max":[
				0.8944249749183655,
				1,
				0.8506399989128113
			],
			"min":[
				-0.8944249749183655,
				-1,
				-0.8506399989128113
			],
			"type":"VEC3"
		},
		{
			"bufferView":10,
			"componentType":5126,
			"count":60,
			"type":"VEC3"
		},
		{
			"bufferView":11,
			"componentType":5126,
			"count":60,
			"type":"VEC2"
		},
		{
			"bufferView":12,
			"componentType":5126,
			"count":60,
			"type":"VEC4"
		},
		{
			"bufferView":13,
			"componentType":5123,
			"count":60,
			"type":"SCALAR"
		}
	],
	"bufferViews":[
		{
			"buffer":0,
			"byteLength":1416,
			"byteOffset":0,
			"target":34962
		},
		{
			"buffer":0,
			"byteLength":1416,
			"byteOffset":1416,
			"target":34962
		},
		{
			"buffer":0,
			"byteLength":944,
			"byteOffset":2832,
			"target":34962
		},
		{
			"buffer":0,
			"byteLength":840,
			"byteOffset":3776,
			"target":34963
		},
		{
			"buffer":0,
			"byteLength":1224,
			"byteOffset":4616,
			"target":34962
		},
		{
			"buffer":0,
			"byteLength":1224,
			"byteOffset":5840,
			"target":34962
		},
		{
			"buffer":0,
			"byteLength":816,
			"byteOffset":7064,
			"target":34962
		},
		{
			"buffer":0,
			"byteLength":1632,
			"byteOffset":7880,
			"target":34962
		},
		{
			"buffer":0,
			"byteLength":576,
			"byteOffset":9512,
			"target":34963
		},
		{
			"buffer":0,
			"byteLength":720,
			"byteOffset":10088,
			"target":34962
		},
		{
			"buffer":0,
			"byteLength":720,
			"byteOffset":10808,
			"target":34962
		},
		{
			"buffer":0,
			"byteLength":480,
			"byteOffset":11528,
			"target":34962
		},
		{
			"buffer":0,
			"byteLength":960,
			"byteOffset":12008,
			"target":34962
		},
		{
			"buffer":0,
			"byteLength":120,
			"byteOffset":12968,
			"target":34963
		}
	],
	"buffers":[
		{
			"byteLength":13088,
			"uri":"lamp-cbfe06467520ee31a51598dca5c75e7d.bin"
		}
	]
}
