{
	"asset":{
		"generator":"Khronos glTF Blender I/O v4.1.63",
		"version":"2.0"
	},
	"extensionsUsed":[
		"KHR_materials_emissive_strength"
	],
	"scene":0,
	"scenes":[
		{
			"name":"Scene",
			"nodes":[
				0
			]
		}
	],
	"nodes":[
		{
			"mesh":0,
			"name":"Lamp -rigid",
			"scale":[
				0.24905018508434296,
				0.24905018508434296,
				0.24905018508434296
			]
		}
	],
	"materials":[
		{
			"doubleSided":true,
			"emissiveFactor":[
				1,
				1,
				1
			],
			"extensions":{
				"KHR_materials_emissive_strength":{
					"emissiveStrength":5
				}
			},
			"name":"Bulb",
			"pbrMetallicRoughness":{
				"baseColorFactor":[
					0.800000011920929,
					0.800000011920929,
					0.800000011920929,
					1
				],
				"metallicFactor":0,
				"roughnessFactor":0.5
			}
		},
		{
			"doubleSided":true,
			"name":"LampBase",
			"pbrMetallicRoughness":{
				"baseColorFactor":[
					0.10183504223823547,
					0.06828423589468002,
					0.05439041927456856,
					1
				],
				"metallicFactor":0,
				"roughnessFactor":0.5
			}
		},
		{
			"doubleSided":true,
			"name":"LampShade",
			"pbrMetallicRoughness":{
				"baseColorFactor":[
					0.8002276420593262,
					0.7294108867645264,
					0.5394527316093445,
					1
				],
				"metallicFactor":0,
				"roughnessFactor":0.5
			}
		}
	],
	"meshes":[
		{
			"name":"Icosphere",
			"primitives":[
				{
					"attributes":{
						"POSITION":0,
						"NORMAL":1,
						"TEXCOORD_0":2
					},
					"indices":3,
					"material":0
				},
				{
					"attributes":{
						"POSITION":4,
						"NORMAL":5,
						"TEXCOORD_0":6
					},
					"indices":7,
					"material":1
				},
				{
					"attributes":{
						"POSITION":8,
						"NORMAL":9,
						"TEXCOORD_0":10
					},
					"indices":11,
					"material":2
				}
			]
		}
	],
	"accessors":[
		{
			"bufferView":0,
			"componentType":5126,
			"count":60,
			"max":[
				0.8944249749183655,
				3.2096614837646484,
				0.8506399989128113
			],
			"min":[
				-0.8944249749183655,
				1.2096614837646484,
				-0.8506399989128113
			],
			"type":"VEC3"
		},
		{
			"bufferView":1,
			"componentType":5126,
			"count":60,
			"type":"VEC3"
		},
		{
			"bufferView":2,
			"componentType":5126,
			"count":60,
			"type":"VEC2"
		},
		{
			"bufferView":3,
			"componentType":5123,
			"count":60,
			"type":"SCALAR"
		},
		{
			"bufferView":4,
			"componentType":5126,
			"count":118,
			"max":[
				2.618241310119629,
				1.5515162944793701,
				2.618241310119629
			],
			"min":[
				-2.618241310119629,
				-5.043738842010498,
				-2.618241310119629
			],
			"type":"VEC3"
		},
		{
			"bufferView":5,
			"componentType":5126,
			"count":118,
			"type":"VEC3"
		},
		{
			"bufferView":6,
			"componentType":5126,
			"count":118,
			"type":"VEC2"
		},
		{
			"bufferView":7,
			"componentType":5123,
			"count":420,
			"type":"SCALAR"
		},
		{
			"bufferView":8,
			"componentType":5126,
			"count":98,
			"max":[
				4.015254974365234,
				4.783767223358154,
				4.015254974365234
			],
			"min":[
				-4.015254974365234,
				-1.0284838676452637,
				-4.015254974365234
			],
			"type":"VEC3"
		},
		{
			"bufferView":9,
			"componentType":5126,
			"count":98,
			"type":"VEC3"
		},
		{
			"bufferView":10,
			"componentType":5126,
			"count":98,
			"type":"VEC2"
		},
		{
			"bufferView":11,
			"componentType":5123,
			"count":288,
			"type":"SCALAR"
		}
	],
	"bufferViews":[
		{
			"buffer":0,
			"byteLength":720,
			"byteOffset":0,
			"target":34962
		},
		{
			"buffer":0,
			"byteLength":720,
			"byteOffset":720,
			"target":34962
		},
		{
			"buffer":0,
			"byteLength":480,
			"byteOffset":1440,
			"target":34962
		},
		{
			"buffer":0,
			"byteLength":120,
			"byteOffset":1920,
			"target":34963
		},
		{
			"buffer":0,
			"byteLength":1416,
			"byteOffset":2040,
			"target":34962
		},
		{
			"buffer":0,
			"byteLength":1416,
			"byteOffset":3456,
			"target":34962
		},
		{
			"buffer":0,
			"byteLength":944,
			"byteOffset":4872,
			"target":34962
		},
		{
			"buffer":0,
			"byteLength":840,
			"byteOffset":5816,
			"target":34963
		},
		{
			"buffer":0,
			"byteLength":1176,
			"byteOffset":6656,
			"target":34962
		},
		{
			"buffer":0,
			"byteLength":1176,
			"byteOffset":7832,
			"target":34962
		},
		{
			"buffer":0,
			"byteLength":784,
			"byteOffset":9008,
			"target":34962
		},
		{
			"buffer":0,
			"byteLength":576,
			"byteOffset":9792,
			"target":34963
		}
	],
	"buffers":[
		{
			"byteLength":10368,
			"uri":"lamp-0e838d662f85f71e1cf4f488fefc3cd5.bin"
		}
	]
}
