{
	"asset":{
		"generator":"Khronos glTF Blender I/O v4.1.63",
		"version":"2.0"
	},
	"scene":0,
	"scenes":[
		{
			"name":"Scene",
			"nodes":[
				0
			]
		}
	],
	"nodes":[
		{
			"mesh":0,
			"name":"Microwave -rigid"
		}
	],
	"materials":[
		{
			"doubleSided":true,
			"name":"Metal",
			"pbrMetallicRoughness":{
				"baseColorFactor":[
					0.800000011920929,
					0.800000011920929,
					0.800000011920929,
					1
				],
				"metallicFactor":0,
				"roughnessFactor":0.5
			}
		},
		{
			"doubleSided":true,
			"name":"Glass",
			"pbrMetallicRoughness":{
				"baseColorFactor":[
					0.005688943434506655,
					0.017808740958571434,
					0.0035857968032360077,
					1
				],
				"metallicFactor":0,
				"roughnessFactor":0.5
			}
		},
		{
			"doubleSided":true,
			"name":"Buttons",
			"pbrMetallicRoughness":{
				"baseColorFactor":[
					0.16971692442893982,
					0.16971692442893982,
					0.16971692442893982,
					1
				],
				"metallicFactor":0,
				"roughnessFactor":0.5
			}
		}
	],
	"meshes":[
		{
			"name":"Cube.001",
			"primitives":[
				{
					"attributes":{
						"POSITION":0,
						"NORMAL":1,
						"TEXCOORD_0":2
					},
					"indices":3,
					"material":0
				},
				{
					"attributes":{
						"POSITION":4,
						"NORMAL":5,
						"TEXCOORD_0":6
					},
					"indices":7,
					"material":1
				},
				{
					"attributes":{
						"POSITION":8,
						"NORMAL":9,
						"TEXCOORD_0":10
					},
					"indices":11,
					"material":2
				}
			]
		}
	],
	"accessors":[
		{
			"bufferView":0,
			"componentType":5126,
			"count":100,
			"max":[
				0.5871678590774536,
				0.544615626335144,
				0.18267500400543213
			],
			"min":[
				-1.0857759714126587,
				-0.46308451890945435,
				-0.9314607381820679
			],
			"type":"VEC3"
		},
		{
			"bufferView":1,
			"componentType":5126,
			"count":100,
			"type":"VEC3"
		},
		{
			"bufferView":2,
			"componentType":5126,
			"count":100,
			"type":"VEC2"
		},
		{
			"bufferView":3,
			"componentType":5123,
			"count":243,
			"type":"SCALAR"
		},
		{
			"bufferView":4,
			"componentType":5126,
			"count":4,
			"max":[
				-0.0504273921251297,
				0.31830984354019165,
				0.15407824516296387
			],
			"min":[
				-0.8594701290130615,
				-0.23677873611450195,
				0.15407824516296387
			],
			"type":"VEC3"
		},
		{
			"bufferView":5,
			"componentType":5126,
			"count":4,
			"type":"VEC3"
		},
		{
			"bufferView":6,
			"componentType":5126,
			"count":4,
			"type":"VEC2"
		},
		{
			"bufferView":7,
			"componentType":5123,
			"count":6,
			"type":"SCALAR"
		},
		{
			"bufferView":8,
			"componentType":5126,
			"count":63,
			"max":[
				0.5437313318252563,
				0.42090797424316406,
				0.20864510536193848
			],
			"min":[
				0.053400009870529175,
				-0.4196479320526123,
				0.18267500400543213
			],
			"type":"VEC3"
		},
		{
			"bufferView":9,
			"componentType":5126,
			"count":63,
			"type":"VEC3"
		},
		{
			"bufferView":10,
			"componentType":5126,
			"count":63,
			"type":"VEC2"
		},
		{
			"bufferView":11,
			"componentType":5123,
			"count":99,
			"type":"SCALAR"
		}
	],
	"bufferViews":[
		{
			"buffer":0,
			"byteLength":1200,
			"byteOffset":0,
			"target":34962
		},
		{
			"buffer":0,
			"byteLength":1200,
			"byteOffset":1200,
			"target":34962
		},
		{
			"buffer":0,
			"byteLength":800,
			"byteOffset":2400,
			"target":34962
		},
		{
			"buffer":0,
			"byteLength":486,
			"byteOffset":3200,
			"target":34963
		},
		{
			"buffer":0,
			"byteLength":48,
			"byteOffset":3688,
			"target":34962
		},
		{
			"buffer":0,
			"byteLength":48,
			"byteOffset":3736,
			"target":34962
		},
		{
			"buffer":0,
			"byteLength":32,
			"byteOffset":3784,
			"target":34962
		},
		{
			"buffer":0,
			"byteLength":12,
			"byteOffset":3816,
			"target":34963
		},
		{
			"buffer":0,
			"byteLength":756,
			"byteOffset":3828,
			"target":34962
		},
		{
			"buffer":0,
			"byteLength":756,
			"byteOffset":4584,
			"target":34962
		},
		{
			"buffer":0,
			"byteLength":504,
			"byteOffset":5340,
			"target":34962
		},
		{
			"buffer":0,
			"byteLength":198,
			"byteOffset":5844,
			"target":34963
		}
	],
	"buffers":[
		{
			"byteLength":6044,
			"uri":"microwave-b700005a5d1355fb2e48bfab19b6ac44.bin"
		}
	]
}
