{
	"asset":{
		"generator":"Khronos glTF Blender I/O v4.1.63",
		"version":"2.0"
	},
	"extensionsUsed":[
		"KHR_materials_emissive_strength",
		"KHR_lights_punctual",
		"KHR_materials_specular",
		"KHR_materials_ior"
	],
	"extensionsRequired":[
		"KHR_lights_punctual"
	],
	"extensions":{
		"KHR_lights_punctual":{
			"lights":[
				{
					"color":[
						0.08872482925653458,
						0.08872482925653458,
						0.08872482925653458
					],
					"intensity":54.35141306588226,
					"type":"point",
					"name":"Point"
				},
				{
					"color":[
						0.5,
						0.5,
						0.5
					],
					"intensity":543.5141306588226,
					"spot":{
						"innerConeAngle":0.9642944149108885,
						"outerConeAngle":1.1344640254974365
					},
					"type":"spot",
					"name":"Spot"
				},
				{
					"color":[
						0.5,
						0.5,
						0.5
					],
					"intensity":543.5141306588226,
					"spot":{
						"innerConeAngle":0.9642944149108885,
						"outerConeAngle":1.1344640254974365
					},
					"type":"spot",
					"name":"Spot.001"
				},
				{
					"color":[
						1,
						1,
						1
					],
					"intensity":13587853.266470565,
					"spot":{
						"innerConeAngle":0.9642944149108885,
						"outerConeAngle":1.1344640254974365
					},
					"type":"spot",
					"name":"Spot.002"
				},
				{
					"color":[
						1,
						1,
						1
					],
					"intensity":13587853.266470565,
					"spot":{
						"innerConeAngle":0.9642944149108885,
						"outerConeAngle":1.1344640254974365
					},
					"type":"spot",
					"name":"Spot.003"
				}
			]
		}
	},
	"scene":0,
	"scenes":[
		{
			"name":"Scene",
			"nodes":[
				0,
				1,
				2,
				3,
				4,
				5,
				6,
				7,
				8,
				9,
				10,
				11,
				12,
				13,
				14,
				15,
				16,
				17,
				18
			]
		}
	],
	"nodes":[
		{
			"name":"GPencil"
		},
		{
			"camera":0,
			"name":"Camera",
			"rotation":[
				0.07346613705158234,
				-0.46506786346435547,
				0.038765501230955124,
				0.8813692927360535
			],
			"translation":[
				-68.08972930908203,
				12.728324890136719,
				101.69075775146484
			]
		},
		{
			"name":"Terrain"
		},
		{
			"mesh":0,
			"name":"Wall",
			"translation":[
				-38.914852142333984,
				64.70748138427734,
				-44.99959182739258
			]
		},
		{
			"extensions":{
				"KHR_lights_punctual":{
					"light":0
				}
			},
			"name":"Point",
			"rotation":[
				-0.7071068286895752,
				0,
				0,
				0.7071068286895752
			],
			"translation":[
				-38.539207458496094,
				67.90026092529297,
				-36.51942825317383
			]
		},
		{
			"extensions":{
				"KHR_lights_punctual":{
					"light":1
				}
			},
			"name":"Spot",
			"rotation":[
				-0.1464466005563736,
				-0.8535534143447876,
				-0.3535533845424652,
				0.3535533845424652
			],
			"translation":[
				-32.40850067138672,
				62.80419921875,
				-41.52949905395508
			]
		},
		{
			"extensions":{
				"KHR_lights_punctual":{
					"light":2
				}
			},
			"name":"Spot.001",
			"rotation":[
				-0.1464465856552124,
				0.8535534143447876,
				0.3535533845424652,
				0.3535533547401428
			],
			"translation":[
				-45.191017150878906,
				62.80418395996094,
				-41.52950668334961
			]
		},
		{
			"extensions":{
				"KHR_lights_punctual":{
					"light":1
				}
			},
			"name":"Spot.002",
			"rotation":[
				-0.1464466005563736,
				-0.8535534143447876,
				-0.3535533845424652,
				0.3535533845424652
			],
			"translation":[
				156.22256469726562,
				62.80418395996094,
				-41.52950668334961
			]
		},
		{
			"extensions":{
				"KHR_lights_punctual":{
					"light":2
				}
			},
			"name":"Spot.003",
			"rotation":[
				-0.1464465856552124,
				0.8535534143447876,
				0.3535533845424652,
				0.3535533547401428
			],
			"translation":[
				143.4400177001953,
				62.80418395996094,
				-41.52950668334961
			]
		},
		{
			"extensions":{
				"KHR_lights_punctual":{
					"light":1
				}
			},
			"name":"Spot.004",
			"rotation":[
				-0.1464466005563736,
				-0.8535534143447876,
				-0.3535533845424652,
				0.3535533845424652
			],
			"translation":[
				345.2225646972656,
				62.80418395996094,
				-41.52950668334961
			]
		},
		{
			"extensions":{
				"KHR_lights_punctual":{
					"light":2
				}
			},
			"name":"Spot.005",
			"rotation":[
				-0.1464465856552124,
				0.8535534143447876,
				0.3535533845424652,
				0.3535533547401428
			],
			"translation":[
				332.44000244140625,
				62.80418395996094,
				-41.52950668334961
			]
		},
		{
			"extensions":{
				"KHR_lights_punctual":{
					"light":3
				}
			},
			"name":"Spot.006",
			"rotation":[
				-0.1464466005563736,
				-0.8535534143447876,
				-0.3535533845424652,
				0.3535533845424652
			],
			"translation":[
				534.2225341796875,
				62.80418395996094,
				-41.52950668334961
			]
		},
		{
			"extensions":{
				"KHR_lights_punctual":{
					"light":4
				}
			},
			"name":"Spot.007",
			"rotation":[
				-0.1464465856552124,
				0.8535534143447876,
				0.3535533845424652,
				0.3535533547401428
			],
			"translation":[
				521.4400024414062,
				62.80418395996094,
				-41.52950668334961
			]
		},
		{
			"mesh":1,
			"name":"Hat-noimp",
			"rotation":[
				-0.1299411654472351,
				0,
				0,
				0.9915217161178589
			],
			"translation":[
				3,
				2.335197687149048,
				-0.03806528449058533
			]
		},
		{
			"mesh":2,
			"name":"Head-noimp",
			"rotation":[
				0,
				-1,
				0,
				1.6292068494294654e-07
			],
			"translation":[
				3,
				1.938663363456726,
				0.014965854585170746
			]
		},
		{
			"mesh":3,
			"name":"Legs-noimp",
			"rotation":[
				0,
				-1,
				0,
				1.6292068494294654e-07
			],
			"translation":[
				3,
				0.6066666841506958,
				0
			]
		},
		{
			"mesh":4,
			"name":"Neck-noimp",
			"translation":[
				3,
				1.6916866302490234,
				0
			]
		},
		{
			"mesh":5,
			"name":"Torso-noimp",
			"rotation":[
				0,
				-1,
				0,
				1.6292068494294654e-07
			],
			"translation":[
				3,
				1.3308544158935547,
				-0.04100942239165306
			]
		},
		{
			"mesh":6,
			"name":"Arms-noimp",
			"translation":[
				3.010063648223877,
				1.4820001125335693,
				0
			]
		}
	],
	"cameras":[
		{
			"name":"Camera",
			"perspective":{
				"aspectRatio":1.7777777777777777,
				"yfov":0.7696185925605304,
				"zfar":1000,
				"znear":0.10000000149011612
			},
			"type":"perspective"
		}
	],
	"materials":[
		{
			"alphaMode":"BLEND",
			"doubleSided":true,
			"name":"Material",
			"pbrMetallicRoughness":{
				"baseColorFactor":[
					0.800000011920929,
					0.800000011920929,
					0.800000011920929,
					1
				],
				"metallicFactor":0,
				"roughnessFactor":0.5
			}
		},
		{
			"alphaMode":"BLEND",
			"doubleSided":true,
			"emissiveFactor":[
				1,
				1,
				1
			],
			"extensions":{
				"KHR_materials_emissive_strength":{
					"emissiveStrength":50
				}
			},
			"name":"Light",
			"pbrMetallicRoughness":{
				"baseColorFactor":[
					0.800000011920929,
					0.800000011920929,
					0.800000011920929,
					1
				],
				"metallicFactor":0,
				"roughnessFactor":0.5
			}
		},
		{
			"alphaMode":"BLEND",
			"doubleSided":true,
			"extensions":{
				"KHR_materials_specular":{
					"specularFactor":0
				},
				"KHR_materials_ior":{
					"ior":1.4500000476837158
				}
			},
			"name":"Misc",
			"pbrMetallicRoughness":{
				"baseColorFactor":[
					0.03453729301691055,
					0.012929916381835938,
					0.011016939766705036,
					1
				],
				"metallicFactor":0
			}
		},
		{
			"alphaMode":"BLEND",
			"doubleSided":true,
			"extensions":{
				"KHR_materials_specular":{
					"specularFactor":0
				}
			},
			"name":"Body",
			"pbrMetallicRoughness":{
				"baseColorFactor":[
					1,
					0.19209840893745422,
					0,
					1
				],
				"metallicFactor":0
			}
		},
		{
			"alphaMode":"BLEND",
			"doubleSided":true,
			"extensions":{
				"KHR_materials_specular":{
					"specularFactor":0
				}
			},
			"name":"Limbs",
			"pbrMetallicRoughness":{
				"baseColorFactor":[
					0,
					0,
					0,
					1
				],
				"metallicFactor":0
			}
		}
	],
	"meshes":[
		{
			"name":"Cube.001",
			"primitives":[
				{
					"attributes":{
						"POSITION":0,
						"NORMAL":1,
						"TEXCOORD_0":2
					},
					"indices":3,
					"material":0
				},
				{
					"attributes":{
						"POSITION":4,
						"NORMAL":5,
						"TEXCOORD_0":6
					},
					"indices":7,
					"material":1
				}
			]
		},
		{
			"name":"Cube.004",
			"primitives":[
				{
					"attributes":{
						"POSITION":8,
						"NORMAL":9,
						"TEXCOORD_0":10,
						"TANGENT":11
					},
					"indices":12,
					"material":2
				}
			]
		},
		{
			"name":"Cube.003",
			"primitives":[
				{
					"attributes":{
						"POSITION":13,
						"NORMAL":14,
						"TEXCOORD_0":15,
						"TANGENT":16
					},
					"indices":17,
					"material":3
				}
			]
		},
		{
			"name":"Vert.004",
			"primitives":[
				{
					"attributes":{
						"POSITION":18,
						"NORMAL":19
					},
					"indices":20,
					"material":4
				}
			]
		},
		{
			"name":"Vert.005",
			"primitives":[
				{
					"attributes":{
						"POSITION":21,
						"NORMAL":22
					},
					"indices":23,
					"material":4
				}
			]
		},
		{
			"name":"Cube.002",
			"primitives":[
				{
					"attributes":{
						"POSITION":24,
						"NORMAL":25,
						"TEXCOORD_0":26,
						"TANGENT":27
					},
					"indices":28,
					"material":3
				}
			]
		},
		{
			"name":"Vert.006",
			"primitives":[
				{
					"attributes":{
						"POSITION":29,
						"NORMAL":30
					},
					"indices":31,
					"material":4
				}
			]
		}
	],
	"accessors":[
		{
			"bufferView":0,
			"componentType":5126,
			"count":2464,
			"max":[
				659.86962890625,
				19.815635681152344,
				6.900020599365234
			],
			"min":[
				-95.08462524414062,
				-77.30720520019531,
				-43.85081100463867
			],
			"type":"VEC3"
		},
		{
			"bufferView":1,
			"componentType":5126,
			"count":2464,
			"type":"VEC3"
		},
		{
			"bufferView":2,
			"componentType":5126,
			"count":2464,
			"type":"VEC2"
		},
		{
			"bufferView":3,
			"componentType":5123,
			"count":4074,
			"type":"SCALAR"
		},
		{
			"bufferView":4,
			"componentType":5126,
			"count":256,
			"max":[
				573.2435302734375,
				-0.46564483642578125,
				4.064460754394531
			],
			"min":[
				-6.908580780029297,
				-2.6872596740722656,
				1.5513648986816406
			],
			"type":"VEC3"
		},
		{
			"bufferView":5,
			"componentType":5126,
			"count":256,
			"type":"VEC3"
		},
		{
			"bufferView":6,
			"componentType":5126,
			"count":256,
			"type":"VEC2"
		},
		{
			"bufferView":7,
			"componentType":5123,
			"count":720,
			"type":"SCALAR"
		},
		{
			"bufferView":8,
			"componentType":5126,
			"count":54,
			"max":[
				0.5022421479225159,
				0.5520973205566406,
				0.6769753694534302
			],
			"min":[
				-0.5030801892280579,
				-0.2551911175251007,
				-0.6804220676422119
			],
			"type":"VEC3"
		},
		{
			"bufferView":9,
			"componentType":5126,
			"count":54,
			"type":"VEC3"
		},
		{
			"bufferView":10,
			"componentType":5126,
			"count":54,
			"type":"VEC2"
		},
		{
			"bufferView":11,
			"componentType":5126,
			"count":54,
			"type":"VEC4"
		},
		{
			"bufferView":12,
			"componentType":5123,
			"count":198,
			"type":"SCALAR"
		},
		{
			"bufferView":13,
			"componentType":5126,
			"count":42,
			"max":[
				0.3028251528739929,
				0.30644553899765015,
				0.4122871458530426
			],
			"min":[
				-0.30282506346702576,
				-0.24122481048107147,
				-0.39931532740592957
			],
			"type":"VEC3"
		},
		{
			"bufferView":14,
			"componentType":5126,
			"count":42,
			"type":"VEC3"
		},
		{
			"bufferView":15,
			"componentType":5126,
			"count":42,
			"type":"VEC2"
		},
		{
			"bufferView":16,
			"componentType":5126,
			"count":42,
			"type":"VEC4"
		},
		{
			"bufferView":17,
			"componentType":5123,
			"count":144,
			"type":"SCALAR"
		},
		{
			"bufferView":18,
			"componentType":5126,
			"count":628,
			"max":[
				0.17098677158355713,
				0.5559074878692627,
				0.04187256470322609
			],
			"min":[
				-0.17187261581420898,
				-0.6040319204330444,
				-0.041872646659612656
			],
			"type":"VEC3"
		},
		{
			"bufferView":19,
			"componentType":5126,
			"count":628,
			"type":"VEC3"
		},
		{
			"bufferView":20,
			"componentType":5123,
			"count":3744,
			"type":"SCALAR"
		},
		{
			"bufferView":21,
			"componentType":5126,
			"count":70,
			"max":[
				0.03962929546833038,
				0.11600928008556366,
				0.042032577097415924
			],
			"min":[
				-0.0401575043797493,
				-0.099009208381176,
				-0.039651401340961456
			],
			"type":"VEC3"
		},
		{
			"bufferView":22,
			"componentType":5126,
			"count":70,
			"type":"VEC3"
		},
		{
			"bufferView":23,
			"componentType":5123,
			"count":78,
			"type":"SCALAR"
		},
		{
			"bufferView":24,
			"componentType":5126,
			"count":40,
			"max":[
				0.3066713511943817,
				0.3443833887577057,
				0.2776981294155121
			],
			"min":[
				-0.3066713213920593,
				-0.3066956102848053,
				-0.3677407205104828
			],
			"type":"VEC3"
		},
		{
			"bufferView":25,
			"componentType":5126,
			"count":40,
			"type":"VEC3"
		},
		{
			"bufferView":26,
			"componentType":5126,
			"count":40,
			"type":"VEC2"
		},
		{
			"bufferView":27,
			"componentType":5126,
			"count":40,
			"type":"VEC4"
		},
		{
			"bufferView":28,
			"componentType":5123,
			"count":144,
			"type":"SCALAR"
		},
		{
			"bufferView":29,
			"componentType":5126,
			"count":98,
			"max":[
				1.1584757566452026,
				0.05090181529521942,
				0.0379018634557724
			],
			"min":[
				-1.1763625144958496,
				-0.04288521409034729,
				-0.0379018634557724
			],
			"type":"VEC3"
		},
		{
			"bufferView":30,
			"componentType":5126,
			"count":98,
			"type":"VEC3"
		},
		{
			"bufferView":31,
			"componentType":5123,
			"count":564,
			"type":"SCALAR"
		}
	],
	"bufferViews":[
		{
			"buffer":0,
			"byteLength":29568,
			"byteOffset":0,
			"target":34962
		},
		{
			"buffer":0,
			"byteLength":29568,
			"byteOffset":29568,
			"target":34962
		},
		{
			"buffer":0,
			"byteLength":19712,
			"byteOffset":59136,
			"target":34962
		},
		{
			"buffer":0,
			"byteLength":8148,
			"byteOffset":78848,
			"target":34963
		},
		{
			"buffer":0,
			"byteLength":3072,
			"byteOffset":86996,
			"target":34962
		},
		{
			"buffer":0,
			"byteLength":3072,
			"byteOffset":90068,
			"target":34962
		},
		{
			"buffer":0,
			"byteLength":2048,
			"byteOffset":93140,
			"target":34962
		},
		{
			"buffer":0,
			"byteLength":1440,
			"byteOffset":95188,
			"target":34963
		},
		{
			"buffer":0,
			"byteLength":648,
			"byteOffset":96628,
			"target":34962
		},
		{
			"buffer":0,
			"byteLength":648,
			"byteOffset":97276,
			"target":34962
		},
		{
			"buffer":0,
			"byteLength":432,
			"byteOffset":97924,
			"target":34962
		},
		{
			"buffer":0,
			"byteLength":864,
			"byteOffset":98356,
			"target":34962
		},
		{
			"buffer":0,
			"byteLength":396,
			"byteOffset":99220,
			"target":34963
		},
		{
			"buffer":0,
			"byteLength":504,
			"byteOffset":99616,
			"target":34962
		},
		{
			"buffer":0,
			"byteLength":504,
			"byteOffset":100120,
			"target":34962
		},
		{
			"buffer":0,
			"byteLength":336,
			"byteOffset":100624,
			"target":34962
		},
		{
			"buffer":0,
			"byteLength":672,
			"byteOffset":100960,
			"target":34962
		},
		{
			"buffer":0,
			"byteLength":288,
			"byteOffset":101632,
			"target":34963
		},
		{
			"buffer":0,
			"byteLength":7536,
			"byteOffset":101920,
			"target":34962
		},
		{
			"buffer":0,
			"byteLength":7536,
			"byteOffset":109456,
			"target":34962
		},
		{
			"buffer":0,
			"byteLength":7488,
			"byteOffset":116992,
			"target":34963
		},
		{
			"buffer":0,
			"byteLength":840,
			"byteOffset":124480,
			"target":34962
		},
		{
			"buffer":0,
			"byteLength":840,
			"byteOffset":125320,
			"target":34962
		},
		{
			"buffer":0,
			"byteLength":156,
			"byteOffset":126160,
			"target":34963
		},
		{
			"buffer":0,
			"byteLength":480,
			"byteOffset":126316,
			"target":34962
		},
		{
			"buffer":0,
			"byteLength":480,
			"byteOffset":126796,
			"target":34962
		},
		{
			"buffer":0,
			"byteLength":320,
			"byteOffset":127276,
			"target":34962
		},
		{
			"buffer":0,
			"byteLength":640,
			"byteOffset":127596,
			"target":34962
		},
		{
			"buffer":0,
			"byteLength":288,
			"byteOffset":128236,
			"target":34963
		},
		{
			"buffer":0,
			"byteLength":1176,
			"byteOffset":128524,
			"target":34962
		},
		{
			"buffer":0,
			"byteLength":1176,
			"byteOffset":129700,
			"target":34962
		},
		{
			"buffer":0,
			"byteLength":1128,
			"byteOffset":130876,
			"target":34963
		}
	],
	"buffers":[
		{
			"byteLength":132004,
			"uri":"planning-a93cb6b1ef0098701273c8f626b5a517.bin"
		}
	]
}
