{
	"asset":{
		"generator":"Khronos glTF Blender I/O v4.1.63",
		"version":"2.0"
	},
	"extensionsUsed":[
		"KHR_materials_specular",
		"KHR_materials_ior"
	],
	"scene":0,
	"scenes":[
		{
			"name":"Scene",
			"nodes":[
				0,
				1,
				2,
				3,
				4,
				5,
				21,
				22
			]
		}
	],
	"nodes":[
		{
			"mesh":0,
			"name":"Arms-noimp",
			"translation":[
				3.010063648223877,
				1.4820001125335693,
				0
			]
		},
		{
			"mesh":1,
			"name":"Hat-noimp",
			"rotation":[
				-0.1299411654472351,
				0,
				0,
				0.9915217161178589
			],
			"translation":[
				3,
				2.335197687149048,
				-0.03806528449058533
			]
		},
		{
			"mesh":2,
			"name":"Head-noimp",
			"rotation":[
				0,
				-1,
				0,
				1.6292068494294654e-07
			],
			"translation":[
				3,
				1.938663363456726,
				0.014965854585170746
			]
		},
		{
			"mesh":3,
			"name":"Legs-noimp",
			"rotation":[
				0,
				-1,
				0,
				1.6292068494294654e-07
			],
			"translation":[
				3,
				0.6066666841506958,
				0
			]
		},
		{
			"mesh":4,
			"name":"Neck-noimp",
			"translation":[
				3,
				1.6916866302490234,
				0
			]
		},
		{
			"mesh":5,
			"name":"Torso-noimp",
			"rotation":[
				0,
				-1,
				0,
				1.6292068494294654e-07
			],
			"translation":[
				3,
				1.3308544158935547,
				-0.04100942239165306
			]
		},
		{
			"name":"Bone.006",
			"translation":[
				0,
				0.12030482292175293,
				0
			]
		},
		{
			"children":[
				6
			],
			"name":"Bone.001",
			"translation":[
				0,
				0.44818174839019775,
				0
			]
		},
		{
			"name":"Bone.009",
			"rotation":[
				0,
				-5.960465898624534e-08,
				-1.609276246650864e-27,
				1
			],
			"translation":[
				0,
				0.42995449900627136,
				0
			]
		},
		{
			"children":[
				8
			],
			"name":"Bone.008",
			"rotation":[
				1.5454311608209537e-08,
				-1.8404170987196267e-07,
				0.7071067690849304,
				0.7071067690849304
			],
			"translation":[
				-0.24117650091648102,
				0.32311737537384033,
				-5.750095866119409e-08
			]
		},
		{
			"name":"Bone.011",
			"rotation":[
				-1.4210854715202004e-14,
				0,
				-5.703372357255479e-21,
				1
			],
			"translation":[
				7.993605777301127e-15,
				0.4000000059604645,
				-1.5319810578538068e-14
			]
		},
		{
			"children":[
				10
			],
			"name":"Bone.010",
			"rotation":[
				2.261885754251125e-07,
				5.760115939779098e-08,
				-0.7071067690849304,
				0.7071067690849304
			],
			"translation":[
				0.26401790976524353,
				0.3000084161758423,
				4.3038383523708035e-08
			]
		},
		{
			"name":"Bone.007",
			"rotation":[
				-0.7301731109619141,
				0.4438696503639221,
				0.4438697099685669,
				0.2698270380496979
			],
			"scale":[
				0.9999997615814209,
				0.9999998807907104,
				0.9999999403953552
			],
			"translation":[
				0,
				0.44818174839019775,
				0
			]
		},
		{
			"name":"Bone.012",
			"rotation":[
				-0.7447078824043274,
				-0.43602532148361206,
				-0.4360254108905792,
				0.25529202818870544
			],
			"scale":[
				1.000000238418579,
				1.0000001192092896,
				1
			],
			"translation":[
				0,
				0.44818174839019775,
				0
			]
		},
		{
			"name":"Bone.013",
			"rotation":[
				-0.8460018038749695,
				0.3609470725059509,
				0.360946923494339,
				0.15399831533432007
			],
			"scale":[
				0.9999997019767761,
				0.9999997615814209,
				1
			]
		},
		{
			"name":"Bone.014",
			"rotation":[
				-0.8581440448760986,
				-0.3489023447036743,
				-0.3489023447036743,
				0.141855850815773
			]
		},
		{
			"children":[
				7,
				9,
				11,
				12,
				13,
				14,
				15
			],
			"name":"Bone",
			"rotation":[
				0,
				1.1920928955078125e-07,
				0,
				1
			],
			"translation":[
				0,
				0.17602407932281494,
				0
			]
		},
		{
			"name":"Bone.003",
			"rotation":[
				0,
				-5.960464477539063e-08,
				0,
				1
			],
			"translation":[
				1.7763568394002505e-15,
				0.4905182719230652,
				0
			]
		},
		{
			"children":[
				17
			],
			"name":"Bone.002",
			"rotation":[
				0.7071067094802856,
				0,
				-0.7071068286895752,
				0
			],
			"scale":[
				1,
				0.9999999403953552,
				1
			],
			"translation":[
				-0.13963773846626282,
				0.04216814041137695,
				0
			]
		},
		{
			"name":"Bone.005",
			"rotation":[
				0,
				-5.960464477539063e-08,
				0,
				1
			],
			"translation":[
				-3.552713678800501e-15,
				0.4905182719230652,
				0
			]
		},
		{
			"children":[
				19
			],
			"name":"Bone.004",
			"rotation":[
				0.7071066498756409,
				0,
				-0.70710688829422,
				0
			],
			"scale":[
				1,
				0.9999999403953552,
				1
			],
			"translation":[
				0.13040179014205933,
				0.04216814041137695,
				0
			]
		},
		{
			"children":[
				16,
				18,
				20
			],
			"name":"Armature",
			"translation":[
				0,
				1,
				0
			]
		},
		{
			"mesh":6,
			"name":"Player",
			"translation":[
				0.010063648223876953,
				1.4820001125335693,
				0
			]
		}
	],
	"materials":[
		{
			"doubleSided":true,
			"extensions":{
				"KHR_materials_specular":{
					"specularFactor":0
				}
			},
			"name":"Limbs",
			"pbrMetallicRoughness":{
				"baseColorFactor":[
					0,
					0,
					0,
					1
				],
				"metallicFactor":0
			}
		},
		{
			"doubleSided":true,
			"extensions":{
				"KHR_materials_specular":{
					"specularFactor":0
				},
				"KHR_materials_ior":{
					"ior":1.4500000476837158
				}
			},
			"name":"Misc",
			"pbrMetallicRoughness":{
				"baseColorFactor":[
					0.1886836588382721,
					0.059504978358745575,
					0.048867423087358475,
					1
				],
				"metallicFactor":0
			}
		},
		{
			"doubleSided":true,
			"extensions":{
				"KHR_materials_specular":{
					"specularFactor":0
				}
			},
			"name":"Body",
			"pbrMetallicRoughness":{
				"baseColorFactor":[
					0.000925519794691354,
					0.8003851175308228,
					0.008372455835342407,
					1
				],
				"metallicFactor":0
			}
		}
	],
	"meshes":[
		{
			"name":"Vert.006",
			"primitives":[
				{
					"attributes":{
						"POSITION":0,
						"NORMAL":1
					},
					"indices":2,
					"material":0
				}
			]
		},
		{
			"name":"Cube.004",
			"primitives":[
				{
					"attributes":{
						"POSITION":3,
						"NORMAL":4,
						"TEXCOORD_0":5,
						"TANGENT":6
					},
					"indices":7,
					"material":1
				}
			]
		},
		{
			"name":"Cube.003",
			"primitives":[
				{
					"attributes":{
						"POSITION":8,
						"NORMAL":9,
						"TEXCOORD_0":10,
						"TANGENT":11
					},
					"indices":12,
					"material":2
				}
			]
		},
		{
			"name":"Vert.004",
			"primitives":[
				{
					"attributes":{
						"POSITION":13,
						"NORMAL":14
					},
					"indices":15,
					"material":0
				}
			]
		},
		{
			"name":"Vert.005",
			"primitives":[
				{
					"attributes":{
						"POSITION":16,
						"NORMAL":17
					},
					"indices":18,
					"material":0
				}
			]
		},
		{
			"name":"Cube.002",
			"primitives":[
				{
					"attributes":{
						"POSITION":19,
						"NORMAL":20,
						"TEXCOORD_0":21,
						"TANGENT":22
					},
					"indices":23,
					"material":2
				}
			]
		},
		{
			"name":"Vert.003",
			"primitives":[
				{
					"attributes":{
						"POSITION":24,
						"NORMAL":25,
						"TEXCOORD_0":26,
						"TANGENT":27
					},
					"indices":28,
					"material":0
				},
				{
					"attributes":{
						"POSITION":29,
						"NORMAL":30,
						"TEXCOORD_0":31,
						"TANGENT":32
					},
					"indices":7,
					"material":1
				},
				{
					"attributes":{
						"POSITION":33,
						"NORMAL":34,
						"TEXCOORD_0":35,
						"TANGENT":36
					},
					"indices":37,
					"material":2
				}
			]
		}
	],
	"skins":[
		{
			"inverseBindMatrices":38,
			"joints":[
				16,
				7,
				6,
				9,
				8,
				11,
				10,
				12,
				13,
				14,
				15,
				18,
				17,
				20,
				19
			],
			"name":"Armature"
		}
	],
	"accessors":[
		{
			"bufferView":0,
			"componentType":5126,
			"count":98,
			"max":[
				1.1584757566452026,
				0.05090181529521942,
				0.0379018634557724
			],
			"min":[
				-1.1763625144958496,
				-0.04288521409034729,
				-0.0379018634557724
			],
			"type":"VEC3"
		},
		{
			"bufferView":1,
			"componentType":5126,
			"count":98,
			"type":"VEC3"
		},
		{
			"bufferView":2,
			"componentType":5123,
			"count":564,
			"type":"SCALAR"
		},
		{
			"bufferView":3,
			"componentType":5126,
			"count":54,
			"max":[
				0.5022421479225159,
				0.5520973205566406,
				0.6769753694534302
			],
			"min":[
				-0.5030801892280579,
				-0.2551911175251007,
				-0.6804220676422119
			],
			"type":"VEC3"
		},
		{
			"bufferView":4,
			"componentType":5126,
			"count":54,
			"type":"VEC3"
		},
		{
			"bufferView":5,
			"componentType":5126,
			"count":54,
			"type":"VEC2"
		},
		{
			"bufferView":6,
			"componentType":5126,
			"count":54,
			"type":"VEC4"
		},
		{
			"bufferView":7,
			"componentType":5123,
			"count":198,
			"type":"SCALAR"
		},
		{
			"bufferView":8,
			"componentType":5126,
			"count":42,
			"max":[
				0.3028251528739929,
				0.30644553899765015,
				0.4122871458530426
			],
			"min":[
				-0.30282506346702576,
				-0.24122481048107147,
				-0.39931532740592957
			],
			"type":"VEC3"
		},
		{
			"bufferView":9,
			"componentType":5126,
			"count":42,
			"type":"VEC3"
		},
		{
			"bufferView":10,
			"componentType":5126,
			"count":42,
			"type":"VEC2"
		},
		{
			"bufferView":11,
			"componentType":5126,
			"count":42,
			"type":"VEC4"
		},
		{
			"bufferView":12,
			"componentType":5123,
			"count":144,
			"type":"SCALAR"
		},
		{
			"bufferView":13,
			"componentType":5126,
			"count":628,
			"max":[
				0.17098677158355713,
				0.5559074878692627,
				0.04187256470322609
			],
			"min":[
				-0.17187261581420898,
				-0.6040319204330444,
				-0.041872646659612656
			],
			"type":"VEC3"
		},
		{
			"bufferView":14,
			"componentType":5126,
			"count":628,
			"type":"VEC3"
		},
		{
			"bufferView":15,
			"componentType":5123,
			"count":3744,
			"type":"SCALAR"
		},
		{
			"bufferView":16,
			"componentType":5126,
			"count":70,
			"max":[
				0.03962929546833038,
				0.11600928008556366,
				0.042032577097415924
			],
			"min":[
				-0.0401575043797493,
				-0.099009208381176,
				-0.039651401340961456
			],
			"type":"VEC3"
		},
		{
			"bufferView":17,
			"componentType":5126,
			"count":70,
			"type":"VEC3"
		},
		{
			"bufferView":18,
			"componentType":5123,
			"count":78,
			"type":"SCALAR"
		},
		{
			"bufferView":19,
			"componentType":5126,
			"count":40,
			"max":[
				0.3066713511943817,
				0.3443833887577057,
				0.2776981294155121
			],
			"min":[
				-0.3066713213920593,
				-0.3066956102848053,
				-0.3677407205104828
			],
			"type":"VEC3"
		},
		{
			"bufferView":20,
			"componentType":5126,
			"count":40,
			"type":"VEC3"
		},
		{
			"bufferView":21,
			"componentType":5126,
			"count":40,
			"type":"VEC2"
		},
		{
			"bufferView":22,
			"componentType":5126,
			"count":40,
			"type":"VEC4"
		},
		{
			"bufferView":23,
			"componentType":5123,
			"count":144,
			"type":"SCALAR"
		},
		{
			"bufferView":24,
			"componentType":5126,
			"count":796,
			"max":[
				1.1584757566452026,
				0.32569581270217896,
				0.042032577097415924
			],
			"min":[
				-1.1763625144958496,
				-1.479365348815918,
				-0.04187260568141937
			],
			"type":"VEC3"
		},
		{
			"bufferView":25,
			"componentType":5126,
			"count":796,
			"type":"VEC3"
		},
		{
			"bufferView":26,
			"componentType":5126,
			"count":796,
			"type":"VEC2"
		},
		{
			"bufferView":27,
			"componentType":5126,
			"count":796,
			"type":"VEC4"
		},
		{
			"bufferView":28,
			"componentType":5123,
			"count":4386,
			"type":"SCALAR"
		},
		{
			"bufferView":29,
			"componentType":5126,
			"count":54,
			"max":[
				0.4921784996986389,
				1.378434658050537,
				0.6682405471801758
			],
			"min":[
				-0.5131438374519348,
				0.51261967420578,
				-0.6590776443481445
			],
			"type":"VEC3"
		},
		{
			"bufferView":30,
			"componentType":5126,
			"count":54,
			"type":"VEC3"
		},
		{
			"bufferView":31,
			"componentType":5126,
			"count":54,
			"type":"VEC2"
		},
		{
			"bufferView":32,
			"componentType":5126,
			"count":54,
			"type":"VEC4"
		},
		{
			"bufferView":33,
			"componentType":5126,
			"count":82,
			"max":[
				0.2966076731681824,
				0.7631087899208069,
				0.4142812192440033
			],
			"min":[
				-0.31673499941825867,
				-0.45784130692481995,
				-0.39732125401496887
			],
			"type":"VEC3"
		},
		{
			"bufferView":34,
			"componentType":5126,
			"count":82,
			"type":"VEC3"
		},
		{
			"bufferView":35,
			"componentType":5126,
			"count":82,
			"type":"VEC2"
		},
		{
			"bufferView":36,
			"componentType":5126,
			"count":82,
			"type":"VEC4"
		},
		{
			"bufferView":37,
			"componentType":5123,
			"count":288,
			"type":"SCALAR"
		},
		{
			"bufferView":38,
			"componentType":5126,
			"count":15,
			"type":"MAT4"
		}
	],
	"bufferViews":[
		{
			"buffer":0,
			"byteLength":1176,
			"byteOffset":0,
			"target":34962
		},
		{
			"buffer":0,
			"byteLength":1176,
			"byteOffset":1176,
			"target":34962
		},
		{
			"buffer":0,
			"byteLength":1128,
			"byteOffset":2352,
			"target":34963
		},
		{
			"buffer":0,
			"byteLength":648,
			"byteOffset":3480,
			"target":34962
		},
		{
			"buffer":0,
			"byteLength":648,
			"byteOffset":4128,
			"target":34962
		},
		{
			"buffer":0,
			"byteLength":432,
			"byteOffset":4776,
			"target":34962
		},
		{
			"buffer":0,
			"byteLength":864,
			"byteOffset":5208,
			"target":34962
		},
		{
			"buffer":0,
			"byteLength":396,
			"byteOffset":6072,
			"target":34963
		},
		{
			"buffer":0,
			"byteLength":504,
			"byteOffset":6468,
			"target":34962
		},
		{
			"buffer":0,
			"byteLength":504,
			"byteOffset":6972,
			"target":34962
		},
		{
			"buffer":0,
			"byteLength":336,
			"byteOffset":7476,
			"target":34962
		},
		{
			"buffer":0,
			"byteLength":672,
			"byteOffset":7812,
			"target":34962
		},
		{
			"buffer":0,
			"byteLength":288,
			"byteOffset":8484,
			"target":34963
		},
		{
			"buffer":0,
			"byteLength":7536,
			"byteOffset":8772,
			"target":34962
		},
		{
			"buffer":0,
			"byteLength":7536,
			"byteOffset":16308,
			"target":34962
		},
		{
			"buffer":0,
			"byteLength":7488,
			"byteOffset":23844,
			"target":34963
		},
		{
			"buffer":0,
			"byteLength":840,
			"byteOffset":31332,
			"target":34962
		},
		{
			"buffer":0,
			"byteLength":840,
			"byteOffset":32172,
			"target":34962
		},
		{
			"buffer":0,
			"byteLength":156,
			"byteOffset":33012,
			"target":34963
		},
		{
			"buffer":0,
			"byteLength":480,
			"byteOffset":33168,
			"target":34962
		},
		{
			"buffer":0,
			"byteLength":480,
			"byteOffset":33648,
			"target":34962
		},
		{
			"buffer":0,
			"byteLength":320,
			"byteOffset":34128,
			"target":34962
		},
		{
			"buffer":0,
			"byteLength":640,
			"byteOffset":34448,
			"target":34962
		},
		{
			"buffer":0,
			"byteLength":288,
			"byteOffset":35088,
			"target":34963
		},
		{
			"buffer":0,
			"byteLength":9552,
			"byteOffset":35376,
			"target":34962
		},
		{
			"buffer":0,
			"byteLength":9552,
			"byteOffset":44928,
			"target":34962
		},
		{
			"buffer":0,
			"byteLength":6368,
			"byteOffset":54480,
			"target":34962
		},
		{
			"buffer":0,
			"byteLength":12736,
			"byteOffset":60848,
			"target":34962
		},
		{
			"buffer":0,
			"byteLength":8772,
			"byteOffset":73584,
			"target":34963
		},
		{
			"buffer":0,
			"byteLength":648,
			"byteOffset":82356,
			"target":34962
		},
		{
			"buffer":0,
			"byteLength":648,
			"byteOffset":83004,
			"target":34962
		},
		{
			"buffer":0,
			"byteLength":432,
			"byteOffset":83652,
			"target":34962
		},
		{
			"buffer":0,
			"byteLength":864,
			"byteOffset":84084,
			"target":34962
		},
		{
			"buffer":0,
			"byteLength":984,
			"byteOffset":84948,
			"target":34962
		},
		{
			"buffer":0,
			"byteLength":984,
			"byteOffset":85932,
			"target":34962
		},
		{
			"buffer":0,
			"byteLength":656,
			"byteOffset":86916,
			"target":34962
		},
		{
			"buffer":0,
			"byteLength":1312,
			"byteOffset":87572,
			"target":34962
		},
		{
			"buffer":0,
			"byteLength":576,
			"byteOffset":88884,
			"target":34963
		},
		{
			"buffer":0,
			"byteLength":960,
			"byteOffset":89460
		}
	],
	"buffers":[
		{
			"byteLength":90420,
			"uri":"player-4f4d25d4ba05d62693d516451f4dc114.bin"
		}
	]
}
