{
	"asset":{
		"generator":"Khronos glTF Blender I/O v4.1.63",
		"version":"2.0"
	},
	"extensionsUsed":[
		"KHR_materials_specular",
		"KHR_materials_emissive_strength"
	],
	"scene":0,
	"scenes":[
		{
			"name":"Scene",
			"nodes":[
				0,
				1,
				2,
				3
			]
		}
	],
	"nodes":[
		{
			"mesh":0,
			"name":"Room"
		},
		{
			"mesh":1,
			"name":"Light",
			"rotation":[
				0.7071068286895752,
				0,
				0,
				0.7071068286895752
			],
			"translation":[
				10,
				11,
				0
			]
		},
		{
			"mesh":2,
			"name":"Cube-colonly"
		},
		{
			"mesh":3,
			"name":"Hatch-col",
			"translation":[
				6,
				-0.39332711696624756,
				-6
			]
		}
	],
	"materials":[
		{
			"doubleSided":true,
			"name":"Material",
			"pbrMetallicRoughness":{
				"baseColorFactor":[
					0.800000011920929,
					0.800000011920929,
					0.800000011920929,
					1
				],
				"metallicFactor":0,
				"roughnessFactor":0.5
			}
		},
		{
			"doubleSided":true,
			"extensions":{
				"KHR_materials_specular":{
					"specularFactor":0
				}
			},
			"name":"Hole",
			"pbrMetallicRoughness":{
				"baseColorFactor":[
					0,
					0,
					0,
					1
				],
				"metallicFactor":0
			}
		},
		{
			"doubleSided":true,
			"emissiveFactor":[
				1,
				1,
				1
			],
			"extensions":{
				"KHR_materials_emissive_strength":{
					"emissiveStrength":10
				}
			},
			"name":"Light",
			"pbrMetallicRoughness":{
				"metallicFactor":0,
				"roughnessFactor":0.5
			}
		},
		{
			"doubleSided":true,
			"name":"Light2",
			"pbrMetallicRoughness":{
				"baseColorFactor":[
					0.044314224272966385,
					0.044314224272966385,
					0.044314224272966385,
					1
				],
				"metallicFactor":0,
				"roughnessFactor":0.5
			}
		}
	],
	"meshes":[
		{
			"name":"Cube.001",
			"primitives":[
				{
					"attributes":{
						"POSITION":0,
						"NORMAL":1,
						"TEXCOORD_0":2
					},
					"indices":3,
					"material":0
				},
				{
					"attributes":{
						"POSITION":4,
						"NORMAL":5,
						"TEXCOORD_0":6
					},
					"indices":7,
					"material":1
				}
			]
		},
		{
			"name":"Cylinder",
			"primitives":[
				{
					"attributes":{
						"POSITION":8,
						"NORMAL":9,
						"TEXCOORD_0":10
					},
					"indices":11,
					"material":2
				},
				{
					"attributes":{
						"POSITION":12,
						"NORMAL":13,
						"TEXCOORD_0":14
					},
					"indices":15,
					"material":3
				}
			]
		},
		{
			"name":"Cube",
			"primitives":[
				{
					"attributes":{
						"POSITION":16,
						"NORMAL":17,
						"TEXCOORD_0":18
					},
					"indices":19,
					"material":0
				},
				{
					"attributes":{
						"POSITION":20,
						"NORMAL":21,
						"TEXCOORD_0":22
					},
					"indices":23,
					"material":1
				}
			]
		},
		{
			"name":"Cube.002",
			"primitives":[
				{
					"attributes":{
						"POSITION":24,
						"NORMAL":25,
						"TEXCOORD_0":26,
						"TANGENT":27
					},
					"indices":28
				}
			]
		}
	],
	"accessors":[
		{
			"bufferView":0,
			"componentType":5126,
			"count":57,
			"max":[
				10,
				12,
				10
			],
			"min":[
				-10,
				-1.978219985961914,
				-10
			],
			"type":"VEC3"
		},
		{
			"bufferView":1,
			"componentType":5126,
			"count":57,
			"type":"VEC3"
		},
		{
			"bufferView":2,
			"componentType":5126,
			"count":57,
			"type":"VEC2"
		},
		{
			"bufferView":3,
			"componentType":5123,
			"count":132,
			"type":"SCALAR"
		},
		{
			"bufferView":4,
			"componentType":5126,
			"count":20,
			"max":[
				8.035857200622559,
				-1.978219985961914,
				-3.9641425609588623
			],
			"min":[
				3.9641425609588623,
				-49,
				-8.035857200622559
			],
			"type":"VEC3"
		},
		{
			"bufferView":5,
			"componentType":5126,
			"count":20,
			"type":"VEC3"
		},
		{
			"bufferView":6,
			"componentType":5126,
			"count":20,
			"type":"VEC2"
		},
		{
			"bufferView":7,
			"componentType":5123,
			"count":30,
			"type":"SCALAR"
		},
		{
			"bufferView":8,
			"componentType":5126,
			"count":64,
			"max":[
				0.1524757742881775,
				2.233320951461792,
				0.1524755358695984
			],
			"min":[
				-20.152475357055664,
				-2.233320951461792,
				-0.15247589349746704
			],
			"type":"VEC3"
		},
		{
			"bufferView":9,
			"componentType":5126,
			"count":64,
			"type":"VEC3"
		},
		{
			"bufferView":10,
			"componentType":5126,
			"count":64,
			"type":"VEC2"
		},
		{
			"bufferView":11,
			"componentType":5123,
			"count":96,
			"type":"SCALAR"
		},
		{
			"bufferView":12,
			"componentType":5126,
			"count":260,
			"max":[
				0.1814630627632141,
				2.500000238418579,
				0.1814631223678589
			],
			"min":[
				-20.18146324157715,
				-2.500000238418579,
				-0.18146318197250366
			],
			"type":"VEC3"
		},
		{
			"bufferView":13,
			"componentType":5126,
			"count":260,
			"type":"VEC3"
		},
		{
			"bufferView":14,
			"componentType":5126,
			"count":260,
			"type":"VEC2"
		},
		{
			"bufferView":15,
			"componentType":5123,
			"count":648,
			"type":"SCALAR"
		},
		{
			"bufferView":16,
			"componentType":5126,
			"count":141,
			"max":[
				13.333335876464844,
				15.333335876464844,
				13.333335876464844
			],
			"min":[
				-13.333335876464844,
				-10.000006675720215,
				-13.333335876464844
			],
			"type":"VEC3"
		},
		{
			"bufferView":17,
			"componentType":5126,
			"count":141,
			"type":"VEC3"
		},
		{
			"bufferView":18,
			"componentType":5126,
			"count":141,
			"type":"VEC2"
		},
		{
			"bufferView":19,
			"componentType":5123,
			"count":264,
			"type":"SCALAR"
		},
		{
			"bufferView":20,
			"componentType":5126,
			"count":40,
			"max":[
				13.035860061645508,
				-1.978219985961914,
				1.035860300064087
			],
			"min":[
				-1.035860300064087,
				-52.333335876464844,
				-13.035860061645508
			],
			"type":"VEC3"
		},
		{
			"bufferView":21,
			"componentType":5126,
			"count":40,
			"type":"VEC3"
		},
		{
			"bufferView":22,
			"componentType":5126,
			"count":40,
			"type":"VEC2"
		},
		{
			"bufferView":23,
			"componentType":5123,
			"count":60,
			"type":"SCALAR"
		},
		{
			"bufferView":24,
			"componentType":5126,
			"count":24,
			"max":[
				2.0358572006225586,
				0.34676408767700195,
				2.0358572006225586
			],
			"min":[
				-2.0358572006225586,
				-0.34676408767700195,
				-2.0358572006225586
			],
			"type":"VEC3"
		},
		{
			"bufferView":25,
			"componentType":5126,
			"count":24,
			"type":"VEC3"
		},
		{
			"bufferView":26,
			"componentType":5126,
			"count":24,
			"type":"VEC2"
		},
		{
			"bufferView":27,
			"componentType":5126,
			"count":24,
			"type":"VEC4"
		},
		{
			"bufferView":28,
			"componentType":5123,
			"count":36,
			"type":"SCALAR"
		}
	],
	"bufferViews":[
		{
			"buffer":0,
			"byteLength":684,
			"byteOffset":0,
			"target":34962
		},
		{
			"buffer":0,
			"byteLength":684,
			"byteOffset":684,
			"target":34962
		},
		{
			"buffer":0,
			"byteLength":456,
			"byteOffset":1368,
			"target":34962
		},
		{
			"buffer":0,
			"byteLength":264,
			"byteOffset":1824,
			"target":34963
		},
		{
			"buffer":0,
			"byteLength":240,
			"byteOffset":2088,
			"target":34962
		},
		{
			"buffer":0,
			"byteLength":240,
			"byteOffset":2328,
			"target":34962
		},
		{
			"buffer":0,
			"byteLength":160,
			"byteOffset":2568,
			"target":34962
		},
		{
			"buffer":0,
			"byteLength":60,
			"byteOffset":2728,
			"target":34963
		},
		{
			"buffer":0,
			"byteLength":768,
			"byteOffset":2788,
			"target":34962
		},
		{
			"buffer":0,
			"byteLength":768,
			"byteOffset":3556,
			"target":34962
		},
		{
			"buffer":0,
			"byteLength":512,
			"byteOffset":4324,
			"target":34962
		},
		{
			"buffer":0,
			"byteLength":192,
			"byteOffset":4836,
			"target":34963
		},
		{
			"buffer":0,
			"byteLength":3120,
			"byteOffset":5028,
			"target":34962
		},
		{
			"buffer":0,
			"byteLength":3120,
			"byteOffset":8148,
			"target":34962
		},
		{
			"buffer":0,
			"byteLength":2080,
			"byteOffset":11268,
			"target":34962
		},
		{
			"buffer":0,
			"byteLength":1296,
			"byteOffset":13348,
			"target":34963
		},
		{
			"buffer":0,
			"byteLength":1692,
			"byteOffset":14644,
			"target":34962
		},
		{
			"buffer":0,
			"byteLength":1692,
			"byteOffset":16336,
			"target":34962
		},
		{
			"buffer":0,
			"byteLength":1128,
			"byteOffset":18028,
			"target":34962
		},
		{
			"buffer":0,
			"byteLength":528,
			"byteOffset":19156,
			"target":34963
		},
		{
			"buffer":0,
			"byteLength":480,
			"byteOffset":19684,
			"target":34962
		},
		{
			"buffer":0,
			"byteLength":480,
			"byteOffset":20164,
			"target":34962
		},
		{
			"buffer":0,
			"byteLength":320,
			"byteOffset":20644,
			"target":34962
		},
		{
			"buffer":0,
			"byteLength":120,
			"byteOffset":20964,
			"target":34963
		},
		{
			"buffer":0,
			"byteLength":288,
			"byteOffset":21084,
			"target":34962
		},
		{
			"buffer":0,
			"byteLength":288,
			"byteOffset":21372,
			"target":34962
		},
		{
			"buffer":0,
			"byteLength":192,
			"byteOffset":21660,
			"target":34962
		},
		{
			"buffer":0,
			"byteLength":384,
			"byteOffset":21852,
			"target":34962
		},
		{
			"buffer":0,
			"byteLength":72,
			"byteOffset":22236,
			"target":34963
		}
	],
	"buffers":[
		{
			"byteLength":22308,
			"uri":"player_hub-eb3e1f6544b2bbe6e8ab0151b8e07e9f.bin"
		}
	]
}
