{
	"asset":{
		"generator":"Khronos glTF Blender I/O v4.1.63",
		"version":"2.0"
	},
	"extensionsUsed":[
		"KHR_materials_specular",
		"KHR_materials_ior"
	],
	"scene":0,
	"scenes":[
		{
			"name":"Scene",
			"nodes":[
				0,
				1,
				2,
				3,
				4,
				5,
				6,
				7,
				8,
				9
			]
		}
	],
	"nodes":[
		{
			"mesh":0,
			"name":"Arms-noimp",
			"rotation":[
				0,
				-1,
				0,
				1.6292068494294654e-07
			],
			"translation":[
				2.921940803527832,
				1.8206002712249756,
				0
			]
		},
		{
			"mesh":1,
			"name":"Cylinder-noimp",
			"rotation":[
				0,
				-1,
				0,
				1.6292068494294654e-07
			],
			"translation":[
				3.4429807662963867,
				2.600473642349243,
				0
			]
		},
		{
			"mesh":2,
			"name":"Head-noimp",
			"rotation":[
				0,
				-1,
				0,
				1.6292068494294654e-07
			],
			"translation":[
				3.4429807662963867,
				2,
				0
			]
		},
		{
			"mesh":3,
			"name":"Legs-noimp",
			"rotation":[
				0,
				-1,
				0,
				1.6292068494294654e-07
			],
			"translation":[
				3.078059434890747,
				1.6928621530532837,
				0
			]
		},
		{
			"mesh":4,
			"name":"Torso",
			"rotation":[
				0,
				-1,
				0,
				1.6292068494294654e-07
			],
			"translation":[
				0,
				1.3308544158935547,
				-0.04100942239165306
			]
		},
		{
			"mesh":5,
			"name":"Head",
			"rotation":[
				0,
				-1,
				0,
				1.6292068494294654e-07
			],
			"translation":[
				0,
				1.938663363456726,
				0.014965854585170746
			]
		},
		{
			"mesh":6,
			"name":"Legs",
			"rotation":[
				0,
				-1,
				0,
				1.6292068494294654e-07
			],
			"translation":[
				0,
				0.6066666841506958,
				0
			]
		},
		{
			"mesh":7,
			"name":"Neck",
			"translation":[
				0,
				1.6916866302490234,
				0
			]
		},
		{
			"mesh":8,
			"name":"Arms",
			"translation":[
				0.01006355881690979,
				1.4820001125335693,
				0
			]
		},
		{
			"mesh":9,
			"name":"Hat",
			"rotation":[
				-0.1299411654472351,
				0,
				0,
				0.9915217161178589
			],
			"translation":[
				0,
				2.335197687149048,
				-0.03806528449058533
			]
		}
	],
	"materials":[
		{
			"doubleSided":true,
			"extensions":{
				"KHR_materials_specular":{
					"specularFactor":0
				}
			},
			"name":"Limbs",
			"pbrMetallicRoughness":{
				"baseColorFactor":[
					0,
					0,
					0,
					1
				],
				"metallicFactor":0
			}
		},
		{
			"doubleSided":true,
			"extensions":{
				"KHR_materials_specular":{
					"specularFactor":0
				}
			},
			"name":"Body",
			"pbrMetallicRoughness":{
				"baseColorFactor":[
					0.000925519794691354,
					0.8003851175308228,
					0.008372455835342407,
					1
				],
				"metallicFactor":0
			}
		},
		{
			"doubleSided":true,
			"extensions":{
				"KHR_materials_specular":{
					"specularFactor":0
				},
				"KHR_materials_ior":{
					"ior":1.4500000476837158
				}
			},
			"name":"Misc",
			"pbrMetallicRoughness":{
				"baseColorFactor":[
					0.1886836588382721,
					0.059504978358745575,
					0.048867423087358475,
					1
				],
				"metallicFactor":0
			}
		}
	],
	"meshes":[
		{
			"name":"Vert.002",
			"primitives":[
				{
					"attributes":{
						"POSITION":0,
						"NORMAL":1
					},
					"indices":2,
					"material":0
				}
			]
		},
		{
			"name":"Cylinder",
			"primitives":[
				{
					"attributes":{
						"POSITION":3,
						"NORMAL":4,
						"TEXCOORD_0":5
					},
					"indices":6
				}
			]
		},
		{
			"name":"Cube.001",
			"primitives":[
				{
					"attributes":{
						"POSITION":7,
						"NORMAL":8,
						"TEXCOORD_0":9,
						"TANGENT":10
					},
					"indices":11,
					"material":1
				}
			]
		},
		{
			"name":"Vert.001",
			"primitives":[
				{
					"attributes":{
						"POSITION":12,
						"NORMAL":13
					},
					"indices":14,
					"material":0
				}
			]
		},
		{
			"name":"Cube.002",
			"primitives":[
				{
					"attributes":{
						"POSITION":15,
						"NORMAL":16,
						"TEXCOORD_0":17,
						"TANGENT":18
					},
					"indices":19,
					"material":1
				}
			]
		},
		{
			"name":"Cube.003",
			"primitives":[
				{
					"attributes":{
						"POSITION":20,
						"NORMAL":21,
						"TEXCOORD_0":22,
						"TANGENT":23
					},
					"indices":24,
					"material":1
				}
			]
		},
		{
			"name":"Vert.004",
			"primitives":[
				{
					"attributes":{
						"POSITION":25,
						"NORMAL":26
					},
					"indices":27,
					"material":0
				}
			]
		},
		{
			"name":"Vert.005",
			"primitives":[
				{
					"attributes":{
						"POSITION":28,
						"NORMAL":29
					},
					"indices":30,
					"material":0
				}
			]
		},
		{
			"name":"Vert.006",
			"primitives":[
				{
					"attributes":{
						"POSITION":31,
						"NORMAL":32
					},
					"indices":33,
					"material":0
				}
			]
		},
		{
			"name":"Cube.004",
			"primitives":[
				{
					"attributes":{
						"POSITION":34,
						"NORMAL":35,
						"TEXCOORD_0":36,
						"TANGENT":37
					},
					"indices":38,
					"material":2
				}
			]
		}
	],
	"accessors":[
		{
			"bufferView":0,
			"componentType":5126,
			"count":66,
			"max":[
				0.3383721709251404,
				0.03390158340334892,
				0.05421948805451393
			],
			"min":[
				-1.1655584573745728,
				-0.4941102862358093,
				-0.06304731220006943
			],
			"type":"VEC3"
		},
		{
			"bufferView":1,
			"componentType":5126,
			"count":66,
			"type":"VEC3"
		},
		{
			"bufferView":2,
			"componentType":5123,
			"count":372,
			"type":"SCALAR"
		},
		{
			"bufferView":3,
			"componentType":5126,
			"count":198,
			"max":[
				0.6547533869743347,
				0.5558327436447144,
				0.6547533869743347
			],
			"min":[
				-0.6547533869743347,
				-0.02160423807799816,
				-0.6547533869743347
			],
			"type":"VEC3"
		},
		{
			"bufferView":4,
			"componentType":5126,
			"count":198,
			"type":"VEC3"
		},
		{
			"bufferView":5,
			"componentType":5126,
			"count":198,
			"type":"VEC2"
		},
		{
			"bufferView":6,
			"componentType":5123,
			"count":228,
			"type":"SCALAR"
		},
		{
			"bufferView":7,
			"componentType":5126,
			"count":49,
			"max":[
				0.6346303224563599,
				0.6572166681289673,
				0.4513724446296692
			],
			"min":[
				-0.47711068391799927,
				-0.42239606380462646,
				-0.43095335364341736
			],
			"type":"VEC3"
		},
		{
			"bufferView":8,
			"componentType":5126,
			"count":49,
			"type":"VEC3"
		},
		{
			"bufferView":9,
			"componentType":5126,
			"count":49,
			"type":"VEC2"
		},
		{
			"bufferView":10,
			"componentType":5126,
			"count":49,
			"type":"VEC4"
		},
		{
			"bufferView":11,
			"componentType":5123,
			"count":204,
			"type":"SCALAR"
		},
		{
			"bufferView":12,
			"componentType":5126,
			"count":72,
			"max":[
				0.017560593783855438,
				0.024131229147315025,
				0.08552157878875732
			],
			"min":[
				-0.5647057890892029,
				-1.7620396614074707,
				-0.25287145376205444
			],
			"type":"VEC3"
		},
		{
			"bufferView":13,
			"componentType":5126,
			"count":72,
			"type":"VEC3"
		},
		{
			"bufferView":14,
			"componentType":5123,
			"count":408,
			"type":"SCALAR"
		},
		{
			"bufferView":15,
			"componentType":5126,
			"count":40,
			"max":[
				0.3066713511943817,
				0.3443833887577057,
				0.2776981294155121
			],
			"min":[
				-0.3066713213920593,
				-0.3066956102848053,
				-0.3677407205104828
			],
			"type":"VEC3"
		},
		{
			"bufferView":16,
			"componentType":5126,
			"count":40,
			"type":"VEC3"
		},
		{
			"bufferView":17,
			"componentType":5126,
			"count":40,
			"type":"VEC2"
		},
		{
			"bufferView":18,
			"componentType":5126,
			"count":40,
			"type":"VEC4"
		},
		{
			"bufferView":19,
			"componentType":5123,
			"count":144,
			"type":"SCALAR"
		},
		{
			"bufferView":20,
			"componentType":5126,
			"count":42,
			"max":[
				0.3028251528739929,
				0.30644553899765015,
				0.4122871458530426
			],
			"min":[
				-0.30282506346702576,
				-0.24122481048107147,
				-0.39931532740592957
			],
			"type":"VEC3"
		},
		{
			"bufferView":21,
			"componentType":5126,
			"count":42,
			"type":"VEC3"
		},
		{
			"bufferView":22,
			"componentType":5126,
			"count":42,
			"type":"VEC2"
		},
		{
			"bufferView":23,
			"componentType":5126,
			"count":42,
			"type":"VEC4"
		},
		{
			"bufferView":24,
			"componentType":5123,
			"count":144,
			"type":"SCALAR"
		},
		{
			"bufferView":25,
			"componentType":5126,
			"count":628,
			"max":[
				0.17098677158355713,
				0.5559074878692627,
				0.04187256470322609
			],
			"min":[
				-0.17187261581420898,
				-0.6040319204330444,
				-0.041872646659612656
			],
			"type":"VEC3"
		},
		{
			"bufferView":26,
			"componentType":5126,
			"count":628,
			"type":"VEC3"
		},
		{
			"bufferView":27,
			"componentType":5123,
			"count":3744,
			"type":"SCALAR"
		},
		{
			"bufferView":28,
			"componentType":5126,
			"count":70,
			"max":[
				0.03962929546833038,
				0.11600928008556366,
				0.042032577097415924
			],
			"min":[
				-0.0401575043797493,
				-0.099009208381176,
				-0.039651401340961456
			],
			"type":"VEC3"
		},
		{
			"bufferView":29,
			"componentType":5126,
			"count":70,
			"type":"VEC3"
		},
		{
			"bufferView":30,
			"componentType":5123,
			"count":78,
			"type":"SCALAR"
		},
		{
			"bufferView":31,
			"componentType":5126,
			"count":98,
			"max":[
				1.1584757566452026,
				0.05090181529521942,
				0.0379018634557724
			],
			"min":[
				-1.1763625144958496,
				-0.04288521409034729,
				-0.0379018634557724
			],
			"type":"VEC3"
		},
		{
			"bufferView":32,
			"componentType":5126,
			"count":98,
			"type":"VEC3"
		},
		{
			"bufferView":33,
			"componentType":5123,
			"count":564,
			"type":"SCALAR"
		},
		{
			"bufferView":34,
			"componentType":5126,
			"count":40,
			"max":[
				0.521908164024353,
				0.5520973205566406,
				0.684073269367218
			],
			"min":[
				-0.47087836265563965,
				-0.2551911175251007,
				-0.6518381834030151
			],
			"type":"VEC3"
		},
		{
			"bufferView":35,
			"componentType":5126,
			"count":40,
			"type":"VEC3"
		},
		{
			"bufferView":36,
			"componentType":5126,
			"count":40,
			"type":"VEC2"
		},
		{
			"bufferView":37,
			"componentType":5126,
			"count":40,
			"type":"VEC4"
		},
		{
			"bufferView":38,
			"componentType":5123,
			"count":132,
			"type":"SCALAR"
		}
	],
	"bufferViews":[
		{
			"buffer":0,
			"byteLength":792,
			"byteOffset":0,
			"target":34962
		},
		{
			"buffer":0,
			"byteLength":792,
			"byteOffset":792,
			"target":34962
		},
		{
			"buffer":0,
			"byteLength":744,
			"byteOffset":1584,
			"target":34963
		},
		{
			"buffer":0,
			"byteLength":2376,
			"byteOffset":2328,
			"target":34962
		},
		{
			"buffer":0,
			"byteLength":2376,
			"byteOffset":4704,
			"target":34962
		},
		{
			"buffer":0,
			"byteLength":1584,
			"byteOffset":7080,
			"target":34962
		},
		{
			"buffer":0,
			"byteLength":456,
			"byteOffset":8664,
			"target":34963
		},
		{
			"buffer":0,
			"byteLength":588,
			"byteOffset":9120,
			"target":34962
		},
		{
			"buffer":0,
			"byteLength":588,
			"byteOffset":9708,
			"target":34962
		},
		{
			"buffer":0,
			"byteLength":392,
			"byteOffset":10296,
			"target":34962
		},
		{
			"buffer":0,
			"byteLength":784,
			"byteOffset":10688,
			"target":34962
		},
		{
			"buffer":0,
			"byteLength":408,
			"byteOffset":11472,
			"target":34963
		},
		{
			"buffer":0,
			"byteLength":864,
			"byteOffset":11880,
			"target":34962
		},
		{
			"buffer":0,
			"byteLength":864,
			"byteOffset":12744,
			"target":34962
		},
		{
			"buffer":0,
			"byteLength":816,
			"byteOffset":13608,
			"target":34963
		},
		{
			"buffer":0,
			"byteLength":480,
			"byteOffset":14424,
			"target":34962
		},
		{
			"buffer":0,
			"byteLength":480,
			"byteOffset":14904,
			"target":34962
		},
		{
			"buffer":0,
			"byteLength":320,
			"byteOffset":15384,
			"target":34962
		},
		{
			"buffer":0,
			"byteLength":640,
			"byteOffset":15704,
			"target":34962
		},
		{
			"buffer":0,
			"byteLength":288,
			"byteOffset":16344,
			"target":34963
		},
		{
			"buffer":0,
			"byteLength":504,
			"byteOffset":16632,
			"target":34962
		},
		{
			"buffer":0,
			"byteLength":504,
			"byteOffset":17136,
			"target":34962
		},
		{
			"buffer":0,
			"byteLength":336,
			"byteOffset":17640,
			"target":34962
		},
		{
			"buffer":0,
			"byteLength":672,
			"byteOffset":17976,
			"target":34962
		},
		{
			"buffer":0,
			"byteLength":288,
			"byteOffset":18648,
			"target":34963
		},
		{
			"buffer":0,
			"byteLength":7536,
			"byteOffset":18936,
			"target":34962
		},
		{
			"buffer":0,
			"byteLength":7536,
			"byteOffset":26472,
			"target":34962
		},
		{
			"buffer":0,
			"byteLength":7488,
			"byteOffset":34008,
			"target":34963
		},
		{
			"buffer":0,
			"byteLength":840,
			"byteOffset":41496,
			"target":34962
		},
		{
			"buffer":0,
			"byteLength":840,
			"byteOffset":42336,
			"target":34962
		},
		{
			"buffer":0,
			"byteLength":156,
			"byteOffset":43176,
			"target":34963
		},
		{
			"buffer":0,
			"byteLength":1176,
			"byteOffset":43332,
			"target":34962
		},
		{
			"buffer":0,
			"byteLength":1176,
			"byteOffset":44508,
			"target":34962
		},
		{
			"buffer":0,
			"byteLength":1128,
			"byteOffset":45684,
			"target":34963
		},
		{
			"buffer":0,
			"byteLength":480,
			"byteOffset":46812,
			"target":34962
		},
		{
			"buffer":0,
			"byteLength":480,
			"byteOffset":47292,
			"target":34962
		},
		{
			"buffer":0,
			"byteLength":320,
			"byteOffset":47772,
			"target":34962
		},
		{
			"buffer":0,
			"byteLength":640,
			"byteOffset":48092,
			"target":34962
		},
		{
			"buffer":0,
			"byteLength":264,
			"byteOffset":48732,
			"target":34963
		}
	],
	"buffers":[
		{
			"byteLength":48996,
			"uri":"player-4f4d25d4ba05d62693d516451f4dc114.bin"
		}
	]
}
