{
	"asset":{
		"generator":"Khronos glTF Blender I/O v4.1.63",
		"version":"2.0"
	},
	"extensionsUsed":[
		"KHR_materials_specular",
		"KHR_materials_ior"
	],
	"scene":0,
	"scenes":[
		{
			"name":"Scene",
			"nodes":[
				0,
				1,
				2,
				3,
				4,
				5,
				17
			]
		}
	],
	"nodes":[
		{
			"mesh":0,
			"name":"Arms-noimp",
			"translation":[
				3.010063648223877,
				1.4820001125335693,
				0
			]
		},
		{
			"mesh":1,
			"name":"Hat-noimp",
			"rotation":[
				-0.1299411654472351,
				0,
				0,
				0.9915217161178589
			],
			"translation":[
				3,
				2.335197687149048,
				-0.03806528449058533
			]
		},
		{
			"mesh":2,
			"name":"Head-noimp",
			"rotation":[
				0,
				-1,
				0,
				1.6292068494294654e-07
			],
			"translation":[
				3,
				1.938663363456726,
				0.014965854585170746
			]
		},
		{
			"mesh":3,
			"name":"Legs-noimp",
			"rotation":[
				0,
				-1,
				0,
				1.6292068494294654e-07
			],
			"translation":[
				3,
				0.6066666841506958,
				0
			]
		},
		{
			"mesh":4,
			"name":"Neck-noimp",
			"translation":[
				3,
				1.6916866302490234,
				0
			]
		},
		{
			"mesh":5,
			"name":"Torso-noimp",
			"rotation":[
				0,
				-1,
				0,
				1.6292068494294654e-07
			],
			"translation":[
				3,
				1.3308544158935547,
				-0.04100942239165306
			]
		},
		{
			"name":"ArmLower.R",
			"rotation":[
				0,
				5.960463056453591e-08,
				0,
				1
			],
			"translation":[
				0,
				0.5199999809265137,
				0
			]
		},
		{
			"children":[
				6
			],
			"name":"ArmUpper.R",
			"rotation":[
				1.8404170987196267e-07,
				-1.8404170987196267e-07,
				0.7071067690849304,
				0.7071067690849304
			],
			"translation":[
				-0.18000000715255737,
				0.35552799701690674,
				0
			]
		},
		{
			"name":"ArmLower.L",
			"rotation":[
				0,
				-3.552713678800501e-15,
				0,
				1
			],
			"scale":[
				1,
				0.9999999403953552,
				1
			],
			"translation":[
				0,
				0.4700000286102295,
				0
			]
		},
		{
			"children":[
				8
			],
			"name":"ArmUpper.L",
			"rotation":[
				-2.6692537957728746e-08,
				-2.6692537957728746e-08,
				-0.7071067690849304,
				0.7071067690849304
			],
			"translation":[
				0.22307230532169342,
				0.33166444301605225,
				0
			]
		},
		{
			"name":"Head",
			"translation":[
				0,
				0.5845435857772827,
				0
			]
		},
		{
			"name":"LegLower.R",
			"rotation":[
				0,
				1.5893256488652696e-08,
				0,
				1
			],
			"translation":[
				-4.440892098500626e-16,
				0.5410569310188293,
				0
			]
		},
		{
			"children":[
				11
			],
			"name":"LegUpper.R",
			"rotation":[
				0.7071067690849304,
				0,
				-0.7071067690849304,
				0
			],
			"scale":[
				1,
				0.9999999403953552,
				1
			],
			"translation":[
				-0.1313963234424591,
				0,
				0
			]
		},
		{
			"name":"LegLower.L",
			"rotation":[
				0,
				-1.5893256488652696e-08,
				0,
				1
			],
			"translation":[
				0,
				0.5400000214576721,
				0
			]
		},
		{
			"children":[
				13
			],
			"name":"LegUpper.L",
			"rotation":[
				0.7071067690849304,
				0,
				0.7071067690849304,
				0
			],
			"scale":[
				1,
				0.9999999403953552,
				1
			],
			"translation":[
				0.12999999523162842,
				0,
				0
			]
		},
		{
			"children":[
				7,
				9,
				10,
				12,
				14
			],
			"name":"Torso",
			"translation":[
				-0.0018352092010900378,
				-0.04557347297668457,
				0
			]
		},
		{
			"mesh":6,
			"name":"Player",
			"skin":0
		},
		{
			"children":[
				16,
				15
			],
			"name":"Armature",
			"translation":[
				0.0018352092010900378,
				1.1851900815963745,
				0
			]
		}
	],
	"materials":[
		{
			"doubleSided":true,
			"extensions":{
				"KHR_materials_specular":{
					"specularFactor":0
				}
			},
			"name":"Limbs",
			"pbrMetallicRoughness":{
				"baseColorFactor":[
					0,
					0,
					0,
					1
				],
				"metallicFactor":0
			}
		},
		{
			"doubleSided":true,
			"extensions":{
				"KHR_materials_specular":{
					"specularFactor":0
				},
				"KHR_materials_ior":{
					"ior":1.4500000476837158
				}
			},
			"name":"Misc",
			"pbrMetallicRoughness":{
				"baseColorFactor":[
					0.1886836588382721,
					0.059504978358745575,
					0.048867423087358475,
					1
				],
				"metallicFactor":0
			}
		},
		{
			"doubleSided":true,
			"extensions":{
				"KHR_materials_specular":{
					"specularFactor":0
				}
			},
			"name":"Body",
			"pbrMetallicRoughness":{
				"baseColorFactor":[
					0.000925519794691354,
					0.8003851175308228,
					0.008372455835342407,
					1
				],
				"metallicFactor":0
			}
		}
	],
	"meshes":[
		{
			"name":"Vert.006",
			"primitives":[
				{
					"attributes":{
						"POSITION":0,
						"NORMAL":1
					},
					"indices":2,
					"material":0
				}
			]
		},
		{
			"name":"Cube.004",
			"primitives":[
				{
					"attributes":{
						"POSITION":3,
						"NORMAL":4,
						"TEXCOORD_0":5,
						"TANGENT":6
					},
					"indices":7,
					"material":1
				}
			]
		},
		{
			"name":"Cube.003",
			"primitives":[
				{
					"attributes":{
						"POSITION":8,
						"NORMAL":9,
						"TEXCOORD_0":10,
						"TANGENT":11
					},
					"indices":12,
					"material":2
				}
			]
		},
		{
			"name":"Vert.004",
			"primitives":[
				{
					"attributes":{
						"POSITION":13,
						"NORMAL":14
					},
					"indices":15,
					"material":0
				}
			]
		},
		{
			"name":"Vert.005",
			"primitives":[
				{
					"attributes":{
						"POSITION":16,
						"NORMAL":17
					},
					"indices":18,
					"material":0
				}
			]
		},
		{
			"name":"Cube.002",
			"primitives":[
				{
					"attributes":{
						"POSITION":19,
						"NORMAL":20,
						"TEXCOORD_0":21,
						"TANGENT":22
					},
					"indices":23,
					"material":2
				}
			]
		},
		{
			"name":"Vert.003",
			"primitives":[
				{
					"attributes":{
						"POSITION":24,
						"NORMAL":25,
						"TEXCOORD_0":26,
						"TANGENT":27,
						"JOINTS_0":28,
						"WEIGHTS_0":29
					},
					"indices":30,
					"material":0
				},
				{
					"attributes":{
						"POSITION":31,
						"NORMAL":32,
						"TEXCOORD_0":33,
						"TANGENT":34,
						"JOINTS_0":35,
						"WEIGHTS_0":36
					},
					"indices":7,
					"material":1
				},
				{
					"attributes":{
						"POSITION":37,
						"NORMAL":38,
						"TEXCOORD_0":39,
						"TANGENT":40,
						"JOINTS_0":41,
						"WEIGHTS_0":42
					},
					"indices":43,
					"material":2
				}
			]
		}
	],
	"skins":[
		{
			"inverseBindMatrices":44,
			"joints":[
				15,
				7,
				6,
				9,
				8,
				10,
				12,
				11,
				14,
				13
			],
			"name":"Armature"
		}
	],
	"accessors":[
		{
			"bufferView":0,
			"componentType":5126,
			"count":98,
			"max":[
				1.1584757566452026,
				0.05090181529521942,
				0.0379018634557724
			],
			"min":[
				-1.1763625144958496,
				-0.04288521409034729,
				-0.0379018634557724
			],
			"type":"VEC3"
		},
		{
			"bufferView":1,
			"componentType":5126,
			"count":98,
			"type":"VEC3"
		},
		{
			"bufferView":2,
			"componentType":5123,
			"count":564,
			"type":"SCALAR"
		},
		{
			"bufferView":3,
			"componentType":5126,
			"count":54,
			"max":[
				0.5022421479225159,
				0.5520973205566406,
				0.6769753694534302
			],
			"min":[
				-0.5030801892280579,
				-0.2551911175251007,
				-0.6804220676422119
			],
			"type":"VEC3"
		},
		{
			"bufferView":4,
			"componentType":5126,
			"count":54,
			"type":"VEC3"
		},
		{
			"bufferView":5,
			"componentType":5126,
			"count":54,
			"type":"VEC2"
		},
		{
			"bufferView":6,
			"componentType":5126,
			"count":54,
			"type":"VEC4"
		},
		{
			"bufferView":7,
			"componentType":5123,
			"count":198,
			"type":"SCALAR"
		},
		{
			"bufferView":8,
			"componentType":5126,
			"count":42,
			"max":[
				0.3028251528739929,
				0.30644553899765015,
				0.4122871458530426
			],
			"min":[
				-0.30282506346702576,
				-0.24122481048107147,
				-0.39931532740592957
			],
			"type":"VEC3"
		},
		{
			"bufferView":9,
			"componentType":5126,
			"count":42,
			"type":"VEC3"
		},
		{
			"bufferView":10,
			"componentType":5126,
			"count":42,
			"type":"VEC2"
		},
		{
			"bufferView":11,
			"componentType":5126,
			"count":42,
			"type":"VEC4"
		},
		{
			"bufferView":12,
			"componentType":5123,
			"count":144,
			"type":"SCALAR"
		},
		{
			"bufferView":13,
			"componentType":5126,
			"count":628,
			"max":[
				0.17098677158355713,
				0.5559074878692627,
				0.04187256470322609
			],
			"min":[
				-0.17187261581420898,
				-0.6040319204330444,
				-0.041872646659612656
			],
			"type":"VEC3"
		},
		{
			"bufferView":14,
			"componentType":5126,
			"count":628,
			"type":"VEC3"
		},
		{
			"bufferView":15,
			"componentType":5123,
			"count":3744,
			"type":"SCALAR"
		},
		{
			"bufferView":16,
			"componentType":5126,
			"count":70,
			"max":[
				0.03962929546833038,
				0.11600928008556366,
				0.042032577097415924
			],
			"min":[
				-0.0401575043797493,
				-0.099009208381176,
				-0.039651401340961456
			],
			"type":"VEC3"
		},
		{
			"bufferView":17,
			"componentType":5126,
			"count":70,
			"type":"VEC3"
		},
		{
			"bufferView":18,
			"componentType":5123,
			"count":78,
			"type":"SCALAR"
		},
		{
			"bufferView":19,
			"componentType":5126,
			"count":40,
			"max":[
				0.3066713511943817,
				0.3443833887577057,
				0.2776981294155121
			],
			"min":[
				-0.3066713213920593,
				-0.3066956102848053,
				-0.3677407205104828
			],
			"type":"VEC3"
		},
		{
			"bufferView":20,
			"componentType":5126,
			"count":40,
			"type":"VEC3"
		},
		{
			"bufferView":21,
			"componentType":5126,
			"count":40,
			"type":"VEC2"
		},
		{
			"bufferView":22,
			"componentType":5126,
			"count":40,
			"type":"VEC4"
		},
		{
			"bufferView":23,
			"componentType":5123,
			"count":144,
			"type":"SCALAR"
		},
		{
			"bufferView":24,
			"componentType":5126,
			"count":796,
			"max":[
				1.1685394048690796,
				1.8076958656311035,
				0.042032577097415924
			],
			"min":[
				-1.1662988662719727,
				0.002634763717651367,
				-0.04187260568141937
			],
			"type":"VEC3"
		},
		{
			"bufferView":25,
			"componentType":5126,
			"count":796,
			"type":"VEC3"
		},
		{
			"bufferView":26,
			"componentType":5126,
			"count":796,
			"type":"VEC2"
		},
		{
			"bufferView":27,
			"componentType":5126,
			"count":796,
			"type":"VEC4"
		},
		{
			"bufferView":28,
			"componentType":5121,
			"count":796,
			"type":"VEC4"
		},
		{
			"bufferView":29,
			"componentType":5126,
			"count":796,
			"type":"VEC4"
		},
		{
			"bufferView":30,
			"componentType":5123,
			"count":4386,
			"type":"SCALAR"
		},
		{
			"bufferView":31,
			"componentType":5126,
			"count":54,
			"max":[
				0.5022421479225159,
				2.8604347705841064,
				0.6682405471801758
			],
			"min":[
				-0.5030801892280579,
				1.9946198463439941,
				-0.6590776443481445
			],
			"type":"VEC3"
		},
		{
			"bufferView":32,
			"componentType":5126,
			"count":54,
			"type":"VEC3"
		},
		{
			"bufferView":33,
			"componentType":5126,
			"count":54,
			"type":"VEC2"
		},
		{
			"bufferView":34,
			"componentType":5126,
			"count":54,
			"type":"VEC4"
		},
		{
			"bufferView":35,
			"componentType":5121,
			"count":54,
			"type":"VEC4"
		},
		{
			"bufferView":36,
			"componentType":5126,
			"count":54,
			"type":"VEC4"
		},
		{
			"bufferView":37,
			"componentType":5126,
			"count":82,
			"max":[
				0.3066713213920593,
				2.2451088428497314,
				0.4142812192440033
			],
			"min":[
				-0.3066713511943817,
				1.0241588354110718,
				-0.39732125401496887
			],
			"type":"VEC3"
		},
		{
			"bufferView":38,
			"componentType":5126,
			"count":82,
			"type":"VEC3"
		},
		{
			"bufferView":39,
			"componentType":5126,
			"count":82,
			"type":"VEC2"
		},
		{
			"bufferView":40,
			"componentType":5126,
			"count":82,
			"type":"VEC4"
		},
		{
			"bufferView":41,
			"componentType":5121,
			"count":82,
			"type":"VEC4"
		},
		{
			"bufferView":42,
			"componentType":5126,
			"count":82,
			"type":"VEC4"
		},
		{
			"bufferView":43,
			"componentType":5123,
			"count":288,
			"type":"SCALAR"
		},
		{
			"bufferView":44,
			"componentType":5126,
			"count":10,
			"type":"MAT4"
		}
	],
	"bufferViews":[
		{
			"buffer":0,
			"byteLength":1176,
			"byteOffset":0,
			"target":34962
		},
		{
			"buffer":0,
			"byteLength":1176,
			"byteOffset":1176,
			"target":34962
		},
		{
			"buffer":0,
			"byteLength":1128,
			"byteOffset":2352,
			"target":34963
		},
		{
			"buffer":0,
			"byteLength":648,
			"byteOffset":3480,
			"target":34962
		},
		{
			"buffer":0,
			"byteLength":648,
			"byteOffset":4128,
			"target":34962
		},
		{
			"buffer":0,
			"byteLength":432,
			"byteOffset":4776,
			"target":34962
		},
		{
			"buffer":0,
			"byteLength":864,
			"byteOffset":5208,
			"target":34962
		},
		{
			"buffer":0,
			"byteLength":396,
			"byteOffset":6072,
			"target":34963
		},
		{
			"buffer":0,
			"byteLength":504,
			"byteOffset":6468,
			"target":34962
		},
		{
			"buffer":0,
			"byteLength":504,
			"byteOffset":6972,
			"target":34962
		},
		{
			"buffer":0,
			"byteLength":336,
			"byteOffset":7476,
			"target":34962
		},
		{
			"buffer":0,
			"byteLength":672,
			"byteOffset":7812,
			"target":34962
		},
		{
			"buffer":0,
			"byteLength":288,
			"byteOffset":8484,
			"target":34963
		},
		{
			"buffer":0,
			"byteLength":7536,
			"byteOffset":8772,
			"target":34962
		},
		{
			"buffer":0,
			"byteLength":7536,
			"byteOffset":16308,
			"target":34962
		},
		{
			"buffer":0,
			"byteLength":7488,
			"byteOffset":23844,
			"target":34963
		},
		{
			"buffer":0,
			"byteLength":840,
			"byteOffset":31332,
			"target":34962
		},
		{
			"buffer":0,
			"byteLength":840,
			"byteOffset":32172,
			"target":34962
		},
		{
			"buffer":0,
			"byteLength":156,
			"byteOffset":33012,
			"target":34963
		},
		{
			"buffer":0,
			"byteLength":480,
			"byteOffset":33168,
			"target":34962
		},
		{
			"buffer":0,
			"byteLength":480,
			"byteOffset":33648,
			"target":34962
		},
		{
			"buffer":0,
			"byteLength":320,
			"byteOffset":34128,
			"target":34962
		},
		{
			"buffer":0,
			"byteLength":640,
			"byteOffset":34448,
			"target":34962
		},
		{
			"buffer":0,
			"byteLength":288,
			"byteOffset":35088,
			"target":34963
		},
		{
			"buffer":0,
			"byteLength":9552,
			"byteOffset":35376,
			"target":34962
		},
		{
			"buffer":0,
			"byteLength":9552,
			"byteOffset":44928,
			"target":34962
		},
		{
			"buffer":0,
			"byteLength":6368,
			"byteOffset":54480,
			"target":34962
		},
		{
			"buffer":0,
			"byteLength":12736,
			"byteOffset":60848,
			"target":34962
		},
		{
			"buffer":0,
			"byteLength":3184,
			"byteOffset":73584,
			"target":34962
		},
		{
			"buffer":0,
			"byteLength":12736,
			"byteOffset":76768,
			"target":34962
		},
		{
			"buffer":0,
			"byteLength":8772,
			"byteOffset":89504,
			"target":34963
		},
		{
			"buffer":0,
			"byteLength":648,
			"byteOffset":98276,
			"target":34962
		},
		{
			"buffer":0,
			"byteLength":648,
			"byteOffset":98924,
			"target":34962
		},
		{
			"buffer":0,
			"byteLength":432,
			"byteOffset":99572,
			"target":34962
		},
		{
			"buffer":0,
			"byteLength":864,
			"byteOffset":100004,
			"target":34962
		},
		{
			"buffer":0,
			"byteLength":216,
			"byteOffset":100868,
			"target":34962
		},
		{
			"buffer":0,
			"byteLength":864,
			"byteOffset":101084,
			"target":34962
		},
		{
			"buffer":0,
			"byteLength":984,
			"byteOffset":101948,
			"target":34962
		},
		{
			"buffer":0,
			"byteLength":984,
			"byteOffset":102932,
			"target":34962
		},
		{
			"buffer":0,
			"byteLength":656,
			"byteOffset":103916,
			"target":34962
		},
		{
			"buffer":0,
			"byteLength":1312,
			"byteOffset":104572,
			"target":34962
		},
		{
			"buffer":0,
			"byteLength":328,
			"byteOffset":105884,
			"target":34962
		},
		{
			"buffer":0,
			"byteLength":1312,
			"byteOffset":106212,
			"target":34962
		},
		{
			"buffer":0,
			"byteLength":576,
			"byteOffset":107524,
			"target":34963
		},
		{
			"buffer":0,
			"byteLength":640,
			"byteOffset":108100
		}
	],
	"buffers":[
		{
			"byteLength":108740,
			"uri":"player-4f4d25d4ba05d62693d516451f4dc114.bin"
		}
	]
}
