{
	"asset":{
		"generator":"Khronos glTF Blender I/O v4.2.57",
		"version":"2.0"
	},
	"extensionsUsed":[
		"KHR_materials_emissive_strength",
		"KHR_materials_specular"
	],
	"scene":0,
	"scenes":[
		{
			"name":"Scene",
			"nodes":[
				0,
				1,
				2,
				3,
				4
			]
		}
	],
	"nodes":[
		{
			"mesh":0,
			"name":"Room-col"
		},
		{
			"mesh":1,
			"name":"Light",
			"rotation":[
				0.7071068286895752,
				0,
				0,
				0.7071068286895752
			],
			"translation":[
				10,
				11,
				0
			]
		},
		{
			"mesh":2,
			"name":"Cube-noimp"
		},
		{
			"name":"Front",
			"translation":[
				0,
				0,
				30
			]
		},
		{
			"mesh":3,
			"name":"Cube-col",
			"translation":[
				1.534581184387207,
				2.2019548416137695,
				11
			]
		}
	],
	"materials":[
		{
			"doubleSided":true,
			"name":"Material",
			"pbrMetallicRoughness":{
				"baseColorFactor":[
					0.800000011920929,
					0.800000011920929,
					0.800000011920929,
					1
				],
				"metallicFactor":0,
				"roughnessFactor":0.5
			}
		},
		{
			"doubleSided":true,
			"extensions":{
				"KHR_materials_specular":{
					"specularFactor":0
				}
			},
			"name":"Hole",
			"pbrMetallicRoughness":{
				"baseColorFactor":[
					0,
					0,
					0,
					1
				],
				"metallicFactor":0
			}
		},
		{
			"doubleSided":true,
			"emissiveFactor":[
				1,
				1,
				1
			],
			"extensions":{
				"KHR_materials_emissive_strength":{
					"emissiveStrength":10
				}
			},
			"name":"Light",
			"pbrMetallicRoughness":{
				"metallicFactor":0,
				"roughnessFactor":0.5
			}
		},
		{
			"doubleSided":true,
			"name":"Light2",
			"pbrMetallicRoughness":{
				"baseColorFactor":[
					0.044314224272966385,
					0.044314224272966385,
					0.044314224272966385,
					1
				],
				"metallicFactor":0,
				"roughnessFactor":0.5
			}
		}
	],
	"meshes":[
		{
			"name":"Cube.001",
			"primitives":[
				{
					"attributes":{
						"POSITION":0,
						"NORMAL":1,
						"TEXCOORD_0":2
					},
					"indices":3,
					"material":0
				},
				{
					"attributes":{
						"POSITION":4,
						"NORMAL":5,
						"TEXCOORD_0":6
					},
					"indices":7,
					"material":1
				}
			]
		},
		{
			"name":"Cylinder",
			"primitives":[
				{
					"attributes":{
						"POSITION":8,
						"NORMAL":9,
						"TEXCOORD_0":10
					},
					"indices":11,
					"material":2
				},
				{
					"attributes":{
						"POSITION":12,
						"NORMAL":13,
						"TEXCOORD_0":14
					},
					"indices":15,
					"material":3
				}
			]
		},
		{
			"name":"Cube",
			"primitives":[
				{
					"attributes":{
						"POSITION":16,
						"NORMAL":17,
						"TEXCOORD_0":18
					},
					"indices":19,
					"material":0
				},
				{
					"attributes":{
						"POSITION":20,
						"NORMAL":21,
						"TEXCOORD_0":22
					},
					"indices":23,
					"material":1
				}
			]
		},
		{
			"name":"Cube.003",
			"primitives":[
				{
					"attributes":{
						"POSITION":24,
						"NORMAL":25,
						"TEXCOORD_0":26,
						"TANGENT":27
					},
					"indices":28
				}
			]
		}
	],
	"accessors":[
		{
			"bufferView":0,
			"componentType":5126,
			"count":149,
			"max":[
				10,
				72,
				15
			],
			"min":[
				-10,
				-8.79804515838623,
				-10
			],
			"type":"VEC3"
		},
		{
			"bufferView":1,
			"componentType":5126,
			"count":149,
			"type":"VEC3"
		},
		{
			"bufferView":2,
			"componentType":5126,
			"count":149,
			"type":"VEC2"
		},
		{
			"bufferView":3,
			"componentType":5123,
			"count":378,
			"type":"SCALAR"
		},
		{
			"bufferView":4,
			"componentType":5126,
			"count":16,
			"max":[
				3.3333330154418945,
				72,
				3.3333332538604736
			],
			"min":[
				-3.3333334922790527,
				12,
				-3.3333334922790527
			],
			"type":"VEC3"
		},
		{
			"bufferView":5,
			"componentType":5126,
			"count":16,
			"type":"VEC3"
		},
		{
			"bufferView":6,
			"componentType":5126,
			"count":16,
			"type":"VEC2"
		},
		{
			"bufferView":7,
			"componentType":5123,
			"count":24,
			"type":"SCALAR"
		},
		{
			"bufferView":8,
			"componentType":5126,
			"count":64,
			"max":[
				0.1524757742881775,
				2.233320951461792,
				0.1524755358695984
			],
			"min":[
				-20.152475357055664,
				-2.233320951461792,
				-0.15247589349746704
			],
			"type":"VEC3"
		},
		{
			"bufferView":9,
			"componentType":5126,
			"count":64,
			"type":"VEC3"
		},
		{
			"bufferView":10,
			"componentType":5126,
			"count":64,
			"type":"VEC2"
		},
		{
			"bufferView":11,
			"componentType":5123,
			"count":96,
			"type":"SCALAR"
		},
		{
			"bufferView":12,
			"componentType":5126,
			"count":260,
			"max":[
				0.1814630627632141,
				2.500000238418579,
				0.1814631223678589
			],
			"min":[
				-20.18146324157715,
				-2.500000238418579,
				-0.18146318197250366
			],
			"type":"VEC3"
		},
		{
			"bufferView":13,
			"componentType":5126,
			"count":260,
			"type":"VEC3"
		},
		{
			"bufferView":14,
			"componentType":5126,
			"count":260,
			"type":"VEC2"
		},
		{
			"bufferView":15,
			"componentType":5123,
			"count":648,
			"type":"SCALAR"
		},
		{
			"bufferView":16,
			"componentType":5126,
			"count":385,
			"max":[
				12,
				73.33333587646484,
				19
			],
			"min":[
				-12,
				-10.79804515838623,
				-12
			],
			"type":"VEC3"
		},
		{
			"bufferView":17,
			"componentType":5126,
			"count":385,
			"type":"VEC3"
		},
		{
			"bufferView":18,
			"componentType":5126,
			"count":385,
			"type":"VEC2"
		},
		{
			"bufferView":19,
			"componentType":5123,
			"count":756,
			"type":"SCALAR"
		},
		{
			"bufferView":20,
			"componentType":5126,
			"count":32,
			"max":[
				4.666666507720947,
				73.33333587646484,
				4.666666507720947
			],
			"min":[
				-4.6666669845581055,
				12,
				-4.6666669845581055
			],
			"type":"VEC3"
		},
		{
			"bufferView":21,
			"componentType":5126,
			"count":32,
			"type":"VEC3"
		},
		{
			"bufferView":22,
			"componentType":5126,
			"count":32,
			"type":"VEC2"
		},
		{
			"bufferView":23,
			"componentType":5123,
			"count":48,
			"type":"SCALAR"
		},
		{
			"bufferView":24,
			"componentType":5126,
			"count":24,
			"max":[
				1,
				2.596090316772461,
				0
			],
			"min":[
				-4.069162368774414,
				-1,
				-1
			],
			"type":"VEC3"
		},
		{
			"bufferView":25,
			"componentType":5126,
			"count":24,
			"type":"VEC3"
		},
		{
			"bufferView":26,
			"componentType":5126,
			"count":24,
			"type":"VEC2"
		},
		{
			"bufferView":27,
			"componentType":5126,
			"count":24,
			"type":"VEC4"
		},
		{
			"bufferView":28,
			"componentType":5123,
			"count":36,
			"type":"SCALAR"
		}
	],
	"bufferViews":[
		{
			"buffer":0,
			"byteLength":1788,
			"byteOffset":0,
			"target":34962
		},
		{
			"buffer":0,
			"byteLength":1788,
			"byteOffset":1788,
			"target":34962
		},
		{
			"buffer":0,
			"byteLength":1192,
			"byteOffset":3576,
			"target":34962
		},
		{
			"buffer":0,
			"byteLength":756,
			"byteOffset":4768,
			"target":34963
		},
		{
			"buffer":0,
			"byteLength":192,
			"byteOffset":5524,
			"target":34962
		},
		{
			"buffer":0,
			"byteLength":192,
			"byteOffset":5716,
			"target":34962
		},
		{
			"buffer":0,
			"byteLength":128,
			"byteOffset":5908,
			"target":34962
		},
		{
			"buffer":0,
			"byteLength":48,
			"byteOffset":6036,
			"target":34963
		},
		{
			"buffer":0,
			"byteLength":768,
			"byteOffset":6084,
			"target":34962
		},
		{
			"buffer":0,
			"byteLength":768,
			"byteOffset":6852,
			"target":34962
		},
		{
			"buffer":0,
			"byteLength":512,
			"byteOffset":7620,
			"target":34962
		},
		{
			"buffer":0,
			"byteLength":192,
			"byteOffset":8132,
			"target":34963
		},
		{
			"buffer":0,
			"byteLength":3120,
			"byteOffset":8324,
			"target":34962
		},
		{
			"buffer":0,
			"byteLength":3120,
			"byteOffset":11444,
			"target":34962
		},
		{
			"buffer":0,
			"byteLength":2080,
			"byteOffset":14564,
			"target":34962
		},
		{
			"buffer":0,
			"byteLength":1296,
			"byteOffset":16644,
			"target":34963
		},
		{
			"buffer":0,
			"byteLength":4620,
			"byteOffset":17940,
			"target":34962
		},
		{
			"buffer":0,
			"byteLength":4620,
			"byteOffset":22560,
			"target":34962
		},
		{
			"buffer":0,
			"byteLength":3080,
			"byteOffset":27180,
			"target":34962
		},
		{
			"buffer":0,
			"byteLength":1512,
			"byteOffset":30260,
			"target":34963
		},
		{
			"buffer":0,
			"byteLength":384,
			"byteOffset":31772,
			"target":34962
		},
		{
			"buffer":0,
			"byteLength":384,
			"byteOffset":32156,
			"target":34962
		},
		{
			"buffer":0,
			"byteLength":256,
			"byteOffset":32540,
			"target":34962
		},
		{
			"buffer":0,
			"byteLength":96,
			"byteOffset":32796,
			"target":34963
		},
		{
			"buffer":0,
			"byteLength":288,
			"byteOffset":32892,
			"target":34962
		},
		{
			"buffer":0,
			"byteLength":288,
			"byteOffset":33180,
			"target":34962
		},
		{
			"buffer":0,
			"byteLength":192,
			"byteOffset":33468,
			"target":34962
		},
		{
			"buffer":0,
			"byteLength":384,
			"byteOffset":33660,
			"target":34962
		},
		{
			"buffer":0,
			"byteLength":72,
			"byteOffset":34044,
			"target":34963
		}
	],
	"buffers":[
		{
			"byteLength":34116,
			"uri":"player_hub-eb3e1f6544b2bbe6e8ab0151b8e07e9f.bin"
		}
	]
}
