{
	"asset":{
		"generator":"Khronos glTF Blender I/O v4.1.63",
		"version":"2.0"
	},
	"extensionsUsed":[
		"KHR_materials_emissive_strength"
	],
	"scene":0,
	"scenes":[
		{
			"name":"Scene",
			"nodes":[
				0,
				1,
				2
			]
		}
	],
	"nodes":[
		{
			"mesh":0,
			"name":"Room"
		},
		{
			"mesh":1,
			"name":"Light",
			"rotation":[
				0.7071068286895752,
				0,
				0,
				0.7071068286895752
			],
			"translation":[
				10,
				11,
				0
			]
		},
		{
			"mesh":2,
			"name":"Cube-colonly"
		}
	],
	"materials":[
		{
			"doubleSided":true,
			"emissiveFactor":[
				1,
				1,
				1
			],
			"extensions":{
				"KHR_materials_emissive_strength":{
					"emissiveStrength":10
				}
			},
			"name":"Light",
			"pbrMetallicRoughness":{
				"metallicFactor":0,
				"roughnessFactor":0.5
			}
		},
		{
			"doubleSided":true,
			"name":"Light2",
			"pbrMetallicRoughness":{
				"baseColorFactor":[
					0.044314224272966385,
					0.044314224272966385,
					0.044314224272966385,
					1
				],
				"metallicFactor":0,
				"roughnessFactor":0.5
			}
		}
	],
	"meshes":[
		{
			"name":"Cube.001",
			"primitives":[
				{
					"attributes":{
						"POSITION":0,
						"NORMAL":1,
						"TEXCOORD_0":2,
						"TANGENT":3
					},
					"indices":4
				}
			]
		},
		{
			"name":"Cylinder",
			"primitives":[
				{
					"attributes":{
						"POSITION":5,
						"NORMAL":6,
						"TEXCOORD_0":7
					},
					"indices":8,
					"material":0
				},
				{
					"attributes":{
						"POSITION":9,
						"NORMAL":10,
						"TEXCOORD_0":11
					},
					"indices":12,
					"material":1
				}
			]
		},
		{
			"name":"Cube",
			"primitives":[
				{
					"attributes":{
						"POSITION":13,
						"NORMAL":14,
						"TEXCOORD_0":15,
						"TANGENT":16
					},
					"indices":17
				}
			]
		}
	],
	"accessors":[
		{
			"bufferView":0,
			"componentType":5126,
			"count":24,
			"max":[
				10,
				12,
				10
			],
			"min":[
				-10,
				0,
				-10
			],
			"type":"VEC3"
		},
		{
			"bufferView":1,
			"componentType":5126,
			"count":24,
			"type":"VEC3"
		},
		{
			"bufferView":2,
			"componentType":5126,
			"count":24,
			"type":"VEC2"
		},
		{
			"bufferView":3,
			"componentType":5126,
			"count":24,
			"type":"VEC4"
		},
		{
			"bufferView":4,
			"componentType":5123,
			"count":36,
			"type":"SCALAR"
		},
		{
			"bufferView":5,
			"componentType":5126,
			"count":64,
			"max":[
				0.1524757742881775,
				2.233320951461792,
				0.1524755358695984
			],
			"min":[
				-20.152475357055664,
				-2.233320951461792,
				-0.15247589349746704
			],
			"type":"VEC3"
		},
		{
			"bufferView":6,
			"componentType":5126,
			"count":64,
			"type":"VEC3"
		},
		{
			"bufferView":7,
			"componentType":5126,
			"count":64,
			"type":"VEC2"
		},
		{
			"bufferView":8,
			"componentType":5123,
			"count":96,
			"type":"SCALAR"
		},
		{
			"bufferView":9,
			"componentType":5126,
			"count":260,
			"max":[
				0.1814630627632141,
				2.500000238418579,
				0.1814631223678589
			],
			"min":[
				-20.18146324157715,
				-2.500000238418579,
				-0.18146318197250366
			],
			"type":"VEC3"
		},
		{
			"bufferView":10,
			"componentType":5126,
			"count":260,
			"type":"VEC3"
		},
		{
			"bufferView":11,
			"componentType":5126,
			"count":260,
			"type":"VEC2"
		},
		{
			"bufferView":12,
			"componentType":5123,
			"count":648,
			"type":"SCALAR"
		},
		{
			"bufferView":13,
			"componentType":5126,
			"count":48,
			"max":[
				13.333335876464844,
				15.333335876464844,
				13.333335876464844
			],
			"min":[
				-13.333335876464844,
				-3.3333353996276855,
				-13.333335876464844
			],
			"type":"VEC3"
		},
		{
			"bufferView":14,
			"componentType":5126,
			"count":48,
			"type":"VEC3"
		},
		{
			"bufferView":15,
			"componentType":5126,
			"count":48,
			"type":"VEC2"
		},
		{
			"bufferView":16,
			"componentType":5126,
			"count":48,
			"type":"VEC4"
		},
		{
			"bufferView":17,
			"componentType":5123,
			"count":72,
			"type":"SCALAR"
		}
	],
	"bufferViews":[
		{
			"buffer":0,
			"byteLength":288,
			"byteOffset":0,
			"target":34962
		},
		{
			"buffer":0,
			"byteLength":288,
			"byteOffset":288,
			"target":34962
		},
		{
			"buffer":0,
			"byteLength":192,
			"byteOffset":576,
			"target":34962
		},
		{
			"buffer":0,
			"byteLength":384,
			"byteOffset":768,
			"target":34962
		},
		{
			"buffer":0,
			"byteLength":72,
			"byteOffset":1152,
			"target":34963
		},
		{
			"buffer":0,
			"byteLength":768,
			"byteOffset":1224,
			"target":34962
		},
		{
			"buffer":0,
			"byteLength":768,
			"byteOffset":1992,
			"target":34962
		},
		{
			"buffer":0,
			"byteLength":512,
			"byteOffset":2760,
			"target":34962
		},
		{
			"buffer":0,
			"byteLength":192,
			"byteOffset":3272,
			"target":34963
		},
		{
			"buffer":0,
			"byteLength":3120,
			"byteOffset":3464,
			"target":34962
		},
		{
			"buffer":0,
			"byteLength":3120,
			"byteOffset":6584,
			"target":34962
		},
		{
			"buffer":0,
			"byteLength":2080,
			"byteOffset":9704,
			"target":34962
		},
		{
			"buffer":0,
			"byteLength":1296,
			"byteOffset":11784,
			"target":34963
		},
		{
			"buffer":0,
			"byteLength":576,
			"byteOffset":13080,
			"target":34962
		},
		{
			"buffer":0,
			"byteLength":576,
			"byteOffset":13656,
			"target":34962
		},
		{
			"buffer":0,
			"byteLength":384,
			"byteOffset":14232,
			"target":34962
		},
		{
			"buffer":0,
			"byteLength":768,
			"byteOffset":14616,
			"target":34962
		},
		{
			"buffer":0,
			"byteLength":144,
			"byteOffset":15384,
			"target":34963
		}
	],
	"buffers":[
		{
			"byteLength":15528,
			"uri":"player_hub-eb3e1f6544b2bbe6e8ab0151b8e07e9f.bin"
		}
	]
}
