{
	"asset":{
		"generator":"Khronos glTF Blender I/O v4.1.63",
		"version":"2.0"
	},
	"scene":0,
	"scenes":[
		{
			"name":"Scene",
			"nodes":[
				0,
				1
			]
		}
	],
	"nodes":[
		{
			"mesh":0,
			"name":"Sphere",
			"translation":[
				0,
				11.657697677612305,
				0
			]
		},
		{
			"mesh":1,
			"name":"Cylinder",
			"translation":[
				0,
				1,
				0
			]
		}
	],
	"materials":[
		{
			"doubleSided":true,
			"name":"Material.001",
			"pbrMetallicRoughness":{
				"baseColorFactor":[
					0,
					0,
					0,
					1
				],
				"metallicFactor":0,
				"roughnessFactor":0.5
			}
		},
		{
			"doubleSided":true,
			"name":"Material",
			"pbrMetallicRoughness":{
				"baseColorFactor":[
					0.003579688724130392,
					0.031311243772506714,
					0.04644223302602768,
					1
				],
				"metallicFactor":0
			}
		}
	],
	"meshes":[
		{
			"name":"Sphere",
			"primitives":[
				{
					"attributes":{
						"POSITION":0,
						"NORMAL":1,
						"TEXCOORD_0":2,
						"TANGENT":3
					},
					"indices":4,
					"material":0
				}
			]
		},
		{
			"name":"Cylinder",
			"primitives":[
				{
					"attributes":{
						"POSITION":5,
						"NORMAL":6,
						"TEXCOORD_0":7
					},
					"indices":8,
					"material":1
				}
			]
		}
	],
	"accessors":[
		{
			"bufferView":0,
			"componentType":5126,
			"count":559,
			"max":[
				0.9999997019767761,
				0.7182461619377136,
				0.9999993443489075
			],
			"min":[
				-0.9999990463256836,
				-0.8354209065437317,
				-1
			],
			"type":"VEC3"
		},
		{
			"bufferView":1,
			"componentType":5126,
			"count":559,
			"type":"VEC3"
		},
		{
			"bufferView":2,
			"componentType":5126,
			"count":559,
			"type":"VEC2"
		},
		{
			"bufferView":3,
			"componentType":5126,
			"count":559,
			"type":"VEC4"
		},
		{
			"bufferView":4,
			"componentType":5123,
			"count":2880,
			"type":"SCALAR"
		},
		{
			"bufferView":5,
			"componentType":5126,
			"count":1194,
			"max":[
				1.6900001764297485,
				9.907022476196289,
				1.6900001764297485
			],
			"min":[
				-1.6900001764297485,
				-1,
				-1.6900001764297485
			],
			"type":"VEC3"
		},
		{
			"bufferView":6,
			"componentType":5126,
			"count":1194,
			"type":"VEC3"
		},
		{
			"bufferView":7,
			"componentType":5126,
			"count":1194,
			"type":"VEC2"
		},
		{
			"bufferView":8,
			"componentType":5123,
			"count":4788,
			"type":"SCALAR"
		}
	],
	"bufferViews":[
		{
			"buffer":0,
			"byteLength":6708,
			"byteOffset":0,
			"target":34962
		},
		{
			"buffer":0,
			"byteLength":6708,
			"byteOffset":6708,
			"target":34962
		},
		{
			"buffer":0,
			"byteLength":4472,
			"byteOffset":13416,
			"target":34962
		},
		{
			"buffer":0,
			"byteLength":8944,
			"byteOffset":17888,
			"target":34962
		},
		{
			"buffer":0,
			"byteLength":5760,
			"byteOffset":26832,
			"target":34963
		},
		{
			"buffer":0,
			"byteLength":14328,
			"byteOffset":32592,
			"target":34962
		},
		{
			"buffer":0,
			"byteLength":14328,
			"byteOffset":46920,
			"target":34962
		},
		{
			"buffer":0,
			"byteLength":9552,
			"byteOffset":61248,
			"target":34962
		},
		{
			"buffer":0,
			"byteLength":9576,
			"byteOffset":70800,
			"target":34963
		}
	],
	"buffers":[
		{
			"byteLength":80376,
			"uri":"powerpole-cfa38054cb67b2072515d5f3c5be2b5b.bin"
		}
	]
}
