{
	"asset":{
		"generator":"Khronos glTF Blender I/O v4.1.63",
		"version":"2.0"
	},
	"scene":0,
	"scenes":[
		{
			"name":"Scene",
			"nodes":[
				0
			]
		}
	],
	"nodes":[
		{
			"mesh":0,
			"name":"Cube",
			"translation":[
				0,
				1,
				0
			]
		}
	],
	"materials":[
		{
			"doubleSided":true,
			"name":"Material",
			"pbrMetallicRoughness":{
				"baseColorFactor":[
					0.05087411403656006,
					0.020593825727701187,
					0.010711110197007656,
					1
				],
				"metallicFactor":0
			}
		}
	],
	"meshes":[
		{
			"name":"Cube.001",
			"primitives":[
				{
					"attributes":{
						"POSITION":0,
						"NORMAL":1,
						"TEXCOORD_0":2
					},
					"indices":3,
					"material":0
				}
			]
		}
	],
	"accessors":[
		{
			"bufferView":0,
			"componentType":5126,
			"count":1296,
			"max":[
				2,
				2.8483810424804688,
				0.787111222743988
			],
			"min":[
				-2,
				-1.7159581184387207,
				-0.787111222743988
			],
			"type":"VEC3"
		},
		{
			"bufferView":1,
			"componentType":5126,
			"count":1296,
			"type":"VEC3"
		},
		{
			"bufferView":2,
			"componentType":5126,
			"count":1296,
			"type":"VEC2"
		},
		{
			"bufferView":3,
			"componentType":5123,
			"count":5040,
			"type":"SCALAR"
		}
	],
	"bufferViews":[
		{
			"buffer":0,
			"byteLength":15552,
			"byteOffset":0,
			"target":34962
		},
		{
			"buffer":0,
			"byteLength":15552,
			"byteOffset":15552,
			"target":34962
		},
		{
			"buffer":0,
			"byteLength":10368,
			"byteOffset":31104,
			"target":34962
		},
		{
			"buffer":0,
			"byteLength":10080,
			"byteOffset":41472,
			"target":34963
		}
	],
	"buffers":[
		{
			"byteLength":51552,
			"uri":"shelf-fe2fcd71e461ead9804398c5fd7c0a7a.bin"
		}
	]
}
