{
	"asset":{
		"generator":"Khronos glTF Blender I/O v4.1.63",
		"version":"2.0"
	},
	"extensionsUsed":[
		"KHR_materials_clearcoat"
	],
	"scene":0,
	"scenes":[
		{
			"name":"Scene",
			"nodes":[
				0
			]
		}
	],
	"nodes":[
		{
			"mesh":0,
			"name":"Sphere"
		}
	],
	"materials":[
		{
			"doubleSided":true,
			"extensions":{
				"KHR_materials_clearcoat":{
					"clearcoatFactor":1,
					"clearcoatRoughnessFactor":0
				}
			},
			"name":"Material",
			"pbrMetallicRoughness":{
				"roughnessFactor":0
			}
		}
	],
	"meshes":[
		{
			"name":"Sphere.002",
			"primitives":[
				{
					"attributes":{
						"POSITION":0,
						"NORMAL":1,
						"TEXCOORD_0":2,
						"TANGENT":3
					},
					"indices":4,
					"material":0
				}
			]
		}
	],
	"accessors":[
		{
			"bufferView":0,
			"componentType":5126,
			"count":2143,
			"max":[
				0.9999998807907104,
				1,
				0.9999997615814209
			],
			"min":[
				-0.9999997019767761,
				-1,
				-1
			],
			"type":"VEC3"
		},
		{
			"bufferView":1,
			"componentType":5126,
			"count":2143,
			"type":"VEC3"
		},
		{
			"bufferView":2,
			"componentType":5126,
			"count":2143,
			"type":"VEC2"
		},
		{
			"bufferView":3,
			"componentType":5126,
			"count":2143,
			"type":"VEC4"
		},
		{
			"bufferView":4,
			"componentType":5123,
			"count":11904,
			"type":"SCALAR"
		}
	],
	"bufferViews":[
		{
			"buffer":0,
			"byteLength":25716,
			"byteOffset":0,
			"target":34962
		},
		{
			"buffer":0,
			"byteLength":25716,
			"byteOffset":25716,
			"target":34962
		},
		{
			"buffer":0,
			"byteLength":17144,
			"byteOffset":51432,
			"target":34962
		},
		{
			"buffer":0,
			"byteLength":34288,
			"byteOffset":68576,
			"target":34962
		},
		{
			"buffer":0,
			"byteLength":23808,
			"byteOffset":102864,
			"target":34963
		}
	],
	"buffers":[
		{
			"byteLength":126672,
			"uri":"sky-8691da415c75785437aae64daf698ced.bin"
		}
	]
}
