{
	"asset":{
		"generator":"Khronos glTF Blender I/O v4.1.63",
		"version":"2.0"
	},
	"scene":0,
	"scenes":[
		{
			"name":"Scene",
			"nodes":[
				0,
				1
			]
		}
	],
	"nodes":[
		{
			"mesh":0,
			"name":"Legs",
			"translation":[
				0,
				1.27219557762146,
				0
			]
		},
		{
			"mesh":1,
			"name":"Cube",
			"translation":[
				0,
				1.9164454936981201,
				0
			]
		}
	],
	"materials":[
		{
			"doubleSided":true,
			"name":"Material",
			"pbrMetallicRoughness":{
				"baseColorFactor":[
					0.04431430995464325,
					0.013550342991948128,
					0.004496622830629349,
					1
				],
				"metallicFactor":0,
				"roughnessFactor":0.5
			}
		}
	],
	"meshes":[
		{
			"name":"Cylinder.001",
			"primitives":[
				{
					"attributes":{
						"POSITION":0,
						"NORMAL":1,
						"TEXCOORD_0":2
					},
					"indices":3,
					"material":0
				}
			]
		},
		{
			"name":"Cube.001",
			"primitives":[
				{
					"attributes":{
						"POSITION":4,
						"NORMAL":5,
						"TEXCOORD_0":6
					},
					"indices":7,
					"material":0
				}
			]
		}
	],
	"accessors":[
		{
			"bufferView":0,
			"componentType":5126,
			"count":251,
			"max":[
				0.460000216960907,
				0.5749123096466064,
				0.4600001871585846
			],
			"min":[
				-0.45999982953071594,
				-1.27219557762146,
				-0.45999985933303833
			],
			"type":"VEC3"
		},
		{
			"bufferView":1,
			"componentType":5126,
			"count":251,
			"type":"VEC3"
		},
		{
			"bufferView":2,
			"componentType":5126,
			"count":251,
			"type":"VEC2"
		},
		{
			"bufferView":3,
			"componentType":5123,
			"count":768,
			"type":"SCALAR"
		},
		{
			"bufferView":4,
			"componentType":5126,
			"count":48,
			"max":[
				0.5,
				0.09125369042158127,
				0.5
			],
			"min":[
				-0.5,
				-0.09125369787216187,
				-0.5
			],
			"type":"VEC3"
		},
		{
			"bufferView":5,
			"componentType":5126,
			"count":48,
			"type":"VEC3"
		},
		{
			"bufferView":6,
			"componentType":5126,
			"count":48,
			"type":"VEC2"
		},
		{
			"bufferView":7,
			"componentType":5123,
			"count":84,
			"type":"SCALAR"
		}
	],
	"bufferViews":[
		{
			"buffer":0,
			"byteLength":3012,
			"byteOffset":0,
			"target":34962
		},
		{
			"buffer":0,
			"byteLength":3012,
			"byteOffset":3012,
			"target":34962
		},
		{
			"buffer":0,
			"byteLength":2008,
			"byteOffset":6024,
			"target":34962
		},
		{
			"buffer":0,
			"byteLength":1536,
			"byteOffset":8032,
			"target":34963
		},
		{
			"buffer":0,
			"byteLength":576,
			"byteOffset":9568,
			"target":34962
		},
		{
			"buffer":0,
			"byteLength":576,
			"byteOffset":10144,
			"target":34962
		},
		{
			"buffer":0,
			"byteLength":384,
			"byteOffset":10720,
			"target":34962
		},
		{
			"buffer":0,
			"byteLength":168,
			"byteOffset":11104,
			"target":34963
		}
	],
	"buffers":[
		{
			"byteLength":11272,
			"uri":"stool_1-9abba1f2e3655472a98503754d65f7e3.bin"
		}
	]
}
