{
	"asset":{
		"generator":"Khronos glTF Blender I/O v4.1.63",
		"version":"2.0"
	},
	"scene":0,
	"scenes":[
		{
			"name":"Scene",
			"nodes":[
				0
			]
		}
	],
	"nodes":[
		{
			"mesh":0,
			"name":"Stool_1 -rigid",
			"translation":[
				0,
				1.9164454936981201,
				0
			]
		}
	],
	"materials":[
		{
			"doubleSided":true,
			"name":"Material",
			"pbrMetallicRoughness":{
				"baseColorFactor":[
					0.04431430995464325,
					0.013550342991948128,
					0.004496622830629349,
					1
				],
				"metallicFactor":0,
				"roughnessFactor":0.5
			}
		}
	],
	"meshes":[
		{
			"name":"Cube.001",
			"primitives":[
				{
					"attributes":{
						"POSITION":0,
						"NORMAL":1,
						"TEXCOORD_0":2
					},
					"indices":3,
					"material":0
				}
			]
		}
	],
	"accessors":[
		{
			"bufferView":0,
			"componentType":5126,
			"count":299,
			"max":[
				0.5,
				0.09125369042158127,
				0.5
			],
			"min":[
				-0.5,
				-1.9164454936981201,
				-0.5
			],
			"type":"VEC3"
		},
		{
			"bufferView":1,
			"componentType":5126,
			"count":299,
			"type":"VEC3"
		},
		{
			"bufferView":2,
			"componentType":5126,
			"count":299,
			"type":"VEC2"
		},
		{
			"bufferView":3,
			"componentType":5123,
			"count":852,
			"type":"SCALAR"
		}
	],
	"bufferViews":[
		{
			"buffer":0,
			"byteLength":3588,
			"byteOffset":0,
			"target":34962
		},
		{
			"buffer":0,
			"byteLength":3588,
			"byteOffset":3588,
			"target":34962
		},
		{
			"buffer":0,
			"byteLength":2392,
			"byteOffset":7176,
			"target":34962
		},
		{
			"buffer":0,
			"byteLength":1704,
			"byteOffset":9568,
			"target":34963
		}
	],
	"buffers":[
		{
			"byteLength":11272,
			"uri":"stool_1-84cea84ba940fb5589818786c7271fcb.bin"
		}
	]
}
