{
	"asset":{
		"generator":"Khronos glTF Blender I/O v4.1.63",
		"version":"2.0"
	},
	"scene":0,
	"scenes":[
		{
			"name":"Scene",
			"nodes":[
				0,
				1
			]
		}
	],
	"nodes":[
		{
			"mesh":0,
			"name":"Seat",
			"translation":[
				0,
				0.10000000149011612,
				0
			]
		},
		{
			"mesh":1,
			"name":"Legs",
			"translation":[
				-0.6000000238418579,
				0,
				0.6000000238418579
			]
		}
	],
	"materials":[
		{
			"doubleSided":true,
			"name":"Material",
			"pbrMetallicRoughness":{
				"baseColorFactor":[
					0.060452718287706375,
					0.012410171329975128,
					0.0037827626802027225,
					1
				],
				"metallicFactor":0,
				"roughnessFactor":0.5
			}
		}
	],
	"meshes":[
		{
			"name":"Cube.002",
			"primitives":[
				{
					"attributes":{
						"POSITION":0,
						"NORMAL":1,
						"TEXCOORD_0":2
					},
					"indices":3,
					"material":0
				}
			]
		},
		{
			"name":"Cube.003",
			"primitives":[
				{
					"attributes":{
						"POSITION":4,
						"NORMAL":5,
						"TEXCOORD_0":6,
						"TANGENT":7
					},
					"indices":8,
					"material":0
				}
			]
		}
	],
	"accessors":[
		{
			"bufferView":0,
			"componentType":5126,
			"count":48,
			"max":[
				0.8359999656677246,
				1.1218777894973755,
				0.8359999656677246
			],
			"min":[
				-0.8359999656677246,
				0.9002806544303894,
				-0.8359999656677246
			],
			"type":"VEC3"
		},
		{
			"bufferView":1,
			"componentType":5126,
			"count":48,
			"type":"VEC3"
		},
		{
			"bufferView":2,
			"componentType":5126,
			"count":48,
			"type":"VEC2"
		},
		{
			"bufferView":3,
			"componentType":5123,
			"count":84,
			"type":"SCALAR"
		},
		{
			"bufferView":4,
			"componentType":5126,
			"count":256,
			"max":[
				1.303571105003357,
				1,
				0.10357103496789932
			],
			"min":[
				-0.10357090085744858,
				0,
				-1.3035709857940674
			],
			"type":"VEC3"
		},
		{
			"bufferView":5,
			"componentType":5126,
			"count":256,
			"type":"VEC3"
		},
		{
			"bufferView":6,
			"componentType":5126,
			"count":256,
			"type":"VEC2"
		},
		{
			"bufferView":7,
			"componentType":5126,
			"count":256,
			"type":"VEC4"
		},
		{
			"bufferView":8,
			"componentType":5123,
			"count":576,
			"type":"SCALAR"
		}
	],
	"bufferViews":[
		{
			"buffer":0,
			"byteLength":576,
			"byteOffset":0,
			"target":34962
		},
		{
			"buffer":0,
			"byteLength":576,
			"byteOffset":576,
			"target":34962
		},
		{
			"buffer":0,
			"byteLength":384,
			"byteOffset":1152,
			"target":34962
		},
		{
			"buffer":0,
			"byteLength":168,
			"byteOffset":1536,
			"target":34963
		},
		{
			"buffer":0,
			"byteLength":3072,
			"byteOffset":1704,
			"target":34962
		},
		{
			"buffer":0,
			"byteLength":3072,
			"byteOffset":4776,
			"target":34962
		},
		{
			"buffer":0,
			"byteLength":2048,
			"byteOffset":7848,
			"target":34962
		},
		{
			"buffer":0,
			"byteLength":4096,
			"byteOffset":9896,
			"target":34962
		},
		{
			"buffer":0,
			"byteLength":1152,
			"byteOffset":13992,
			"target":34963
		}
	],
	"buffers":[
		{
			"byteLength":15144,
			"uri":"stool_2-4f6b24f9323826aaf2386be3d51fe5bf.bin"
		}
	]
}
