{
	"asset":{
		"generator":"Khronos glTF Blender I/O v4.1.62",
		"version":"2.0"
	},
	"scene":0,
	"scenes":[
		{
			"name":"Scene",
			"nodes":[
				0,
				1,
				2,
				3,
				4,
				5,
				6,
				7,
				8,
				9,
				10,
				11
			]
		}
	],
	"nodes":[
		{
			"mesh":0,
			"name":"Sphere -rigid",
			"translation":[
				0,
				0,
				6
			]
		},
		{
			"mesh":1,
			"name":"Suzanne -rigid",
			"translation":[
				0,
				0,
				11
			]
		},
		{
			"mesh":2,
			"name":"Cube -rigid",
			"translation":[
				97,
				11,
				30
			]
		},
		{
			"mesh":3,
			"name":"Cube2 -rigid",
			"translation":[
				92,
				11,
				30
			]
		},
		{
			"mesh":4,
			"name":"Cube3 -rigid",
			"translation":[
				92,
				11,
				35
			]
		},
		{
			"mesh":5,
			"name":"Cube4 -rigid",
			"translation":[
				97,
				11,
				35
			]
		},
		{
			"mesh":6,
			"name":"Cube5 -rigid",
			"translation":[
				97,
				11,
				40
			]
		},
		{
			"mesh":7,
			"name":"Cube6 -rigid",
			"translation":[
				92,
				11,
				40
			]
		},
		{
			"mesh":8,
			"name":"Cube7 -rigid",
			"translation":[
				92,
				11,
				45
			]
		},
		{
			"mesh":9,
			"name":"Cube8 -rigid",
			"translation":[
				97,
				11,
				45
			]
		},
		{
			"mesh":10,
			"name":"Collision -colonly"
		},
		{
			"mesh":11,
			"name":"Terrain"
		}
	],
	"materials":[
		{
			"alphaMode":"BLEND",
			"doubleSided":true,
			"name":"Transparent",
			"pbrMetallicRoughness":{
				"baseColorFactor":[
					0.800000011920929,
					0.800000011920929,
					0.800000011920929,
					0
				],
				"metallicFactor":0,
				"roughnessFactor":0.5
			}
		},
		{
			"name":"Thing",
			"pbrMetallicRoughness":{
				"baseColorFactor":[
					0.008014542981982231,
					0.8002511262893677,
					0.02161138318479061,
					1
				],
				"metallicFactor":0,
				"roughnessFactor":0.4000000059604645
			}
		}
	],
	"meshes":[
		{
			"name":"Sphere",
			"primitives":[
				{
					"attributes":{
						"POSITION":0,
						"NORMAL":1,
						"TEXCOORD_0":2,
						"TANGENT":3
					},
					"indices":4
				}
			]
		},
		{
			"name":"Suzanne",
			"primitives":[
				{
					"attributes":{
						"POSITION":5,
						"NORMAL":6,
						"TEXCOORD_0":7,
						"TANGENT":8
					},
					"indices":9
				}
			]
		},
		{
			"name":"Cube",
			"primitives":[
				{
					"attributes":{
						"POSITION":10,
						"NORMAL":11,
						"TEXCOORD_0":12,
						"TANGENT":13
					},
					"indices":14
				}
			]
		},
		{
			"name":"Cube.001",
			"primitives":[
				{
					"attributes":{
						"POSITION":15,
						"NORMAL":16,
						"TEXCOORD_0":17,
						"TANGENT":18
					},
					"indices":14
				}
			]
		},
		{
			"name":"Cube.002",
			"primitives":[
				{
					"attributes":{
						"POSITION":19,
						"NORMAL":20,
						"TEXCOORD_0":21,
						"TANGENT":22
					},
					"indices":14
				}
			]
		},
		{
			"name":"Cube.003",
			"primitives":[
				{
					"attributes":{
						"POSITION":23,
						"NORMAL":24,
						"TEXCOORD_0":25,
						"TANGENT":26
					},
					"indices":14
				}
			]
		},
		{
			"name":"Cube.004",
			"primitives":[
				{
					"attributes":{
						"POSITION":27,
						"NORMAL":28,
						"TEXCOORD_0":29,
						"TANGENT":30
					},
					"indices":14
				}
			]
		},
		{
			"name":"Cube.005",
			"primitives":[
				{
					"attributes":{
						"POSITION":31,
						"NORMAL":32,
						"TEXCOORD_0":33,
						"TANGENT":34
					},
					"indices":14
				}
			]
		},
		{
			"name":"Cube.006",
			"primitives":[
				{
					"attributes":{
						"POSITION":35,
						"NORMAL":36,
						"TEXCOORD_0":37,
						"TANGENT":38
					},
					"indices":14
				}
			]
		},
		{
			"name":"Cube.007",
			"primitives":[
				{
					"attributes":{
						"POSITION":39,
						"NORMAL":40,
						"TEXCOORD_0":41,
						"TANGENT":42
					},
					"indices":14
				}
			]
		},
		{
			"name":"Vert",
			"primitives":[
				{
					"attributes":{
						"POSITION":43,
						"NORMAL":44
					},
					"indices":45,
					"material":0
				}
			]
		},
		{
			"name":"Vert.001",
			"primitives":[
				{
					"attributes":{
						"POSITION":46,
						"NORMAL":47
					},
					"indices":48,
					"material":1
				}
			]
		}
	],
	"accessors":[
		{
			"bufferView":0,
			"componentType":5126,
			"count":1984,
			"max":[
				0.9999997019767761,
				1,
				0.9999993443489075
			],
			"min":[
				-0.9999990463256836,
				-1,
				-1
			],
			"type":"VEC3"
		},
		{
			"bufferView":1,
			"componentType":5126,
			"count":1984,
			"type":"VEC3"
		},
		{
			"bufferView":2,
			"componentType":5126,
			"count":1984,
			"type":"VEC2"
		},
		{
			"bufferView":3,
			"componentType":5126,
			"count":1984,
			"type":"VEC4"
		},
		{
			"bufferView":4,
			"componentType":5123,
			"count":2880,
			"type":"SCALAR"
		},
		{
			"bufferView":5,
			"componentType":5126,
			"count":1966,
			"max":[
				1.3671875,
				0.984375,
				0.8515625
			],
			"min":[
				-1.3671875,
				-0.984375,
				-0.8515625
			],
			"type":"VEC3"
		},
		{
			"bufferView":6,
			"componentType":5126,
			"count":1966,
			"type":"VEC3"
		},
		{
			"bufferView":7,
			"componentType":5126,
			"count":1966,
			"type":"VEC2"
		},
		{
			"bufferView":8,
			"componentType":5126,
			"count":1966,
			"type":"VEC4"
		},
		{
			"bufferView":9,
			"componentType":5123,
			"count":2904,
			"type":"SCALAR"
		},
		{
			"bufferView":10,
			"componentType":5126,
			"count":24,
			"max":[
				1,
				1,
				1
			],
			"min":[
				-1,
				-1,
				-1
			],
			"type":"VEC3"
		},
		{
			"bufferView":11,
			"componentType":5126,
			"count":24,
			"type":"VEC3"
		},
		{
			"bufferView":12,
			"componentType":5126,
			"count":24,
			"type":"VEC2"
		},
		{
			"bufferView":13,
			"componentType":5126,
			"count":24,
			"type":"VEC4"
		},
		{
			"bufferView":14,
			"componentType":5123,
			"count":36,
			"type":"SCALAR"
		},
		{
			"bufferView":15,
			"componentType":5126,
			"count":24,
			"max":[
				1,
				1,
				1
			],
			"min":[
				-1,
				-1,
				-1
			],
			"type":"VEC3"
		},
		{
			"bufferView":16,
			"componentType":5126,
			"count":24,
			"type":"VEC3"
		},
		{
			"bufferView":17,
			"componentType":5126,
			"count":24,
			"type":"VEC2"
		},
		{
			"bufferView":18,
			"componentType":5126,
			"count":24,
			"type":"VEC4"
		},
		{
			"bufferView":19,
			"componentType":5126,
			"count":24,
			"max":[
				1,
				1,
				1
			],
			"min":[
				-1,
				-1,
				-1
			],
			"type":"VEC3"
		},
		{
			"bufferView":20,
			"componentType":5126,
			"count":24,
			"type":"VEC3"
		},
		{
			"bufferView":21,
			"componentType":5126,
			"count":24,
			"type":"VEC2"
		},
		{
			"bufferView":22,
			"componentType":5126,
			"count":24,
			"type":"VEC4"
		},
		{
			"bufferView":23,
			"componentType":5126,
			"count":24,
			"max":[
				1,
				1,
				1
			],
			"min":[
				-1,
				-1,
				-1
			],
			"type":"VEC3"
		},
		{
			"bufferView":24,
			"componentType":5126,
			"count":24,
			"type":"VEC3"
		},
		{
			"bufferView":25,
			"componentType":5126,
			"count":24,
			"type":"VEC2"
		},
		{
			"bufferView":26,
			"componentType":5126,
			"count":24,
			"type":"VEC4"
		},
		{
			"bufferView":27,
			"componentType":5126,
			"count":24,
			"max":[
				1,
				1,
				1
			],
			"min":[
				-1,
				-1,
				-1
			],
			"type":"VEC3"
		},
		{
			"bufferView":28,
			"componentType":5126,
			"count":24,
			"type":"VEC3"
		},
		{
			"bufferView":29,
			"componentType":5126,
			"count":24,
			"type":"VEC2"
		},
		{
			"bufferView":30,
			"componentType":5126,
			"count":24,
			"type":"VEC4"
		},
		{
			"bufferView":31,
			"componentType":5126,
			"count":24,
			"max":[
				1,
				1,
				1
			],
			"min":[
				-1,
				-1,
				-1
			],
			"type":"VEC3"
		},
		{
			"bufferView":32,
			"componentType":5126,
			"count":24,
			"type":"VEC3"
		},
		{
			"bufferView":33,
			"componentType":5126,
			"count":24,
			"type":"VEC2"
		},
		{
			"bufferView":34,
			"componentType":5126,
			"count":24,
			"type":"VEC4"
		},
		{
			"bufferView":35,
			"componentType":5126,
			"count":24,
			"max":[
				1,
				1,
				1
			],
			"min":[
				-1,
				-1,
				-1
			],
			"type":"VEC3"
		},
		{
			"bufferView":36,
			"componentType":5126,
			"count":24,
			"type":"VEC3"
		},
		{
			"bufferView":37,
			"componentType":5126,
			"count":24,
			"type":"VEC2"
		},
		{
			"bufferView":38,
			"componentType":5126,
			"count":24,
			"type":"VEC4"
		},
		{
			"bufferView":39,
			"componentType":5126,
			"count":24,
			"max":[
				1,
				1,
				1
			],
			"min":[
				-1,
				-1,
				-1
			],
			"type":"VEC3"
		},
		{
			"bufferView":40,
			"componentType":5126,
			"count":24,
			"type":"VEC3"
		},
		{
			"bufferView":41,
			"componentType":5126,
			"count":24,
			"type":"VEC2"
		},
		{
			"bufferView":42,
			"componentType":5126,
			"count":24,
			"type":"VEC4"
		},
		{
			"bufferView":43,
			"componentType":5126,
			"count":1724,
			"max":[
				113.48943328857422,
				41.44962692260742,
				67.26532745361328
			],
			"min":[
				-17.449317932128906,
				-14.249882698059082,
				-30.524574279785156
			],
			"type":"VEC3"
		},
		{
			"bufferView":44,
			"componentType":5126,
			"count":1724,
			"type":"VEC3"
		},
		{
			"bufferView":45,
			"componentType":5123,
			"count":2736,
			"type":"SCALAR"
		},
		{
			"bufferView":46,
			"componentType":5126,
			"count":418,
			"max":[
				112,
				39.20000076293945,
				65.64575958251953
			],
			"min":[
				-15.600000381469727,
				-12,
				-29
			],
			"type":"VEC3"
		},
		{
			"bufferView":47,
			"componentType":5126,
			"count":418,
			"type":"VEC3"
		},
		{
			"bufferView":48,
			"componentType":5123,
			"count":684,
			"type":"SCALAR"
		}
	],
	"bufferViews":[
		{
			"buffer":0,
			"byteLength":23808,
			"byteOffset":0,
			"target":34962
		},
		{
			"buffer":0,
			"byteLength":23808,
			"byteOffset":23808,
			"target":34962
		},
		{
			"buffer":0,
			"byteLength":15872,
			"byteOffset":47616,
			"target":34962
		},
		{
			"buffer":0,
			"byteLength":31744,
			"byteOffset":63488,
			"target":34962
		},
		{
			"buffer":0,
			"byteLength":5760,
			"byteOffset":95232,
			"target":34963
		},
		{
			"buffer":0,
			"byteLength":23592,
			"byteOffset":100992,
			"target":34962
		},
		{
			"buffer":0,
			"byteLength":23592,
			"byteOffset":124584,
			"target":34962
		},
		{
			"buffer":0,
			"byteLength":15728,
			"byteOffset":148176,
			"target":34962
		},
		{
			"buffer":0,
			"byteLength":31456,
			"byteOffset":163904,
			"target":34962
		},
		{
			"buffer":0,
			"byteLength":5808,
			"byteOffset":195360,
			"target":34963
		},
		{
			"buffer":0,
			"byteLength":288,
			"byteOffset":201168,
			"target":34962
		},
		{
			"buffer":0,
			"byteLength":288,
			"byteOffset":201456,
			"target":34962
		},
		{
			"buffer":0,
			"byteLength":192,
			"byteOffset":201744,
			"target":34962
		},
		{
			"buffer":0,
			"byteLength":384,
			"byteOffset":201936,
			"target":34962
		},
		{
			"buffer":0,
			"byteLength":72,
			"byteOffset":202320,
			"target":34963
		},
		{
			"buffer":0,
			"byteLength":288,
			"byteOffset":202392,
			"target":34962
		},
		{
			"buffer":0,
			"byteLength":288,
			"byteOffset":202680,
			"target":34962
		},
		{
			"buffer":0,
			"byteLength":192,
			"byteOffset":202968,
			"target":34962
		},
		{
			"buffer":0,
			"byteLength":384,
			"byteOffset":203160,
			"target":34962
		},
		{
			"buffer":0,
			"byteLength":288,
			"byteOffset":203544,
			"target":34962
		},
		{
			"buffer":0,
			"byteLength":288,
			"byteOffset":203832,
			"target":34962
		},
		{
			"buffer":0,
			"byteLength":192,
			"byteOffset":204120,
			"target":34962
		},
		{
			"buffer":0,
			"byteLength":384,
			"byteOffset":204312,
			"target":34962
		},
		{
			"buffer":0,
			"byteLength":288,
			"byteOffset":204696,
			"target":34962
		},
		{
			"buffer":0,
			"byteLength":288,
			"byteOffset":204984,
			"target":34962
		},
		{
			"buffer":0,
			"byteLength":192,
			"byteOffset":205272,
			"target":34962
		},
		{
			"buffer":0,
			"byteLength":384,
			"byteOffset":205464,
			"target":34962
		},
		{
			"buffer":0,
			"byteLength":288,
			"byteOffset":205848,
			"target":34962
		},
		{
			"buffer":0,
			"byteLength":288,
			"byteOffset":206136,
			"target":34962
		},
		{
			"buffer":0,
			"byteLength":192,
			"byteOffset":206424,
			"target":34962
		},
		{
			"buffer":0,
			"byteLength":384,
			"byteOffset":206616,
			"target":34962
		},
		{
			"buffer":0,
			"byteLength":288,
			"byteOffset":207000,
			"target":34962
		},
		{
			"buffer":0,
			"byteLength":288,
			"byteOffset":207288,
			"target":34962
		},
		{
			"buffer":0,
			"byteLength":192,
			"byteOffset":207576,
			"target":34962
		},
		{
			"buffer":0,
			"byteLength":384,
			"byteOffset":207768,
			"target":34962
		},
		{
			"buffer":0,
			"byteLength":288,
			"byteOffset":208152,
			"target":34962
		},
		{
			"buffer":0,
			"byteLength":288,
			"byteOffset":208440,
			"target":34962
		},
		{
			"buffer":0,
			"byteLength":192,
			"byteOffset":208728,
			"target":34962
		},
		{
			"buffer":0,
			"byteLength":384,
			"byteOffset":208920,
			"target":34962
		},
		{
			"buffer":0,
			"byteLength":288,
			"byteOffset":209304,
			"target":34962
		},
		{
			"buffer":0,
			"byteLength":288,
			"byteOffset":209592,
			"target":34962
		},
		{
			"buffer":0,
			"byteLength":192,
			"byteOffset":209880,
			"target":34962
		},
		{
			"buffer":0,
			"byteLength":384,
			"byteOffset":210072,
			"target":34962
		},
		{
			"buffer":0,
			"byteLength":20688,
			"byteOffset":210456,
			"target":34962
		},
		{
			"buffer":0,
			"byteLength":20688,
			"byteOffset":231144,
			"target":34962
		},
		{
			"buffer":0,
			"byteLength":5472,
			"byteOffset":251832,
			"target":34963
		},
		{
			"buffer":0,
			"byteLength":5016,
			"byteOffset":257304,
			"target":34962
		},
		{
			"buffer":0,
			"byteLength":5016,
			"byteOffset":262320,
			"target":34962
		},
		{
			"buffer":0,
			"byteLength":1368,
			"byteOffset":267336,
			"target":34963
		}
	],
	"buffers":[
		{
			"byteLength":268704,
			"uri":"test_level-919cca7bd6104707d86c51c96e255742.bin"
		}
	]
}
