{
	"asset":{
		"generator":"Khronos glTF Blender I/O v4.1.63",
		"version":"2.0"
	},
	"scene":0,
	"scenes":[
		{
			"name":"Scene",
			"nodes":[
				0,
				1,
				2,
				3
			]
		}
	],
	"nodes":[
		{
			"mesh":0,
			"name":"Blockout"
		},
		{
			"mesh":1,
			"name":"Cube"
		},
		{
			"mesh":2,
			"name":"Terrain "
		},
		{
			"mesh":3,
			"name":"Walls",
			"translation":[
				-11.277779579162598,
				16.444446563720703,
				0.7222213745117188
			]
		}
	],
	"meshes":[
		{
			"name":"Cube.001",
			"primitives":[
				{
					"attributes":{
						"POSITION":0,
						"NORMAL":1
					},
					"indices":2
				}
			]
		},
		{
			"name":"Cube",
			"primitives":[
				{
					"attributes":{
						"POSITION":3,
						"NORMAL":4
					},
					"indices":5
				}
			]
		},
		{
			"name":"Cube.005",
			"primitives":[
				{
					"attributes":{
						"POSITION":6,
						"NORMAL":7
					},
					"indices":8
				}
			]
		},
		{
			"name":"Cube.003",
			"primitives":[
				{
					"attributes":{
						"POSITION":9,
						"NORMAL":10,
						"TEXCOORD_0":11,
						"TANGENT":12
					},
					"indices":13
				}
			]
		}
	],
	"accessors":[
		{
			"bufferView":0,
			"componentType":5126,
			"count":2009,
			"max":[
				70.27778625488281,
				20.22222137451172,
				19.166667938232422
			],
			"min":[
				-10.277779579162598,
				0.7777786254882812,
				-39.16666793823242
			],
			"type":"VEC3"
		},
		{
			"bufferView":1,
			"componentType":5126,
			"count":2009,
			"type":"VEC3"
		},
		{
			"bufferView":2,
			"componentType":5123,
			"count":8688,
			"type":"SCALAR"
		},
		{
			"bufferView":3,
			"componentType":5126,
			"count":5635,
			"max":[
				73.27778625488281,
				23.22222137451172,
				22.166667938232422
			],
			"min":[
				-13.277779579162598,
				-2.2222213745117188,
				-42.16666793823242
			],
			"type":"VEC3"
		},
		{
			"bufferView":4,
			"componentType":5126,
			"count":5635,
			"type":"VEC3"
		},
		{
			"bufferView":5,
			"componentType":5123,
			"count":17376,
			"type":"SCALAR"
		},
		{
			"bufferView":6,
			"componentType":5126,
			"count":25684,
			"max":[
				108.85499572753906,
				16.472959518432617,
				108.8550033569336
			],
			"min":[
				-108.85499572753906,
				-16.472959518432617,
				-108.8550033569336
			],
			"type":"VEC3"
		},
		{
			"bufferView":7,
			"componentType":5126,
			"count":25684,
			"type":"VEC3"
		},
		{
			"bufferView":8,
			"componentType":5123,
			"count":84672,
			"type":"SCALAR"
		},
		{
			"bufferView":9,
			"componentType":5126,
			"count":908,
			"max":[
				83.5555648803711,
				1,
				20.444446563720703
			],
			"min":[
				-1,
				-4.5555572509765625,
				-41.88888931274414
			],
			"type":"VEC3"
		},
		{
			"bufferView":10,
			"componentType":5126,
			"count":908,
			"type":"VEC3"
		},
		{
			"bufferView":11,
			"componentType":5126,
			"count":908,
			"type":"VEC2"
		},
		{
			"bufferView":12,
			"componentType":5126,
			"count":908,
			"type":"VEC4"
		},
		{
			"bufferView":13,
			"componentType":5123,
			"count":2460,
			"type":"SCALAR"
		}
	],
	"bufferViews":[
		{
			"buffer":0,
			"byteLength":24108,
			"byteOffset":0,
			"target":34962
		},
		{
			"buffer":0,
			"byteLength":24108,
			"byteOffset":24108,
			"target":34962
		},
		{
			"buffer":0,
			"byteLength":17376,
			"byteOffset":48216,
			"target":34963
		},
		{
			"buffer":0,
			"byteLength":67620,
			"byteOffset":65592,
			"target":34962
		},
		{
			"buffer":0,
			"byteLength":67620,
			"byteOffset":133212,
			"target":34962
		},
		{
			"buffer":0,
			"byteLength":34752,
			"byteOffset":200832,
			"target":34963
		},
		{
			"buffer":0,
			"byteLength":308208,
			"byteOffset":235584,
			"target":34962
		},
		{
			"buffer":0,
			"byteLength":308208,
			"byteOffset":543792,
			"target":34962
		},
		{
			"buffer":0,
			"byteLength":169344,
			"byteOffset":852000,
			"target":34963
		},
		{
			"buffer":0,
			"byteLength":10896,
			"byteOffset":1021344,
			"target":34962
		},
		{
			"buffer":0,
			"byteLength":10896,
			"byteOffset":1032240,
			"target":34962
		},
		{
			"buffer":0,
			"byteLength":7264,
			"byteOffset":1043136,
			"target":34962
		},
		{
			"buffer":0,
			"byteLength":14528,
			"byteOffset":1050400,
			"target":34962
		},
		{
			"buffer":0,
			"byteLength":4920,
			"byteOffset":1064928,
			"target":34963
		}
	],
	"buffers":[
		{
			"byteLength":1069848,
			"uri":"trial_level-a158feeca0bae6602ab8b1338e4e3cfb.bin"
		}
	]
}
