{
	"asset":{
		"generator":"Khronos glTF Blender I/O v4.1.63",
		"version":"2.0"
	},
	"extensionsUsed":[
		"KHR_materials_emissive_strength",
		"KHR_lights_punctual"
	],
	"extensionsRequired":[
		"KHR_lights_punctual"
	],
	"extensions":{
		"KHR_lights_punctual":{
			"lights":[
				{
					"color":[
						0.5,
						0.5,
						0.5
					],
					"intensity":543.5141306588226,
					"spot":{
						"innerConeAngle":0.9642944149108885,
						"outerConeAngle":1.1344640254974365
					},
					"type":"spot",
					"name":"Spot.001"
				},
				{
					"color":[
						0.5,
						0.5,
						0.5
					],
					"intensity":543.5141306588226,
					"spot":{
						"innerConeAngle":0.9642944149108885,
						"outerConeAngle":1.1344640254974365
					},
					"type":"spot",
					"name":"Spot"
				},
				{
					"color":[
						0.08872482925653458,
						0.08872482925653458,
						0.08872482925653458
					],
					"intensity":54.35141306588226,
					"type":"point",
					"name":"Point"
				}
			]
		}
	},
	"scene":0,
	"scenes":[
		{
			"name":"Scene",
			"nodes":[
				0,
				1,
				2,
				3
			]
		}
	],
	"nodes":[
		{
			"mesh":0,
			"name":"Wall",
			"translation":[
				0,
				64.70747375488281,
				0
			]
		},
		{
			"extensions":{
				"KHR_lights_punctual":{
					"light":0
				}
			},
			"name":"Spot.001",
			"rotation":[
				-0.21854794025421143,
				0.9093537330627441,
				0.16318434476852417,
				0.3141392171382904
			],
			"translation":[
				-6.191017150878906,
				62.80418395996094,
				3.470496892929077
			]
		},
		{
			"extensions":{
				"KHR_lights_punctual":{
					"light":1
				}
			},
			"name":"Spot",
			"rotation":[
				-0.21854794025421143,
				-0.9093537330627441,
				-0.16318440437316895,
				0.31413915753364563
			],
			"translation":[
				6.591499328613281,
				62.80419921875,
				3.4704973697662354
			]
		},
		{
			"extensions":{
				"KHR_lights_punctual":{
					"light":2
				}
			},
			"name":"Point",
			"rotation":[
				-0.7071068286895752,
				0,
				0,
				0.7071068286895752
			],
			"translation":[
				0.46079254150390625,
				67.90026092529297,
				8.480571746826172
			]
		}
	],
	"materials":[
		{
			"alphaMode":"BLEND",
			"doubleSided":true,
			"name":"Material.001",
			"pbrMetallicRoughness":{
				"baseColorFactor":[
					0.800000011920929,
					0.800000011920929,
					0.800000011920929,
					1
				],
				"metallicFactor":0,
				"roughnessFactor":0.5
			}
		},
		{
			"alphaMode":"BLEND",
			"doubleSided":true,
			"emissiveFactor":[
				1,
				1,
				1
			],
			"extensions":{
				"KHR_materials_emissive_strength":{
					"emissiveStrength":50
				}
			},
			"name":"Light",
			"pbrMetallicRoughness":{
				"baseColorFactor":[
					0.800000011920929,
					0.800000011920929,
					0.800000011920929,
					1
				],
				"metallicFactor":0,
				"roughnessFactor":0.5
			}
		}
	],
	"meshes":[
		{
			"name":"Cube.001",
			"primitives":[
				{
					"attributes":{
						"POSITION":0,
						"NORMAL":1,
						"TEXCOORD_0":2
					},
					"indices":3,
					"material":0
				},
				{
					"attributes":{
						"POSITION":4,
						"NORMAL":5,
						"TEXCOORD_0":6
					},
					"indices":7,
					"material":1
				}
			]
		}
	],
	"accessors":[
		{
			"bufferView":0,
			"componentType":5126,
			"count":652,
			"max":[
				593.6539306640625,
				19.815641403198242,
				6.900017261505127
			],
			"min":[
				-595.0846557617188,
				-77.30719757080078,
				-43.85081481933594
			],
			"type":"VEC3"
		},
		{
			"bufferView":1,
			"componentType":5126,
			"count":652,
			"type":"VEC3"
		},
		{
			"bufferView":2,
			"componentType":5126,
			"count":652,
			"type":"VEC2"
		},
		{
			"bufferView":3,
			"componentType":5123,
			"count":1128,
			"type":"SCALAR"
		},
		{
			"bufferView":4,
			"componentType":5126,
			"count":64,
			"max":[
				7.027812480926514,
				-0.46563929319381714,
				4.064457416534424
			],
			"min":[
				-6.908585071563721,
				-2.6872541904449463,
				1.5513615608215332
			],
			"type":"VEC3"
		},
		{
			"bufferView":5,
			"componentType":5126,
			"count":64,
			"type":"VEC3"
		},
		{
			"bufferView":6,
			"componentType":5126,
			"count":64,
			"type":"VEC2"
		},
		{
			"bufferView":7,
			"componentType":5123,
			"count":180,
			"type":"SCALAR"
		}
	],
	"bufferViews":[
		{
			"buffer":0,
			"byteLength":7824,
			"byteOffset":0,
			"target":34962
		},
		{
			"buffer":0,
			"byteLength":7824,
			"byteOffset":7824,
			"target":34962
		},
		{
			"buffer":0,
			"byteLength":5216,
			"byteOffset":15648,
			"target":34962
		},
		{
			"buffer":0,
			"byteLength":2256,
			"byteOffset":20864,
			"target":34963
		},
		{
			"buffer":0,
			"byteLength":768,
			"byteOffset":23120,
			"target":34962
		},
		{
			"buffer":0,
			"byteLength":768,
			"byteOffset":23888,
			"target":34962
		},
		{
			"buffer":0,
			"byteLength":512,
			"byteOffset":24656,
			"target":34962
		},
		{
			"buffer":0,
			"byteLength":360,
			"byteOffset":25168,
			"target":34963
		}
	],
	"buffers":[
		{
			"byteLength":25528,
			"uri":"wall-8717fd7357858f28b2f129be90b76f6a.bin"
		}
	]
}
